<?xml version="1.0" encoding="UTF-8"?>
<svg id="Layer_1" data-name="Layer 1" xmlns="http://www.w3.org/2000/svg" xmlns:xlink="http://www.w3.org/1999/xlink" viewBox="0 0 235.88 187.95">
  <defs>
    <style>
      .cls-1 {
        font-size: 21px;
      }

      .cls-1, .cls-2 {
        font-family: FreestyleScript-Regular, 'Freestyle Script';
      }

      .cls-1, .cls-2, .cls-3 {
        fill: #4d4d4d;
      }

      .cls-2 {
        font-size: 15px;
      }

      .cls-4 {
        filter: url(#drop-shadow-11);
        stroke-width: 3px;
      }

      .cls-4, .cls-5, .cls-6, .cls-7 {
        stroke-miterlimit: 10;
      }

      .cls-4, .cls-5, .cls-7 {
        stroke: #4d4d4d;
      }

      .cls-4, .cls-6, .cls-7 {
        fill: none;
      }

      .cls-5 {
        fill: #999;
      }

      .cls-6 {
        stroke: #ccc;
        stroke-dasharray: 5;
      }

      .cls-6, .cls-7 {
        stroke-linecap: round;
      }
    </style>
    <filter id="drop-shadow-11" x="28.82" y="103.27" width="193" height="34" filterUnits="userSpaceOnUse">
      <feOffset dx="7" dy="7"/>
      <feGaussianBlur result="blur" stdDeviation="5"/>
      <feFlood flood-color="#000" flood-opacity=".07"/>
      <feComposite in2="blur" operator="in"/>
      <feComposite in="SourceGraphic"/>
    </filter>
  </defs>
  <text class="cls-2" transform="translate(29.75 138.21)"><tspan x="0" y="0">42</tspan></text>
  <text class="cls-2" transform="translate(83.96 138.21)"><tspan x="0" y="0">43</tspan></text>
  <text class="cls-2" transform="translate(138.17 138.21)"><tspan x="0" y="0">44</tspan></text>
  <text class="cls-2" transform="translate(192.39 138.21)"><tspan x="0" y="0">45</tspan></text>
  <line class="cls-4" x1="36.95" y1="113.68" x2="199.59" y2="113.68"/>
  <text class="cls-1" transform="translate(23.21 38.83) rotate(-7.89)"><tspan x="0" y="0">impulse moments</tspan></text>
  <g>
    <path class="cls-7" d="M47.98,42.78c-9.3,9.3-1.18,13.27-10.69,30.99"/>
    <path class="cls-3" d="M36.59,68.79c.16-.02.31.11.33.27l.42,4.57,3.96-2.32c.14-.08.33-.04.41.11.08.14.03.33-.11.41l-4.37,2.55c-.09.05-.2.05-.29,0s-.15-.14-.16-.24l-.47-5.04c0-.06,0-.12.03-.16.05-.09.13-.15.24-.16Z"/>
  </g>
  <line class="cls-6" x1="36.95" y1="78.12" x2="36.95" y2="113.68"/>
  <line class="cls-6" x1="91.16" y1="78.12" x2="91.16" y2="113.68"/>
  <line class="cls-6" x1="145.37" y1="78.12" x2="145.37" y2="113.68"/>
  <line class="cls-6" x1="199.59" y1="78.12" x2="199.59" y2="113.68"/>
  <circle class="cls-5" cx="36.95" cy="113.68" r="7.2"/>
  <circle class="cls-5" cx="91.16" cy="113.68" r="7.2"/>
  <circle class="cls-5" cx="145.37" cy="113.68" r="7.2"/>
  <circle class="cls-5" cx="199.59" cy="113.68" r="7.2"/>
  <g>
    <path class="cls-7" d="M75.65,41.46c1.11,10.96,18.78,14.96,15.64,32.98"/>
    <path class="cls-3" d="M88.96,69.99c.15-.07.33,0,.4.15l1.92,4.17,2.97-3.5c.11-.13.3-.14.42-.04.13.11.14.3.04.42l-3.27,3.86c-.07.08-.17.12-.27.1-.1-.01-.19-.08-.23-.17l-2.12-4.6c-.02-.05-.03-.11-.02-.17.01-.1.08-.19.17-.23Z"/>
  </g>
  <g>
    <path class="cls-7" d="M195.44,80.43c-8.86-1.46-25.38,5.9-45.95,1.29"/>
    <path class="cls-3" d="M191.81,76.99c-.11.12-.1.31.03.42l3.45,3.02-4.2,1.85c-.15.07-.22.24-.15.4s.25.22.4.15l4.63-2.04c.09-.04.16-.13.18-.23.02-.1-.02-.2-.1-.27l-3.81-3.33s-.1-.06-.15-.07c-.1-.01-.2.02-.27.1Z"/>
    <path class="cls-3" d="M154.08,79.69c.06.15-.02.33-.17.39l-4.28,1.65,3.31,3.18c.12.12.12.31,0,.42s-.31.12-.42,0l-3.64-3.51c-.07-.07-.11-.18-.09-.28.02-.1.09-.18.19-.22l4.72-1.82c.06-.02.11-.02.17-.01.1.02.18.09.22.19Z"/>
  </g>
  <text class="cls-1" transform="translate(164.16 62.72) rotate(-16.01)"><tspan x="0" y="0">frequency</tspan></text>
  <text class="cls-1" transform="translate(38.38 170.96) rotate(-7.89)"><tspan x="0" y="0">beats</tspan></text>
  <text class="cls-1" transform="translate(115.31 165.71)"><tspan x="0" y="0">time</tspan></text>
  <g>
    <path class="cls-7" d="M141.19,160.21c10.97-1.12,22.95,3.52,42.79,1.75"/>
    <path class="cls-3" d="M180.07,165.06c-.1-.13-.07-.32.07-.42l3.71-2.7-4.01-2.22c-.14-.08-.2-.26-.12-.41s.26-.2.41-.12l4.43,2.45c.09.05.15.14.15.24,0,.1-.04.2-.12.26l-4.09,2.97s-.1.05-.16.06c-.1,0-.2-.04-.26-.12Z"/>
  </g>
  <g>
    <path class="cls-7" d="M66.46,158.5c7.64-6.2,19.39-1.34,21.65-15.4"/>
    <path class="cls-3" d="M90.15,147.66c-.15.06-.33-.01-.39-.17l-1.71-4.26-3.14,3.35c-.11.12-.3.13-.42.01-.12-.11-.13-.3-.01-.42l3.46-3.69c.07-.07.17-.11.27-.09s.18.09.22.18l1.88,4.7c.02.05.03.11.02.17-.02.1-.08.18-.18.22Z"/>
  </g>
  <g>
    <path class="cls-7" d="M34.55,163.46c-7.15-4.83-8.14-12.6-3.75-20.45"/>
    <path class="cls-3" d="M31.36,148c-.17.01-.31-.12-.32-.28l-.29-4.58-4.03,2.2c-.15.08-.33.03-.41-.12-.08-.15-.02-.33.12-.41l4.44-2.42c.09-.05.2-.05.29,0s.15.14.15.24l.32,5.05c0,.06-.01.12-.04.16-.05.09-.14.15-.24.15Z"/>
  </g>
  <text class="cls-1" transform="translate(174.12 74.4) rotate(-12.68)"><tspan x="0" y="0">period</tspan></text>
</svg>