<?xml version="1.0" encoding="UTF-8"?><svg id="Layer_1" xmlns="http://www.w3.org/2000/svg" viewBox="0 0 100 100"><defs><style>.cls-1{fill:#999;}.cls-1,.cls-2{stroke:#4d4d4d;stroke-miterlimit:10;}.cls-3{fill:#4d4d4d;}.cls-2{fill:none;stroke-linecap:round;}</style></defs><circle class="cls-1" cx="40.26" cy="26.31" r="7.2"/><path class="cls-3" d="M34.18,66.78c.12-.02.22.01.3.09.06.07.1.14.11.21.02.12-.05.34-.21.65-.55,1.19-.93,2.15-1.13,2.9-.22.77-.4,1.55-.53,2.35-.06.35-.21.55-.44.58-.14.02-.25-.02-.35-.12-.09-.08-.14-.17-.15-.27-.03-.2.09-.91.37-2.12.21-.95.62-2.03,1.23-3.23.19-.39.34-.66.45-.8.1-.15.22-.23.35-.25ZM35.58,62.74c.3-.04.48.09.52.4.04.28-.07.62-.32,1.01-.24.37-.49.57-.75.61-.13.02-.24-.02-.33-.1-.09-.08-.15-.18-.17-.31-.04-.32.09-.7.39-1.11.23-.31.45-.48.66-.5Z"/><path class="cls-3" d="M36.38,69.22c.49-.67.92-1.21,1.31-1.61.59-.6.99-.91,1.21-.94.11-.02.21.01.3.08.08.06.13.14.15.23.02.13-.07.35-.27.68-.3.51-.5.94-.6,1.28,1.37-1.81,2.34-2.76,2.92-2.84.12-.02.23,0,.33.07.11.07.17.16.18.29.03.19-.09.45-.34.79-1.1,1.5-1.59,2.67-1.47,3.52.05.35.14.58.29.72l.31.3c.06.05.1.13.11.22.02.11-.01.22-.09.32-.09.12-.19.19-.32.21-.22.03-.45-.08-.68-.34-.28-.31-.45-.69-.51-1.15-.08-.62,0-1.26.27-1.94.09-.24.25-.57.49-.98-.52.51-1.02,1.19-1.51,2.03-.33.57-.62,1.2-.86,1.88-.11.33-.28.5-.49.53-.23.03-.36-.08-.4-.34-.04-.28.07-.88.33-1.79.15-.52.34-1.08.58-1.68-1.03,1.05-1.74,2.39-2.11,4-.09.36-.26.55-.5.59-.11.02-.2-.01-.28-.08-.09-.07-.14-.16-.15-.28-.06-.4.07-1.15.37-2.26.31-1.17.7-2.23,1.17-3.2.32-.67.59-1.02.82-1.06.2-.03.32.07.35.28.01.09-.08.35-.28.76-.34.77-.56,1.34-.65,1.71Z"/><path class="cls-3" d="M44.66,66.03c.25-.21.44-.37.57-.45.26-.17.52-.28.79-.32.3-.04.53.01.71.17.17.15.28.4.33.75.07.47-.02,1.07-.26,1.78-.37,1.12-.88,2.03-1.53,2.74-.55.59-1.09.93-1.63,1-.3.04-.61-.03-.93-.22-.67,2-1.23,4.03-1.69,6.08-.09.49-.24.75-.45.78-.1.01-.21-.04-.33-.16-.09-.08-.14-.18-.16-.3-.05-.37.23-1.62.85-3.75.95-3.29,1.91-6.05,2.86-8.27.2-.47.33-.79.39-.97.18-.47.38-.72.6-.76.23-.03.36.09.4.37.02.16-.03.38-.16.66-.15.37-.27.66-.35.88ZM42.96,70.56c.17.14.37.19.59.16.63-.09,1.25-.74,1.86-1.97.23-.45.4-.91.5-1.36.09-.36.12-.63.09-.81-.02-.12-.06-.21-.12-.26-.07-.05-.16-.07-.28-.05-.32.04-.68.32-1.08.82-.38.49-.72,1.15-1.02,1.97-.27.76-.46,1.26-.55,1.5Z"/><path class="cls-3" d="M50.59,69.12c-.23.45-.45.81-.64,1.08-.33.49-.69.76-1.08.81-.33.05-.61-.07-.83-.34-.16-.19-.26-.43-.3-.72-.12-.87.11-1.93.7-3.16.27-.58.56-1.03.86-1.35.23-.26.43-.4.6-.43.09-.01.19.02.28.08.08.07.12.14.13.21.02.13-.08.36-.29.68-.47.75-.81,1.42-1.02,2.03-.25.7-.34,1.24-.29,1.61.01.09.04.17.1.21.05.04.12.06.2.05.35-.05.76-.61,1.24-1.68.25-.56.44-1.17.59-1.82.08-.35.19-.68.35-.97.16-.26.33-.41.51-.43.1-.01.2.02.29.09.1.08.16.18.18.3.03.24-.12.82-.47,1.74-.24.63-.33,1.15-.27,1.54.06.42.22.76.48,1.03.07.07.28.18.61.31.16.07.26.2.28.4.02.12-.02.23-.11.34-.09.1-.21.16-.36.19-.34.05-.67-.05-.98-.28-.28-.21-.49-.54-.62-.99-.02-.06-.06-.23-.12-.52Z"/><path class="cls-3" d="M54.57,66.71c-.13.56-.22,1-.28,1.34s-.08.57-.06.7c.02.17.12.24.28.22.24-.03.53-.31.85-.82.15-.25.37-.69.65-1.32.11-.25.24-.39.4-.41.18-.02.28.05.3.22.04.29-.21.93-.76,1.91-.57,1.02-1.15,1.58-1.75,1.66-.26.04-.48-.04-.67-.24-.14-.14-.22-.32-.25-.54-.05-.38-.01-.92.13-1.62.14-.7.37-1.57.69-2.59.83-2.61,1.74-4.78,2.73-6.54.79-1.41,1.51-2.15,2.14-2.24.2-.03.38.03.53.17.16.14.25.31.28.51.13.95-.5,2.64-1.88,5.09-.62,1.09-1.39,2.19-2.31,3.32-.24.3-.57.69-.99,1.19ZM55.07,65c1.24-1.4,2.29-3.1,3.15-5.09.44-1.03.64-1.71.6-2.02-.02-.15-.1-.21-.22-.2-.37.05-.95.89-1.72,2.51-.64,1.33-1.24,2.93-1.8,4.8Z"/><path class="cls-3" d="M61.57,62.31c.42-.06.74-.03.97.09.23.12.37.33.41.64.06.4-.04.81-.29,1.22-.24.39-.62.74-1.16,1.03-.3.16-.55.25-.76.28-.28.04-.44-.07-.48-.32-.02-.17.04-.31.19-.42.04-.03.26-.12.67-.27.24-.09.46-.24.64-.45.16-.18.23-.36.2-.55-.02-.14-.07-.24-.17-.3-.09-.06-.22-.07-.38-.05-.39.05-.8.27-1.23.66-.5.43-.71.9-.65,1.39.05.35.29.77.72,1.25.48.52.75.98.8,1.38.08.6-.12,1.1-.6,1.51-.3.25-.65.41-1.06.47-.65.09-1.18-.07-1.58-.5-.28-.3-.46-.68-.52-1.13-.07-.53,0-.99.22-1.39.14-.26.31-.41.5-.43.17-.02.26.03.28.17,0,.05-.01.14-.06.26-.12.31-.15.67-.09,1.06.05.33.2.6.47.79.24.17.49.24.76.2.26-.04.46-.15.58-.35.1-.17.14-.36.1-.59-.04-.28-.25-.63-.64-1.04-.53-.56-.83-1.1-.91-1.6-.09-.68.19-1.33.86-1.95.65-.6,1.37-.96,2.17-1.07Z"/><path class="cls-3" d="M63.66,66.91l.03.18c.02.15.08.27.17.37.2.23.5.31.88.26.85-.12,1.74-.9,2.67-2.36.17-.25.32-.39.45-.4.08-.01.15.02.22.08.05.05.08.1.08.14.04.26-.23.76-.79,1.48-.44.56-.93,1.04-1.46,1.43s-1.05.62-1.54.69c-.51.07-.93-.05-1.27-.36-.23-.22-.37-.53-.43-.95-.16-1.14.22-2.34,1.15-3.59.75-1.01,1.45-1.57,2.1-1.66.18-.02.34,0,.5.1.2.12.31.29.34.52.05.36-.06.82-.32,1.39-.53,1.18-1.46,2.07-2.78,2.67ZM63.77,66.08c.45-.23.8-.46,1.04-.7.42-.43.74-.9.96-1.4.08-.18.11-.33.09-.46-.02-.14-.09-.19-.22-.18-.18.02-.41.19-.7.5-.52.55-.91,1.29-1.17,2.23Z"/><path class="cls-2" d="M48.29,60.67c-4.47-15.03,19.95-18.92,3.05-30.01"/><path class="cls-3" d="M56.34,30.71c0,.17-.15.29-.31.29l-4.58-.22,1.74,4.25c.06.15-.01.33-.16.39-.15.06-.33-.01-.39-.16l-1.92-4.68c-.04-.09-.03-.2.03-.29s.16-.13.26-.13l5.06.24c.06,0,.11.02.16.05.08.06.13.15.13.26Z"/></svg>