<?xml version="1.0" encoding="UTF-8"?>
<svg id="Layer_1" data-name="Layer 1" xmlns="http://www.w3.org/2000/svg" xmlns:xlink="http://www.w3.org/1999/xlink" viewBox="0 0 407.27 194.26">
  <defs>
    <style>
      .cls-1, .cls-2, .cls-3, .cls-4, .cls-5 {
        fill: none;
      }

      .cls-6 {
        filter: url(#drop-shadow-4);
      }

      .cls-7 {
        font-size: 27px;
      }

      .cls-7, .cls-8, .cls-9 {
        font-family: FreestyleScript-Regular, 'Freestyle Script';
      }

      .cls-7, .cls-8, .cls-9, .cls-10, .cls-11 {
        fill: #4d4d4d;
      }

      .cls-8 {
        font-size: 21px;
      }

      .cls-9 {
        font-size: 15px;
      }

      .cls-12 {
        fill: gray;
      }

      .cls-10 {
        font-size: 11px;
      }

      .cls-13, .cls-2, .cls-3, .cls-4, .cls-5 {
        stroke-miterlimit: 10;
      }

      .cls-13, .cls-2, .cls-3, .cls-5 {
        stroke: #4d4d4d;
      }

      .cls-13, .cls-14 {
        fill: #999;
      }

      .cls-15 {
        fill: #ccc;
      }

      .cls-3 {
        filter: url(#drop-shadow-3);
        stroke-width: 3px;
      }

      .cls-4 {
        stroke: #ccc;
        stroke-dasharray: 5;
      }

      .cls-4, .cls-5 {
        stroke-linecap: round;
      }

      .cls-16 {
        clip-path: url(#clippath);
      }
    </style>
    <symbol id="Executing" viewBox="0 0 138.88 24.31">
      <g>
        <g>
          <rect class="cls-14" x=".5" y=".5" width="137.88" height="23.31" rx="3" ry="3"/>
          <rect class="cls-2" x=".5" y=".5" width="137.88" height="23.31" rx="3" ry="3"/>
        </g>
        <polygon class="cls-12" points="42.94 2.41 33.48 2.41 14.28 21.85 23.74 21.85 42.94 2.41"/>
        <polygon class="cls-12" points="61.01 2.41 51.55 2.41 32.35 21.85 41.81 21.85 61.01 2.41"/>
        <polygon class="cls-12" points="79.08 2.41 69.62 2.41 50.42 21.85 59.88 21.85 79.08 2.41"/>
        <polygon class="cls-12" points="97.15 2.41 87.69 2.41 68.49 21.85 77.95 21.85 97.15 2.41"/>
        <polygon class="cls-12" points="115.22 2.41 105.76 2.41 86.56 21.85 96.02 21.85 115.22 2.41"/>
        <polygon class="cls-12" points="133.29 2.41 123.83 2.41 104.63 21.85 114.09 21.85 133.29 2.41"/>
        <path class="cls-12" d="M24.87,2.41h-9.46L1.94,16.05v3.61c0,.96.55,1.78,1.34,2.2h2.39L24.87,2.41Z"/>
        <polygon class="cls-12" points="122.7 21.85 132.16 21.85 136.94 17.01 136.94 7.43 122.7 21.85"/>
        <path class="cls-12" d="M6.8,2.41h-3.43c-.84.4-1.42,1.25-1.42,2.25v2.67L6.8,2.41Z"/>
      </g>
    </symbol>
    <filter id="drop-shadow-3" x="35" y="114.24" width="356" height="34" filterUnits="userSpaceOnUse">
      <feOffset dx="7" dy="7"/>
      <feGaussianBlur result="blur" stdDeviation="5"/>
      <feFlood flood-color="#000" flood-opacity=".07"/>
      <feComposite in2="blur" operator="in"/>
      <feComposite in="SourceGraphic"/>
    </filter>
    <filter id="drop-shadow-4" x="156" y="59.24" width="147" height="55" filterUnits="userSpaceOnUse">
      <feOffset dx="2" dy="2"/>
      <feGaussianBlur result="blur-2" stdDeviation="5"/>
      <feFlood flood-color="#000" flood-opacity=".11"/>
      <feComposite in2="blur-2" operator="in"/>
      <feComposite in="SourceGraphic"/>
    </filter>
    <clipPath id="clippath">
      <rect class="cls-1" x="200.87" y="52.63" width="132.85" height="61.46"/>
    </clipPath>
  </defs>
  <text class="cls-9" transform="translate(35.97 149.16)"><tspan x="0" y="0">42</tspan></text>
  <text class="cls-9" transform="translate(90.18 149.16)"><tspan x="0" y="0">43</tspan></text>
  <text class="cls-9" transform="translate(144.4 149.16)"><tspan x="0" y="0">44</tspan></text>
  <text class="cls-9" transform="translate(198.61 149.16)"><tspan x="0" y="0">45</tspan></text>
  <line class="cls-3" x1="43.17" y1="124.64" x2="368.47" y2="124.64"/>
  <line class="cls-4" x1="43.17" y1="62.99" x2="43.17" y2="124.64"/>
  <line class="cls-4" x1="97.38" y1="62.99" x2="97.38" y2="124.64"/>
  <line class="cls-4" x1="151.6" y1="62.99" x2="151.6" y2="124.64"/>
  <line class="cls-4" x1="205.81" y1="62.99" x2="205.81" y2="124.64"/>
  <circle class="cls-13" cx="43.17" cy="124.64" r="7.2"/>
  <circle class="cls-13" cx="97.38" cy="124.64" r="7.2"/>
  <circle class="cls-13" cx="151.6" cy="124.64" r="7.2"/>
  <circle class="cls-13" cx="205.81" cy="124.64" r="7.2"/>
  <path class="cls-15" d="M382.66,102.7c.28,0,.5-.22.5-.5s-.22-.5-.5-.5H24.61c-.28,0-.5.22-.5.5s.22.5.5.5h358.05"/>
  <path class="cls-15" d="M382.66,70.72c.28,0,.5-.22.5-.5s-.22-.5-.5-.5H24.61c-.28,0-.5.22-.5.5s.22.5.5.5h358.05"/>
  <text class="cls-9" transform="translate(252.85 149.16)"><tspan x="0" y="0">46</tspan></text>
  <text class="cls-9" transform="translate(307.06 149.16)"><tspan x="0" y="0">47</tspan></text>
  <text class="cls-9" transform="translate(361.27 149.16)"><tspan x="0" y="0">48</tspan></text>
  <line class="cls-4" x1="260.05" y1="62.99" x2="260.05" y2="124.64"/>
  <line class="cls-4" x1="314.26" y1="62.99" x2="314.26" y2="124.64"/>
  <line class="cls-4" x1="368.47" y1="62.99" x2="368.47" y2="124.64"/>
  <circle class="cls-13" cx="260.05" cy="124.64" r="7.2"/>
  <circle class="cls-13" cx="314.26" cy="124.64" r="7.2"/>
  <circle class="cls-13" cx="368.47" cy="124.64" r="7.2"/>
  <g>
    <text class="cls-8" transform="translate(168.62 173.07)"><tspan x="0" y="0">time</tspan></text>
    <g>
      <path class="cls-5" d="M194.46,168.42c10.98-1.12,21.92-3.06,43.47-2.71"/>
      <path class="cls-11" d="M233.85,168.64c-.09-.14-.05-.32.09-.41l3.86-2.49-3.89-2.44c-.14-.09-.18-.27-.09-.41s.27-.18.41-.09l4.29,2.69c.09.05.14.15.14.25s-.05.2-.14.25l-4.25,2.74s-.11.05-.16.05c-.1,0-.2-.05-.25-.14Z"/>
    </g>
  </g>
  <g>
    <rect class="cls-14" x="50.37" y="76.81" width="114.72" height="23.31" rx="3" ry="3"/>
    <path class="cls-11" d="M165.59,97.62c0,1.65-1.35,3-3,3H52.87c-1.65,0-3-1.35-3-3v-18.31c0-1.65,1.35-3,3-3h109.72c1.65,0,3,1.35,3,3v18.31ZM50.87,96.62c0,1.65,1.35,3,3,3h107.72c1.65,0,3-1.35,3-3v-16.31c0-1.65-1.35-3-3-3H53.87c-1.65,0-3,1.35-3,3v16.31Z"/>
    <g>
      <rect class="cls-11" x="77.8" y="87.58" width="87.29" height="1"/>
      <polygon class="cls-11" points="79.79 86.38 78.1 88.08 79.79 89.77 78.35 89.77 76.66 88.08 78.35 86.38 79.79 86.38"/>
    </g>
    <text class="cls-10" transform="translate(58.74 92.43)"><tspan x="0" y="0">42</tspan></text>
  </g>
  <g>
    <rect class="cls-14" x="105.08" y="74.73" width="114.72" height="23.31" rx="3" ry="3"/>
    <path class="cls-11" d="M220.3,95.54c0,1.65-1.35,3-3,3h-109.72c-1.65,0-3-1.35-3-3v-18.31c0-1.65,1.35-3,3-3h109.72c1.65,0,3,1.35,3,3v18.31ZM105.58,94.54c0,1.65,1.35,3,3,3h107.72c1.65,0,3-1.35,3-3v-16.31c0-1.65-1.35-3-3-3h-107.72c-1.65,0-3,1.35-3,3v16.31Z"/>
    <g>
      <rect class="cls-11" x="132.51" y="85.5" width="87.29" height="1"/>
      <polygon class="cls-11" points="134.5 84.3 132.81 86 134.5 87.69 133.06 87.69 131.37 86 133.06 84.3 134.5 84.3"/>
    </g>
    <text class="cls-10" transform="translate(113.45 90.34)"><tspan x="0" y="0">43</tspan></text>
  </g>
  <g class="cls-6">
    <g>
      <rect class="cls-14" x="169.83" y="72.87" width="114.72" height="23.31" rx="3" ry="3"/>
      <path class="cls-11" d="M285.05,93.68c0,1.65-1.35,3-3,3h-109.72c-1.65,0-3-1.35-3-3v-18.31c0-1.65,1.35-3,3-3h109.72c1.65,0,3,1.35,3,3v18.31ZM170.33,92.68c0,1.65,1.35,3,3,3h107.72c1.65,0,3-1.35,3-3v-16.31c0-1.65-1.35-3-3-3h-107.72c-1.65,0-3,1.35-3,3v16.31Z"/>
      <g>
        <rect class="cls-11" x="197.25" y="83.64" width="87.29" height="1"/>
        <polygon class="cls-11" points="199.25 82.45 197.55 84.14 199.25 85.84 197.81 85.84 196.11 84.14 197.81 82.45 199.25 82.45"/>
      </g>
      <text class="cls-10" transform="translate(178.19 88.49)"><tspan x="0" y="0">44</tspan></text>
    </g>
  </g>
  <g class="cls-16">
    <use width="138.88" height="24.31" transform="translate(213.01 76.31)" xlink:href="#Executing"/>
    <use width="138.88" height="24.31" transform="translate(267.91 74.34)" xlink:href="#Executing"/>
    <use width="138.88" height="24.31" transform="translate(319.16 72.49)" xlink:href="#Executing"/>
  </g>
  <path class="cls-11" d="M341.97,45.39h-16.5l7.75,6.52v99.86c0,.28.22.5.5.5s.5-.22.5-.5V51.91l7.75-6.52Z"/>
  <text class="cls-7" transform="translate(33.06 33.24) rotate(1.84)"><tspan x="0" y="0">“ stimulative activation”</tspan></text>
</svg>