<?xml version="1.0" encoding="UTF-8"?><svg id="Layer_1" xmlns="http://www.w3.org/2000/svg" xmlns:xlink="http://www.w3.org/1999/xlink" viewBox="0 0 291.11 195.57"><defs><style>.cls-1,.cls-2,.cls-3,.cls-4,.cls-5{fill:none;}.cls-6{fill:gray;}.cls-7,.cls-2,.cls-3,.cls-4,.cls-5{stroke-miterlimit:10;}.cls-7,.cls-2,.cls-3,.cls-5{stroke:#4d4d4d;}.cls-7,.cls-8{fill:#999;}.cls-9{fill:#4d4d4d;}.cls-10{fill:#ccc;}.cls-3{filter:url(#drop-shadow-1);stroke-width:3px;}.cls-4{stroke:#ccc;stroke-dasharray:5;}.cls-4,.cls-5{stroke-linecap:round;}.cls-11{clip-path:url(#clippath);}</style><symbol id="Executing" viewBox="0 0 138.88 24.31"><rect class="cls-8" x=".5" y=".5" width="137.88" height="23.31" rx="3" ry="3"/><rect class="cls-2" x=".5" y=".5" width="137.88" height="23.31" rx="3" ry="3"/><polygon class="cls-6" points="42.94 2.41 33.48 2.41 14.28 21.85 23.74 21.85 42.94 2.41"/><polygon class="cls-6" points="61.01 2.41 51.55 2.41 32.35 21.85 41.81 21.85 61.01 2.41"/><polygon class="cls-6" points="79.08 2.41 69.62 2.41 50.42 21.85 59.88 21.85 79.08 2.41"/><polygon class="cls-6" points="97.15 2.41 87.69 2.41 68.49 21.85 77.95 21.85 97.15 2.41"/><polygon class="cls-6" points="115.22 2.41 105.76 2.41 86.56 21.85 96.02 21.85 115.22 2.41"/><polygon class="cls-6" points="133.29 2.41 123.83 2.41 104.63 21.85 114.09 21.85 133.29 2.41"/><path class="cls-6" d="M24.87,2.41h-9.46L1.94,16.05v3.61c0,.96.55,1.78,1.34,2.2h2.39L24.87,2.41Z"/><polygon class="cls-6" points="122.7 21.85 132.16 21.85 136.94 17.01 136.94 7.43 122.7 21.85"/><path class="cls-6" d="M6.8,2.41h-3.43c-.84.4-1.42,1.25-1.42,2.25v2.67L6.8,2.41Z"/></symbol><filter id="drop-shadow-1" x="94.95" y="99.89" width="193" height="34" filterUnits="userSpaceOnUse"><feOffset dx="7" dy="7"/><feGaussianBlur result="blur" stdDeviation="5"/><feFlood flood-color="#000" flood-opacity=".07"/><feComposite in2="blur" operator="in"/><feComposite in="SourceGraphic"/></filter><clipPath id="clippath"><rect class="cls-1" x="98.02" y="37.86" width="132.85" height="61.46"/></clipPath></defs><path class="cls-9" d="M98.95,130.99c-.05.12-.2.43-.43.92-.39.93-.62,1.54-.7,1.83-.04.16-.1.28-.16.34-.06.06-.15.1-.26.1s-.22-.04-.29-.13c-.07-.08-.1-.17-.1-.27,0-.37.33-1.25.98-2.67-.71.08-1.27.2-1.68.37-.13.05-.24.08-.32.08-.2,0-.29-.15-.29-.46,0-.18.07-.36.21-.53.27-.32.73-.8,1.38-1.44.8-.79,1.53-1.43,2.18-1.92.56-.42.97-.64,1.22-.64.11,0,.21.05.31.14.07.08.11.16.11.26,0,.12-.07.3-.22.54-.02.04-.19.31-.48.78-.38.61-.73,1.25-1.05,1.92.34-.02.57-.03.68-.03.29,0,.43.11.43.32,0,.19-.08.33-.23.41-.07.03-.28.05-.62.05-.1,0-.31,0-.64.02ZM98.39,130.32c.53-1.04,1.04-1.9,1.52-2.6-.51.29-1.13.79-1.85,1.49-.52.52-.94.97-1.26,1.35.71-.15,1.24-.23,1.6-.25Z"/><path class="cls-9" d="M101,133.24c.82-.26,1.57-.39,2.26-.39.27,0,.49.06.65.17.15.1.22.22.22.36,0,.09-.03.18-.1.25s-.15.11-.23.11c-.03,0-.07,0-.13-.02-.25-.07-.48-.1-.69-.1-.18,0-.4.02-.67.05-.09.01-.43.1-1.02.26-.53.14-.84.21-.94.21-.14,0-.26-.07-.36-.2-.09-.12-.14-.25-.14-.38,0-.15.13-.34.38-.59.48-.47.94-.89,1.38-1.27.42-.35.94-.76,1.56-1.22.71-.52,1.2-.9,1.46-1.14.4-.35.6-.7.6-1.05,0-.2-.06-.35-.19-.46-.11-.1-.25-.15-.42-.15-.44,0-.96.25-1.55.74-.27.22-.44.34-.51.34-.05,0-.1-.03-.17-.09-.07-.06-.1-.13-.1-.21,0-.18.21-.42.64-.75.68-.52,1.34-.78,1.96-.78.36,0,.65.11.89.34.23.22.34.49.34.8,0,.55-.28,1.09-.83,1.63-.24.23-.68.59-1.32,1.05-1.54,1.12-2.53,1.95-2.97,2.48Z"/><path class="cls-9" d="M153.16,130.99c-.05.12-.2.43-.43.92-.39.93-.62,1.54-.7,1.83-.04.16-.1.28-.16.34-.06.06-.15.1-.26.1s-.22-.04-.29-.13c-.07-.08-.1-.17-.1-.27,0-.37.33-1.25.98-2.67-.71.08-1.27.2-1.68.37-.13.05-.24.08-.32.08-.2,0-.29-.15-.29-.46,0-.18.07-.36.21-.53.27-.32.74-.8,1.38-1.44.8-.79,1.53-1.43,2.17-1.92.56-.42.97-.64,1.22-.64.11,0,.21.05.31.14.07.08.11.16.11.26,0,.12-.07.3-.22.54-.02.04-.19.31-.48.78-.38.61-.73,1.25-1.05,1.92.34-.02.57-.03.68-.03.29,0,.43.11.43.32,0,.19-.08.33-.23.41-.07.03-.28.05-.62.05-.1,0-.31,0-.64.02ZM152.6,130.32c.53-1.04,1.04-1.9,1.52-2.6-.51.29-1.13.79-1.85,1.49-.52.52-.94.97-1.26,1.35.71-.15,1.24-.23,1.6-.25Z"/><path class="cls-9" d="M158.5,129.65c.24.1.42.22.52.34.15.18.23.43.23.75,0,.8-.33,1.56-1,2.29s-1.36,1.1-2.07,1.1c-.43,0-.79-.18-1.06-.54-.2-.26-.29-.55-.29-.86,0-.52.2-.78.6-.78.24,0,.36.09.36.27,0,.04,0,.09-.01.15-.01.08-.02.17-.02.25,0,.23.06.41.17.53.13.13.28.2.45.2.42,0,.86-.29,1.34-.87.45-.56.68-1.09.68-1.59,0-.25-.06-.45-.18-.6-.13-.16-.32-.23-.55-.23-.09,0-.19.01-.28.04-.11.03-.2.05-.26.05-.14,0-.21-.1-.21-.29,0-.17.06-.3.17-.41.06-.06.2-.12.4-.18.41-.1.75-.24,1.03-.42.18-.12.32-.27.43-.47.05-.1.08-.21.08-.32,0-.14-.04-.25-.11-.31-.08-.07-.19-.1-.35-.1-.26,0-.54.07-.82.21-.07.03-.25.13-.52.3-.07.05-.15.07-.24.07-.17,0-.25-.09-.25-.27,0-.16.12-.33.37-.51.57-.41,1.13-.61,1.68-.61.33,0,.6.1.83.3.24.21.36.47.36.77,0,.4-.17.77-.51,1.11-.19.2-.5.4-.95.62Z"/><path class="cls-9" d="M207.38,130.99c-.05.12-.2.43-.43.92-.39.93-.62,1.54-.7,1.83-.04.16-.1.28-.16.34-.06.06-.15.1-.26.1s-.22-.04-.29-.13c-.07-.08-.1-.17-.1-.27,0-.37.33-1.25.98-2.67-.71.08-1.27.2-1.68.37-.13.05-.24.08-.32.08-.2,0-.29-.15-.29-.46,0-.18.07-.36.21-.53.27-.32.74-.8,1.38-1.44.8-.79,1.53-1.43,2.17-1.92.56-.42.97-.64,1.22-.64.11,0,.21.05.31.14.07.08.11.16.11.26,0,.12-.07.3-.22.54-.02.04-.19.31-.48.78-.38.61-.73,1.25-1.05,1.92.34-.02.57-.03.68-.03.29,0,.43.11.43.32,0,.19-.08.33-.23.41-.07.03-.28.05-.62.05-.1,0-.31,0-.64.02ZM206.81,130.32c.53-1.04,1.04-1.9,1.52-2.6-.51.29-1.13.79-1.85,1.49-.52.52-.94.97-1.26,1.35.71-.15,1.24-.23,1.6-.25Z"/><path class="cls-9" d="M212.5,130.99c-.05.12-.2.43-.43.92-.39.93-.62,1.54-.7,1.83-.04.16-.1.28-.16.34-.06.06-.15.1-.26.1s-.22-.04-.29-.13c-.07-.08-.1-.17-.1-.27,0-.37.33-1.25.98-2.67-.71.08-1.27.2-1.68.37-.13.05-.24.08-.32.08-.2,0-.29-.15-.29-.46,0-.18.07-.36.21-.53.27-.32.74-.8,1.38-1.44.8-.79,1.53-1.43,2.17-1.92.56-.42.97-.64,1.22-.64.11,0,.21.05.31.14.07.08.11.16.11.26,0,.12-.07.3-.22.54-.02.04-.19.31-.48.78-.38.61-.73,1.25-1.05,1.92.34-.02.57-.03.68-.03.29,0,.43.11.43.32,0,.19-.08.33-.23.41-.07.03-.28.05-.62.05-.1,0-.31,0-.64.02ZM211.94,130.32c.53-1.04,1.04-1.9,1.52-2.6-.51.29-1.13.79-1.85,1.49-.52.52-.94.97-1.26,1.35.71-.15,1.24-.23,1.6-.25Z"/><path class="cls-9" d="M261.59,130.99c-.05.12-.2.43-.43.92-.39.93-.62,1.54-.7,1.83-.04.16-.1.28-.16.34-.06.06-.15.1-.26.1s-.22-.04-.29-.13c-.07-.08-.1-.17-.1-.27,0-.37.33-1.25.98-2.67-.71.08-1.27.2-1.68.37-.13.05-.24.08-.32.08-.2,0-.29-.15-.29-.46,0-.18.07-.36.21-.53.27-.32.74-.8,1.38-1.44.8-.79,1.53-1.43,2.17-1.92.56-.42.97-.64,1.22-.64.11,0,.21.05.31.14.07.08.11.16.11.26,0,.12-.07.3-.22.54-.02.04-.19.31-.48.78-.38.61-.73,1.25-1.05,1.92.34-.02.57-.03.68-.03.29,0,.43.11.43.32,0,.19-.08.33-.23.41-.07.03-.28.05-.62.05-.1,0-.31,0-.64.02ZM261.02,130.32c.53-1.04,1.04-1.9,1.52-2.6-.51.29-1.13.79-1.85,1.49-.52.52-.94.97-1.26,1.35.71-.15,1.24-.23,1.6-.25Z"/><path class="cls-9" d="M266.91,127.71c-.83.72-1.36,1.33-1.59,1.85.48-.2.9-.29,1.24-.29.4,0,.71.12.93.35.21.22.31.51.31.86,0,.81-.38,1.62-1.15,2.44-.76.82-1.5,1.22-2.23,1.22-.42,0-.75-.2-.98-.59-.15-.26-.23-.56-.23-.89s.07-.61.22-.83c.12-.18.28-.27.47-.27.18,0,.26.07.26.2,0,.03-.01.09-.04.17-.05.14-.07.33-.07.57,0,.21.05.39.15.55.13.22.31.33.53.33.44,0,.9-.28,1.38-.83.53-.61.79-1.21.79-1.81,0-.25-.06-.44-.17-.56-.11-.12-.28-.19-.51-.19s-.5.06-.82.18c-.07.02-.25.11-.54.26-.06.03-.11.05-.16.05-.09,0-.19-.06-.28-.18-.1-.13-.15-.25-.15-.36,0-.21.21-.59.64-1.16.27-.37.6-.74,1-1.11-.11-.15-.16-.26-.16-.34,0-.11.08-.19.23-.24.07-.02.35-.07.83-.13.54-.07.98-.11,1.32-.11s.55.02.7.07c.18.05.26.17.26.35,0,.22-.11.34-.34.34-.05,0-.15,0-.29-.01-.05,0-.1,0-.17,0-.23,0-.46.01-.69.03-.23.02-.45.05-.68.1Z"/><line class="cls-3" x1="102.99" y1="109.87" x2="265.62" y2="109.87"/><line class="cls-4" x1="102.99" y1="48.22" x2="102.99" y2="109.87"/><line class="cls-4" x1="157.2" y1="48.22" x2="157.2" y2="109.87"/><line class="cls-4" x1="211.41" y1="48.22" x2="211.41" y2="109.87"/><line class="cls-4" x1="265.62" y1="48.22" x2="265.62" y2="109.87"/><circle class="cls-7" cx="102.99" cy="109.87" r="7.2"/><circle class="cls-7" cx="157.2" cy="109.87" r="7.2"/><circle class="cls-7" cx="211.41" cy="109.87" r="7.2"/><circle class="cls-7" cx="265.62" cy="109.87" r="7.2"/><path class="cls-9" d="M115.29,155.67c-.44.69-.85,1.46-1.23,2.32-.54,1.22-.81,2.13-.81,2.73,0,.17.04.3.11.39.07.09.18.13.32.13.34,0,.76-.32,1.24-.96.31-.4.58-.79.82-1.19.13-.23.27-.34.42-.34.09,0,.16.03.23.09.05.06.08.12.08.18,0,.25-.33.82-.99,1.69-.79,1.05-1.52,1.58-2.17,1.58-.35,0-.64-.16-.87-.48-.14-.21-.21-.5-.21-.87,0-.83.24-1.79.72-2.89.12-.27.44-.93.96-1.98-.18.05-.33.07-.42.07-.14,0-.27-.03-.38-.1-.15-.1-.23-.22-.23-.36,0-.17.1-.31.3-.41.05-.03.31-.07.76-.13.16-.03.4-.09.72-.19.24-.43.63-1.02,1.17-1.75.3-.41.51-.68.63-.8.16-.17.31-.26.43-.26.09,0,.18.05.27.14.08.09.12.18.12.27,0,.18-.19.53-.57,1.06-.25.34-.44.62-.56.83.76-.21,1.3-.31,1.63-.31.38,0,.56.16.56.47,0,.16-.06.27-.19.35-.07.04-.25.08-.53.1-.12,0-.63.12-1.55.39-.25.08-.5.15-.75.24Z"/><path class="cls-9" d="M119.35,156.13c.12,0,.21.04.29.13.05.08.08.15.08.23,0,.12-.1.33-.3.62-.71,1.1-1.22,2.01-1.52,2.72-.32.73-.6,1.48-.85,2.26-.11.34-.28.51-.51.51-.14,0-.25-.05-.33-.16-.08-.09-.11-.18-.11-.29,0-.21.22-.89.66-2.05.34-.92.9-1.93,1.66-3.04.25-.36.43-.6.55-.73.12-.13.25-.19.38-.19ZM121.3,152.33c.31,0,.46.16.46.47,0,.29-.15.6-.45.95-.29.33-.56.5-.83.5-.13,0-.24-.05-.32-.14-.08-.09-.12-.2-.12-.33,0-.33.18-.68.54-1.05.27-.27.51-.41.72-.41Z"/><path class="cls-9" d="M121.19,158.86c.57-.6,1.08-1.07,1.52-1.42.66-.51,1.11-.77,1.33-.77.11,0,.21.04.29.12.08.08.11.16.11.25,0,.13-.12.34-.36.64-.37.46-.63.86-.77,1.19,1.6-1.61,2.69-2.41,3.28-2.41.12,0,.23.04.32.11.1.08.14.18.14.31,0,.19-.15.44-.44.74-1.29,1.33-1.94,2.43-1.94,3.28,0,.35.06.6.18.75l.27.34c.05.06.08.14.08.24,0,.11-.04.21-.13.31-.1.11-.22.16-.35.16-.23,0-.43-.14-.62-.43-.23-.34-.35-.75-.35-1.21,0-.62.18-1.25.53-1.89.12-.23.33-.53.62-.9-.58.44-1.17,1.04-1.77,1.8-.41.52-.78,1.1-1.11,1.74-.16.31-.34.46-.55.46-.23,0-.35-.13-.35-.39,0-.28.19-.86.57-1.73.22-.5.49-1.03.81-1.58-1.17.9-2.05,2.13-2.64,3.67-.14.34-.33.51-.57.51-.11,0-.2-.04-.27-.12-.08-.08-.11-.18-.11-.3,0-.4.23-1.13.68-2.18.47-1.11,1-2.12,1.6-3,.41-.62.73-.93.95-.93.21,0,.31.11.31.33,0,.1-.13.33-.38.72-.44.72-.74,1.25-.88,1.6Z"/><path class="cls-9" d="M127.68,160.31v.18c0,.15.04.28.11.39.17.25.45.38.84.38.85,0,1.84-.66,2.96-1.97.2-.23.37-.34.5-.34.08,0,.14.04.21.11.04.05.06.11.06.15,0,.27-.33.72-.98,1.35-.51.5-1.06.91-1.64,1.22s-1.12.47-1.62.47-.92-.18-1.21-.53c-.2-.25-.3-.58-.3-1,0-1.16.54-2.29,1.63-3.39.88-.9,1.65-1.35,2.31-1.35.18,0,.34.05.48.16.18.14.27.33.27.56,0,.36-.17.81-.5,1.33-.69,1.09-1.73,1.85-3.12,2.27ZM127.91,159.51c.48-.16.85-.35,1.13-.55.48-.37.86-.79,1.14-1.25.1-.16.15-.31.15-.44,0-.14-.06-.21-.19-.21-.18,0-.43.13-.76.4-.59.47-1.08,1.16-1.47,2.05Z"/><path class="cls-5" d="M137.02,157.58c10.97-1.12,22.95-.62,42.79-2.49"/><path class="cls-9" d="M175.95,158.25c-.1-.13-.07-.32.06-.42l3.67-2.76-4.05-2.16c-.15-.08-.2-.26-.12-.41.08-.15.26-.2.41-.12l4.47,2.38c.09.05.15.14.16.24,0,.1-.04.2-.12.26l-4.05,3.04s-.1.05-.16.06c-.1,0-.2-.03-.26-.12Z"/><path class="cls-10" d="M279.81,87.93c.28,0,.5-.22.5-.5s-.22-.5-.5-.5H84.43c-.28,0-.5.22-.5.5s.22.5.5.5h195.39"/><path class="cls-10" d="M279.81,59.95c.28,0,.5-.22.5-.5s-.22-.5-.5-.5H84.43c-.28,0-.5.22-.5.5s.22.5.5.5h195.39"/><path class="cls-9" d="M153.91,22.76c-.28.36-.55.65-.81.89-.51.46-.97.66-1.39.59-.37-.06-.62-.27-.77-.65-.09-.24-.12-.52-.07-.82.12-.75.48-1.54,1.09-2.37.68-.92,1.44-1.6,2.26-2.03.54-.28,1.04-.38,1.49-.31.28.04.51.17.67.37.14.18.19.37.16.56-.02.15-.11.35-.27.59.08.16.11.29.09.4-.02.14-.15.36-.39.66-.25.3-.51.71-.79,1.23-.3.55-.48,1-.53,1.35-.04.28,0,.53.15.74.04.05.17.15.38.3.16.11.22.26.19.46-.02.13-.08.23-.19.29-.11.07-.24.1-.38.08-.36-.06-.65-.27-.87-.63-.17-.3-.23-.64-.17-1.04.02-.13.07-.36.14-.66ZM155.69,19.63c-.06-.16-.13-.29-.21-.37-.08-.09-.18-.14-.29-.15-.51-.08-1.14.28-1.88,1.09-.82.89-1.28,1.68-1.38,2.37-.03.17-.01.3.04.4.05.1.14.16.27.18.32.05.76-.24,1.29-.86.3-.34.69-.85,1.16-1.53.31-.44.53-.73.66-.87.07-.07.18-.16.34-.25Z"/><path class="cls-9" d="M160.69,19.09c.53.08.76.4.67.96-.08.49-.34.96-.81,1.4-.36.33-.64.48-.87.45-.19-.03-.27-.15-.23-.37.02-.12.06-.2.12-.26.03-.02.12-.09.28-.2.14-.1.29-.25.45-.46.11-.14.17-.26.19-.35.02-.11-.04-.17-.16-.19-.14-.02-.38.06-.7.23-.51.29-1.06.78-1.64,1.47-.6.72-.93,1.32-1,1.77-.02.15,0,.29.07.42.1.2.26.31.48.34.43.07.97-.12,1.63-.56.56-.38,1.05-.76,1.46-1.17.21-.22.39-.32.51-.3.07.01.14.06.19.13.04.08.06.15.05.21-.04.25-.43.69-1.19,1.31-1.2.98-2.21,1.4-3.04,1.27-.5-.08-.85-.32-1.06-.71-.15-.29-.2-.62-.14-.98.11-.7.53-1.47,1.25-2.31.7-.8,1.46-1.41,2.28-1.84.48-.24.88-.34,1.21-.29Z"/><path class="cls-9" d="M166.44,19.73c-.54.61-1.07,1.31-1.57,2.1-.72,1.12-1.12,1.98-1.22,2.57-.03.17-.01.3.05.4.06.1.16.16.3.18.34.05.8-.2,1.37-.76.37-.34.7-.7.99-1.05.16-.2.32-.29.47-.27.09.01.16.06.21.13.04.07.06.13.05.19-.04.25-.45.76-1.24,1.52-.94.92-1.74,1.33-2.39,1.23-.34-.05-.61-.26-.79-.61-.11-.22-.14-.52-.08-.89.13-.82.51-1.73,1.15-2.75.16-.25.58-.86,1.25-1.81-.19.02-.33.02-.43,0-.14-.02-.26-.08-.36-.16-.13-.12-.19-.25-.17-.39.03-.17.15-.29.36-.36.06-.02.32-.02.77-.02.17,0,.41-.03.74-.08.3-.39.78-.91,1.42-1.55.36-.36.61-.59.74-.69.19-.14.34-.21.46-.19.09.01.17.07.24.18.07.1.09.2.08.28-.03.18-.27.49-.73.96-.3.3-.53.54-.68.73.78-.09,1.33-.11,1.66-.05.37.06.53.24.49.55-.02.16-.11.26-.25.31-.07.03-.25.04-.54.02-.11-.02-.64.03-1.59.15-.26.04-.52.08-.78.12Z"/><path class="cls-9" d="M170.38,20.81c.12.02.2.08.26.17.04.08.06.16.05.24-.02.12-.15.31-.39.56-.87.98-1.51,1.8-1.92,2.45-.43.67-.82,1.37-1.19,2.1-.16.32-.36.46-.58.43-.13-.02-.23-.09-.3-.21-.06-.1-.08-.2-.07-.3.03-.2.35-.84.96-1.93.48-.85,1.18-1.77,2.1-2.75.3-.32.52-.53.66-.63.14-.11.28-.15.4-.13ZM172.89,17.34c.3.05.43.23.38.54-.04.28-.24.58-.59.87-.33.29-.63.41-.9.37-.13-.02-.23-.08-.29-.19-.07-.1-.09-.21-.07-.34.05-.32.28-.64.7-.95.31-.23.56-.33.77-.3Z"/><path class="cls-9" d="M173.69,24.7c-.52.65-.96,1.12-1.31,1.42-.85.74-1.52,1.07-2,1-.29-.04-.49-.24-.59-.58-.08-.23-.1-.45-.06-.68.07-.45.36-1.06.88-1.85.46-.68.84-1.22,1.14-1.61.22-.28.36-.46.41-.55.11-.17.2-.3.28-.38.11-.13.24-.18.4-.16.08.01.15.06.2.13.06.09.07.19.06.3-.05.3-.43.94-1.14,1.91-.71.96-1.09,1.6-1.14,1.94-.03.22.04.34.2.36.29.04.76-.27,1.41-.94.29-.3.6-.69.94-1.17.02-.17.04-.3.05-.39.08-.51.24-.93.49-1.27.32-.44.68-.63,1.09-.57.24.04.33.2.29.48-.07.45-.41,1.08-1.02,1.89.13.05.24.08.32.09.22.04.54-.06.94-.29.32-.19.52-.27.61-.26.07.01.15.07.21.17.05.08.07.16.06.24-.04.24-.25.49-.63.74-.45.28-.92.39-1.42.31-.2-.03-.41-.12-.65-.28Z"/><path class="cls-9" d="M178.51,26.56c-.28.36-.55.65-.81.89-.51.46-.97.66-1.39.59-.36-.06-.62-.27-.77-.65-.09-.24-.12-.52-.07-.82.12-.75.48-1.54,1.09-2.37.68-.93,1.44-1.6,2.26-2.03.54-.28,1.04-.38,1.49-.31.28.04.51.17.67.37.14.18.19.37.16.57-.02.15-.11.34-.27.59.08.16.11.29.09.4-.02.14-.15.36-.39.66-.25.3-.51.71-.79,1.23-.3.55-.48,1-.53,1.35-.04.28,0,.53.14.74.04.05.17.15.38.3.16.11.22.26.19.46-.02.13-.08.23-.19.29-.12.07-.24.1-.38.08-.37-.06-.65-.27-.87-.63-.18-.3-.23-.64-.17-1.04.02-.14.07-.36.14-.66ZM180.29,23.43c-.06-.16-.13-.29-.21-.37-.08-.09-.18-.14-.29-.15-.51-.08-1.14.28-1.88,1.09-.82.89-1.28,1.68-1.38,2.37-.03.17-.01.3.04.4.05.1.14.16.27.18.32.05.76-.24,1.29-.86.3-.34.69-.85,1.16-1.53.31-.44.53-.73.67-.87.07-.07.18-.16.34-.25Z"/><path class="cls-9" d="M185.36,22.65c-.54.61-1.07,1.32-1.57,2.1-.72,1.12-1.13,1.98-1.22,2.57-.03.17-.01.3.05.4.06.1.16.16.3.18.34.05.8-.2,1.37-.76.36-.34.7-.69.99-1.05.16-.2.32-.29.47-.27.09.01.16.06.21.13.04.07.06.13.05.19-.04.25-.45.76-1.24,1.52-.94.92-1.74,1.33-2.39,1.23-.34-.05-.61-.26-.79-.61-.11-.22-.14-.52-.08-.89.13-.82.51-1.73,1.15-2.75.16-.25.57-.86,1.25-1.81-.19.02-.33.02-.43,0-.14-.02-.26-.08-.36-.16-.13-.12-.19-.25-.17-.39.03-.17.14-.29.36-.36.06-.02.32-.02.77-.02.17,0,.41-.03.74-.08.3-.39.78-.91,1.42-1.55.36-.36.61-.59.74-.69.19-.14.34-.21.46-.19.09.01.17.07.24.18.07.1.09.19.08.28-.03.18-.27.49-.73.96-.3.3-.53.54-.68.73.78-.09,1.33-.11,1.66-.05.37.06.53.24.49.55-.02.15-.11.26-.25.31-.07.03-.25.04-.54.02-.11-.02-.64.03-1.59.15-.26.04-.52.08-.78.12Z"/><path class="cls-9" d="M189.3,23.73c.11.02.2.08.26.18.04.08.06.16.05.24-.02.12-.15.31-.39.56-.87.98-1.51,1.8-1.92,2.45-.43.67-.82,1.37-1.19,2.1-.16.32-.36.46-.58.43-.14-.02-.24-.09-.3-.21-.06-.1-.08-.2-.07-.3.03-.2.35-.84.96-1.93.48-.85,1.18-1.77,2.11-2.75.3-.32.52-.53.66-.63.14-.11.28-.15.41-.13ZM191.81,20.27c.3.05.43.23.38.54-.04.28-.24.58-.59.87-.34.29-.63.41-.9.37-.13-.02-.23-.08-.29-.19-.07-.1-.09-.21-.07-.34.05-.32.28-.64.7-.95.31-.23.56-.33.77-.3Z"/><path class="cls-9" d="M193.37,23.88c.55.09.78.47.67,1.14-.14.9-.73,1.97-1.77,3.22-1.14,1.35-2.13,1.96-2.97,1.83-.39-.06-.65-.29-.78-.68-.07-.2-.08-.42-.04-.68.13-.87.58-1.76,1.33-2.68.7-.85,1.46-1.48,2.29-1.89.49-.24.91-.33,1.27-.27ZM191.72,27.55c-.15-.16-.22-.28-.21-.35,0-.05.14-.19.39-.4.71-.59,1.1-1.09,1.17-1.51,0-.05,0-.11-.03-.17-.04-.11-.11-.17-.23-.19-.22-.03-.57.13-1.05.48-.62.46-1.12.95-1.49,1.48-.43.6-.68,1.12-.75,1.56-.02.11,0,.22.04.32.07.13.17.21.31.23.32.05.71-.14,1.16-.57.19-.18.36-.37.49-.57.13-.2.2-.3.19-.31Z"/><path class="cls-9" d="M195.67,27.37c.1-.07.2-.14.29-.2,1.62-1.16,2.68-1.7,3.16-1.63.26.04.37.21.33.5-.03.2-.19.42-.47.66-1.52,1.31-2.37,2.54-2.55,3.68-.06.37-.01.74.14,1.11.07.17.1.3.08.39-.01.08-.07.15-.16.21-.1.08-.21.11-.34.09-.28-.04-.48-.25-.62-.64-.13-.36-.16-.77-.09-1.25.14-.91.64-1.87,1.5-2.87-1.01.45-2.02,1.35-3.05,2.73-.26.33-.5.47-.73.44-.12-.02-.2-.07-.26-.17-.08-.11-.11-.24-.09-.39.06-.37.62-1.26,1.69-2.68.58-.77,1.02-1.32,1.34-1.66.31-.33.56-.48.75-.46.09.01.17.07.23.16.08.11.11.22.09.35-.02.15-.15.35-.39.59-.35.37-.63.71-.86,1.02Z"/><path class="cls-5" d="M54.43,79.12c7.91-8.04,11.72-2.73,24.84-4.96"/><path class="cls-9" d="M75.57,77.52c-.11-.13-.09-.32.04-.42l3.52-2.95-4.16-1.94c-.15-.07-.22-.25-.14-.4.07-.15.25-.21.4-.14l4.58,2.14c.09.04.16.13.17.23s-.03.2-.1.27l-3.88,3.25s-.1.06-.15.07c-.1.01-.2-.02-.27-.1Z"/><path class="cls-5" d="M170.07,30.62c-4.9,11.57,1.29,8.83-2.14,26.68"/><path class="cls-9" d="M165.7,52.79c.15-.07.33,0,.39.16l1.82,4.21,3.05-3.43c.11-.12.3-.14.42-.03s.13.3.03.42l-3.36,3.79c-.07.08-.17.11-.27.1-.1-.02-.19-.08-.23-.18l-2.01-4.64c-.02-.05-.03-.11-.02-.17.02-.1.08-.19.18-.23Z"/><path class="cls-9" d="M215.21,176.74c.07-.09.14-.19.21-.28,1.18-1.61,2.01-2.46,2.49-2.53.26-.04.42.08.47.37.03.2-.04.46-.23.78-1.04,1.72-1.46,3.15-1.27,4.3.06.37.22.71.48,1.01.12.14.19.25.2.34.01.08-.01.17-.08.25-.07.11-.17.17-.29.19-.28.05-.54-.09-.79-.41-.24-.3-.39-.69-.47-1.16-.15-.91.03-1.98.53-3.2-.82.74-1.5,1.92-2.04,3.54-.14.39-.33.61-.56.64-.12.02-.22,0-.3-.07-.11-.08-.18-.19-.2-.34-.06-.36.2-1.39.77-3.07.31-.91.56-1.58.75-2,.19-.41.38-.64.57-.67.09-.01.18.01.27.08.11.08.18.18.2.3.03.15-.04.38-.19.69-.21.46-.38.87-.5,1.24Z"/><path class="cls-9" d="M222.07,172.46c.55-.09.88.2,1,.87.15.9-.08,2.1-.68,3.62-.66,1.64-1.41,2.53-2.25,2.67-.39.06-.71-.07-.95-.4-.12-.17-.21-.38-.25-.63-.14-.86,0-1.85.42-2.96.4-1.03.93-1.87,1.59-2.51.39-.38.76-.59,1.12-.65ZM221.65,176.46c-.19-.11-.29-.2-.31-.27,0-.05.07-.22.25-.5.49-.78.71-1.38.64-1.8,0-.05-.04-.1-.08-.15-.07-.09-.16-.13-.28-.11-.22.04-.5.3-.85.79-.45.63-.77,1.25-.96,1.87-.22.71-.3,1.28-.22,1.71.02.11.07.21.14.29.11.11.23.15.36.13.32-.05.63-.35.92-.9.13-.23.23-.46.29-.69.07-.23.09-.35.09-.36Z"/><path class="cls-9" d="M227.11,175.43c-.45.88-.79,1.49-1.02,1.83-.28.43-.53.76-.75,1-.25.26-.49.4-.74.44-.24.04-.44-.05-.61-.26-.13-.17-.22-.36-.25-.58-.12-.74.15-1.82.81-3.25.6-1.3,1.09-1.98,1.48-2.04.09-.02.19.01.29.09.09.07.15.16.17.26.02.15-.07.38-.29.68-.47.65-.85,1.35-1.15,2.11-.25.65-.36,1.07-.33,1.25.02.13.09.19.21.17.41-.07,1.14-1.09,2.19-3.07.34-.64.56-1.01.64-1.11.15-.19.31-.3.5-.33.12-.02.23,0,.33.05.09.06.13.12.15.19.01.08-.09.45-.32,1.1-.52,1.42-.74,2.35-.67,2.8.03.18.11.25.26.23.24-.04.53-.38.86-1.01.32-.59.58-1.32.79-2.19.09-.38.14-.86.16-1.45.03-.68.24-1.05.65-1.12.23-.04.37.07.41.33.15.88-.14,2.18-.87,3.89-.76,1.78-1.49,2.73-2.19,2.85-.52.09-.83-.19-.94-.83-.09-.53-.02-1.2.21-2.03Z"/><path class="cls-5" d="M219.87,170.24c-1.03-12.82,9.05-9.5,10.74-27.87"/><path class="cls-9" d="M232.99,146.77c-.15.07-.33.01-.4-.14l-2.01-4.12-2.89,3.57c-.1.13-.29.15-.42.04-.13-.1-.15-.29-.04-.42l3.18-3.94c.06-.08.17-.12.27-.11s.19.07.24.17l2.22,4.55c.03.05.03.11.03.17-.01.1-.07.19-.17.24Z"/><path class="cls-9" d="M24.6,91.87c-.24.79-.42,1.64-.54,2.57-.18,1.32-.19,2.27-.03,2.85.05.16.12.28.21.34s.21.08.35.04c.33-.09.64-.52.93-1.27.19-.47.34-.92.46-1.37.06-.25.17-.4.31-.44.09-.02.17-.02.24.03.07.04.11.1.13.15.07.24-.09.88-.49,1.9-.47,1.23-1.02,1.94-1.65,2.12-.33.1-.66.02-.97-.22-.2-.16-.34-.42-.45-.78-.23-.79-.26-1.79-.11-2.98.04-.29.16-1.02.38-2.17-.16.1-.29.16-.38.19-.14.04-.27.04-.39,0-.17-.05-.28-.15-.32-.28-.05-.16.01-.32.17-.48.04-.04.28-.15.69-.34.15-.07.36-.2.64-.39.11-.48.33-1.15.64-2.01.18-.48.3-.79.38-.94.11-.21.22-.33.34-.37.09-.02.18,0,.3.06.1.06.17.14.19.22.05.17-.04.56-.26,1.17-.15.4-.25.72-.31.95.67-.41,1.17-.66,1.48-.75.36-.1.58,0,.67.3.04.15.01.28-.09.39-.05.06-.22.14-.48.25-.11.03-.57.29-1.38.8-.22.14-.44.29-.65.43Z"/><path class="cls-9" d="M28.61,94.08c.45-.88,1-1.76,1.65-2.66.23-.32.49-.64.78-.94.14-.15.24-.23.28-.24.1-.03.22.02.36.13.08.06.13.12.15.19.03.12-.04.31-.24.59-.52.72-.74,1.22-.66,1.49.04.15.15.2.32.15.28-.08.7-.45,1.26-1.12.1-.11.18-.18.26-.2.05-.02.11,0,.18.03.08.04.12.1.14.16.06.2-.13.58-.57,1.14-.45.6-.94.97-1.46,1.12-.21.06-.42.06-.63,0-.18-.05-.3-.19-.37-.43-.05-.16-.03-.37.05-.62-.41.52-.84,1.32-1.29,2.42-.25.67-.46,1.46-.63,2.39-.07.35-.21.55-.43.61-.24.07-.4,0-.46-.24-.06-.22-.04-.88.06-1.96.15-1.61.42-2.9.81-3.87.24-.6.49-.94.74-1.01.09-.02.17-.02.26.01.1.04.17.11.2.21s0,.25-.08.47c-.02.04-.13.31-.33.81-.18.47-.3.92-.35,1.35Z"/><path class="cls-9" d="M36.35,93.61c-.11.44-.23.83-.36,1.15-.27.63-.6,1.01-1.01,1.12-.35.1-.68.01-.97-.27-.19-.18-.32-.42-.41-.71-.21-.73-.21-1.6,0-2.61.23-1.13.63-2.06,1.21-2.79.38-.48.78-.78,1.22-.91.28-.08.53-.06.76.06.2.11.33.25.38.44.04.14.04.36,0,.65.14.11.22.22.25.32.04.14.01.39-.08.76-.1.38-.17.86-.2,1.45-.04.62-.01,1.11.08,1.45.08.28.23.48.44.61.06.03.22.07.47.11.19.03.31.15.37.34.04.12.02.24-.05.35-.07.11-.18.19-.31.23-.35.1-.71.03-1.05-.21-.28-.2-.48-.49-.59-.88-.04-.13-.09-.35-.15-.66ZM36.65,90.02c-.12-.12-.24-.2-.35-.25-.11-.04-.22-.05-.33-.02-.5.14-.92.74-1.25,1.78-.37,1.15-.45,2.06-.26,2.73.05.16.11.28.2.35.09.07.19.08.32.05.32-.09.59-.53.82-1.32.13-.44.27-1.06.41-1.88.1-.53.18-.89.24-1.07.03-.09.1-.22.2-.37Z"/><path class="cls-9" d="M40.96,87.44c.52-.15.86.05,1.01.59.14.48.09,1.02-.15,1.61-.18.45-.38.71-.6.77-.18.05-.31-.03-.37-.24-.03-.11-.03-.21,0-.29.01-.03.07-.13.17-.29.09-.15.16-.35.22-.61.04-.18.05-.31.02-.4-.03-.11-.1-.14-.22-.11-.14.04-.32.21-.54.51-.35.48-.64,1.15-.87,2.02-.24.91-.29,1.58-.16,2.03.04.14.12.26.24.35.17.13.37.17.58.11.41-.12.83-.52,1.25-1.19.35-.58.63-1.13.83-1.67.1-.29.21-.46.34-.49.07-.02.15,0,.23.04.07.05.12.11.13.17.07.24-.11.81-.53,1.69-.68,1.39-1.42,2.2-2.23,2.43-.49.14-.91.07-1.26-.2-.26-.2-.44-.48-.54-.83-.2-.68-.14-1.56.17-2.62.3-1.02.73-1.89,1.3-2.62.33-.42.66-.68.97-.77Z"/><path class="cls-9" d="M47.49,87.61c-.12,1.18-.11,2.05.05,2.6.08.27.2.48.35.62.2.19.4.25.62.19.45-.13.88-.58,1.29-1.34.28-.49.49-.97.64-1.44.09-.31.22-.49.37-.53.15-.04.25.01.29.16.07.25-.08.85-.46,1.8-.56,1.41-1.27,2.23-2.11,2.47-.51.15-.93,0-1.29-.43-.26-.32-.45-.67-.56-1.08-.1-.33-.16-.85-.19-1.56-.33.48-.72,1.53-1.19,3.16-.12.44-.28.69-.47.74-.1.03-.2.01-.29-.05-.1-.07-.16-.15-.19-.24-.08-.26.02-1.24.28-2.93.47-2.96,1.14-5.53,2.01-7.7.47-1.19.94-2.09,1.41-2.71.42-.56.79-.89,1.12-.98.14-.04.29-.02.44.07.19.1.31.26.37.47.16.56.07,1.36-.26,2.4-.35,1.08-1.08,2.46-2.18,4.16-.62.95-1.2,1.72-1.74,2.31-.04.2-.13.76-.29,1.71.57-1.12,1.04-1.92,1.42-2.39.25-.3.6-.64,1.06-1.02.31-.25.55-.4.7-.45.08-.02.17-.01.25.03.09.04.15.11.18.21.06.22-.04.41-.31.58-.46.29-.9.69-1.32,1.19ZM46.16,86.16c.87-1.02,1.62-2.21,2.24-3.58.31-.68.53-1.31.67-1.9.1-.41.12-.69.08-.84-.04-.15-.13-.21-.27-.17-.37.11-.84.85-1.42,2.24-.47,1.15-.91,2.57-1.3,4.24Z"/><path class="cls-9" d="M21.19,80.11c.06-.1.12-.21.18-.31.99-1.74,1.72-2.67,2.18-2.8.26-.07.43.03.51.31.06.2,0,.46-.14.8-.83,1.83-1.09,3.3-.77,4.41.1.36.3.68.59.95.14.12.21.23.24.32.02.08,0,.17-.05.26-.06.12-.15.19-.27.23-.27.08-.55-.03-.83-.32-.27-.27-.47-.64-.6-1.1-.25-.89-.2-1.97.16-3.24-.73.83-1.27,2.08-1.62,3.75-.1.4-.26.64-.48.7-.11.03-.21.02-.31-.04-.12-.07-.2-.17-.24-.31-.1-.35.04-1.4.41-3.14.2-.94.37-1.63.52-2.07.15-.43.31-.67.48-.73.09-.02.18,0,.28.05.12.07.2.16.23.28.04.14,0,.38-.11.7-.16.48-.28.91-.36,1.29Z"/><path class="cls-9" d="M25.75,80.41l.05.18c.04.15.11.26.22.34.23.2.54.24.91.13.82-.24,1.59-1.14,2.31-2.71.13-.27.26-.43.39-.46.07-.02.15,0,.23.05.05.04.09.08.1.13.07.26-.12.78-.57,1.57-.35.62-.77,1.16-1.24,1.62-.47.46-.95.76-1.43.9-.49.14-.93.08-1.31-.18-.26-.18-.45-.48-.56-.88-.32-1.11-.11-2.35.63-3.71.6-1.11,1.21-1.76,1.84-1.94.17-.05.34-.04.51.02.21.09.35.24.41.47.1.35.06.82-.12,1.42-.36,1.24-1.15,2.25-2.37,3.04ZM25.75,79.58c.41-.29.72-.57.93-.84.36-.49.61-.99.75-1.52.05-.19.06-.34.03-.47-.04-.13-.12-.18-.24-.14-.17.05-.38.25-.62.59-.44.62-.72,1.41-.84,2.38Z"/><path class="cls-9" d="M33.39,78.63c-.17.48-.33.86-.48,1.16-.26.53-.58.85-.95.96-.32.09-.61.02-.87-.22-.18-.17-.32-.39-.4-.68-.24-.85-.16-1.92.25-3.23.19-.61.41-1.09.66-1.46.19-.29.37-.46.54-.51.09-.03.19-.01.29.04.09.05.14.12.16.19.04.12-.03.36-.19.72-.36.81-.6,1.52-.73,2.15-.15.73-.17,1.28-.06,1.64.03.09.07.16.12.19.06.04.12.04.2.02.34-.1.66-.71.99-1.84.17-.59.27-1.22.32-1.88.02-.36.09-.7.21-1.01.12-.28.27-.45.44-.5.1-.03.2-.01.3.05.11.07.18.16.22.27.07.24,0,.83-.22,1.79-.14.66-.16,1.18-.05,1.56.12.41.33.72.62.95.08.06.3.14.65.22.17.04.28.16.34.35.03.12.01.23-.07.35-.08.12-.19.19-.33.23-.33.09-.67.05-1.01-.14-.31-.17-.56-.46-.76-.89-.03-.06-.09-.22-.2-.5Z"/><path class="cls-9" d="M37.18,75.67c.45-.87,1-1.76,1.65-2.66.23-.32.49-.64.78-.94.14-.15.24-.23.28-.24.1-.03.22.02.36.13.08.06.13.13.15.19.03.12-.04.32-.24.59-.52.72-.74,1.22-.66,1.49.04.15.15.2.32.15.28-.08.7-.45,1.26-1.12.1-.11.18-.18.26-.2.05-.02.11,0,.18.03.08.04.12.1.14.16.06.2-.13.58-.57,1.14-.45.6-.94.97-1.46,1.12-.21.06-.42.06-.63,0-.18-.05-.3-.19-.37-.43-.05-.16-.03-.37.05-.62-.41.52-.84,1.32-1.29,2.42-.25.67-.46,1.46-.63,2.39-.06.35-.21.55-.43.61-.24.07-.4-.01-.46-.24-.06-.22-.05-.88.06-1.96.15-1.61.42-2.9.81-3.87.24-.6.49-.94.74-1.01.08-.02.17-.02.26.01.1.04.17.11.2.21s0,.26-.08.47c-.02.04-.13.31-.33.81-.18.47-.3.92-.35,1.35Z"/><path class="cls-9" d="M44.91,75.2c-.11.44-.23.83-.36,1.15-.27.63-.6,1.01-1.01,1.12-.35.1-.68.01-.97-.27-.19-.18-.32-.42-.41-.71-.21-.73-.21-1.6,0-2.61.23-1.13.63-2.06,1.21-2.79.38-.48.78-.78,1.22-.91.28-.08.53-.06.76.06.2.11.33.25.38.44.04.14.04.36,0,.65.14.11.22.22.25.32.04.14.01.39-.08.76-.1.38-.17.86-.2,1.45-.04.62-.01,1.11.08,1.45.08.28.23.48.44.61.06.03.22.07.47.11.19.03.31.15.37.34.04.12.02.24-.05.35-.07.11-.18.19-.31.23-.36.1-.71.03-1.05-.21-.28-.2-.48-.49-.59-.88-.04-.13-.09-.35-.15-.66ZM45.21,71.6c-.12-.12-.24-.2-.35-.25-.11-.04-.22-.05-.33-.02-.5.14-.92.74-1.25,1.78-.37,1.15-.45,2.06-.26,2.73.05.16.11.28.2.35s.19.08.32.05c.32-.09.59-.53.82-1.32.13-.44.27-1.06.41-1.88.1-.53.18-.89.24-1.07.03-.09.1-.22.2-.37Z"/><path class="cls-9" d="M48.38,72.42c-.05.57-.08,1.03-.09,1.37,0,.34,0,.58.04.7.05.16.15.22.31.18.24-.07.48-.38.72-.93.11-.27.27-.73.45-1.4.07-.26.19-.42.34-.46.17-.05.28,0,.33.17.08.28-.08.95-.48,2-.42,1.09-.92,1.72-1.5,1.89-.25.07-.48.02-.7-.14-.16-.12-.26-.29-.33-.5-.11-.37-.14-.91-.1-1.62.04-.71.14-1.6.31-2.66.45-2.7,1.04-4.98,1.78-6.86.58-1.5,1.19-2.35,1.8-2.52.2-.06.38-.03.55.09.17.11.29.27.35.47.26.92-.12,2.69-1.15,5.3-.46,1.16-1.07,2.37-1.82,3.62-.2.33-.47.77-.82,1.32ZM48.63,70.65c1.03-1.56,1.83-3.39,2.39-5.49.29-1.09.39-1.78.31-2.08-.04-.14-.12-.2-.25-.16-.36.1-.81,1.01-1.35,2.72-.45,1.41-.82,3.08-1.1,5.01Z"/><g class="cls-11"><use width="138.88" height="24.31" transform="translate(119.44 61.2)" xlink:href="#Executing"/></g><path class="cls-9" d="M239.12,30.62h-16.5l7.75,6.52v101.76c0,.28.22.5.5.5s.5-.22.5-.5V37.14l7.75-6.52Z"/><path class="cls-9" d="M78.23,32.86l.03.18c.03.15.08.27.18.37.21.22.51.3.89.24.84-.14,1.71-.95,2.6-2.43.16-.25.31-.39.44-.42.07-.01.15.01.22.08.05.05.08.09.09.14.04.26-.21.76-.75,1.5-.42.58-.9,1.07-1.42,1.47s-1.03.65-1.52.73c-.51.08-.93-.02-1.28-.33-.24-.21-.39-.52-.46-.94-.19-1.14.16-2.34,1.05-3.62.72-1.03,1.41-1.61,2.05-1.71.18-.03.34,0,.5.08.2.11.32.28.36.51.06.36-.03.82-.28,1.4-.5,1.19-1.4,2.11-2.7,2.75ZM78.32,32.04c.44-.24.79-.48,1.02-.73.41-.44.72-.92.92-1.42.07-.18.1-.33.08-.46-.02-.13-.1-.19-.23-.17-.18.03-.4.2-.68.52-.5.56-.87,1.32-1.11,2.26Z"/><path class="cls-9" d="M84.74,30.21c.07-.1.14-.19.21-.28,1.18-1.61,2.01-2.46,2.49-2.53.26-.04.42.08.47.37.03.2-.04.46-.23.78-1.04,1.72-1.46,3.15-1.27,4.3.06.37.22.71.48,1.01.12.14.19.25.2.34.01.08-.01.17-.08.25-.07.11-.17.17-.29.19-.28.05-.54-.09-.79-.41-.24-.3-.39-.69-.47-1.16-.15-.91.03-1.98.53-3.2-.82.74-1.5,1.92-2.04,3.54-.14.39-.33.6-.56.64-.11.02-.22,0-.3-.07-.11-.08-.18-.19-.2-.34-.06-.36.2-1.39.77-3.07.31-.91.56-1.58.75-2,.2-.41.38-.64.57-.67.09-.01.18.01.27.08.11.08.18.18.2.3.02.15-.04.38-.19.69-.21.46-.38.87-.5,1.24Z"/><path class="cls-9" d="M91.39,25.98c-.32.75-.6,1.58-.83,2.49-.33,1.29-.45,2.23-.35,2.82.03.17.08.29.17.37.08.08.2.1.34.08.34-.06.69-.44,1.07-1.15.24-.44.44-.88.61-1.31.09-.24.21-.38.36-.4.09-.01.17,0,.24.05.06.05.1.11.11.17.04.25-.19.86-.7,1.83-.61,1.17-1.24,1.81-1.88,1.91-.34.06-.66-.05-.94-.33-.17-.18-.29-.45-.35-.82-.14-.82-.06-1.81.23-2.97.07-.29.28-.99.63-2.11-.17.08-.31.12-.4.14-.14.02-.27.01-.39-.04-.16-.07-.26-.18-.28-.32-.03-.17.05-.32.23-.45.05-.04.29-.12.73-.26.16-.05.38-.16.68-.31.17-.46.46-1.1.87-1.92.23-.45.39-.75.49-.89.13-.2.26-.3.38-.32.09-.01.18.02.29.1.1.07.15.16.17.24.03.18-.1.55-.39,1.14-.19.38-.33.68-.42.91.71-.33,1.23-.52,1.56-.57.37-.06.58.06.63.37.03.15-.02.28-.13.38-.06.05-.23.11-.51.19-.12.01-.6.23-1.46.64-.24.12-.47.23-.7.35Z"/><path class="cls-9" d="M95.12,28.63c.54-.82,1.19-1.64,1.94-2.45.27-.29.56-.58.88-.84.16-.13.26-.2.31-.21.1-.02.21.04.34.17.07.07.12.14.13.21.02.12-.08.31-.3.56-.6.66-.87,1.13-.83,1.41.03.16.13.22.3.19.29-.05.75-.37,1.38-.97.11-.1.2-.16.28-.17.05,0,.11,0,.18.05.07.05.11.11.12.18.03.2-.2.56-.7,1.07-.52.54-1.04.86-1.58.95-.22.04-.42.01-.62-.07-.17-.07-.28-.22-.32-.47-.03-.17.01-.37.12-.61-.47.47-.99,1.22-1.56,2.25-.32.64-.62,1.4-.9,2.3-.1.34-.27.52-.5.56-.25.04-.39-.06-.43-.29-.04-.23.06-.88.28-1.94.33-1.58.75-2.83,1.25-3.75.31-.57.59-.88.86-.92.09-.01.17,0,.26.04.1.05.16.13.17.23.02.1-.03.25-.13.46-.02.04-.16.29-.42.77-.24.45-.4.88-.5,1.3Z"/><path class="cls-9" d="M102.98,24.04c.55-.09.88.2,1,.87.15.9-.08,2.1-.68,3.62-.66,1.64-1.41,2.53-2.25,2.67-.39.06-.71-.07-.95-.4-.12-.17-.21-.38-.25-.63-.14-.86,0-1.85.42-2.96.4-1.03.93-1.87,1.59-2.51.39-.38.76-.59,1.12-.65ZM102.57,28.04c-.19-.11-.29-.2-.31-.27,0-.05.07-.22.25-.5.49-.78.71-1.38.64-1.8,0-.05-.04-.1-.08-.15-.07-.09-.16-.13-.28-.11-.22.04-.5.3-.85.79-.45.63-.77,1.25-.96,1.87-.22.71-.3,1.28-.22,1.71.02.11.07.21.14.29.11.11.23.15.36.13.32-.05.63-.35.92-.9.13-.23.23-.46.29-.69.07-.23.09-.35.09-.36Z"/><path class="cls-9" d="M106.99,24.56c.25-.22.43-.38.56-.47.25-.18.51-.29.78-.34.3-.05.53,0,.71.15.18.15.29.39.35.74.08.47,0,1.07-.21,1.78-.34,1.13-.82,2.06-1.45,2.78-.53.61-1.06.96-1.6,1.05-.3.05-.61-.02-.94-.2-.61,2.02-1.12,4.06-1.53,6.13-.08.49-.22.75-.43.79-.1.02-.21-.03-.34-.15-.09-.08-.14-.18-.16-.29-.06-.36.19-1.62.75-3.77.86-3.32,1.74-6.1,2.63-8.35.18-.47.31-.8.37-.98.16-.48.36-.73.58-.77.23-.04.37.08.41.36.03.16-.02.38-.14.67-.14.37-.25.67-.33.89ZM105.41,29.13c.17.13.37.18.6.14.63-.1,1.23-.78,1.81-2.02.21-.46.37-.92.47-1.38.08-.37.1-.64.07-.81-.02-.12-.06-.21-.13-.26-.07-.05-.16-.07-.28-.05-.32.05-.67.34-1.05.85-.37.5-.69,1.17-.97,2-.25.77-.42,1.28-.51,1.52Z"/><path class="cls-9" d="M113.59,26.07c-.48.81-.87,1.41-1.17,1.82-.6.79-1.13,1.23-1.6,1.31-.23.04-.43-.02-.59-.16-.12-.12-.2-.28-.24-.48-.12-.73.15-1.77.81-3.12.67-1.37,1.21-2.09,1.6-2.16.11-.02.21.01.31.09.09.06.14.14.16.24.02.15,0,.29-.05.41-.06.12-.24.41-.54.85-.32.46-.6.95-.85,1.47-.28.59-.41,1-.36,1.25.02.14.1.2.24.18.27-.04.71-.5,1.33-1.35.39-.54.69-.99.9-1.35.04-.08.23-.44.55-1.08.29-.57.48-.91.55-1.02.16-.27.33-.42.51-.45.11-.02.21.01.32.09.1.07.15.17.17.28.03.2-.05.54-.24,1.05-.23.61-.44,1.19-.63,1.72-.3.83-.51,1.55-.64,2.19.39-.32.73-.69,1.03-1.12.51-.71.8-1.22.89-1.54.08-.29.19-.45.33-.47.19-.03.3.05.33.24.06.36-.16.94-.64,1.75-.59.97-1.36,1.84-2.33,2.61-.34,1.46-.69,2.67-1.04,3.66-.67,1.81-1.51,2.8-2.51,2.96-.41.07-.77-.03-1.07-.31-.24-.21-.38-.5-.45-.87-.18-1.05.38-2.25,1.68-3.6.38-.4.95-.91,1.72-1.53.31-.25.55-.46.73-.61.07-.33.19-.77.35-1.33.18-.6.34-1.14.48-1.62ZM112.39,30.35c-.65.48-1.3,1.12-1.94,1.92-.64.82-.91,1.53-.81,2.13.02.13.08.23.17.31.12.1.26.14.42.12.51-.08.98-.71,1.42-1.87.07-.19.25-.82.54-1.89.06-.22.13-.46.2-.72Z"/><path class="cls-5" d="M98.02,37.86c1.12,6.17,16.43,7.15,13.81,30.01"/><path class="cls-9" d="M109.28,63.54c.15-.08.33-.02.4.13l2.13,4.07,2.79-3.65c.1-.13.29-.16.42-.06s.16.29.06.42l-3.07,4.02c-.06.08-.16.13-.26.12s-.19-.07-.24-.16l-2.34-4.49c-.03-.05-.04-.11-.03-.16,0-.1.07-.19.16-.24Z"/><path class="cls-5" d="M118.36,72.61c-6.09-2.79-8.22-2.35-13.89-.51"/><path class="cls-9" d="M115.76,68.34c-.14.09-.18.28-.08.42l2.55,3.82-4.54.69c-.16.03-.28.18-.25.34s.18.28.34.25l5-.76c.1-.02.19-.08.23-.18s.03-.2-.02-.29l-2.81-4.21s-.08-.09-.13-.11c-.09-.04-.2-.03-.29.02Z"/><path class="cls-9" d="M107.56,68.18c.13.11.14.3.03.42l-2.99,3.48,4.42,1.24c.16.04.25.21.21.37-.04.16-.21.25-.37.21l-4.87-1.36c-.1-.03-.18-.1-.21-.2-.03-.1,0-.2.06-.28l3.3-3.84s.09-.08.14-.09c.09-.03.2,0,.28.06Z"/></svg>