<?xml version="1.0" encoding="UTF-8"?>
<svg id="Layer_1" data-name="Layer 1" xmlns="http://www.w3.org/2000/svg" xmlns:xlink="http://www.w3.org/1999/xlink" viewBox="0 0 399.25 236.99">
  <defs>
    <style>
      .cls-1, .cls-2, .cls-3, .cls-4, .cls-5 {
        fill: none;
      }

      .cls-6 {
        font-size: 27px;
      }

      .cls-6, .cls-7, .cls-8 {
        font-family: FreestyleScript-Regular, 'Freestyle Script';
      }

      .cls-6, .cls-7, .cls-8, .cls-9, .cls-10 {
        fill: #4d4d4d;
      }

      .cls-7 {
        font-size: 21px;
      }

      .cls-8 {
        font-size: 15px;
      }

      .cls-11 {
        fill: gray;
      }

      .cls-9 {
        font-size: 11px;
      }

      .cls-12, .cls-2, .cls-3, .cls-4, .cls-5 {
        stroke-miterlimit: 10;
      }

      .cls-12, .cls-2, .cls-3, .cls-5 {
        stroke: #4d4d4d;
      }

      .cls-12, .cls-13 {
        fill: #999;
      }

      .cls-14 {
        fill: #ccc;
      }

      .cls-3 {
        filter: url(#drop-shadow-2);
        stroke-width: 3px;
      }

      .cls-4 {
        stroke: #ccc;
        stroke-dasharray: 5;
      }

      .cls-4, .cls-5 {
        stroke-linecap: round;
      }

      .cls-15 {
        clip-path: url(#clippath);
      }
    </style>
    <symbol id="Executing" viewBox="0 0 138.88 24.31">
      <g>
        <g>
          <rect class="cls-13" x=".5" y=".5" width="137.88" height="23.31" rx="3" ry="3"/>
          <rect class="cls-2" x=".5" y=".5" width="137.88" height="23.31" rx="3" ry="3"/>
        </g>
        <polygon class="cls-11" points="42.94 2.41 33.48 2.41 14.28 21.85 23.74 21.85 42.94 2.41"/>
        <polygon class="cls-11" points="61.01 2.41 51.55 2.41 32.35 21.85 41.81 21.85 61.01 2.41"/>
        <polygon class="cls-11" points="79.08 2.41 69.62 2.41 50.42 21.85 59.88 21.85 79.08 2.41"/>
        <polygon class="cls-11" points="97.15 2.41 87.69 2.41 68.49 21.85 77.95 21.85 97.15 2.41"/>
        <polygon class="cls-11" points="115.22 2.41 105.76 2.41 86.56 21.85 96.02 21.85 115.22 2.41"/>
        <polygon class="cls-11" points="133.29 2.41 123.83 2.41 104.63 21.85 114.09 21.85 133.29 2.41"/>
        <path class="cls-11" d="M24.87,2.41h-9.46L1.94,16.05v3.61c0,.96.55,1.78,1.34,2.2h2.39L24.87,2.41Z"/>
        <polygon class="cls-11" points="122.7 21.85 132.16 21.85 136.94 17.01 136.94 7.43 122.7 21.85"/>
        <path class="cls-11" d="M6.8,2.41h-3.43c-.84.4-1.42,1.25-1.42,2.25v2.67L6.8,2.41Z"/>
      </g>
    </symbol>
    <filter id="drop-shadow-2" x="30.78" y="161.31" width="356" height="34" filterUnits="userSpaceOnUse">
      <feOffset dx="7" dy="7"/>
      <feGaussianBlur result="blur" stdDeviation="5"/>
      <feFlood flood-color="#000" flood-opacity=".07"/>
      <feComposite in2="blur" operator="in"/>
      <feComposite in="SourceGraphic"/>
    </filter>
    <clipPath id="clippath">
      <rect class="cls-1" x="196.86" y="98.95" width="132.85" height="61.46"/>
    </clipPath>
  </defs>
  <text class="cls-8" transform="translate(31.96 195.48)"><tspan x="0" y="0">42</tspan></text>
  <text class="cls-8" transform="translate(86.17 195.48)"><tspan x="0" y="0">43</tspan></text>
  <text class="cls-8" transform="translate(140.38 195.48)"><tspan x="0" y="0">44</tspan></text>
  <text class="cls-8" transform="translate(194.6 195.48)"><tspan x="0" y="0">45</tspan></text>
  <line class="cls-3" x1="39.16" y1="170.96" x2="364.46" y2="170.96"/>
  <line class="cls-4" x1="39.16" y1="109.31" x2="39.16" y2="170.96"/>
  <line class="cls-4" x1="93.37" y1="109.31" x2="93.37" y2="170.96"/>
  <line class="cls-4" x1="147.58" y1="109.31" x2="147.58" y2="170.96"/>
  <line class="cls-4" x1="201.8" y1="109.31" x2="201.8" y2="170.96"/>
  <circle class="cls-12" cx="39.16" cy="170.96" r="7.2"/>
  <circle class="cls-12" cx="93.37" cy="170.96" r="7.2"/>
  <circle class="cls-12" cx="147.58" cy="170.96" r="7.2"/>
  <circle class="cls-12" cx="201.8" cy="170.96" r="7.2"/>
  <path class="cls-14" d="M378.65,149.02c.28,0,.5-.22.5-.5s-.22-.5-.5-.5H20.6c-.28,0-.5.22-.5.5s.22.5.5.5h358.05"/>
  <path class="cls-14" d="M378.65,121.04c.28,0,.5-.22.5-.5s-.22-.5-.5-.5H20.6c-.28,0-.5.22-.5.5s.22.5.5.5h358.05"/>
  <text class="cls-8" transform="translate(248.84 195.48)"><tspan x="0" y="0">46</tspan></text>
  <text class="cls-8" transform="translate(303.05 195.48)"><tspan x="0" y="0">47</tspan></text>
  <text class="cls-8" transform="translate(357.26 195.48)"><tspan x="0" y="0">48</tspan></text>
  <line class="cls-4" x1="256.04" y1="109.31" x2="256.04" y2="170.96"/>
  <line class="cls-4" x1="310.25" y1="109.31" x2="310.25" y2="170.96"/>
  <line class="cls-4" x1="364.46" y1="109.31" x2="364.46" y2="170.96"/>
  <circle class="cls-12" cx="256.04" cy="170.96" r="7.2"/>
  <circle class="cls-12" cx="310.25" cy="170.96" r="7.2"/>
  <circle class="cls-12" cx="364.46" cy="170.96" r="7.2"/>
  <text class="cls-7" transform="translate(164.89 218.37)"><tspan x="0" y="0">time</tspan></text>
  <g>
    <path class="cls-5" d="M189.51,214.09c10.98-1.12,23.34-.21,44.18,1.14"/>
    <path class="cls-10" d="M229.42,217.87c-.08-.14-.03-.33.12-.41l4.01-2.24-3.72-2.69c-.13-.1-.16-.28-.07-.42.1-.13.29-.16.42-.07l4.1,2.96c.08.06.13.16.12.26,0,.1-.06.19-.15.24l-4.42,2.46c-.05.03-.11.04-.16.04-.1,0-.19-.06-.24-.15Z"/>
  </g>
  <g class="cls-15">
    <use width="138.88" height="24.31" transform="translate(209.76 122.16)" xlink:href="#Executing"/>
  </g>
  <path class="cls-10" d="M337.96,91.71h-16.5l7.75,6.52v99.86c0,.28.22.5.5.5s.5-.22.5-.5v-99.86l7.75-6.52Z"/>
  <text class="cls-7" transform="translate(60.58 91.67) rotate(-14.78)"><tspan x="0" y="0">completed</tspan></text>
  <g>
    <path class="cls-5" d="M93.37,86.55c1.57,12.24,21.78,13.66,18.72,31.61"/>
    <path class="cls-10" d="M109.9,113.65c.15-.07.33,0,.39.16l1.8,4.22,3.06-3.42c.11-.12.3-.13.42-.02.12.11.13.3.02.42l-3.38,3.77c-.07.08-.17.11-.27.1-.1-.02-.19-.08-.23-.18l-1.99-4.65c-.02-.05-.03-.11-.02-.17.02-.1.08-.19.18-.23Z"/>
  </g>
  <text class="cls-7" transform="translate(266.91 70.28) rotate(2.46)"><tspan x="0" y="0">still executing</tspan></text>
  <g>
    <path class="cls-5" d="M304.18,77.28c1.57,12.24-19.93,21.26-24.07,39.43"/>
    <path class="cls-10" d="M278.43,112.01c.16-.05.33.04.38.2l1.38,4.38,3.38-3.1c.12-.11.31-.1.42.02.11.12.1.31-.02.42l-3.73,3.42c-.08.07-.18.1-.28.07s-.18-.1-.21-.2l-1.52-4.83c-.02-.06-.02-.11,0-.17.03-.1.1-.18.2-.21Z"/>
  </g>
  <g>
    <path class="cls-5" d="M207.38,133.33c-8.79-1.44-23.8,6.15-44.33,1.54"/>
    <path class="cls-10" d="M203.76,129.89c-.11.12-.1.31.03.42l3.45,3.02-4.2,1.85c-.15.07-.22.24-.15.4.07.15.25.22.4.15l4.63-2.04c.09-.04.16-.13.18-.23.02-.1-.02-.2-.1-.27l-3.81-3.33s-.1-.06-.15-.07c-.1-.01-.2.02-.27.1Z"/>
    <path class="cls-10" d="M167.65,132.84c.06.15-.02.33-.17.39l-4.28,1.65,3.3,3.19c.12.12.12.31,0,.42-.11.12-.31.12-.42,0l-3.64-3.51c-.07-.07-.11-.18-.09-.28s.09-.18.19-.22l4.72-1.82c.06-.02.11-.02.17-.01.1.02.18.09.22.19Z"/>
  </g>
  <g>
    <text class="cls-7" transform="translate(170.22 71.46) rotate(-2.66)"><tspan x="0" y="0">refractory</tspan></text>
    <text class="cls-7" transform="translate(179.77 84.93) rotate(-2.66)"><tspan x="0" y="0">period</tspan></text>
  </g>
  <g>
    <path class="cls-5" d="M190.87,89.71c1.57,12.25-14.13,23.27-13.67,43.88"/>
    <path class="cls-10" d="M174.38,129.47c.14-.09.33-.05.41.1l2.43,3.89,2.5-3.85c.09-.14.28-.18.41-.09.14.09.18.28.09.42l-2.75,4.25c-.06.09-.15.14-.25.14-.1,0-.2-.05-.25-.14l-2.68-4.29c-.03-.05-.05-.11-.05-.16,0-.1.05-.2.14-.25Z"/>
  </g>
  <text class="cls-6" transform="translate(31.88 52.78) rotate(-7.89)"><tspan x="0" y="0">“ looping activation”</tspan></text>
  <g>
    <rect class="cls-13" x="46.36" y="123.13" width="114.72" height="23.31" rx="3" ry="3"/>
    <path class="cls-10" d="M161.58,143.94c0,1.65-1.35,3-3,3H48.86c-1.65,0-3-1.35-3-3v-18.31c0-1.65,1.35-3,3-3h109.72c1.65,0,3,1.35,3,3v18.31ZM46.86,142.94c0,1.65,1.35,3,3,3h107.72c1.65,0,3-1.35,3-3v-16.31c0-1.65-1.35-3-3-3H49.86c-1.65,0-3,1.35-3,3v16.31Z"/>
    <g>
      <rect class="cls-10" x="73.79" y="133.9" width="87.29" height="1"/>
      <polygon class="cls-10" points="75.78 132.7 74.08 134.4 75.78 136.09 74.34 136.09 72.64 134.4 74.34 132.7 75.78 132.7"/>
    </g>
    <text class="cls-9" transform="translate(54.72 138.74)"><tspan x="0" y="0">42</tspan></text>
  </g>
</svg>