<?xml version="1.0" encoding="UTF-8"?>
<svg id="Layer_1" data-name="Layer 1" xmlns="http://www.w3.org/2000/svg" xmlns:xlink="http://www.w3.org/1999/xlink" viewBox="0 0 291.11 195.57">
  <defs>
    <style>
      .cls-1, .cls-2, .cls-3, .cls-4, .cls-5 {
        fill: none;
      }

      .cls-6 {
        font-size: 21px;
      }

      .cls-6, .cls-7 {
        font-family: FreestyleScript-Regular, 'Freestyle Script';
      }

      .cls-6, .cls-7, .cls-8 {
        fill: #4d4d4d;
      }

      .cls-7 {
        font-size: 15px;
      }

      .cls-9 {
        fill: gray;
      }

      .cls-10, .cls-2, .cls-3, .cls-4, .cls-5 {
        stroke-miterlimit: 10;
      }

      .cls-10, .cls-2, .cls-3, .cls-5 {
        stroke: #4d4d4d;
      }

      .cls-10, .cls-11 {
        fill: #999;
      }

      .cls-12 {
        fill: #ccc;
      }

      .cls-3 {
        filter: url(#drop-shadow-1);
        stroke-width: 3px;
      }

      .cls-4 {
        stroke: #ccc;
        stroke-dasharray: 5;
      }

      .cls-4, .cls-5 {
        stroke-linecap: round;
      }

      .cls-13 {
        clip-path: url(#clippath);
      }
    </style>
    <symbol id="Executing" viewBox="0 0 138.88 24.31">
      <g>
        <g>
          <rect class="cls-11" x=".5" y=".5" width="137.88" height="23.31" rx="3" ry="3"/>
          <rect class="cls-2" x=".5" y=".5" width="137.88" height="23.31" rx="3" ry="3"/>
        </g>
        <polygon class="cls-9" points="42.94 2.41 33.48 2.41 14.28 21.85 23.74 21.85 42.94 2.41"/>
        <polygon class="cls-9" points="61.01 2.41 51.55 2.41 32.35 21.85 41.81 21.85 61.01 2.41"/>
        <polygon class="cls-9" points="79.08 2.41 69.62 2.41 50.42 21.85 59.88 21.85 79.08 2.41"/>
        <polygon class="cls-9" points="97.15 2.41 87.69 2.41 68.49 21.85 77.95 21.85 97.15 2.41"/>
        <polygon class="cls-9" points="115.22 2.41 105.76 2.41 86.56 21.85 96.02 21.85 115.22 2.41"/>
        <polygon class="cls-9" points="133.29 2.41 123.83 2.41 104.63 21.85 114.09 21.85 133.29 2.41"/>
        <path class="cls-9" d="M24.87,2.41h-9.46L1.94,16.05v3.61c0,.96.55,1.78,1.34,2.2h2.39L24.87,2.41Z"/>
        <polygon class="cls-9" points="122.7 21.85 132.16 21.85 136.94 17.01 136.94 7.43 122.7 21.85"/>
        <path class="cls-9" d="M6.8,2.41h-3.43c-.84.4-1.42,1.25-1.42,2.25v2.67L6.8,2.41Z"/>
      </g>
    </symbol>
    <filter id="drop-shadow-1" x="94.95" y="99.89" width="193" height="34" filterUnits="userSpaceOnUse">
      <feOffset dx="7" dy="7"/>
      <feGaussianBlur result="blur" stdDeviation="5"/>
      <feFlood flood-color="#000" flood-opacity=".07"/>
      <feComposite in2="blur" operator="in"/>
      <feComposite in="SourceGraphic"/>
    </filter>
    <clipPath id="clippath">
      <rect class="cls-1" x="98.02" y="37.86" width="132.85" height="61.46"/>
    </clipPath>
  </defs>
  <text class="cls-7" transform="translate(95.79 134.39)"><tspan x="0" y="0">42</tspan></text>
  <text class="cls-7" transform="translate(150 134.39)"><tspan x="0" y="0">43</tspan></text>
  <text class="cls-7" transform="translate(204.21 134.39)"><tspan x="0" y="0">44</tspan></text>
  <text class="cls-7" transform="translate(258.42 134.39)"><tspan x="0" y="0">45</tspan></text>
  <line class="cls-3" x1="102.99" y1="109.87" x2="265.62" y2="109.87"/>
  <line class="cls-4" x1="102.99" y1="48.22" x2="102.99" y2="109.87"/>
  <line class="cls-4" x1="157.2" y1="48.22" x2="157.2" y2="109.87"/>
  <line class="cls-4" x1="211.41" y1="48.22" x2="211.41" y2="109.87"/>
  <line class="cls-4" x1="265.62" y1="48.22" x2="265.62" y2="109.87"/>
  <circle class="cls-10" cx="102.99" cy="109.87" r="7.2"/>
  <circle class="cls-10" cx="157.2" cy="109.87" r="7.2"/>
  <circle class="cls-10" cx="211.41" cy="109.87" r="7.2"/>
  <circle class="cls-10" cx="265.62" cy="109.87" r="7.2"/>
  <text class="cls-6" transform="translate(112.13 163.08)"><tspan x="0" y="0">time</tspan></text>
  <g>
    <path class="cls-5" d="M137.02,157.58c10.97-1.12,22.95-.62,42.79-2.49"/>
    <path class="cls-8" d="M175.95,158.25c-.1-.13-.07-.32.06-.42l3.67-2.76-4.05-2.16c-.15-.08-.2-.26-.12-.41.08-.15.26-.2.41-.12l4.47,2.38c.09.05.15.14.16.24,0,.1-.04.2-.12.26l-4.05,3.04s-.1.05-.16.06c-.1,0-.2-.03-.26-.12Z"/>
  </g>
  <path class="cls-12" d="M279.81,87.93c.28,0,.5-.22.5-.5s-.22-.5-.5-.5H84.43c-.28,0-.5.22-.5.5s.22.5.5.5h195.39"/>
  <path class="cls-12" d="M279.81,59.95c.28,0,.5-.22.5-.5s-.22-.5-.5-.5H84.43c-.28,0-.5.22-.5.5s.22.5.5.5h195.39"/>
  <text class="cls-6" transform="translate(151.14 24.86) rotate(8.79)"><tspan x="0" y="0">activation</tspan></text>
  <g>
    <path class="cls-5" d="M54.43,79.12c7.91-8.04,11.72-2.73,24.84-4.96"/>
    <path class="cls-8" d="M75.57,77.52c-.11-.13-.09-.32.04-.42l3.52-2.95-4.16-1.94c-.15-.07-.22-.25-.14-.4.07-.15.25-.21.4-.14l4.58,2.14c.09.04.16.13.17.23s-.03.2-.1.27l-3.88,3.25s-.1.06-.15.07c-.1.01-.2-.02-.27-.1Z"/>
  </g>
  <g>
    <path class="cls-5" d="M170.07,30.62c-4.9,11.57,1.29,8.83-2.14,26.68"/>
    <path class="cls-8" d="M165.7,52.79c.15-.07.33,0,.39.16l1.82,4.21,3.05-3.43c.11-.12.3-.14.42-.03s.13.3.03.42l-3.36,3.79c-.07.08-.17.11-.27.1-.1-.02-.19-.08-.23-.18l-2.01-4.64c-.02-.05-.03-.11-.02-.17.02-.1.08-.19.18-.23Z"/>
  </g>
  <text class="cls-6" transform="translate(214.64 181.21) rotate(-9.44)"><tspan x="0" y="0">now</tspan></text>
  <g>
    <path class="cls-5" d="M219.87,170.24c-1.03-12.82,9.05-9.5,10.74-27.87"/>
    <path class="cls-8" d="M232.99,146.77c-.15.07-.33.01-.4-.14l-2.01-4.12-2.89,3.57c-.1.13-.29.15-.42.04-.13-.1-.15-.29-.04-.42l3.18-3.94c.06-.08.17-.12.27-.11s.19.07.24.17l2.22,4.55c.03.05.03.11.03.17-.01.1-.07.19-.17.24Z"/>
  </g>
  <g>
    <text class="cls-6" transform="translate(23.61 99.86) rotate(-16.01)"><tspan x="0" y="0">track</tspan></text>
    <text class="cls-6" transform="translate(16.08 86.06) rotate(-16.01)"><tspan x="0" y="0" xml:space="preserve"> neural</tspan></text>
  </g>
  <g class="cls-13">
    <use width="138.88" height="24.31" transform="translate(119.44 61.2)" xlink:href="#Executing"/>
  </g>
  <path class="cls-8" d="M239.12,30.62h-16.5l7.75,6.52v101.76c0,.28.22.5.5.5s.5-.22.5-.5V37.14l7.75-6.52Z"/>
  <text class="cls-6" transform="translate(78.48 35.63) rotate(-9.44)"><tspan x="0" y="0">entropy</tspan></text>
  <g>
    <path class="cls-5" d="M98.02,37.86c1.12,6.17,16.43,7.15,13.81,30.01"/>
    <path class="cls-8" d="M109.28,63.54c.15-.08.33-.02.4.13l2.13,4.07,2.79-3.65c.1-.13.29-.16.42-.06s.16.29.06.42l-3.07,4.02c-.06.08-.16.13-.26.12s-.19-.07-.24-.16l-2.34-4.49c-.03-.05-.04-.11-.03-.16,0-.1.07-.19.16-.24Z"/>
  </g>
  <g>
    <path class="cls-5" d="M118.36,72.61c-6.09-2.79-8.22-2.35-13.89-.51"/>
    <path class="cls-8" d="M115.76,68.34c-.14.09-.18.28-.08.42l2.55,3.82-4.54.69c-.16.03-.28.18-.25.34s.18.28.34.25l5-.76c.1-.02.19-.08.23-.18s.03-.2-.02-.29l-2.81-4.21s-.08-.09-.13-.11c-.09-.04-.2-.03-.29.02Z"/>
    <path class="cls-8" d="M107.56,68.18c.13.11.14.3.03.42l-2.99,3.48,4.42,1.24c.16.04.25.21.21.37-.04.16-.21.25-.37.21l-4.87-1.36c-.1-.03-.18-.1-.21-.2-.03-.1,0-.2.06-.28l3.3-3.84s.09-.08.14-.09c.09-.03.2,0,.28.06Z"/>
  </g>
</svg>