<?xml version="1.0" encoding="UTF-8"?><svg id="Layer_1" xmlns="http://www.w3.org/2000/svg" xmlns:xlink="http://www.w3.org/1999/xlink" viewBox="0 0 390.33 237.22"><defs><style>.cls-1,.cls-2,.cls-3,.cls-4,.cls-5{fill:none;}.cls-6{fill:gray;}.cls-7,.cls-2,.cls-3,.cls-8,.cls-4,.cls-5{stroke-miterlimit:10;}.cls-7,.cls-2,.cls-3,.cls-8,.cls-5{stroke:#4d4d4d;}.cls-7,.cls-8,.cls-9{fill:#999;}.cls-10{fill:#4d4d4d;}.cls-11{fill:#ccc;}.cls-2{filter:url(#drop-shadow-5);stroke-width:3px;}.cls-2,.cls-4,.cls-5{stroke-linecap:round;}.cls-8,.cls-12{opacity:.22;}.cls-4{stroke:#ccc;stroke-dasharray:5;}.cls-13{clip-path:url(#clippath);}</style><symbol id="Executing" viewBox="0 0 138.88 24.31"><rect class="cls-9" x=".5" y=".5" width="137.88" height="23.31" rx="3" ry="3"/><rect class="cls-3" x=".5" y=".5" width="137.88" height="23.31" rx="3" ry="3"/><polygon class="cls-6" points="42.94 2.41 33.48 2.41 14.28 21.85 23.74 21.85 42.94 2.41"/><polygon class="cls-6" points="61.01 2.41 51.55 2.41 32.35 21.85 41.81 21.85 61.01 2.41"/><polygon class="cls-6" points="79.08 2.41 69.62 2.41 50.42 21.85 59.88 21.85 79.08 2.41"/><polygon class="cls-6" points="97.15 2.41 87.69 2.41 68.49 21.85 77.95 21.85 97.15 2.41"/><polygon class="cls-6" points="115.22 2.41 105.76 2.41 86.56 21.85 96.02 21.85 115.22 2.41"/><polygon class="cls-6" points="133.29 2.41 123.83 2.41 104.63 21.85 114.09 21.85 133.29 2.41"/><path class="cls-6" d="M24.87,2.41h-9.46L1.94,16.05v3.61c0,.96.55,1.78,1.34,2.2h2.39L24.87,2.41Z"/><polygon class="cls-6" points="122.7 21.85 132.16 21.85 136.94 17.01 136.94 7.43 122.7 21.85"/><path class="cls-6" d="M6.8,2.41h-3.43c-.84.4-1.42,1.25-1.42,2.25v2.67L6.8,2.41Z"/></symbol><filter id="drop-shadow-5" x="32" y="159.55" width="359" height="34" filterUnits="userSpaceOnUse"><feOffset dx="7" dy="7"/><feGaussianBlur result="blur" stdDeviation="5"/><feFlood flood-color="#000" flood-opacity=".07"/><feComposite in2="blur" operator="in"/><feComposite in="SourceGraphic"/></filter><clipPath id="clippath"><rect class="cls-1" x="203.54" y="97.92" width="132.85" height="61.46"/></clipPath></defs><path class="cls-10" d="M37.76,191.05c-.05.12-.2.43-.43.92-.39.93-.62,1.54-.7,1.83-.04.16-.1.28-.16.34-.06.06-.15.09-.26.09s-.22-.04-.29-.13c-.07-.08-.1-.17-.1-.27,0-.37.33-1.26.98-2.67-.71.08-1.27.2-1.68.37-.13.05-.24.08-.32.08-.2,0-.29-.15-.29-.46,0-.18.07-.36.21-.53.27-.32.73-.8,1.38-1.44.8-.79,1.53-1.43,2.18-1.92.56-.42.97-.64,1.22-.64.11,0,.21.05.31.14.07.08.11.16.11.26,0,.12-.07.3-.22.54-.02.04-.19.31-.48.78-.38.61-.73,1.25-1.05,1.92.34-.02.57-.03.68-.03.29,0,.43.11.43.32,0,.19-.08.33-.23.41-.07.03-.28.05-.62.05-.1,0-.31,0-.64.02ZM37.2,190.38c.53-1.04,1.04-1.9,1.52-2.6-.51.29-1.13.79-1.85,1.49-.52.52-.94.97-1.26,1.35.71-.15,1.24-.23,1.6-.25Z"/><path class="cls-10" d="M39.81,193.29c.82-.26,1.57-.39,2.26-.39.27,0,.49.06.65.17.15.1.22.22.22.36,0,.09-.03.18-.1.25s-.15.11-.23.11c-.03,0-.07,0-.13-.02-.25-.07-.48-.1-.69-.1-.18,0-.4.02-.67.05-.09.01-.43.1-1.02.26-.53.14-.84.21-.94.21-.14,0-.26-.07-.36-.2-.09-.12-.14-.25-.14-.38,0-.15.13-.34.38-.59.48-.47.94-.89,1.38-1.27.42-.35.94-.76,1.56-1.22.71-.52,1.2-.9,1.46-1.14.4-.35.6-.7.6-1.05,0-.2-.06-.35-.19-.46-.11-.1-.25-.15-.42-.15-.44,0-.96.25-1.55.74-.27.22-.44.34-.51.34-.05,0-.1-.03-.17-.09-.07-.06-.1-.13-.1-.21,0-.18.21-.42.64-.75.68-.52,1.34-.78,1.96-.78.36,0,.65.11.89.34.23.22.34.49.34.8,0,.55-.28,1.09-.83,1.63-.24.23-.68.59-1.32,1.05-1.54,1.12-2.53,1.95-2.97,2.48Z"/><path class="cls-10" d="M169.1,191.05c-.05.12-.2.43-.43.92-.39.93-.62,1.54-.7,1.83-.04.16-.1.28-.16.34-.06.06-.15.09-.26.09s-.22-.04-.29-.13c-.07-.08-.1-.17-.1-.27,0-.37.33-1.26.98-2.67-.71.08-1.27.2-1.68.37-.13.05-.24.08-.32.08-.2,0-.29-.15-.29-.46,0-.18.07-.36.21-.53.27-.32.73-.8,1.38-1.44.8-.79,1.53-1.43,2.18-1.92.56-.42.97-.64,1.22-.64.11,0,.21.05.31.14.07.08.11.16.11.26,0,.12-.07.3-.22.54-.02.04-.19.31-.48.78-.38.61-.73,1.25-1.05,1.92.34-.02.57-.03.68-.03.29,0,.43.11.43.32,0,.19-.08.33-.23.41-.07.03-.28.05-.62.05-.1,0-.31,0-.64.02ZM168.54,190.38c.53-1.04,1.04-1.9,1.52-2.6-.51.29-1.13.79-1.85,1.49-.52.52-.94.97-1.26,1.35.71-.15,1.24-.23,1.6-.25Z"/><path class="cls-10" d="M174.44,189.7c.24.1.42.22.52.34.15.18.23.43.23.75,0,.8-.33,1.56-1,2.29s-1.36,1.1-2.07,1.1c-.43,0-.79-.18-1.06-.54-.2-.26-.29-.55-.29-.86,0-.52.2-.78.6-.78.24,0,.36.09.36.27,0,.04,0,.09-.01.15-.01.08-.02.17-.02.25,0,.23.06.41.17.53.13.13.28.2.45.2.42,0,.86-.29,1.34-.87.45-.56.68-1.09.68-1.59,0-.25-.06-.45-.18-.6-.13-.16-.31-.23-.55-.23-.09,0-.19.01-.28.04-.11.03-.2.05-.26.05-.14,0-.21-.1-.21-.29,0-.17.06-.3.17-.41.06-.06.2-.12.4-.18.41-.1.75-.24,1.03-.42.18-.12.32-.27.43-.47.05-.1.08-.21.08-.32,0-.14-.04-.25-.11-.31-.08-.07-.19-.1-.35-.1-.26,0-.54.07-.82.21-.07.03-.25.13-.52.3-.07.05-.15.07-.24.07-.17,0-.25-.09-.25-.27,0-.16.12-.33.37-.51.57-.41,1.13-.61,1.68-.61.33,0,.6.1.83.3.24.21.36.47.36.77,0,.4-.17.77-.51,1.11-.19.2-.5.4-.94.62Z"/><path class="cls-10" d="M280.91,191.05c-.05.12-.2.43-.43.92-.39.93-.62,1.54-.7,1.83-.04.16-.1.28-.16.34-.06.06-.15.09-.26.09s-.22-.04-.29-.13c-.07-.08-.1-.17-.1-.27,0-.37.33-1.26.98-2.67-.71.08-1.27.2-1.68.37-.13.05-.24.08-.32.08-.2,0-.29-.15-.29-.46,0-.18.07-.36.21-.53.27-.32.73-.8,1.38-1.44.8-.79,1.53-1.43,2.18-1.92.56-.42.97-.64,1.22-.64.11,0,.21.05.31.14.07.08.11.16.11.26,0,.12-.07.3-.22.54-.02.04-.19.31-.48.78-.38.61-.73,1.25-1.05,1.92.34-.02.57-.03.68-.03.29,0,.43.11.43.32,0,.19-.08.33-.23.41-.07.03-.28.05-.62.05-.1,0-.31,0-.64.02ZM280.35,190.38c.53-1.04,1.04-1.9,1.52-2.6-.51.29-1.13.79-1.85,1.49-.52.52-.94.97-1.26,1.35.71-.15,1.24-.23,1.6-.25Z"/><path class="cls-10" d="M286.04,191.05c-.05.12-.2.43-.43.92-.39.93-.62,1.54-.7,1.83-.04.16-.1.28-.16.34-.06.06-.15.09-.26.09s-.22-.04-.29-.13c-.07-.08-.1-.17-.1-.27,0-.37.33-1.26.98-2.67-.71.08-1.27.2-1.68.37-.13.05-.24.08-.32.08-.2,0-.29-.15-.29-.46,0-.18.07-.36.21-.53.27-.32.73-.8,1.38-1.44.8-.79,1.53-1.43,2.18-1.92.56-.42.97-.64,1.22-.64.11,0,.21.05.31.14.07.08.11.16.11.26,0,.12-.07.3-.22.54-.02.04-.19.31-.48.78-.38.61-.73,1.25-1.05,1.92.34-.02.57-.03.68-.03.29,0,.43.11.43.32,0,.19-.08.33-.23.41-.07.03-.28.05-.62.05-.1,0-.31,0-.64.02ZM285.48,190.38c.53-1.04,1.04-1.9,1.52-2.6-.51.29-1.13.79-1.85,1.49-.52.52-.94.97-1.26,1.35.71-.15,1.24-.23,1.6-.25Z"/><line class="cls-2" x1="41.8" y1="169.92" x2="367.1" y2="169.92"/><line class="cls-4" x1="41.8" y1="108.27" x2="41.8" y2="169.92"/><line class="cls-4" x1="173.14" y1="108.27" x2="173.14" y2="169.92"/><line class="cls-4" x1="284.95" y1="108.27" x2="284.95" y2="169.92"/><circle class="cls-7" cx="41.8" cy="169.92" r="7.2"/><circle class="cls-7" cx="173.14" cy="169.92" r="7.2"/><circle class="cls-7" cx="284.95" cy="169.92" r="7.2"/><path class="cls-11" d="M367.1,147.98c.28,0,.5-.22.5-.5s-.22-.5-.5-.5H23.24c-.28,0-.5.22-.5.5s.22.5.5.5h343.86"/><path class="cls-11" d="M367.1,120c.28,0,.5-.22.5-.5s-.22-.5-.5-.5H23.24c-.28,0-.5.22-.5.5s.22.5.5.5h343.86"/><path class="cls-10" d="M163.73,209.9c-.44.69-.85,1.46-1.23,2.32-.54,1.22-.81,2.13-.81,2.73,0,.17.04.3.11.39.07.09.18.13.32.13.34,0,.76-.32,1.24-.96.31-.4.58-.79.82-1.19.13-.23.27-.34.42-.34.09,0,.16.03.23.09.05.06.08.12.08.18,0,.25-.33.82-.99,1.69-.79,1.05-1.52,1.58-2.17,1.58-.35,0-.64-.16-.87-.48-.14-.21-.22-.5-.22-.87,0-.83.24-1.79.72-2.89.12-.27.44-.93.96-1.98-.18.05-.32.07-.42.07-.14,0-.27-.03-.38-.1-.15-.1-.23-.21-.23-.36,0-.17.1-.31.3-.41.05-.03.31-.07.76-.13.16-.03.4-.09.72-.19.24-.43.63-1.02,1.17-1.75.3-.41.51-.68.63-.8.16-.17.31-.26.43-.26.09,0,.18.05.27.14.08.09.12.18.12.27,0,.18-.19.53-.57,1.06-.25.34-.44.62-.56.83.76-.21,1.3-.31,1.63-.31.38,0,.56.16.56.47,0,.16-.06.27-.19.35-.07.04-.25.08-.53.1-.12,0-.63.12-1.55.39-.25.08-.5.15-.75.24Z"/><path class="cls-10" d="M167.79,210.36c.12,0,.21.04.29.13.05.08.08.15.08.23,0,.12-.1.33-.3.62-.71,1.1-1.22,2.01-1.52,2.72-.32.73-.6,1.48-.85,2.26-.11.34-.28.51-.51.51-.14,0-.25-.05-.33-.16-.08-.09-.11-.18-.11-.29,0-.21.22-.89.66-2.05.34-.92.9-1.93,1.66-3.04.25-.36.43-.61.55-.73.12-.13.25-.19.38-.19ZM169.74,206.56c.31,0,.46.16.46.47,0,.29-.15.61-.45.95-.29.33-.56.5-.83.5-.13,0-.24-.05-.32-.14-.08-.09-.12-.2-.12-.33,0-.33.18-.68.54-1.05.27-.27.51-.41.72-.41Z"/><path class="cls-10" d="M169.64,213.09c.57-.6,1.08-1.07,1.52-1.42.66-.51,1.11-.77,1.33-.77.11,0,.21.04.29.12.08.08.11.16.11.25,0,.13-.12.34-.36.64-.37.46-.63.86-.77,1.19,1.6-1.61,2.69-2.41,3.28-2.41.12,0,.23.04.32.11.1.08.14.18.14.31,0,.19-.15.44-.44.74-1.29,1.33-1.94,2.43-1.94,3.28,0,.35.06.6.18.75l.27.34c.05.06.08.14.08.24,0,.11-.04.21-.13.31-.1.11-.22.16-.35.16-.23,0-.43-.14-.63-.43-.23-.34-.35-.75-.35-1.21,0-.62.18-1.25.53-1.89.12-.23.33-.53.62-.9-.58.44-1.17,1.04-1.77,1.8-.41.52-.78,1.1-1.11,1.74-.16.31-.34.46-.55.46-.23,0-.35-.13-.35-.39,0-.28.19-.86.57-1.73.22-.5.49-1.03.81-1.58-1.17.9-2.05,2.13-2.64,3.67-.14.34-.33.51-.57.51-.11,0-.2-.04-.27-.12-.08-.08-.11-.18-.11-.3,0-.4.23-1.13.68-2.18.47-1.11,1-2.12,1.6-3,.41-.62.73-.93.95-.93.21,0,.31.11.31.33,0,.1-.13.33-.38.72-.44.72-.74,1.25-.88,1.6Z"/><path class="cls-10" d="M176.13,214.54v.18c0,.15.04.28.11.39.17.25.45.38.84.38.85,0,1.84-.66,2.96-1.97.2-.23.37-.34.5-.34.08,0,.14.04.21.11.04.05.06.11.06.15,0,.27-.33.72-.98,1.35-.51.5-1.06.91-1.64,1.22s-1.12.47-1.62.47-.92-.18-1.21-.53c-.2-.25-.3-.58-.3-1,0-1.16.54-2.29,1.63-3.39.88-.9,1.65-1.35,2.31-1.35.18,0,.34.05.48.16.18.14.27.33.27.56,0,.36-.17.81-.5,1.33-.69,1.09-1.73,1.85-3.12,2.27ZM176.35,213.74c.48-.16.85-.35,1.13-.55.48-.37.86-.79,1.14-1.25.1-.16.15-.31.15-.44,0-.14-.06-.21-.19-.21-.18,0-.43.13-.76.4-.59.47-1.08,1.16-1.47,2.05Z"/><path class="cls-5" d="M183.83,212.79c10.97-1.12,25.31,4.32,45.21,2.57"/><path class="cls-10" d="M225.11,218.43c-.1-.13-.07-.32.07-.42l3.73-2.68-4-2.25c-.14-.08-.2-.26-.11-.41.08-.14.27-.19.41-.11l4.41,2.48c.09.05.15.14.15.25,0,.1-.04.2-.12.26l-4.11,2.95s-.1.05-.16.06c-.1,0-.2-.04-.26-.12Z"/><path class="cls-10" d="M49.34,13.28c.18.02.32.12.42.29.07.11.1.23.08.37-.02.2-.24.45-.65.76-1.17.91-1.92,2.04-2.24,3.4-.07.25-.21.43-.41.54-.19.1-.37.15-.54.13-.4-.04-.58-.31-.53-.82.08-.8.63-1.8,1.64-3,.41-.49.88-.93,1.42-1.31.34-.26.61-.38.8-.36ZM52.38,13.58c.17.02.31.12.42.29.07.11.1.23.08.37-.02.2-.24.45-.65.76-1.17.91-1.92,2.04-2.24,3.41-.07.25-.21.43-.41.54-.19.11-.37.15-.54.13-.4-.04-.58-.31-.53-.82.08-.8.63-1.8,1.64-3,.42-.5.89-.94,1.42-1.31.34-.26.61-.38.8-.36Z"/><path class="cls-10" d="M56.17,24.51c.81-.55,1.51-.8,2.1-.74.37.04.65.22.86.55.19.29.27.62.23.98-.07.68-.38,1.49-.92,2.41-.61,1.03-1.43,1.95-2.47,2.79-.86.69-1.64,1-2.35.93-.26-.03-.5-.1-.7-.22-.2-.12-.38-.28-.53-.49-.08.12-.13.19-.16.22-.18.31-.3.5-.37.56-.06.06-.16.09-.28.08-.16-.02-.3-.12-.42-.32-.08-.13-.12-.27-.1-.41.02-.25.65-1.43,1.88-3.56,1.72-2.97,3.67-5.9,5.83-8.79.88-1.18,1.41-1.88,1.6-2.08.21-.24.39-.36.55-.34.19.02.35.13.48.34.08.13.12.28.1.45-.02.18-.12.41-.32.67-.04.06-.36.48-.96,1.27-1.83,2.29-3.19,4.19-4.07,5.71ZM53.38,29.97c.13.1.26.16.41.17.76.08,1.63-.5,2.61-1.74.45-.55.82-1.11,1.11-1.68.25-.5.39-.88.42-1.14.02-.17,0-.31-.08-.4-.07-.09-.19-.14-.35-.16-.4-.04-.92.19-1.54.68-.62.49-1.26,1.21-1.92,2.18-.31.46-.58.9-.82,1.31l-.21.34c.11.19.23.33.36.43Z"/><path class="cls-10" d="M61.77,27.64c-.33.66-.58,1.19-.76,1.59-.17.41-.27.69-.29.86-.02.22.07.34.28.36.31.03.75-.22,1.31-.77.27-.27.67-.75,1.21-1.46.21-.28.42-.41.62-.39.23.02.33.14.31.36-.04.38-.55,1.09-1.53,2.15-1.02,1.11-1.92,1.62-2.69,1.54-.33-.03-.59-.2-.77-.5-.13-.22-.18-.47-.15-.76.05-.49.27-1.15.65-1.99.38-.84.93-1.84,1.64-3.03,1.82-3,3.62-5.45,5.39-7.34,1.42-1.52,2.54-2.24,3.36-2.15.26.03.47.15.61.37.15.22.22.46.19.72-.12,1.22-1.42,3.15-3.9,5.78-1.11,1.17-2.41,2.32-3.9,3.45-.39.3-.93.69-1.6,1.19ZM62.92,25.64c1.98-1.37,3.8-3.18,5.48-5.41.87-1.16,1.32-1.94,1.36-2.34.02-.19-.05-.3-.22-.31-.48-.05-1.45.82-2.91,2.61-1.21,1.47-2.44,3.29-3.71,5.46Z"/><path class="cls-10" d="M70.87,24.41c.72.07,1.03.55.94,1.42-.12,1.16-.8,2.58-2.06,4.26-1.37,1.81-2.6,2.67-3.69,2.56-.51-.05-.85-.33-1.04-.82-.1-.25-.13-.54-.1-.87.11-1.12.62-2.29,1.52-3.53.84-1.14,1.78-2,2.82-2.58.61-.34,1.14-.48,1.61-.43ZM69.01,29.23c-.2-.2-.3-.34-.29-.44,0-.07.17-.25.48-.53.88-.8,1.34-1.48,1.4-2.02,0-.07,0-.14-.04-.22-.06-.14-.16-.21-.31-.23-.28-.03-.72.2-1.31.69-.77.63-1.38,1.3-1.82,2-.51.8-.8,1.49-.86,2.05-.02.15.01.28.08.41.1.17.23.26.41.28.42.04.9-.23,1.45-.81.24-.24.43-.5.59-.76s.24-.4.23-.41Z"/><path class="cls-10" d="M76.76,25.33c.69.07,1,.47.93,1.19-.06.64-.38,1.26-.94,1.85-.43.45-.8.66-1.08.63-.25-.02-.35-.18-.33-.46.02-.15.06-.26.14-.34.03-.03.14-.12.35-.27.17-.13.36-.34.55-.62.13-.19.21-.35.22-.47.01-.14-.06-.22-.21-.23-.18-.02-.48.1-.88.35-.64.4-1.31,1.07-2,2-.72.97-1.1,1.75-1.16,2.35-.02.19.02.37.12.53.14.24.35.38.63.41.55.06,1.24-.22,2.06-.83.7-.52,1.29-1.05,1.79-1.59.26-.3.47-.44.64-.43.1,0,.18.06.25.16.06.09.09.19.08.27-.03.32-.51.91-1.44,1.76-1.47,1.34-2.74,1.95-3.82,1.84-.65-.07-1.12-.35-1.41-.84-.21-.37-.29-.78-.25-1.24.09-.91.57-1.92,1.45-3.05.84-1.07,1.77-1.91,2.8-2.51.6-.35,1.11-.5,1.53-.46Z"/><path class="cls-10" d="M84.48,28.66c-.71,1.35-1.1,2.39-1.18,3.13-.04.36,0,.66.12.91.14.32.36.49.65.52.59.06,1.32-.27,2.18-.99.57-.45,1.05-.93,1.45-1.42.26-.33.5-.48.7-.46s.29.13.27.33c-.03.33-.5.97-1.41,1.92-1.34,1.41-2.57,2.06-3.69,1.95-.67-.07-1.12-.44-1.33-1.13-.16-.5-.22-1.02-.16-1.55.04-.45.22-1.1.51-1.95-.62.41-1.59,1.48-2.93,3.2-.36.47-.66.69-.91.66-.13-.01-.24-.08-.32-.21-.08-.13-.12-.26-.11-.38.04-.35.61-1.47,1.73-3.36,1.97-3.31,3.99-6.05,6.08-8.24,1.13-1.19,2.12-2.05,2.97-2.56.77-.47,1.37-.68,1.8-.64.19.02.35.12.49.29.17.21.25.46.22.74-.07.74-.56,1.66-1.46,2.74-.93,1.12-2.46,2.42-4.58,3.92-1.19.83-2.25,1.48-3.18,1.93-.14.22-.52.85-1.16,1.9,1.21-1.07,2.16-1.8,2.84-2.18.44-.24,1.02-.48,1.75-.71.49-.15.84-.22,1.05-.2.11.01.21.07.29.16.09.09.13.2.11.33-.03.29-.25.47-.65.54-.69.13-1.4.4-2.15.79ZM83.58,26.29c1.53-.8,2.99-1.87,4.38-3.2.69-.66,1.26-1.31,1.71-1.95.31-.45.48-.77.5-.97.02-.2-.06-.31-.25-.33-.49-.05-1.41.62-2.76,2-1.11,1.15-2.31,2.63-3.58,4.45Z"/><path class="cls-10" d="M92.31,27.18c.15.01.27.08.35.21.06.1.09.2.08.3-.02.16-.17.41-.46.75-1.05,1.32-1.82,2.41-2.29,3.28-.51.89-.97,1.82-1.38,2.78-.18.42-.42.62-.72.59-.17-.02-.31-.1-.4-.25-.08-.12-.12-.25-.11-.38.03-.26.39-1.11,1.1-2.54.56-1.13,1.39-2.35,2.52-3.67.36-.43.63-.72.8-.86.17-.15.34-.22.51-.2ZM95.29,22.57c.39.04.57.26.53.66-.04.37-.27.75-.7,1.16-.41.39-.79.57-1.13.54-.17-.02-.3-.09-.39-.22-.09-.12-.13-.27-.12-.44.04-.42.32-.84.83-1.27.38-.32.7-.46.97-.43Z"/><path class="cls-10" d="M94.5,30.8c.12-.09.24-.19.36-.28,2.01-1.6,3.32-2.37,3.94-2.3.34.03.49.24.45.62-.03.26-.21.56-.55.88-1.87,1.78-2.88,3.42-3.03,4.9-.05.48.04.95.25,1.42.1.21.15.38.14.49-.01.11-.07.2-.19.29-.13.11-.27.16-.43.14-.36-.04-.64-.29-.84-.77-.19-.45-.26-.98-.2-1.6.12-1.18.7-2.44,1.73-3.79-1.27.64-2.51,1.88-3.73,3.71-.31.44-.61.64-.91.61-.15-.01-.27-.08-.35-.19-.11-.13-.16-.3-.14-.49.05-.47.71-1.66,1.99-3.55.69-1.03,1.22-1.77,1.6-2.22.38-.45.69-.66.93-.64.11.01.22.08.31.19.11.13.16.28.14.44-.02.19-.17.46-.46.79-.42.5-.77.95-1.04,1.37Z"/><path class="cls-10" d="M102.57,35.01c1-.59,1.76-1.14,2.27-1.65.76-.75,1.3-1.36,1.63-1.84.16-.21.32-.31.47-.3.21.02.3.13.28.33-.02.24-.23.61-.62,1.13-1.2,1.58-2.9,2.88-5.09,3.93-1.17,1.91-2.01,3.21-2.54,3.88-1.4,1.77-2.63,2.6-3.7,2.49-.56-.06-.94-.32-1.14-.78-.11-.27-.16-.56-.12-.89.14-1.37,1.15-2.6,3.05-3.68.3-.18,1.5-.72,3.6-1.62.47-.77.83-1.38,1.09-1.83-1.02.87-1.82,1.27-2.43,1.21-.38-.04-.65-.26-.82-.67-.11-.27-.14-.54-.12-.81.06-.63.4-1.41,1.02-2.35.88-1.35,1.88-2.39,2.99-3.12.94-.6,1.74-.87,2.4-.8.34.03.62.19.84.47.15.18.21.44.18.76-.04.4-.23.89-.56,1.45.18.21.27.37.26.46,0,.06-.06.14-.16.25-.27.3-.71.87-1.33,1.71-.54.73-1.03,1.48-1.46,2.25ZM99.73,37.46c-1.2.37-2.3,1.01-3.28,1.92-.46.42-.8.88-1.03,1.38-.07.15-.11.28-.12.39-.01.11,0,.22.05.31.08.17.21.26.38.28.54.05,1.23-.46,2.08-1.55.73-.94,1.37-1.85,1.92-2.72ZM102.78,31.97c-.11-.14-.16-.24-.16-.29,0-.08.08-.17.23-.28.48-.38.88-.78,1.19-1.2.25-.34.39-.61.41-.81.02-.24-.07-.37-.29-.39-.38-.04-.95.27-1.72.91-.92.76-1.66,1.65-2.23,2.65-.28.5-.44.89-.46,1.17-.02.16,0,.28.07.37s.16.13.29.15c.31.03.77-.24,1.38-.81.39-.37.73-.73,1.01-1.09.19-.24.28-.36.28-.37Z"/><path class="cls-10" d="M117.52,35.48c-.34.48-.67.88-.98,1.2-.62.63-1.2.91-1.74.86-.47-.05-.82-.31-1.03-.78-.14-.31-.19-.65-.15-1.05.1-.97.51-2.01,1.24-3.12.81-1.23,1.74-2.15,2.77-2.75.68-.39,1.31-.56,1.89-.5.37.04.66.18.88.43.19.22.27.46.25.71-.02.19-.12.45-.3.78.11.2.16.36.15.5-.02.18-.17.47-.46.87-.3.4-.61.95-.93,1.63-.35.72-.54,1.31-.59,1.77-.04.37.04.68.24.94.05.07.22.19.51.36.21.13.3.32.27.58-.02.17-.09.29-.22.39-.14.1-.3.14-.48.12-.47-.05-.86-.3-1.16-.75-.25-.37-.34-.81-.29-1.33.02-.17.06-.46.14-.86ZM119.6,31.33c-.09-.2-.19-.36-.3-.46-.11-.1-.24-.16-.38-.18-.66-.07-1.44.44-2.34,1.53-.99,1.2-1.52,2.24-1.61,3.14-.02.22,0,.39.07.51s.19.19.36.21c.42.04.95-.35,1.6-1.19.36-.46.83-1.14,1.39-2.05.37-.59.63-.98.79-1.17.08-.1.22-.21.42-.34Z"/><path class="cls-10" d="M125.97,30.3c.69.07,1,.47.93,1.19-.06.64-.38,1.26-.94,1.85-.43.45-.79.66-1.08.63-.24-.02-.35-.18-.32-.46.02-.15.06-.26.14-.34.03-.03.14-.12.34-.27.17-.13.36-.34.55-.62.13-.19.21-.35.22-.47.01-.14-.06-.22-.22-.23-.18-.02-.48.1-.88.35-.64.4-1.31,1.07-2,2-.72.97-1.1,1.75-1.16,2.35-.02.19.02.37.12.53.14.24.35.38.63.41.55.06,1.24-.22,2.06-.83.7-.52,1.29-1.05,1.79-1.59.26-.3.47-.44.64-.43.1,0,.18.06.25.16.06.09.09.19.08.27-.03.32-.51.91-1.44,1.76-1.47,1.34-2.74,1.95-3.82,1.84-.65-.07-1.12-.35-1.41-.84-.21-.37-.29-.78-.25-1.24.09-.91.57-1.92,1.45-3.05.84-1.07,1.77-1.91,2.8-2.51.6-.35,1.11-.5,1.53-.46Z"/><path class="cls-10" d="M133.4,30.73c-.66.83-1.28,1.76-1.87,2.81-.85,1.49-1.31,2.62-1.39,3.38-.02.22,0,.39.09.51.08.12.21.19.4.21.44.04,1.01-.31,1.71-1.07.44-.47.85-.94,1.2-1.42.2-.27.39-.4.58-.38.11.01.21.06.28.15.06.09.09.17.08.25-.03.32-.53,1-1.49,2.04-1.15,1.24-2.15,1.82-2.98,1.74-.45-.04-.8-.29-1.05-.73-.16-.28-.21-.66-.16-1.14.11-1.06.54-2.26,1.29-3.61.18-.33.68-1.14,1.49-2.41-.24.04-.42.05-.55.04-.18-.02-.34-.08-.47-.18-.18-.14-.26-.3-.24-.49.02-.22.17-.38.43-.49.07-.03.4-.05.99-.07.21-.01.53-.07.94-.16.36-.52.94-1.22,1.72-2.09.44-.49.74-.8.9-.94.23-.2.43-.29.58-.27.11.01.22.08.32.22.09.12.13.24.12.36-.02.23-.31.65-.87,1.28-.37.4-.64.73-.83.99,1-.16,1.71-.23,2.13-.18.48.05.7.27.66.68-.02.2-.12.34-.29.42-.09.04-.32.06-.7.06-.15-.02-.83.08-2.03.3-.33.06-.66.13-.99.21Z"/><path class="cls-10" d="M138.53,31.85c.15.02.27.08.35.21.06.1.09.2.08.3-.02.16-.17.41-.46.75-1.05,1.32-1.82,2.41-2.29,3.28-.51.89-.97,1.82-1.38,2.78-.18.42-.42.62-.72.59-.17-.02-.31-.1-.4-.25-.08-.12-.12-.25-.11-.38.03-.26.39-1.11,1.1-2.54.56-1.13,1.39-2.35,2.52-3.67.36-.43.63-.72.8-.86.17-.15.34-.22.51-.2ZM141.52,27.23c.39.04.57.26.53.66-.04.37-.27.75-.7,1.16-.41.39-.79.57-1.13.54-.17-.02-.3-.09-.39-.22-.09-.12-.13-.27-.12-.44.04-.42.32-.84.83-1.27.38-.32.7-.46.97-.43Z"/><path class="cls-10" d="M143.05,36.62c-.63.86-1.15,1.5-1.58,1.91-1.05,1.01-1.88,1.48-2.5,1.42-.38-.04-.64-.27-.8-.7-.11-.29-.15-.58-.12-.87.06-.58.39-1.39,1-2.43.54-.91.99-1.62,1.36-2.14.27-.37.43-.62.49-.73.13-.23.24-.4.33-.51.13-.17.3-.25.5-.23.1.01.19.06.26.16.08.11.11.24.09.38-.04.39-.48,1.24-1.33,2.53-.84,1.28-1.29,2.13-1.33,2.57-.03.28.07.43.29.45.38.04.96-.4,1.75-1.31.35-.41.73-.93,1.13-1.57.01-.22.03-.39.04-.5.07-.66.25-1.21.54-1.67.38-.59.83-.86,1.37-.8.31.03.44.23.4.6-.06.59-.45,1.42-1.18,2.49.17.05.31.08.41.09.29.03.68-.12,1.18-.44.4-.26.65-.38.77-.37.1,0,.19.08.28.2.07.1.1.2.09.3-.03.31-.29.65-.76,1-.55.4-1.15.56-1.8.49-.25-.03-.54-.13-.86-.31Z"/><path class="cls-10" d="M149.36,38.69c-.34.48-.67.88-.98,1.2-.62.63-1.2.91-1.74.86-.47-.05-.82-.31-1.03-.78-.14-.3-.19-.65-.15-1.05.1-.97.51-2.01,1.24-3.12.81-1.23,1.74-2.15,2.77-2.75.68-.39,1.31-.56,1.89-.5.37.04.66.18.88.43.19.22.27.46.25.71-.02.19-.12.45-.3.78.11.2.16.37.15.5-.02.18-.17.47-.46.87-.3.4-.61.95-.93,1.63-.35.72-.54,1.31-.59,1.77-.04.37.04.68.24.94.06.07.22.19.51.36.21.13.3.32.27.58-.02.17-.09.3-.22.39-.14.1-.3.14-.48.12-.47-.05-.86-.3-1.16-.75-.25-.37-.34-.81-.29-1.33.02-.17.06-.46.14-.86ZM151.43,34.54c-.08-.2-.18-.36-.3-.46-.11-.1-.24-.16-.38-.18-.66-.07-1.44.44-2.34,1.53-.99,1.2-1.53,2.24-1.62,3.14-.02.22,0,.39.07.51s.19.19.36.21c.42.04.95-.35,1.6-1.19.36-.46.83-1.14,1.39-2.05.37-.59.63-.98.79-1.17.08-.1.22-.21.42-.34Z"/><path class="cls-10" d="M157.89,33.21c-.66.83-1.28,1.76-1.87,2.8-.85,1.49-1.31,2.62-1.39,3.38-.02.22,0,.39.09.51.08.12.21.19.4.21.44.04,1.01-.31,1.71-1.07.44-.47.85-.94,1.2-1.42.2-.27.39-.4.58-.38.11.01.21.06.28.15.06.09.09.17.08.25-.03.32-.53,1-1.49,2.04-1.15,1.24-2.15,1.82-2.98,1.74-.45-.04-.8-.29-1.05-.73-.16-.28-.21-.66-.16-1.14.11-1.06.54-2.26,1.29-3.61.18-.33.68-1.14,1.49-2.41-.24.04-.42.05-.55.04-.18-.02-.34-.08-.47-.18-.18-.14-.26-.3-.24-.49.02-.22.17-.38.43-.49.07-.03.4-.05.99-.07.21-.01.53-.07.94-.16.36-.52.94-1.22,1.72-2.09.44-.49.74-.8.9-.94.23-.2.43-.29.58-.27.11.01.22.08.32.22.09.12.13.24.12.36-.02.23-.31.65-.87,1.28-.37.4-.64.73-.83.99,1-.16,1.71-.23,2.13-.18.48.05.7.27.66.68-.02.2-.12.34-.29.42-.09.04-.32.06-.7.06-.15-.02-.83.08-2.03.3-.33.06-.66.13-.99.21Z"/><path class="cls-10" d="M163.02,34.32c.15.02.27.08.35.21.06.1.09.2.08.3-.02.16-.17.41-.46.75-1.05,1.32-1.82,2.41-2.29,3.28-.51.89-.97,1.82-1.38,2.78-.18.42-.42.62-.72.59-.18-.02-.31-.1-.4-.25-.08-.12-.12-.25-.11-.38.03-.26.39-1.11,1.1-2.54.56-1.13,1.39-2.35,2.52-3.67.36-.43.63-.72.8-.86.17-.15.34-.22.51-.2ZM166.01,29.71c.39.04.57.26.53.66-.04.37-.27.75-.7,1.16-.41.39-.79.57-1.13.54-.17-.02-.3-.09-.39-.22-.09-.12-.13-.27-.12-.44.04-.42.32-.84.83-1.27.38-.32.7-.46.97-.43Z"/><path class="cls-10" d="M168.25,34.24c.72.07,1.03.55.94,1.42-.12,1.16-.8,2.58-2.06,4.26-1.37,1.81-2.6,2.67-3.69,2.56-.51-.05-.85-.33-1.04-.82-.1-.25-.13-.54-.1-.87.11-1.12.62-2.3,1.52-3.53.84-1.14,1.78-2,2.82-2.58.61-.34,1.14-.48,1.61-.43ZM166.39,39.06c-.2-.2-.3-.34-.29-.44,0-.07.17-.25.48-.54.88-.8,1.34-1.48,1.4-2.02,0-.07,0-.14-.04-.22-.06-.14-.16-.21-.31-.23-.28-.03-.72.2-1.31.69-.77.63-1.38,1.3-1.82,2-.51.81-.8,1.49-.86,2.05-.02.15.01.28.08.41.1.17.23.26.41.28.42.04.9-.23,1.45-.81.24-.24.43-.5.59-.76s.23-.41.23-.42Z"/><path class="cls-10" d="M171.45,38.56c.12-.09.24-.19.36-.28,2.01-1.6,3.32-2.37,3.94-2.3.34.03.49.24.46.62-.03.26-.21.56-.55.88-1.87,1.78-2.88,3.42-3.03,4.9-.05.48.04.95.25,1.42.1.21.15.38.14.49-.01.11-.07.2-.19.29-.13.11-.27.16-.42.14-.36-.04-.64-.29-.84-.77-.19-.45-.26-.98-.2-1.6.12-1.18.7-2.44,1.73-3.79-1.27.64-2.51,1.88-3.73,3.71-.31.44-.61.64-.91.61-.15-.01-.27-.08-.35-.19-.11-.13-.16-.3-.14-.49.05-.47.71-1.66,1.99-3.55.69-1.03,1.22-1.77,1.6-2.22.38-.45.69-.66.93-.64.11.01.22.08.31.19.11.13.16.28.14.44-.02.19-.17.46-.46.79-.42.5-.77.95-1.04,1.37Z"/><path class="cls-10" d="M185.19,26.99c.41.04.59.32.54.84-.08.8-.63,1.79-1.64,2.99-.41.49-.88.93-1.42,1.31-.34.26-.61.38-.8.36-.18-.02-.32-.12-.42-.29-.07-.11-.09-.24-.08-.38.02-.19.23-.44.65-.74,1.17-.92,1.92-2.05,2.24-3.41.07-.25.21-.43.41-.55.19-.1.36-.14.53-.12ZM188.23,27.3c.41.04.59.32.54.84-.08.8-.63,1.79-1.64,2.99-.41.49-.88.93-1.42,1.31-.34.26-.61.38-.8.36-.18-.02-.32-.12-.42-.29-.07-.11-.1-.24-.08-.38.02-.19.23-.44.65-.74,1.18-.92,1.92-2.05,2.24-3.41.07-.25.21-.43.41-.55.19-.1.36-.14.53-.12Z"/><g class="cls-12"><line class="cls-4" x1="97.38" y1="108.27" x2="97.38" y2="161.15"/></g><g class="cls-12"><line class="cls-4" x1="151.6" y1="108.27" x2="151.6" y2="161.15"/></g><g class="cls-12"><line class="cls-4" x1="205.81" y1="108.27" x2="205.81" y2="161.15"/></g><g class="cls-12"><line class="cls-4" x1="260.02" y1="108.27" x2="260.02" y2="161.15"/></g><g class="cls-12"><line class="cls-4" x1="314.23" y1="108.27" x2="314.23" y2="161.15"/></g><circle class="cls-8" cx="97.38" cy="169.92" r="7.2"/><circle class="cls-8" cx="151.6" cy="169.92" r="7.2"/><circle class="cls-8" cx="205.81" cy="169.92" r="7.2"/><circle class="cls-8" cx="260.05" cy="169.92" r="7.2"/><circle class="cls-8" cx="314.26" cy="169.92" r="7.2"/><g class="cls-13"><use width="138.88" height="24.31" transform="translate(296.15 121.59)" xlink:href="#Executing"/></g><path class="cls-10" d="M344.64,90.67h-16.5l7.75,6.52v99.86c0,.28.22.5.5.5s.5-.22.5-.5v-99.86l7.75-6.52Z"/><path class="cls-10" d="M114.64,86.28c.41-.11.74-.12.98-.02.24.09.4.29.48.58.1.39.06.8-.14,1.24-.19.42-.53.8-1.03,1.16-.28.19-.52.32-.72.37-.28.07-.45-.01-.51-.26-.04-.17,0-.31.14-.44.03-.03.25-.15.63-.35.23-.12.43-.29.58-.52.14-.2.18-.39.14-.57-.04-.14-.1-.23-.2-.28s-.22-.05-.38,0c-.38.1-.77.37-1.15.8-.44.49-.6.98-.47,1.46.09.34.38.73.86,1.15.54.46.86.88.96,1.28.15.58.01,1.11-.42,1.57-.26.29-.6.49-1,.59-.63.17-1.18.07-1.63-.3-.32-.26-.53-.62-.65-1.06-.13-.52-.12-.98.06-1.4.11-.28.26-.44.44-.49.17-.04.27,0,.3.13.01.05,0,.14-.03.26-.08.32-.07.68.03,1.06.08.32.27.57.56.73.26.14.52.18.78.11.26-.07.44-.21.54-.42.08-.18.09-.38.03-.6-.07-.28-.33-.6-.76-.96-.6-.49-.96-.99-1.09-1.48-.17-.66.03-1.34.62-2.04.57-.67,1.25-1.11,2.03-1.32Z"/><path class="cls-10" d="M118.94,85.36c-.25.78-.46,1.63-.6,2.55-.21,1.31-.24,2.26-.09,2.84.04.17.11.28.2.35.09.07.21.08.35.05.33-.09.65-.5.96-1.25.2-.46.36-.91.49-1.36.07-.25.18-.4.32-.43.09-.02.17-.01.24.03.07.05.11.1.13.16.06.24-.11.87-.53,1.89-.5,1.22-1.07,1.91-1.7,2.08-.34.09-.66,0-.97-.25-.19-.16-.33-.42-.43-.79-.21-.8-.22-1.79-.04-2.98.04-.29.19-1.01.43-2.16-.17.09-.3.15-.39.18-.14.04-.27.04-.39,0-.17-.05-.27-.15-.31-.29-.04-.17.02-.32.18-.47.05-.04.28-.15.7-.32.15-.07.37-.19.65-.37.12-.48.35-1.14.69-1.99.19-.47.32-.78.4-.93.12-.21.23-.33.35-.36.09-.02.18,0,.29.07.1.07.16.14.19.23.04.17-.05.56-.29,1.17-.16.39-.27.71-.33.95.68-.39,1.18-.63,1.5-.71.36-.09.58,0,.67.31.04.15,0,.28-.1.39-.06.06-.22.13-.49.23-.11.02-.58.28-1.4.77-.23.14-.45.28-.67.42Z"/><path class="cls-10" d="M122.89,87.66c.47-.86,1.04-1.74,1.71-2.62.24-.32.51-.62.8-.92.15-.14.24-.22.29-.23.1-.03.22.02.35.14.08.06.13.13.15.19.03.12-.05.31-.25.58-.53.71-.77,1.2-.69,1.47.04.15.15.21.32.16.29-.08.71-.44,1.28-1.09.1-.11.19-.18.27-.2.05-.01.11,0,.18.04.08.04.12.1.14.17.05.2-.15.58-.59,1.13-.47.59-.96.95-1.48,1.09-.21.05-.42.05-.63-.02-.18-.05-.29-.2-.36-.44-.04-.17-.02-.37.06-.62-.43.51-.87,1.3-1.35,2.39-.26.66-.49,1.45-.68,2.37-.07.34-.22.55-.45.6-.24.06-.4-.02-.46-.25-.06-.22-.03-.88.1-1.96.19-1.6.49-2.89.9-3.85.25-.6.51-.93.77-1,.09-.02.17-.02.26.02.1.04.17.12.19.21.03.1,0,.25-.09.47-.02.04-.13.31-.35.8-.2.47-.32.92-.38,1.34Z"/><path class="cls-10" d="M128.43,87.66l.05.18c.04.15.11.26.21.35.23.2.53.25.91.15.83-.22,1.62-1.1,2.37-2.66.13-.27.27-.42.4-.46.07-.02.15,0,.23.06.05.04.09.09.1.13.07.26-.14.78-.61,1.56-.37.61-.79,1.15-1.28,1.6-.48.45-.96.74-1.45.87-.5.13-.93.06-1.31-.21-.25-.19-.43-.49-.54-.9-.29-1.12-.05-2.35.72-3.7.62-1.1,1.25-1.73,1.89-1.89.17-.04.34-.03.51.04.21.09.34.25.4.48.09.35.04.82-.15,1.42-.39,1.23-1.2,2.23-2.44,2.98ZM128.44,86.83c.42-.28.74-.55.95-.82.37-.48.63-.98.78-1.5.06-.18.07-.34.04-.47-.04-.13-.11-.18-.24-.15-.17.05-.38.24-.63.58-.45.61-.75,1.39-.9,2.36Z"/><path class="cls-10" d="M135.68,80.97c-.25.78-.46,1.63-.6,2.55-.21,1.31-.24,2.26-.09,2.84.04.17.11.28.2.35.09.07.21.08.35.05.33-.09.65-.5.96-1.25.2-.46.36-.91.49-1.36.07-.25.18-.4.32-.43.09-.02.17-.01.24.03.07.04.11.1.13.16.06.24-.11.87-.53,1.89-.5,1.22-1.07,1.91-1.7,2.08-.34.09-.66,0-.97-.25-.19-.16-.33-.42-.43-.79-.21-.8-.22-1.79-.04-2.98.04-.29.19-1.01.43-2.16-.17.09-.29.15-.39.18-.14.04-.27.04-.39,0-.17-.05-.27-.15-.31-.29-.04-.17.02-.32.18-.47.05-.04.28-.15.7-.32.15-.07.37-.19.64-.37.12-.48.35-1.14.69-1.99.19-.47.32-.78.4-.93.12-.21.23-.33.35-.36.09-.02.18,0,.29.07.1.06.16.14.19.23.04.17-.05.56-.29,1.17-.16.4-.27.71-.33.95.68-.39,1.18-.63,1.5-.71.36-.09.59,0,.67.31.04.15,0,.28-.1.39-.06.06-.22.13-.49.23-.11.02-.58.28-1.4.77-.23.14-.45.28-.66.42Z"/><path class="cls-10" d="M140.66,79.92c.52-.14.86.07,1,.62.13.48.07,1.02-.18,1.61-.19.45-.4.7-.62.76-.19.05-.31-.03-.36-.24-.03-.11-.03-.21,0-.29.01-.03.07-.13.18-.29.09-.14.17-.34.23-.6.05-.17.06-.31.03-.4-.03-.11-.1-.14-.22-.11-.14.04-.32.2-.55.49-.36.47-.66,1.13-.92,2-.26.9-.33,1.58-.21,2.03.04.15.11.26.23.35.17.14.36.18.57.12.42-.11.84-.5,1.28-1.16.37-.57.66-1.12.87-1.65.11-.29.22-.45.35-.48.07-.02.15,0,.22.05.07.05.11.11.13.18.06.24-.12.8-.57,1.67-.71,1.37-1.47,2.17-2.28,2.38-.49.13-.91.05-1.26-.23-.25-.21-.42-.49-.52-.84-.18-.69-.11-1.56.23-2.61.32-1.01.77-1.88,1.36-2.59.34-.42.67-.66.99-.75Z"/><path class="cls-10" d="M145.59,80.86c.36-.64.73-1.19,1.13-1.66.51-.6.91-.94,1.18-1.01.11-.03.23-.01.36.05.15.07.24.18.27.32.05.18-.02.49-.21.95-.36.87-.6,1.64-.73,2.31-.12.58-.15.96-.1,1.15.05.18.16.25.33.2.36-.09.79-.89,1.31-2.38.1-.3.23-.47.36-.51s.23.02.27.18c.07.26-.05.82-.37,1.68-.27.75-.6,1.36-.99,1.82-.28.32-.55.52-.82.59-.28.08-.52,0-.71-.21-.12-.13-.2-.29-.25-.48-.15-.59-.12-1.31.1-2.18.05-.2.22-.79.49-1.76-1.17,1.04-1.92,2.8-2.26,5.31-.02.28-.12.44-.29.49-.12.03-.24.02-.34-.05-.1-.07-.17-.17-.21-.31-.06-.22,0-.89.15-2.02.29-2.1.61-3.89.94-5.38.33-1.5.73-3.07,1.19-4.71.11-.4.2-.67.28-.82.08-.15.18-.24.31-.27.12-.03.24,0,.36.11.09.07.15.17.18.29.05.18,0,.46-.12.83-.42,1.29-.82,2.69-1.18,4.2-.39,1.61-.6,2.7-.64,3.26Z"/><path class="cls-10" d="M151.63,77.27c.11-.03.22-.01.31.06.07.06.12.12.14.2.03.12-.01.34-.13.67-.41,1.24-.67,2.25-.78,3.01-.12.79-.21,1.59-.25,2.4-.02.36-.14.57-.37.62-.13.04-.25,0-.36-.08-.09-.07-.16-.15-.18-.25-.05-.2-.01-.92.11-2.15.1-.97.38-2.09.84-3.36.15-.41.26-.69.35-.84.08-.16.19-.25.32-.29ZM152.55,73.09c.3-.08.49.04.57.34.07.28,0,.62-.2,1.04-.19.4-.42.63-.68.7-.12.03-.24.01-.34-.06-.1-.07-.17-.16-.2-.29-.08-.32,0-.7.26-1.15.19-.33.38-.53.59-.58Z"/><path class="cls-10" d="M154.21,79.3c.07-.1.13-.2.19-.3,1.03-1.71,1.78-2.63,2.25-2.75.26-.07.42.04.5.33.05.2,0,.46-.16.79-.88,1.81-1.17,3.27-.87,4.4.1.36.29.68.57.96.13.13.21.24.23.32.02.08,0,.17-.06.26-.06.12-.15.19-.27.22-.27.07-.54-.04-.82-.34-.26-.28-.46-.65-.58-1.11-.23-.89-.16-1.97.23-3.23-.75.81-1.32,2.05-1.71,3.71-.11.4-.27.63-.5.69-.11.03-.22.01-.31-.05-.12-.07-.19-.18-.23-.32-.09-.36.07-1.4.48-3.13.22-.93.41-1.62.56-2.06.16-.43.32-.67.5-.71.09-.02.18,0,.28.05.12.07.19.16.22.28.04.15,0,.38-.12.7-.17.48-.3.9-.39,1.28Z"/><path class="cls-10" d="M161.24,80.18c.57-.7.98-1.31,1.21-1.82.35-.75.58-1.34.69-1.78.06-.2.15-.31.26-.34.16-.04.26.01.3.17.05.18,0,.51-.14.99-.45,1.47-1.33,2.89-2.64,4.24-.33,1.71-.59,2.88-.79,3.52-.54,1.67-1.21,2.61-2.02,2.82-.42.11-.77.03-1.04-.26-.16-.16-.27-.37-.33-.61-.27-1.04.13-2.21,1.22-3.51.17-.21.9-.93,2.18-2.16.13-.69.23-1.23.29-1.62-.5.91-.98,1.42-1.44,1.54-.29.08-.54-.01-.78-.26-.15-.17-.25-.35-.3-.56-.12-.48-.09-1.14.1-1.99.27-1.22.72-2.25,1.33-3.08.52-.69,1.03-1.11,1.53-1.24.26-.07.5-.03.74.11.16.09.27.26.33.51.08.3.08.71-.01,1.21.19.11.29.19.31.27.01.05,0,.12-.05.22-.12.29-.28.83-.5,1.61-.2.68-.35,1.36-.45,2.04ZM159.83,82.74c-.78.6-1.4,1.36-1.87,2.29-.22.43-.34.86-.37,1.28,0,.13,0,.23.02.31.02.09.06.16.12.21.1.1.22.13.35.1.41-.11.77-.67,1.09-1.7.28-.88.5-1.72.66-2.5ZM160.57,77.91c-.12-.08-.18-.13-.19-.17-.02-.06.01-.15.09-.27.25-.4.43-.8.54-1.2.09-.31.12-.55.08-.7-.05-.18-.15-.25-.32-.2-.28.07-.62.45-1.01,1.13-.46.81-.76,1.65-.9,2.54-.07.44-.07.77-.02.98.03.12.08.2.15.25.07.04.15.05.25.03.23-.06.49-.38.78-.97.18-.37.33-.73.44-1.07.08-.22.11-.34.1-.34Z"/><line class="cls-5" x1="97.38" y1="91.02" x2="97.38" y2="105.88"/><line class="cls-5" x1="173.14" y1="91.02" x2="173.14" y2="105.88"/><path class="cls-5" d="M169.89,95c-9.9-1.55-47.31,4.49-69.44,2.96"/><path class="cls-10" d="M166.23,91.61c-.11.13-.09.32.03.42l3.49,2.99-4.18,1.9c-.15.07-.22.25-.15.4.07.15.25.22.4.15l4.61-2.09c.09-.04.16-.13.17-.23.01-.1-.02-.2-.1-.27l-3.84-3.29s-.1-.06-.15-.07c-.1-.01-.2.02-.27.1Z"/><path class="cls-10" d="M104.64,95.2c.08.14.04.33-.11.41l-3.95,2.34,3.79,2.59c.14.09.17.28.08.42-.09.14-.28.17-.42.08l-4.18-2.86c-.08-.06-.13-.16-.13-.26,0-.1.06-.2.15-.25l4.36-2.58c.05-.03.11-.04.16-.04.1,0,.19.06.25.15Z"/><path class="cls-10" d="M102.87,76.86c.11-.03.22-.01.31.06.07.06.12.12.14.2.03.12-.01.34-.13.67-.41,1.24-.67,2.25-.78,3.01-.12.79-.21,1.59-.25,2.4-.02.36-.14.57-.37.62-.13.04-.25,0-.36-.08-.09-.07-.16-.15-.18-.25-.05-.2-.01-.92.11-2.15.1-.97.38-2.09.84-3.36.15-.41.26-.69.35-.84.09-.16.19-.25.32-.29ZM103.79,72.68c.3-.08.49.04.57.34.07.28,0,.62-.2,1.04-.19.4-.42.63-.68.7-.12.03-.24.01-.34-.06-.1-.07-.17-.16-.2-.29-.08-.32,0-.7.26-1.15.19-.33.38-.53.59-.58Z"/><path class="cls-10" d="M105.34,79.03c.4-.73.77-1.31,1.11-1.75.51-.67.88-1.03,1.09-1.08.11-.03.21-.01.31.05.09.05.15.12.17.21.03.13-.03.36-.19.71-.24.54-.39.99-.44,1.35,1.14-1.96,1.99-3.01,2.56-3.16.12-.03.23-.02.33.03.11.06.19.14.22.26.05.18-.03.46-.24.83-.91,1.62-1.26,2.84-1.04,3.67.09.34.21.56.37.68l.34.26c.07.05.12.12.14.21.03.11.01.22-.05.33-.07.13-.17.21-.29.25-.22.06-.46-.03-.71-.26-.31-.27-.53-.63-.64-1.08-.16-.6-.15-1.25.04-1.96.06-.25.18-.59.37-1.03-.45.57-.87,1.3-1.26,2.2-.26.61-.47,1.26-.63,1.97-.07.34-.21.53-.42.59-.22.06-.37-.04-.44-.29-.07-.27-.03-.88.12-1.82.08-.54.21-1.12.38-1.73-.9,1.17-1.44,2.58-1.62,4.22-.05.37-.19.58-.43.64-.11.03-.2.01-.29-.05-.09-.06-.15-.15-.18-.26-.1-.39-.07-1.15.1-2.28.17-1.2.44-2.3.79-3.31.24-.71.47-1.09.69-1.14.2-.05.33.03.38.24.02.09-.04.36-.18.79-.25.81-.4,1.4-.45,1.77Z"/><path class="cls-10" d="M113.19,74.87c.23-.24.4-.42.51-.52.24-.2.48-.34.74-.41.29-.08.53-.05.72.08.19.13.33.36.42.7.12.46.11,1.06-.05,1.79-.23,1.16-.63,2.12-1.19,2.9-.47.65-.97,1.05-1.5,1.19-.29.08-.61.04-.95-.11-.43,2.07-.75,4.15-.96,6.24-.03.5-.15.77-.36.83-.1.03-.22-.01-.35-.12-.1-.07-.16-.17-.19-.28-.09-.36.04-1.63.4-3.83.55-3.38,1.17-6.23,1.86-8.55.14-.49.23-.83.28-1.01.12-.49.29-.76.5-.82.22-.06.37.05.44.32.04.15.01.38-.08.68-.11.38-.19.69-.25.91ZM112.04,79.57c.19.11.39.14.61.08.62-.16,1.15-.88,1.61-2.17.17-.48.28-.95.34-1.41.04-.37.04-.64,0-.82-.03-.12-.08-.2-.15-.25-.07-.04-.17-.05-.29-.02-.31.08-.63.4-.97.94-.32.53-.58,1.22-.78,2.08-.18.79-.3,1.31-.37,1.56Z"/><path class="cls-10" d="M119.44,77.24c-.18.47-.35.85-.5,1.15-.27.52-.6.83-.97.93-.32.08-.61,0-.87-.24-.18-.17-.31-.4-.38-.68-.22-.85-.12-1.93.32-3.22.2-.6.43-1.08.69-1.44.2-.29.38-.45.55-.49.09-.02.19,0,.29.05.08.06.14.12.16.19.03.13-.04.36-.21.71-.38.8-.64,1.51-.78,2.13-.16.73-.2,1.27-.1,1.64.02.09.06.16.12.2.06.04.12.05.2.03.34-.09.68-.69,1.03-1.82.18-.58.3-1.21.37-1.88.03-.36.11-.7.23-1,.12-.28.28-.44.46-.49.1-.03.2,0,.3.06.11.07.18.16.21.27.06.24-.03.83-.26,1.79-.16.66-.19,1.18-.09,1.56.11.41.31.73.6.96.08.06.3.14.64.23.17.05.28.17.33.36.03.12,0,.23-.07.35-.08.11-.19.19-.34.23-.33.09-.67.03-1.01-.16-.31-.17-.55-.48-.74-.91-.03-.06-.09-.22-.18-.5Z"/><path class="cls-10" d="M123.11,74.38c-.06.57-.1,1.02-.12,1.37-.02.34,0,.58.03.7.04.17.14.23.3.19.24-.06.49-.37.75-.92.12-.26.28-.73.48-1.39.08-.26.2-.41.35-.45.17-.04.28.01.32.18.08.28-.1.95-.53,1.98-.44,1.08-.96,1.7-1.54,1.86-.25.07-.48.01-.7-.16-.15-.12-.26-.29-.31-.51-.1-.37-.12-.91-.07-1.63.05-.71.18-1.6.38-2.65.51-2.68,1.16-4.96,1.93-6.81.62-1.49,1.24-2.32,1.86-2.48.2-.05.38-.02.55.1.17.12.28.28.34.47.24.93-.18,2.68-1.27,5.27-.49,1.15-1.12,2.34-1.9,3.57-.21.32-.49.76-.85,1.3ZM123.4,72.62c1.07-1.54,1.91-3.35,2.52-5.43.32-1.08.44-1.77.36-2.08-.04-.15-.12-.2-.25-.17-.36.1-.83.99-1.41,2.69-.48,1.4-.89,3.06-1.22,4.98Z"/><path class="cls-10" d="M129.54,69.17c.41-.11.74-.12.98-.02.24.09.4.29.48.58.1.39.06.8-.14,1.24-.19.42-.53.8-1.03,1.16-.27.19-.51.32-.72.37-.28.07-.45-.01-.51-.26-.04-.17,0-.31.14-.44.03-.03.24-.15.63-.35.23-.12.43-.29.58-.52.14-.2.18-.39.14-.57-.04-.14-.1-.23-.2-.28s-.22-.05-.38,0c-.38.1-.77.37-1.15.8-.44.49-.6.98-.48,1.46.09.34.38.73.86,1.15.54.46.86.89.96,1.28.15.58.01,1.11-.41,1.57-.26.29-.6.49-1,.59-.63.17-1.18.07-1.63-.3-.32-.26-.53-.62-.65-1.06-.13-.52-.12-.98.06-1.4.11-.28.26-.44.45-.49.17-.04.26,0,.3.13.01.05,0,.14-.03.26-.08.33-.07.68.04,1.06.08.32.27.57.56.73.26.14.52.18.78.11.26-.07.44-.21.54-.42.08-.18.09-.38.03-.6-.07-.28-.33-.6-.76-.96-.6-.49-.96-.99-1.09-1.49-.17-.66.03-1.34.62-2.04.57-.67,1.25-1.11,2.03-1.32Z"/><path class="cls-10" d="M132.15,73.49l.05.18c.04.15.11.26.21.35.23.2.53.25.91.15.83-.22,1.62-1.1,2.37-2.66.13-.27.27-.42.4-.46.07-.02.15,0,.23.06.05.04.09.09.1.13.07.26-.14.78-.61,1.56-.37.61-.79,1.14-1.28,1.6-.48.45-.96.74-1.45.87-.5.13-.93.06-1.31-.21-.25-.19-.44-.49-.54-.9-.29-1.12-.05-2.35.72-3.7.62-1.1,1.25-1.73,1.89-1.89.17-.04.34-.03.51.04.21.09.34.25.4.48.09.35.04.82-.15,1.42-.39,1.23-1.2,2.23-2.44,2.98ZM132.17,72.66c.42-.28.74-.55.95-.82.37-.48.63-.98.78-1.5.06-.18.07-.34.04-.47-.03-.13-.11-.18-.24-.15-.17.05-.38.24-.63.58-.45.61-.75,1.39-.9,2.36Z"/><path class="cls-10" d="M143.48,69.07c.47-.86,1.04-1.74,1.71-2.62.24-.32.51-.62.8-.92.15-.14.24-.22.29-.23.1-.03.22.02.35.14.08.06.13.13.15.19.03.12-.05.31-.25.58-.53.71-.77,1.2-.69,1.48.04.15.15.21.32.16.28-.07.71-.44,1.28-1.09.1-.11.19-.18.27-.2.05-.01.11,0,.18.04.08.04.12.1.14.17.05.2-.15.58-.59,1.13-.47.59-.96.95-1.48,1.09-.21.06-.42.05-.63-.02-.18-.05-.3-.2-.36-.44-.04-.17-.02-.37.06-.62-.42.51-.87,1.3-1.34,2.39-.26.66-.49,1.45-.68,2.37-.07.34-.22.55-.45.61-.25.06-.4-.02-.46-.25-.06-.23-.02-.88.1-1.96.19-1.6.49-2.89.9-3.85.25-.6.51-.93.77-1,.09-.02.17-.02.26.02.1.04.17.12.19.21.03.1,0,.26-.09.47-.02.04-.13.31-.35.8-.2.47-.32.91-.38,1.34Z"/><path class="cls-10" d="M151.23,68.77c-.12.44-.25.82-.39,1.14-.28.62-.63.99-1.04,1.1-.36.09-.68,0-.97-.29-.18-.19-.31-.43-.39-.72-.19-.73-.17-1.6.06-2.61.26-1.12.68-2.04,1.27-2.76.39-.47.8-.76,1.24-.88.28-.07.53-.05.76.08.2.11.32.26.37.45.04.15.03.36,0,.65.14.11.22.22.25.33.04.14,0,.39-.1.76-.11.37-.19.85-.24,1.44-.06.62-.04,1.11.05,1.45.07.28.21.48.43.62.06.03.21.08.47.12.19.04.31.15.36.35.03.12.01.24-.06.34-.08.11-.18.19-.31.22-.36.09-.71.02-1.05-.23-.28-.2-.47-.5-.57-.89-.03-.13-.08-.35-.13-.67ZM151.61,65.19c-.12-.12-.23-.21-.34-.25-.11-.05-.22-.05-.33-.03-.5.13-.93.71-1.29,1.75-.39,1.14-.5,2.05-.32,2.72.04.17.11.28.19.35.08.07.19.09.32.05.32-.08.6-.52.85-1.3.14-.43.29-1.06.45-1.87.11-.53.2-.89.26-1.07.03-.09.1-.21.21-.36Z"/><path class="cls-10" d="M155.95,62.46c-.25.78-.46,1.63-.6,2.55-.21,1.31-.24,2.26-.09,2.84.04.17.11.28.2.35.09.07.21.08.35.05.33-.09.65-.5.96-1.25.2-.46.36-.92.49-1.36.07-.25.18-.4.32-.43.09-.02.17-.01.24.03.07.05.11.1.13.16.06.25-.11.88-.53,1.89-.5,1.22-1.07,1.91-1.7,2.08-.34.09-.66,0-.97-.25-.19-.16-.33-.42-.43-.79-.21-.8-.22-1.79-.04-2.98.04-.29.19-1.01.43-2.16-.17.09-.3.15-.39.18-.14.04-.27.04-.39,0-.17-.05-.27-.15-.31-.29-.04-.17.02-.32.18-.47.05-.04.28-.15.7-.32.15-.07.37-.19.65-.37.12-.48.35-1.14.69-1.99.19-.47.32-.78.4-.93.12-.21.23-.33.35-.36.09-.02.18,0,.29.07.1.07.16.14.19.23.04.17-.05.56-.29,1.17-.16.39-.27.71-.33.95.68-.39,1.18-.63,1.5-.71.36-.1.58,0,.67.31.04.15,0,.28-.1.39-.05.06-.22.14-.49.23-.11.02-.58.28-1.4.77-.23.14-.45.28-.67.42Z"/><path class="cls-10" d="M159.23,66.39l.05.18c.04.15.11.26.21.35.23.2.53.25.91.15.83-.22,1.62-1.1,2.37-2.66.13-.27.27-.42.4-.45.07-.02.15,0,.23.06.05.04.09.09.1.13.07.26-.14.78-.61,1.56-.37.61-.79,1.15-1.28,1.6s-.96.74-1.45.87c-.5.13-.93.06-1.31-.21-.25-.19-.43-.49-.54-.9-.29-1.12-.05-2.35.72-3.7.62-1.1,1.25-1.73,1.89-1.89.17-.05.34-.03.51.04.21.09.34.25.4.48.09.35.04.82-.15,1.42-.39,1.23-1.2,2.23-2.44,2.98ZM159.25,65.56c.42-.28.74-.55.95-.82.37-.48.63-.98.78-1.5.06-.18.07-.34.04-.47-.04-.13-.12-.18-.24-.15-.17.04-.38.24-.63.58-.45.61-.75,1.39-.9,2.36Z"/><rect class="cls-9" x="49" y="122.09" width="114.72" height="23.31" rx="3" ry="3"/><path class="cls-10" d="M164.22,142.9c0,1.65-1.35,3-3,3H51.5c-1.65,0-3-1.35-3-3v-18.31c0-1.65,1.35-3,3-3h109.72c1.65,0,3,1.35,3,3v18.31ZM49.5,141.9c0,1.65,1.35,3,3,3h107.72c1.65,0,3-1.35,3-3v-16.31c0-1.65-1.35-3-3-3H52.5c-1.65,0-3,1.35-3,3v16.31Z"/><rect class="cls-10" x="76.43" y="132.86" width="87.29" height="1"/><polygon class="cls-10" points="78.42 131.67 76.72 133.36 78.42 135.06 76.98 135.06 75.28 133.36 76.98 131.67 78.42 131.67"/><path class="cls-10" d="M58.06,136.51v-.95l2.62-5.66h1.13l-2.56,5.59h3.83v1.02h-5.02ZM61.43,137.72v-4.6h1.07v4.6h-1.07Z"/><path class="cls-10" d="M64.31,137.71v-.95l2.72-3.63c.16-.21.28-.42.37-.64s.13-.43.13-.63h0c0-.32-.09-.56-.27-.74-.18-.17-.44-.26-.78-.26-.32,0-.57.09-.77.28-.2.19-.32.45-.36.8h0s-1.13,0-1.13,0h0c.1-.68.34-1.2.74-1.57.39-.37.9-.56,1.52-.56.7,0,1.24.18,1.63.53.38.35.57.86.57,1.5h0c0,.28-.06.57-.17.87-.11.3-.27.59-.48.87l-2.26,3.07h2.95v1.04h-4.4Z"/><rect class="cls-9" x="177.4" y="122.09" width="99.84" height="23.31" rx="3" ry="3"/><path class="cls-10" d="M277.73,142.9c0,1.65-1.35,3-3,3h-94.84c-1.65,0-3-1.35-3-3v-18.31c0-1.65,1.35-3,3-3h94.84c1.65,0,3,1.35,3,3v18.31ZM177.9,141.9c0,1.65,1.35,3,3,3h92.84c1.65,0,3-1.35,3-3v-16.31c0-1.65-1.35-3-3-3h-92.84c-1.65,0-3,1.35-3,3v16.31Z"/><rect class="cls-10" x="204.82" y="132.86" width="72.41" height="1"/><polygon class="cls-10" points="206.81 131.67 205.12 133.36 206.81 135.06 205.38 135.06 203.68 133.36 205.38 131.67 206.81 131.67"/><path class="cls-10" d="M186.46,136.51v-.95l2.62-5.66h1.13l-2.56,5.59h3.83v1.02h-5.02ZM189.83,137.72v-4.6h1.07v4.6h-1.07Z"/><path class="cls-10" d="M194.84,137.79c-.44,0-.83-.08-1.16-.24-.33-.16-.6-.39-.8-.69s-.33-.67-.39-1.1h1.12c.05.34.18.58.4.74.21.16.49.23.83.23.36,0,.64-.1.84-.29.2-.19.3-.47.3-.82v-.24c0-.39-.09-.69-.28-.9-.19-.21-.46-.32-.81-.32h-.55v-1.04h.55c.31,0,.54-.09.71-.27.17-.18.25-.44.25-.77v-.24c0-.31-.09-.55-.27-.71-.18-.17-.43-.25-.75-.25-.28,0-.51.08-.7.23-.19.16-.32.4-.39.74h-1.11c.11-.64.36-1.14.74-1.5.38-.35.87-.53,1.46-.53.67,0,1.19.18,1.56.53s.55.85.55,1.5v.13c0,.39-.11.73-.32,1.02-.21.29-.51.5-.9.64.43.09.76.3.99.63.23.33.35.74.35,1.25v.13c0,.68-.19,1.21-.58,1.59s-.94.56-1.65.56Z"/></svg>