<?xml version="1.0" encoding="UTF-8"?><svg id="Layer_1" xmlns="http://www.w3.org/2000/svg" xmlns:xlink="http://www.w3.org/1999/xlink" viewBox="0 0 407.27 194.26"><defs><style>.cls-1,.cls-2,.cls-3,.cls-4,.cls-5{fill:none;}.cls-6{filter:url(#drop-shadow-4);}.cls-7{fill:gray;}.cls-8,.cls-2,.cls-3,.cls-4,.cls-5{stroke-miterlimit:10;}.cls-8,.cls-2,.cls-3,.cls-5{stroke:#4d4d4d;}.cls-8,.cls-9{fill:#999;}.cls-10{fill:#4d4d4d;}.cls-11{fill:#ccc;}.cls-3{filter:url(#drop-shadow-3);stroke-width:3px;}.cls-4{stroke:#ccc;stroke-dasharray:5;}.cls-4,.cls-5{stroke-linecap:round;}.cls-12{clip-path:url(#clippath);}</style><symbol id="Executing" viewBox="0 0 138.88 24.31"><rect class="cls-9" x=".5" y=".5" width="137.88" height="23.31" rx="3" ry="3"/><rect class="cls-2" x=".5" y=".5" width="137.88" height="23.31" rx="3" ry="3"/><polygon class="cls-7" points="42.94 2.41 33.48 2.41 14.28 21.85 23.74 21.85 42.94 2.41"/><polygon class="cls-7" points="61.01 2.41 51.55 2.41 32.35 21.85 41.81 21.85 61.01 2.41"/><polygon class="cls-7" points="79.08 2.41 69.62 2.41 50.42 21.85 59.88 21.85 79.08 2.41"/><polygon class="cls-7" points="97.15 2.41 87.69 2.41 68.49 21.85 77.95 21.85 97.15 2.41"/><polygon class="cls-7" points="115.22 2.41 105.76 2.41 86.56 21.85 96.02 21.85 115.22 2.41"/><polygon class="cls-7" points="133.29 2.41 123.83 2.41 104.63 21.85 114.09 21.85 133.29 2.41"/><path class="cls-7" d="M24.87,2.41h-9.46L1.94,16.05v3.61c0,.96.55,1.78,1.34,2.2h2.39L24.87,2.41Z"/><polygon class="cls-7" points="122.7 21.85 132.16 21.85 136.94 17.01 136.94 7.43 122.7 21.85"/><path class="cls-7" d="M6.8,2.41h-3.43c-.84.4-1.42,1.25-1.42,2.25v2.67L6.8,2.41Z"/></symbol><filter id="drop-shadow-3" x="35" y="114.24" width="356" height="34" filterUnits="userSpaceOnUse"><feOffset dx="7" dy="7"/><feGaussianBlur result="blur" stdDeviation="5"/><feFlood flood-color="#000" flood-opacity=".07"/><feComposite in2="blur" operator="in"/><feComposite in="SourceGraphic"/></filter><filter id="drop-shadow-4" x="156" y="59.24" width="147" height="55" filterUnits="userSpaceOnUse"><feOffset dx="2" dy="2"/><feGaussianBlur result="blur-2" stdDeviation="5"/><feFlood flood-color="#000" flood-opacity=".11"/><feComposite in2="blur-2" operator="in"/><feComposite in="SourceGraphic"/></filter><clipPath id="clippath"><rect class="cls-1" x="200.87" y="52.63" width="132.85" height="61.46"/></clipPath></defs><path class="cls-10" d="M39.14,145.77c-.05.12-.2.43-.43.92-.39.93-.62,1.54-.7,1.83-.04.16-.1.28-.16.34-.06.06-.15.1-.26.1s-.22-.04-.29-.13c-.07-.08-.1-.17-.1-.27,0-.37.33-1.25.98-2.67-.71.08-1.27.2-1.68.37-.13.05-.24.08-.32.08-.2,0-.29-.15-.29-.46,0-.18.07-.36.21-.53.27-.32.73-.8,1.38-1.44.8-.79,1.53-1.43,2.18-1.92.56-.42.97-.64,1.22-.64.11,0,.21.05.31.14.07.08.11.16.11.26,0,.12-.07.3-.22.54-.02.04-.19.31-.48.78-.38.61-.73,1.25-1.05,1.92.34-.02.57-.03.68-.03.29,0,.43.11.43.32,0,.19-.08.33-.23.41-.07.03-.28.05-.62.05-.1,0-.31,0-.64.02ZM38.57,145.09c.53-1.04,1.04-1.9,1.52-2.6-.51.29-1.13.79-1.85,1.49-.52.52-.94.97-1.26,1.35.71-.15,1.24-.23,1.6-.25Z"/><path class="cls-10" d="M41.18,148.01c.82-.26,1.57-.39,2.26-.39.27,0,.49.06.65.17.15.1.22.22.22.36,0,.09-.03.18-.1.25s-.15.11-.23.11c-.03,0-.07,0-.13-.02-.25-.07-.48-.1-.69-.1-.18,0-.4.02-.67.05-.09.01-.43.1-1.02.26-.53.14-.84.21-.94.21-.14,0-.26-.07-.36-.2-.09-.12-.14-.25-.14-.38,0-.15.13-.34.38-.59.48-.47.94-.89,1.38-1.27.42-.35.94-.76,1.56-1.22.71-.52,1.2-.9,1.46-1.14.4-.35.6-.7.6-1.05,0-.2-.06-.35-.19-.46-.11-.1-.25-.15-.42-.15-.44,0-.96.25-1.55.74-.27.22-.44.34-.51.34-.05,0-.1-.03-.17-.09-.07-.06-.1-.13-.1-.21,0-.18.21-.42.64-.75.68-.52,1.34-.78,1.96-.78.36,0,.65.11.89.34.23.22.34.49.34.8,0,.55-.28,1.09-.83,1.63-.24.23-.68.59-1.32,1.05-1.54,1.12-2.53,1.95-2.97,2.48Z"/><path class="cls-10" d="M93.35,145.77c-.05.12-.2.43-.43.92-.39.93-.62,1.54-.7,1.83-.04.16-.1.28-.16.34-.06.06-.15.1-.26.1s-.22-.04-.29-.13c-.07-.08-.1-.17-.1-.27,0-.37.33-1.25.98-2.67-.71.08-1.27.2-1.68.37-.13.05-.24.08-.32.08-.2,0-.29-.15-.29-.46,0-.18.07-.36.21-.53.27-.32.73-.8,1.38-1.44.8-.79,1.53-1.43,2.18-1.92.56-.42.97-.64,1.22-.64.11,0,.21.05.31.14.07.08.11.16.11.26,0,.12-.07.3-.22.54-.02.04-.19.31-.48.78-.38.61-.73,1.25-1.05,1.92.34-.02.57-.03.68-.03.29,0,.43.11.43.32,0,.19-.08.33-.23.41-.07.03-.28.05-.62.05-.1,0-.31,0-.64.02ZM92.78,145.09c.53-1.04,1.04-1.9,1.52-2.6-.51.29-1.13.79-1.85,1.49-.52.52-.94.97-1.26,1.35.71-.15,1.24-.23,1.6-.25Z"/><path class="cls-10" d="M98.69,144.42c.24.1.42.22.52.34.15.18.23.43.23.75,0,.8-.33,1.56-1,2.29s-1.36,1.1-2.07,1.1c-.43,0-.79-.18-1.06-.54-.2-.26-.29-.55-.29-.86,0-.52.2-.78.6-.78.24,0,.36.09.36.27,0,.04,0,.09-.01.15-.01.08-.02.17-.02.25,0,.23.06.41.17.53.13.13.28.2.45.2.42,0,.86-.29,1.34-.87.45-.56.68-1.09.68-1.59,0-.25-.06-.45-.18-.6-.13-.16-.31-.23-.55-.23-.09,0-.19.01-.28.04-.11.03-.2.05-.26.05-.14,0-.21-.1-.21-.29,0-.17.06-.3.17-.41.06-.06.2-.12.4-.18.41-.1.75-.24,1.03-.42.18-.12.32-.27.43-.47.05-.1.08-.21.08-.32,0-.14-.04-.25-.11-.31-.08-.07-.19-.1-.35-.1-.26,0-.54.07-.82.21-.07.03-.25.13-.52.3-.07.05-.15.07-.24.07-.17,0-.25-.09-.25-.27,0-.16.12-.33.37-.51.57-.41,1.13-.61,1.68-.61.33,0,.6.1.83.3.24.21.36.47.36.77,0,.4-.17.77-.51,1.11-.19.2-.5.4-.94.62Z"/><path class="cls-10" d="M147.56,145.77c-.05.12-.2.43-.43.92-.39.93-.62,1.54-.7,1.83-.04.16-.1.28-.16.34-.06.06-.15.1-.26.1s-.22-.04-.29-.13c-.07-.08-.1-.17-.1-.27,0-.37.33-1.25.98-2.67-.71.08-1.27.2-1.68.37-.13.05-.24.08-.32.08-.2,0-.29-.15-.29-.46,0-.18.07-.36.21-.53.27-.32.73-.8,1.38-1.44.8-.79,1.53-1.43,2.18-1.92.56-.42.97-.64,1.22-.64.11,0,.21.05.31.14.07.08.11.16.11.26,0,.12-.07.3-.22.54-.02.04-.19.31-.48.78-.38.61-.73,1.25-1.05,1.92.34-.02.57-.03.68-.03.29,0,.43.11.43.32,0,.19-.08.33-.23.41-.07.03-.28.05-.62.05-.1,0-.31,0-.64.02ZM147,145.09c.53-1.04,1.04-1.9,1.52-2.6-.51.29-1.13.79-1.85,1.49-.52.52-.94.97-1.26,1.35.71-.15,1.24-.23,1.6-.25Z"/><path class="cls-10" d="M152.69,145.77c-.05.12-.2.43-.43.92-.39.93-.62,1.54-.7,1.83-.04.16-.1.28-.16.34-.06.06-.15.1-.26.1s-.22-.04-.29-.13c-.07-.08-.1-.17-.1-.27,0-.37.33-1.25.98-2.67-.71.08-1.27.2-1.68.37-.13.05-.24.08-.32.08-.2,0-.29-.15-.29-.46,0-.18.07-.36.21-.53.27-.32.73-.8,1.38-1.44.8-.79,1.53-1.43,2.18-1.92.56-.42.97-.64,1.22-.64.11,0,.21.05.31.14.07.08.11.16.11.26,0,.12-.07.3-.22.54-.02.04-.19.31-.48.78-.38.61-.73,1.25-1.05,1.92.34-.02.57-.03.68-.03.29,0,.43.11.43.32,0,.19-.08.33-.23.41-.07.03-.28.05-.62.05-.1,0-.31,0-.64.02ZM152.12,145.09c.53-1.04,1.04-1.9,1.52-2.6-.51.29-1.13.79-1.85,1.49-.52.52-.94.97-1.26,1.35.71-.15,1.24-.23,1.6-.25Z"/><path class="cls-10" d="M201.77,145.77c-.05.12-.2.43-.43.92-.39.93-.62,1.54-.7,1.83-.04.16-.1.28-.16.34-.06.06-.15.1-.26.1s-.22-.04-.29-.13c-.07-.08-.1-.17-.1-.27,0-.37.33-1.25.98-2.67-.71.08-1.27.2-1.68.37-.13.05-.24.08-.32.08-.2,0-.29-.15-.29-.46,0-.18.07-.36.21-.53.27-.32.73-.8,1.38-1.44.8-.79,1.53-1.43,2.18-1.92.56-.42.97-.64,1.22-.64.11,0,.21.05.31.14.07.08.11.16.11.26,0,.12-.07.3-.22.54-.02.04-.19.31-.48.78-.38.61-.73,1.25-1.05,1.92.34-.02.57-.03.68-.03.29,0,.43.11.43.32,0,.19-.08.33-.23.41-.07.03-.28.05-.62.05-.1,0-.31,0-.64.02ZM201.21,145.09c.53-1.04,1.04-1.9,1.52-2.6-.51.29-1.13.79-1.85,1.49-.52.52-.94.97-1.26,1.35.71-.15,1.24-.23,1.6-.25Z"/><path class="cls-10" d="M207.1,142.48c-.83.72-1.36,1.33-1.59,1.85.48-.2.9-.29,1.24-.29.4,0,.71.12.93.35.21.22.31.51.31.86,0,.81-.38,1.62-1.15,2.44-.76.82-1.5,1.22-2.23,1.22-.42,0-.75-.2-.98-.59-.15-.26-.23-.56-.23-.89s.07-.61.22-.83c.12-.18.28-.27.47-.27.18,0,.26.07.26.2,0,.03-.01.09-.04.17-.05.14-.07.33-.07.57,0,.21.05.39.15.55.13.22.31.33.53.33.44,0,.9-.28,1.38-.83.53-.61.79-1.21.79-1.81,0-.25-.06-.44-.17-.56-.11-.12-.28-.19-.51-.19s-.5.06-.82.18c-.07.02-.25.11-.53.26-.06.03-.11.05-.16.05-.09,0-.19-.06-.28-.18-.1-.13-.15-.25-.15-.36,0-.21.21-.59.64-1.16.27-.37.6-.74,1-1.11-.11-.15-.16-.26-.16-.34,0-.11.08-.19.23-.24.07-.02.35-.07.83-.13.54-.07.98-.11,1.32-.11s.55.02.7.07c.18.05.26.17.26.35,0,.22-.11.34-.34.34-.05,0-.15,0-.29-.01-.05,0-.1,0-.17,0-.23,0-.46.01-.69.03-.23.02-.45.05-.68.1Z"/><line class="cls-3" x1="43.17" y1="124.64" x2="368.47" y2="124.64"/><line class="cls-4" x1="43.17" y1="62.99" x2="43.17" y2="124.64"/><line class="cls-4" x1="97.38" y1="62.99" x2="97.38" y2="124.64"/><line class="cls-4" x1="151.6" y1="62.99" x2="151.6" y2="124.64"/><line class="cls-4" x1="205.81" y1="62.99" x2="205.81" y2="124.64"/><circle class="cls-8" cx="43.17" cy="124.64" r="7.2"/><circle class="cls-8" cx="97.38" cy="124.64" r="7.2"/><circle class="cls-8" cx="151.6" cy="124.64" r="7.2"/><circle class="cls-8" cx="205.81" cy="124.64" r="7.2"/><path class="cls-11" d="M382.66,102.7c.28,0,.5-.22.5-.5s-.22-.5-.5-.5H24.61c-.28,0-.5.22-.5.5s.22.5.5.5h358.05"/><path class="cls-11" d="M382.66,70.72c.28,0,.5-.22.5-.5s-.22-.5-.5-.5H24.61c-.28,0-.5.22-.5.5s.22.5.5.5h358.05"/><path class="cls-10" d="M256.01,145.77c-.05.12-.2.43-.43.92-.39.93-.62,1.54-.7,1.83-.04.16-.1.28-.16.34-.06.06-.15.1-.26.1s-.22-.04-.29-.13c-.07-.08-.1-.17-.1-.27,0-.37.33-1.25.98-2.67-.71.08-1.27.2-1.68.37-.13.05-.24.08-.32.08-.2,0-.29-.15-.29-.46,0-.18.07-.36.21-.53.27-.32.73-.8,1.38-1.44.8-.79,1.53-1.43,2.18-1.92.56-.42.97-.64,1.22-.64.11,0,.21.05.31.14.07.08.11.16.11.26,0,.12-.07.3-.22.54-.02.04-.19.31-.48.78-.38.61-.73,1.25-1.05,1.92.34-.02.57-.03.68-.03.29,0,.43.11.43.32,0,.19-.08.33-.23.41-.07.03-.28.05-.62.05-.1,0-.31,0-.64.02ZM255.45,145.09c.53-1.04,1.04-1.9,1.52-2.6-.51.29-1.13.79-1.85,1.49-.52.52-.94.97-1.26,1.35.71-.15,1.24-.23,1.6-.25Z"/><path class="cls-10" d="M259.59,144.65c.73-.27,1.26-.4,1.6-.4.4,0,.7.11.89.34.17.2.26.46.26.78,0,.83-.37,1.64-1.11,2.44-.68.74-1.38,1.11-2.09,1.11-.45,0-.81-.2-1.09-.59-.21-.3-.32-.65-.32-1.05,0-.87.34-1.77,1.01-2.69.58-.8,1.41-1.54,2.49-2.21.32-.21.56-.35.72-.42.15-.07.28-.11.4-.11.19,0,.28.08.28.24,0,.15-.1.27-.29.38-1.02.54-1.93,1.27-2.74,2.18ZM258.99,145.55c-.3.49-.45.98-.45,1.46,0,.32.07.59.22.82.15.23.35.35.59.35.34,0,.69-.16,1.05-.48s.65-.76.87-1.3c.14-.34.21-.64.21-.89,0-.19-.06-.33-.17-.45-.12-.13-.28-.19-.48-.19-.33,0-.73.11-1.2.33-.13.05-.27.13-.43.23-.12.07-.19.12-.2.13Z"/><path class="cls-10" d="M310.23,145.77c-.05.12-.2.43-.43.92-.39.93-.62,1.54-.7,1.83-.04.16-.1.28-.16.34-.06.06-.15.1-.26.1s-.22-.04-.29-.13c-.07-.08-.1-.17-.1-.27,0-.37.33-1.25.98-2.67-.71.08-1.27.2-1.68.37-.13.05-.24.08-.32.08-.2,0-.29-.15-.29-.46,0-.18.07-.36.21-.53.27-.32.73-.8,1.38-1.44.8-.79,1.53-1.43,2.18-1.92.56-.42.97-.64,1.22-.64.11,0,.21.05.31.14.07.08.11.16.11.26,0,.12-.07.3-.22.54-.02.04-.19.31-.48.78-.38.61-.73,1.25-1.05,1.92.34-.02.57-.03.68-.03.29,0,.43.11.43.32,0,.19-.08.33-.23.41-.07.03-.28.05-.62.05-.1,0-.31,0-.64.02ZM309.66,145.09c.53-1.04,1.04-1.9,1.52-2.6-.51.29-1.13.79-1.85,1.49-.52.52-.94.97-1.26,1.35.71-.15,1.24-.23,1.6-.25Z"/><path class="cls-10" d="M316.71,142.43c-1.31.29-2.24.43-2.77.43-.36,0-.53-.12-.53-.35,0-.12.04-.22.12-.3s.17-.12.27-.12c.04,0,.11,0,.21.01.06,0,.14.01.22.01.3,0,.7-.04,1.2-.12.63-.1,1.1-.19,1.4-.27.17-.04.31-.07.42-.07.26,0,.4.14.4.42,0,.19-.11.41-.34.64-1.68,1.8-3,3.57-3.95,5.32-.23.42-.38.67-.44.75-.12.14-.24.21-.37.21-.07,0-.14-.03-.19-.08-.07-.06-.1-.13-.1-.21,0-.25.24-.76.71-1.54.62-1.02,1.38-2.06,2.26-3.11.53-.63,1.02-1.18,1.49-1.63Z"/><path class="cls-10" d="M364.44,145.77c-.05.12-.2.43-.43.92-.39.93-.62,1.54-.7,1.83-.04.16-.1.28-.16.34-.06.06-.15.1-.26.1s-.22-.04-.29-.13c-.07-.08-.1-.17-.1-.27,0-.37.33-1.25.98-2.67-.71.08-1.27.2-1.68.37-.13.05-.24.08-.32.08-.2,0-.29-.15-.29-.46,0-.18.07-.36.21-.53.27-.32.73-.8,1.38-1.44.8-.79,1.53-1.43,2.18-1.92.56-.42.97-.64,1.22-.64.11,0,.21.05.31.14.07.08.11.16.11.26,0,.12-.07.3-.22.54-.02.04-.19.31-.48.78-.38.61-.73,1.25-1.05,1.92.34-.02.57-.03.68-.03.29,0,.43.11.43.32,0,.19-.08.33-.23.41-.07.03-.28.05-.62.05-.1,0-.31,0-.64.02ZM363.87,145.09c.53-1.04,1.04-1.9,1.52-2.6-.51.29-1.13.79-1.85,1.49-.52.52-.94.97-1.26,1.35.71-.15,1.24-.23,1.6-.25Z"/><path class="cls-10" d="M368.73,144.29c-.21-.21-.37-.38-.45-.51-.13-.21-.2-.42-.2-.65,0-.51.26-.94.77-1.28.44-.3.92-.45,1.44-.45.38,0,.68.12.9.35.2.21.29.45.29.74,0,.43-.21.83-.63,1.2-.22.2-.54.43-.94.7.25.25.44.5.57.75s.19.49.19.72c0,.46-.15.91-.46,1.36-.33.48-.75.87-1.27,1.17-.52.3-1.05.45-1.57.45-.46,0-.84-.17-1.14-.5-.22-.25-.33-.53-.33-.83,0-.8.49-1.57,1.46-2.31.51-.4.97-.7,1.37-.92ZM369.23,144.78c-.59.3-1.08.63-1.49,1.01-.57.53-.85,1.04-.85,1.52,0,.28.09.49.26.62.18.12.37.18.56.18.27,0,.56-.08.86-.25.3-.17.56-.39.77-.66.31-.4.47-.82.47-1.25,0-.3-.09-.58-.28-.84-.04-.06-.11-.13-.2-.22-.07-.07-.1-.1-.11-.1ZM369.43,143.85c.29-.16.54-.34.75-.54.26-.26.4-.5.4-.73,0-.15-.05-.27-.14-.37-.1-.12-.24-.18-.4-.18-.28,0-.55.1-.79.3-.21.17-.31.37-.31.59,0,.16.09.36.27.61l.23.31Z"/><line class="cls-4" x1="260.05" y1="62.99" x2="260.05" y2="124.64"/><line class="cls-4" x1="314.26" y1="62.99" x2="314.26" y2="124.64"/><line class="cls-4" x1="368.47" y1="62.99" x2="368.47" y2="124.64"/><circle class="cls-8" cx="260.05" cy="124.64" r="7.2"/><circle class="cls-8" cx="314.26" cy="124.64" r="7.2"/><circle class="cls-8" cx="368.47" cy="124.64" r="7.2"/><path class="cls-10" d="M171.78,165.66c-.44.69-.85,1.46-1.23,2.32-.54,1.22-.81,2.13-.81,2.73,0,.17.04.3.11.39.07.09.18.13.32.13.34,0,.76-.32,1.24-.96.31-.4.58-.79.82-1.19.13-.23.27-.34.42-.34.09,0,.16.03.23.09.05.06.08.12.08.18,0,.25-.33.82-.99,1.69-.79,1.05-1.52,1.58-2.17,1.58-.35,0-.64-.16-.87-.48-.14-.21-.22-.5-.22-.87,0-.83.24-1.79.72-2.89.12-.27.44-.93.96-1.98-.18.05-.32.07-.42.07-.14,0-.27-.03-.38-.1-.15-.1-.23-.22-.23-.36,0-.17.1-.31.3-.41.05-.03.31-.07.76-.13.16-.03.4-.09.72-.19.24-.43.63-1.02,1.17-1.75.3-.41.51-.68.63-.8.16-.17.31-.26.43-.26.09,0,.18.05.27.14.08.09.12.18.12.27,0,.18-.19.53-.57,1.06-.25.34-.44.62-.56.83.76-.21,1.3-.31,1.63-.31.38,0,.56.16.56.47,0,.16-.06.27-.19.35-.07.04-.25.08-.53.1-.12,0-.63.12-1.55.39-.25.08-.5.15-.75.24Z"/><path class="cls-10" d="M175.84,166.13c.12,0,.21.04.29.13.05.08.08.15.08.23,0,.12-.1.33-.3.62-.71,1.1-1.22,2.01-1.52,2.72-.32.73-.6,1.48-.85,2.26-.11.34-.28.51-.51.51-.14,0-.25-.05-.33-.16-.08-.09-.11-.18-.11-.29,0-.21.22-.89.66-2.05.34-.92.9-1.93,1.66-3.04.25-.36.43-.6.55-.73.12-.13.25-.19.38-.19ZM177.79,162.32c.31,0,.46.16.46.47,0,.29-.15.6-.45.95-.29.33-.56.5-.83.5-.13,0-.24-.05-.32-.14-.08-.09-.12-.2-.12-.33,0-.33.18-.68.54-1.05.27-.27.51-.41.72-.41Z"/><path class="cls-10" d="M177.68,168.85c.57-.6,1.08-1.07,1.52-1.42.66-.51,1.11-.77,1.33-.77.11,0,.21.04.29.12.08.08.11.16.11.25,0,.13-.12.34-.36.64-.37.46-.63.86-.77,1.19,1.6-1.61,2.69-2.41,3.28-2.41.12,0,.23.04.32.11.1.08.14.18.14.31,0,.19-.15.44-.44.74-1.29,1.33-1.94,2.43-1.94,3.28,0,.35.06.6.18.75l.27.34c.05.06.08.14.08.24,0,.11-.04.21-.13.31-.1.11-.22.16-.35.16-.23,0-.43-.14-.63-.43-.23-.34-.35-.75-.35-1.21,0-.62.18-1.25.53-1.89.12-.23.33-.53.62-.9-.58.44-1.17,1.04-1.77,1.8-.41.52-.78,1.1-1.11,1.74-.16.31-.34.46-.55.46-.23,0-.35-.13-.35-.39,0-.28.19-.86.57-1.73.22-.5.49-1.03.81-1.58-1.17.9-2.05,2.13-2.64,3.67-.14.34-.33.51-.57.51-.11,0-.2-.04-.27-.12-.08-.08-.11-.18-.11-.3,0-.4.23-1.13.68-2.18.47-1.11,1-2.12,1.6-3,.41-.62.73-.93.95-.93.21,0,.31.11.31.33,0,.1-.13.33-.38.72-.44.72-.74,1.25-.88,1.6Z"/><path class="cls-10" d="M184.18,170.3v.18c0,.15.04.28.11.39.17.25.45.38.84.38.85,0,1.84-.66,2.96-1.97.2-.23.37-.34.5-.34.08,0,.14.04.21.11.04.05.06.11.06.15,0,.27-.33.72-.98,1.35-.51.5-1.06.91-1.64,1.22s-1.12.47-1.62.47-.92-.18-1.21-.53c-.2-.25-.3-.58-.3-1,0-1.16.54-2.29,1.63-3.39.88-.9,1.65-1.35,2.31-1.35.18,0,.34.05.48.16.18.14.27.33.27.56,0,.36-.17.81-.5,1.33-.69,1.09-1.73,1.85-3.12,2.27ZM184.4,169.5c.48-.16.85-.35,1.13-.55.48-.37.86-.79,1.14-1.25.1-.16.15-.31.15-.44,0-.14-.06-.21-.19-.21-.18,0-.43.13-.76.4-.59.47-1.08,1.16-1.47,2.05Z"/><path class="cls-5" d="M194.46,168.42c10.98-1.12,21.92-3.06,43.47-2.71"/><path class="cls-10" d="M233.85,168.64c-.09-.14-.05-.32.09-.41l3.86-2.49-3.89-2.44c-.14-.09-.18-.27-.09-.41s.27-.18.41-.09l4.29,2.69c.09.05.14.15.14.25s-.05.2-.14.25l-4.25,2.74s-.11.05-.16.05c-.1,0-.2-.05-.25-.14Z"/><rect class="cls-9" x="50.37" y="76.81" width="114.72" height="23.31" rx="3" ry="3"/><path class="cls-10" d="M165.59,97.62c0,1.65-1.35,3-3,3H52.87c-1.65,0-3-1.35-3-3v-18.31c0-1.65,1.35-3,3-3h109.72c1.65,0,3,1.35,3,3v18.31ZM50.87,96.62c0,1.65,1.35,3,3,3h107.72c1.65,0,3-1.35,3-3v-16.31c0-1.65-1.35-3-3-3H53.87c-1.65,0-3,1.35-3,3v16.31Z"/><rect class="cls-10" x="77.8" y="87.58" width="87.29" height="1"/><polygon class="cls-10" points="79.79 86.38 78.1 88.08 79.79 89.77 78.35 89.77 76.66 88.08 78.35 86.38 79.79 86.38"/><path class="cls-10" d="M59.43,91.23v-.95l2.62-5.66h1.13l-2.56,5.59h3.83v1.02h-5.02ZM62.8,92.43v-4.6h1.07v4.6h-1.07Z"/><path class="cls-10" d="M65.68,92.43v-.95l2.72-3.63c.16-.21.28-.42.37-.64s.13-.43.13-.63h0c0-.32-.09-.56-.27-.74-.18-.17-.44-.26-.78-.26-.32,0-.57.09-.77.28-.2.19-.32.45-.36.8h0s-1.13,0-1.13,0h0c.1-.68.34-1.2.74-1.57.39-.37.9-.56,1.52-.56.7,0,1.24.18,1.63.53.38.35.57.86.57,1.5h0c0,.28-.06.57-.17.87-.11.3-.27.59-.48.87l-2.26,3.07h2.95v1.04h-4.4Z"/><rect class="cls-9" x="105.08" y="74.73" width="114.72" height="23.31" rx="3" ry="3"/><path class="cls-10" d="M220.3,95.54c0,1.65-1.35,3-3,3h-109.72c-1.65,0-3-1.35-3-3v-18.31c0-1.65,1.35-3,3-3h109.72c1.65,0,3,1.35,3,3v18.31ZM105.58,94.54c0,1.65,1.35,3,3,3h107.72c1.65,0,3-1.35,3-3v-16.31c0-1.65-1.35-3-3-3h-107.72c-1.65,0-3,1.35-3,3v16.31Z"/><rect class="cls-10" x="132.51" y="85.5" width="87.29" height="1"/><polygon class="cls-10" points="134.5 84.3 132.81 86 134.5 87.69 133.06 87.69 131.37 86 133.06 84.3 134.5 84.3"/><path class="cls-10" d="M114.15,89.15v-.95l2.62-5.66h1.13l-2.56,5.59h3.83v1.02h-5.02ZM117.51,90.35v-4.6h1.07v4.6h-1.07Z"/><path class="cls-10" d="M122.53,90.43c-.44,0-.83-.08-1.16-.24-.33-.16-.6-.39-.8-.69s-.33-.67-.39-1.1h1.12c.05.34.18.58.4.74.21.16.49.23.83.23.36,0,.64-.1.84-.29.2-.19.3-.47.3-.82v-.24c0-.39-.09-.69-.28-.9-.19-.21-.46-.32-.81-.32h-.55v-1.04h.55c.31,0,.54-.09.71-.27.17-.18.25-.44.25-.77v-.24c0-.31-.09-.55-.27-.71-.18-.17-.43-.25-.75-.25-.28,0-.51.08-.7.23-.19.16-.32.4-.39.74h-1.11c.11-.64.36-1.14.74-1.5.38-.35.87-.53,1.46-.53.67,0,1.19.18,1.56.53s.55.85.55,1.5v.13c0,.39-.11.73-.32,1.02-.21.29-.51.5-.9.64.43.09.76.3.99.63.23.33.35.74.35,1.25v.13c0,.68-.19,1.21-.58,1.59s-.94.56-1.65.56Z"/><g class="cls-6"><rect class="cls-9" x="169.83" y="72.87" width="114.72" height="23.31" rx="3" ry="3"/><path class="cls-10" d="M285.05,93.68c0,1.65-1.35,3-3,3h-109.72c-1.65,0-3-1.35-3-3v-18.31c0-1.65,1.35-3,3-3h109.72c1.65,0,3,1.35,3,3v18.31ZM170.33,92.68c0,1.65,1.35,3,3,3h107.72c1.65,0,3-1.35,3-3v-16.31c0-1.65-1.35-3-3-3h-107.72c-1.65,0-3,1.35-3,3v16.31Z"/><rect class="cls-10" x="197.25" y="83.64" width="87.29" height="1"/><polygon class="cls-10" points="199.25 82.45 197.55 84.14 199.25 85.84 197.81 85.84 196.11 84.14 197.81 82.45 199.25 82.45"/><path class="cls-10" d="M178.89,87.29v-.95l2.62-5.66h1.13l-2.56,5.59h3.83v1.02h-5.02ZM182.26,88.5v-4.6h1.07v4.6h-1.07Z"/><path class="cls-10" d="M185.15,87.29v-.95l2.62-5.66h1.13l-2.56,5.59h3.83v1.02h-5.02ZM188.51,88.5v-4.6h1.07v4.6h-1.07Z"/></g><g class="cls-12"><use width="138.88" height="24.31" transform="translate(213.01 76.31)" xlink:href="#Executing"/><use width="138.88" height="24.31" transform="translate(267.91 74.34)" xlink:href="#Executing"/><use width="138.88" height="24.31" transform="translate(319.16 72.49)" xlink:href="#Executing"/></g><path class="cls-10" d="M341.97,45.39h-16.5l7.75,6.52v99.86c0,.28.22.5.5.5s.5-.22.5-.5V51.91l7.75-6.52Z"/><path class="cls-10" d="M41.25,15.06c.18,0,.33.09.44.26.08.11.11.23.11.36,0,.2-.2.47-.59.8-1.1.98-1.77,2.17-2,3.55-.05.25-.18.44-.37.57-.18.12-.36.17-.53.17-.4-.01-.6-.27-.58-.78.03-.81.5-1.84,1.43-3.11.38-.52.82-.98,1.33-1.41.33-.28.58-.42.78-.41ZM44.31,15.15c.18,0,.32.09.44.26.08.11.11.23.11.36,0,.2-.2.47-.59.8-1.1.98-1.77,2.17-2,3.55-.05.25-.18.44-.37.57-.18.12-.36.17-.53.17-.4-.01-.6-.27-.58-.78.03-.81.5-1.84,1.43-3.11.39-.52.83-.99,1.32-1.41.33-.28.58-.42.78-.41Z"/><path class="cls-10" d="M51.16,24.04c.54.02.95.13,1.22.33s.39.5.38.9c-.02.52-.23,1.01-.63,1.48-.38.44-.95.8-1.7,1.05-.41.14-.75.2-1.02.19-.37-.01-.55-.18-.54-.5,0-.22.12-.38.33-.49.05-.02.35-.09.9-.2.33-.06.63-.2.91-.43.24-.19.37-.41.38-.65,0-.18-.04-.32-.15-.41s-.26-.14-.47-.15c-.51-.02-1.08.17-1.71.57-.73.44-1.1.98-1.12,1.63-.01.46.2,1.04.64,1.74.49.76.73,1.4.72,1.92-.02.77-.39,1.37-1.09,1.79-.43.26-.91.38-1.45.36-.84-.03-1.47-.35-1.89-.97-.29-.44-.43-.96-.41-1.54.02-.69.22-1.25.58-1.71.24-.3.48-.45.73-.44.22,0,.33.1.32.27,0,.07-.04.17-.13.31-.21.37-.33.81-.35,1.32-.01.43.13.8.43,1.11.26.27.57.41.92.43.34.01.61-.09.81-.32.16-.19.25-.43.26-.73.01-.37-.18-.85-.59-1.46-.55-.83-.82-1.57-.8-2.23.03-.88.53-1.64,1.51-2.29.95-.62,1.95-.91,2.98-.88Z"/><path class="cls-10" d="M56.79,24.49c-.6.87-1.16,1.84-1.68,2.93-.74,1.54-1.13,2.7-1.15,3.47,0,.22.03.39.12.51.09.12.22.18.41.19.44.01.98-.38,1.63-1.19.41-.5.78-1,1.1-1.5.18-.28.36-.42.55-.42.11,0,.21.05.29.13.07.08.1.16.1.24-.01.32-.46,1.04-1.35,2.13-1.06,1.32-2.02,1.97-2.86,1.94-.45-.01-.81-.23-1.1-.65-.18-.27-.26-.65-.24-1.13.03-1.06.38-2.29,1.04-3.69.16-.35.6-1.18,1.32-2.5-.24.05-.42.08-.54.07-.18,0-.35-.06-.48-.15-.19-.13-.28-.29-.28-.47,0-.22.14-.39.4-.51.07-.03.4-.08.98-.14.21-.03.52-.1.93-.22.33-.54.85-1.28,1.57-2.2.4-.51.68-.85.84-1,.22-.21.41-.32.56-.31.11,0,.23.07.34.2.1.12.15.23.15.35,0,.23-.27.67-.78,1.33-.34.43-.59.78-.76,1.04.98-.23,1.69-.34,2.11-.33.48.02.72.23.71.63,0,.2-.09.35-.26.44-.09.05-.32.09-.69.11-.15-.01-.82.13-2.01.44-.33.09-.65.18-.97.27Z"/><path class="cls-10" d="M61.99,25.25c.15,0,.27.07.36.18.07.1.1.2.1.29,0,.16-.14.42-.41.78-.96,1.39-1.65,2.53-2.06,3.43-.44.93-.84,1.88-1.19,2.86-.15.44-.38.65-.68.64-.18,0-.31-.08-.41-.22-.09-.12-.14-.24-.13-.37,0-.26.32-1.13.93-2.61.48-1.16,1.23-2.44,2.26-3.83.33-.46.58-.76.74-.91.16-.16.33-.24.5-.23ZM64.65,20.44c.4.01.59.22.57.62-.01.37-.22.77-.62,1.21-.38.42-.75.62-1.09.61-.17,0-.3-.07-.4-.2-.1-.12-.15-.26-.14-.43.01-.42.26-.86.74-1.32.35-.34.67-.51.94-.5Z"/><path class="cls-10" d="M64.25,28.83c.76-.75,1.43-1.33,2.01-1.76.87-.63,1.45-.94,1.74-.93.14,0,.26.06.36.17.09.1.14.21.13.32,0,.17-.17.43-.49.8-.49.58-.84,1.08-1.04,1.5,2.12-2,3.56-2.99,4.32-2.96.16,0,.29.06.4.16.12.11.18.24.17.4,0,.25-.21.56-.6.93-1.72,1.66-2.59,3.04-2.63,4.14-.01.45.05.77.21.97l.33.45c.07.08.1.18.1.31,0,.14-.07.27-.18.39-.14.14-.29.2-.46.2-.29,0-.55-.2-.79-.58-.28-.45-.42-.97-.4-1.57.03-.8.28-1.6.76-2.4.17-.28.44-.66.83-1.13-.76.54-1.55,1.29-2.35,2.25-.55.65-1.05,1.38-1.49,2.19-.21.39-.46.58-.73.57-.3,0-.44-.18-.43-.52.01-.36.28-1.09.81-2.2.3-.63.67-1.3,1.11-2-1.54,1.11-2.72,2.65-3.54,4.61-.2.43-.45.65-.76.64-.14,0-.25-.06-.34-.17-.09-.11-.14-.24-.13-.39.02-.52.34-1.44.96-2.78.65-1.41,1.38-2.68,2.18-3.79.55-.78.97-1.17,1.26-1.16.26,0,.39.15.38.43,0,.12-.18.43-.52.91-.6.9-1,1.58-1.2,2.02Z"/><path class="cls-10" d="M75.16,31.55c-.39.52-.74.93-1.04,1.23-.53.55-1.04.81-1.54.79-.43-.01-.76-.22-.98-.61-.16-.28-.23-.61-.22-.98.04-1.13.56-2.42,1.58-3.85.47-.67.93-1.18,1.38-1.52.35-.28.64-.42.86-.41.12,0,.24.06.34.17.08.1.13.2.12.29,0,.17-.18.43-.51.8-.76.85-1.34,1.63-1.74,2.34-.47.84-.71,1.5-.72,1.98,0,.12.02.22.08.29.06.07.14.1.24.11.45.01,1.09-.61,1.93-1.86.43-.65.81-1.38,1.14-2.18.17-.43.39-.82.66-1.15.26-.3.5-.45.74-.44.13,0,.25.06.35.18.11.13.16.27.16.41-.01.32-.34,1.02-.98,2.11-.44.75-.66,1.38-.68,1.89-.02.54.11,1.01.39,1.41.08.11.31.28.71.52.19.12.28.31.27.56,0,.16-.08.29-.22.4-.14.11-.31.16-.5.16-.44-.01-.83-.2-1.18-.57-.31-.33-.51-.79-.58-1.39-.01-.08-.03-.31-.04-.69Z"/><path class="cls-10" d="M80.73,29.37c-.29.68-.5,1.22-.65,1.64-.15.42-.22.71-.23.88,0,.22.1.33.31.34.32.01.73-.28,1.25-.86.25-.28.61-.79,1.1-1.53.19-.29.39-.44.59-.43.23,0,.34.12.33.34-.01.38-.47,1.13-1.38,2.25-.94,1.17-1.8,1.75-2.57,1.72-.33-.01-.6-.16-.8-.45-.14-.21-.21-.46-.2-.75.02-.49.19-1.17.51-2.03.33-.86.8-1.9,1.43-3.13,1.61-3.12,3.24-5.69,4.88-7.69,1.31-1.61,2.38-2.4,3.2-2.38.26,0,.48.12.64.32.17.21.25.44.24.71-.04,1.23-1.2,3.24-3.49,6.03-1.02,1.24-2.24,2.48-3.65,3.71-.37.32-.88.75-1.52,1.3ZM81.74,27.31c1.88-1.5,3.58-3.43,5.09-5.77.79-1.21,1.19-2.02,1.2-2.43,0-.19-.07-.29-.24-.3-.48-.02-1.39.92-2.73,2.8-1.11,1.55-2.21,3.45-3.32,5.7Z"/><path class="cls-10" d="M88.17,31.81c-.31.5-.61.92-.9,1.26-.58.67-1.14.99-1.68.98-.47-.02-.84-.25-1.09-.71-.16-.3-.23-.64-.22-1.04.03-.98.37-2.04,1.03-3.2.73-1.29,1.59-2.27,2.57-2.94.65-.44,1.27-.65,1.85-.63.37.01.67.14.91.37.2.21.3.44.29.7,0,.19-.09.46-.25.8.13.19.19.35.18.49,0,.18-.14.48-.4.9-.27.42-.54.98-.82,1.69-.3.75-.45,1.35-.47,1.81-.01.37.09.68.3.92.06.06.24.17.53.32.22.11.32.3.31.56,0,.17-.07.3-.2.4-.14.11-.29.16-.47.16-.47-.02-.88-.24-1.21-.67-.27-.35-.4-.79-.38-1.3,0-.18.03-.47.08-.87ZM89.96,27.53c-.1-.2-.21-.34-.33-.44-.12-.1-.25-.15-.39-.15-.67-.02-1.41.54-2.23,1.68-.9,1.26-1.37,2.34-1.4,3.24,0,.22.03.39.11.5.08.12.2.18.37.18.42.01.93-.42,1.52-1.3.33-.48.75-1.19,1.24-2.14.33-.61.56-1.02.71-1.22.07-.1.21-.23.39-.37Z"/><path class="cls-10" d="M96.31,25.76c-.6.87-1.16,1.84-1.68,2.93-.74,1.54-1.13,2.7-1.15,3.47,0,.22.03.39.12.51.09.12.22.18.41.18.44.01.98-.38,1.63-1.19.41-.5.78-.99,1.1-1.49.18-.28.36-.42.55-.42.11,0,.21.05.29.13.07.08.1.16.1.24-.01.32-.46,1.04-1.35,2.13-1.06,1.32-2.02,1.97-2.86,1.94-.45-.01-.81-.23-1.1-.66-.18-.27-.26-.65-.24-1.13.03-1.06.38-2.29,1.04-3.69.16-.35.6-1.18,1.32-2.5-.24.05-.42.08-.54.08-.18,0-.35-.06-.48-.15-.19-.13-.28-.29-.28-.47,0-.22.14-.39.4-.51.07-.03.4-.08.98-.14.21-.03.52-.1.93-.22.33-.54.85-1.28,1.57-2.2.4-.52.68-.85.84-1,.22-.21.41-.32.56-.31.11,0,.23.07.34.2.1.12.15.23.15.35,0,.23-.27.67-.78,1.33-.34.43-.59.78-.76,1.04.98-.23,1.69-.34,2.11-.33.48.02.72.23.71.63,0,.2-.09.35-.26.44-.09.05-.32.09-.69.11-.15-.01-.82.13-2.01.44-.33.09-.65.18-.97.27Z"/><path class="cls-10" d="M101.51,26.52c.15,0,.27.07.36.18.07.1.1.2.1.29,0,.16-.14.42-.41.78-.96,1.39-1.65,2.53-2.06,3.43-.44.93-.84,1.88-1.19,2.86-.15.44-.38.65-.68.64-.18,0-.31-.08-.41-.22-.09-.12-.14-.24-.13-.37,0-.26.32-1.13.93-2.61.48-1.16,1.23-2.44,2.26-3.83.33-.46.58-.76.74-.91.16-.16.33-.24.5-.23ZM104.17,21.71c.4.01.59.22.57.62-.01.37-.22.77-.62,1.21-.38.42-.75.62-1.09.61-.17,0-.3-.07-.4-.2-.1-.12-.15-.26-.14-.43.01-.42.26-.86.74-1.32.35-.34.67-.51.94-.5Z"/><path class="cls-10" d="M106.34,30.97c-.57.91-1.05,1.58-1.45,2.01-.98,1.08-1.78,1.6-2.4,1.58-.38-.01-.66-.23-.85-.65-.13-.28-.19-.56-.18-.86.02-.58.3-1.41.83-2.49.48-.94.88-1.69,1.21-2.23.24-.39.39-.64.43-.76.11-.23.21-.41.29-.53.12-.18.28-.27.48-.26.11,0,.2.05.27.14.08.11.12.23.12.37-.01.4-.4,1.27-1.15,2.61-.76,1.33-1.14,2.21-1.15,2.65,0,.28.1.43.32.43.38.01.93-.46,1.66-1.42.32-.43.66-.98,1.02-1.64,0-.22,0-.39,0-.5.02-.66.16-1.23.42-1.7.34-.61.77-.91,1.31-.89.31,0,.46.2.44.57-.02.59-.35,1.44-1.01,2.57.17.04.31.06.42.07.29,0,.67-.16,1.15-.52.38-.29.62-.43.74-.42.1,0,.2.06.3.18.08.1.11.2.11.29-.01.32-.24.66-.69,1.05-.52.43-1.11.64-1.76.62-.25,0-.55-.09-.88-.25Z"/><path class="cls-10" d="M109.94,32.16v.24c-.01.19.03.36.12.51.21.33.56.51,1.06.52,1.1.04,2.39-.77,3.89-2.41.26-.28.48-.42.66-.41.1,0,.18.05.26.15.05.07.07.14.07.2-.01.34-.45.91-1.32,1.7-.68.62-1.4,1.12-2.16,1.5-.76.38-1.46.56-2.1.54-.66-.02-1.17-.27-1.53-.73-.24-.32-.36-.76-.34-1.3.05-1.48.79-2.92,2.23-4.29,1.17-1.12,2.18-1.67,3.02-1.64.23,0,.43.08.61.23.22.19.33.44.32.74-.01.47-.25,1.03-.7,1.69-.93,1.38-2.3,2.3-4.1,2.78ZM110.26,31.14c.62-.19,1.11-.41,1.47-.66.63-.46,1.14-.97,1.51-1.56.14-.21.21-.39.22-.56,0-.18-.07-.27-.24-.27-.23,0-.56.15-.99.48-.77.58-1.43,1.44-1.97,2.57Z"/><path class="cls-10" d="M126.93,33.06c-.31.5-.61.92-.9,1.26-.58.67-1.14.99-1.68.98-.47-.02-.84-.25-1.09-.71-.16-.3-.23-.64-.22-1.04.03-.98.37-2.04,1.03-3.2.73-1.29,1.59-2.27,2.57-2.94.65-.44,1.26-.65,1.85-.63.37.01.67.14.91.37.2.21.3.44.29.7,0,.19-.09.46-.25.8.13.19.19.35.18.49,0,.18-.14.48-.4.9-.27.42-.54.98-.82,1.69-.3.75-.45,1.35-.47,1.81-.01.37.09.68.3.92.06.06.24.17.53.32.22.11.32.3.31.56,0,.17-.07.3-.2.4-.14.11-.29.16-.47.16-.47-.02-.88-.24-1.21-.67-.27-.35-.4-.79-.38-1.3,0-.18.03-.46.08-.87ZM128.71,28.78c-.1-.2-.21-.34-.33-.44-.12-.1-.25-.15-.39-.15-.67-.02-1.41.54-2.23,1.68-.9,1.26-1.37,2.34-1.4,3.24,0,.22.03.39.11.51.08.12.2.18.37.18.42.01.93-.42,1.52-1.3.33-.48.75-1.19,1.24-2.14.33-.61.56-1.02.71-1.22.07-.1.21-.23.39-.37Z"/><path class="cls-10" d="M135,27.32c.69.02,1.03.4,1.01,1.13-.02.64-.29,1.28-.81,1.91-.4.48-.75.71-1.04.71-.25,0-.36-.15-.36-.43,0-.15.04-.27.12-.35.03-.03.14-.13.33-.29.16-.14.33-.36.51-.66.12-.2.18-.36.19-.48,0-.14-.07-.21-.23-.22-.18,0-.47.13-.86.41-.61.45-1.23,1.16-1.86,2.13-.65,1.02-.98,1.82-1,2.42,0,.19.05.37.15.52.16.23.38.36.66.36.55.02,1.22-.3,2-.96.66-.57,1.22-1.14,1.68-1.71.24-.32.44-.47.61-.47.1,0,.18.05.26.14.07.09.1.18.1.27-.01.33-.45.94-1.31,1.86-1.37,1.43-2.6,2.13-3.68,2.1-.65-.02-1.14-.27-1.47-.75-.24-.35-.35-.76-.33-1.22.03-.91.44-1.96,1.24-3.14.77-1.13,1.64-2.03,2.62-2.7.58-.39,1.07-.57,1.5-.56Z"/><path class="cls-10" d="M142.44,27.24c-.6.87-1.16,1.84-1.68,2.93-.74,1.54-1.13,2.7-1.15,3.47,0,.22.03.39.12.51.09.12.23.18.41.18.44.01.98-.38,1.63-1.19.41-.5.78-.99,1.1-1.49.18-.28.36-.42.55-.42.11,0,.21.05.29.13.07.08.1.16.1.24-.01.32-.46,1.04-1.35,2.13-1.06,1.32-2.02,1.97-2.86,1.94-.45-.01-.82-.23-1.1-.66-.18-.27-.26-.65-.24-1.13.03-1.06.38-2.29,1.04-3.69.16-.35.6-1.18,1.32-2.5-.24.05-.42.08-.54.08-.18,0-.35-.06-.48-.15-.19-.13-.28-.29-.28-.47,0-.22.14-.39.4-.51.07-.03.4-.08.98-.14.21-.03.52-.1.93-.22.32-.54.85-1.28,1.57-2.2.4-.52.68-.85.84-1,.22-.21.41-.32.56-.31.11,0,.23.07.34.2.1.12.15.23.15.35,0,.23-.27.67-.78,1.33-.34.43-.59.78-.76,1.04.98-.23,1.69-.34,2.11-.33.48.02.72.23.71.63,0,.2-.09.35-.26.44-.09.05-.32.09-.69.11-.15-.01-.82.13-2.01.44-.33.09-.65.18-.97.27Z"/><path class="cls-10" d="M147.64,28c.15,0,.27.07.36.18.07.1.1.2.1.29,0,.16-.14.42-.41.78-.96,1.38-1.65,2.53-2.06,3.43-.44.93-.84,1.88-1.19,2.86-.15.44-.38.65-.68.64-.18,0-.31-.08-.41-.22-.09-.12-.14-.24-.13-.37,0-.26.32-1.13.93-2.61.48-1.16,1.23-2.44,2.26-3.83.33-.46.58-.76.74-.91.16-.16.33-.24.5-.23ZM150.3,23.2c.4.01.59.22.57.62-.01.37-.22.77-.62,1.21-.38.42-.75.62-1.09.61-.17,0-.3-.07-.4-.2-.1-.12-.15-.26-.14-.43.01-.42.26-.86.74-1.32.35-.34.67-.51.94-.5Z"/><path class="cls-10" d="M152.47,32.46c-.57.91-1.05,1.58-1.45,2.01-.98,1.08-1.77,1.6-2.4,1.58-.38-.01-.66-.23-.85-.65-.13-.28-.19-.56-.18-.86.02-.58.3-1.41.83-2.49.48-.94.88-1.69,1.21-2.23.24-.39.39-.64.43-.76.11-.23.21-.41.29-.53.12-.18.28-.27.48-.26.11,0,.2.05.27.14.08.11.12.23.12.37-.01.4-.4,1.27-1.15,2.61-.76,1.33-1.14,2.21-1.15,2.65,0,.28.1.43.32.43.38.01.93-.46,1.66-1.42.32-.43.66-.98,1.02-1.64,0-.22,0-.39,0-.5.02-.66.16-1.23.42-1.7.34-.61.77-.91,1.31-.89.31,0,.46.2.44.57-.02.59-.35,1.44-1.01,2.57.17.04.31.06.42.07.29,0,.67-.16,1.15-.52.38-.29.62-.43.74-.42.1,0,.2.06.3.18.08.1.11.2.11.29-.01.32-.24.67-.69,1.05-.52.43-1.11.64-1.76.62-.25,0-.55-.09-.88-.25Z"/><path class="cls-10" d="M158.91,34.09c-.31.5-.61.92-.9,1.26-.58.67-1.14.99-1.68.98-.47-.02-.84-.25-1.09-.71-.16-.3-.23-.64-.22-1.04.03-.98.37-2.04,1.03-3.2.73-1.29,1.59-2.27,2.57-2.94.65-.44,1.26-.65,1.85-.63.37.01.67.14.91.37.2.21.3.44.29.7,0,.19-.09.46-.25.8.13.19.19.35.18.49,0,.18-.14.48-.4.9-.27.42-.54.98-.82,1.69-.3.75-.45,1.35-.47,1.81-.01.37.09.68.3.92.06.06.24.17.53.32.22.11.32.3.31.56,0,.17-.07.3-.2.4-.14.11-.29.16-.47.16-.47-.02-.88-.24-1.21-.67-.27-.35-.4-.79-.38-1.3,0-.18.03-.47.08-.87ZM160.69,29.81c-.1-.2-.21-.34-.33-.44-.12-.1-.25-.15-.39-.15-.67-.02-1.41.54-2.23,1.68-.9,1.26-1.37,2.34-1.4,3.24,0,.22.03.39.11.5.08.12.2.18.37.18.42.01.93-.42,1.52-1.3.33-.48.75-1.19,1.24-2.14.33-.61.56-1.02.71-1.22.07-.1.2-.23.39-.37Z"/><path class="cls-10" d="M167.04,28.04c-.6.87-1.16,1.84-1.68,2.93-.74,1.54-1.13,2.7-1.15,3.47,0,.22.03.39.12.51.09.12.23.18.41.18.44.01.98-.38,1.63-1.19.41-.5.78-.99,1.1-1.49.18-.28.36-.42.55-.42.11,0,.21.05.29.13.07.08.1.16.1.24-.01.32-.46,1.04-1.35,2.13-1.06,1.32-2.02,1.97-2.86,1.94-.45-.01-.81-.23-1.1-.66-.18-.27-.26-.65-.24-1.13.03-1.06.38-2.29,1.04-3.69.16-.35.6-1.18,1.32-2.5-.24.05-.42.08-.54.07-.18,0-.35-.06-.48-.15-.19-.13-.28-.29-.28-.47,0-.22.14-.39.4-.51.07-.03.4-.08.98-.14.21-.03.52-.1.93-.22.33-.54.85-1.28,1.57-2.2.4-.51.68-.85.84-1,.22-.21.41-.32.56-.31.11,0,.23.07.34.2.1.12.15.23.15.35,0,.23-.27.67-.78,1.33-.34.43-.59.78-.76,1.04.98-.23,1.69-.34,2.11-.33.48.02.72.23.71.63,0,.2-.09.35-.26.44-.09.05-.32.09-.69.11-.15-.01-.82.13-2.01.44-.33.09-.65.18-.97.27Z"/><path class="cls-10" d="M172.24,28.8c.15,0,.27.07.36.18.07.1.1.2.1.29,0,.16-.14.42-.41.78-.96,1.39-1.65,2.53-2.06,3.43-.44.93-.84,1.88-1.19,2.86-.15.44-.38.65-.68.64-.18,0-.31-.08-.42-.22-.09-.12-.14-.24-.13-.37,0-.26.32-1.13.93-2.61.48-1.16,1.23-2.44,2.26-3.83.33-.46.58-.76.74-.91.16-.16.33-.24.5-.23ZM174.9,23.99c.4.01.59.22.57.62-.01.37-.22.77-.62,1.21-.38.42-.75.62-1.09.61-.17,0-.3-.07-.4-.2-.1-.12-.15-.26-.14-.43.01-.42.26-.86.74-1.32.35-.34.67-.51.94-.5Z"/><path class="cls-10" d="M177.45,28.36c.72.02,1.07.47,1.04,1.35-.04,1.17-.63,2.63-1.76,4.39-1.24,1.9-2.41,2.84-3.51,2.8-.51-.02-.88-.27-1.1-.75-.12-.24-.17-.53-.16-.86.04-1.12.46-2.33,1.28-3.63.76-1.2,1.64-2.12,2.63-2.76.58-.38,1.11-.56,1.57-.54ZM175.92,33.29c-.21-.18-.32-.32-.32-.42,0-.07.15-.26.44-.57.82-.86,1.24-1.56,1.25-2.11,0-.07-.02-.14-.06-.21-.07-.13-.17-.2-.32-.21-.28,0-.7.25-1.27.78-.73.68-1.28,1.39-1.68,2.12-.46.84-.7,1.54-.71,2.1,0,.15.03.28.11.4.11.16.25.25.43.25.42.01.88-.29,1.39-.9.22-.26.4-.52.54-.8.14-.28.21-.42.2-.43Z"/><path class="cls-10" d="M180.93,32.45c.12-.1.23-.2.34-.31,1.89-1.73,3.15-2.59,3.78-2.57.34.01.51.21.5.58,0,.26-.17.57-.49.92-1.74,1.9-2.64,3.6-2.68,5.1-.02.48.1.95.35,1.4.12.21.17.37.17.48,0,.11-.06.2-.17.3-.12.12-.26.18-.41.17-.36-.01-.66-.25-.89-.71-.22-.44-.33-.96-.31-1.58.04-1.19.53-2.48,1.47-3.9-1.22.73-2.37,2.04-3.46,3.95-.28.46-.57.68-.87.67-.15,0-.27-.06-.36-.17-.12-.13-.18-.29-.17-.48.02-.47.6-1.7,1.74-3.68.62-1.07,1.1-1.85,1.45-2.33.35-.47.64-.7.88-.7.11,0,.22.06.32.17.12.13.18.27.17.43,0,.19-.14.47-.41.82-.39.52-.7,1-.94,1.43Z"/><path class="cls-10" d="M193.85,19.97c.41.01.61.28.59.8-.03.8-.5,1.83-1.43,3.09-.38.52-.82.98-1.32,1.41-.33.28-.58.42-.78.41-.18,0-.33-.09-.44-.26-.08-.11-.11-.23-.11-.37,0-.19.2-.46.59-.79,1.1-.99,1.77-2.18,2-3.55.05-.25.18-.45.38-.58.18-.11.35-.16.52-.15ZM196.91,20.07c.41.01.61.28.59.8-.03.8-.5,1.83-1.43,3.09-.38.52-.82.98-1.32,1.41-.33.28-.58.42-.78.41-.18,0-.33-.09-.44-.26-.08-.11-.11-.23-.11-.37,0-.19.2-.45.59-.79,1.11-.99,1.78-2.18,2-3.55.05-.25.18-.45.38-.58.18-.11.35-.16.52-.15Z"/></svg>