<?xml version="1.0" encoding="UTF-8"?><svg id="Layer_1" xmlns="http://www.w3.org/2000/svg" xmlns:xlink="http://www.w3.org/1999/xlink" viewBox="0 0 235.88 187.95"><defs><style>.cls-1{filter:url(#drop-shadow-11);stroke-width:3px;}.cls-1,.cls-2,.cls-3,.cls-4{stroke-miterlimit:10;}.cls-1,.cls-2,.cls-4{stroke:#4d4d4d;}.cls-1,.cls-3,.cls-4{fill:none;}.cls-2{fill:#999;}.cls-5{fill:#4d4d4d;}.cls-3{stroke:#ccc;stroke-dasharray:5;}.cls-3,.cls-4{stroke-linecap:round;}</style><filter id="drop-shadow-11" x="28.82" y="103.27" width="193" height="34" filterUnits="userSpaceOnUse"><feOffset dx="7" dy="7"/><feGaussianBlur result="blur" stdDeviation="5"/><feFlood flood-color="#000" flood-opacity=".07"/><feComposite in2="blur" operator="in"/><feComposite in="SourceGraphic"/></filter></defs><path class="cls-5" d="M32.91,134.81c-.05.12-.2.43-.43.92-.39.93-.62,1.54-.7,1.83-.04.16-.1.28-.16.34-.06.06-.15.1-.26.1s-.22-.04-.29-.13c-.07-.08-.1-.17-.1-.27,0-.37.33-1.25.98-2.67-.71.08-1.27.2-1.68.37-.13.05-.24.08-.32.08-.2,0-.29-.15-.29-.46,0-.18.07-.36.21-.53.27-.32.73-.8,1.38-1.44.8-.79,1.53-1.43,2.18-1.92.56-.42.97-.64,1.22-.64.11,0,.21.05.31.14.07.08.11.16.11.26,0,.12-.07.3-.22.54-.02.04-.19.31-.48.78-.38.61-.73,1.25-1.05,1.92.34-.02.57-.03.68-.03.29,0,.43.11.43.32,0,.19-.08.33-.23.41-.07.03-.28.05-.62.05-.1,0-.31,0-.64.02ZM32.35,134.14c.53-1.04,1.04-1.9,1.52-2.6-.51.29-1.13.79-1.85,1.49-.52.52-.94.97-1.26,1.35.71-.15,1.24-.23,1.6-.25Z"/><path class="cls-5" d="M34.96,137.06c.82-.26,1.57-.39,2.26-.39.27,0,.49.06.65.17.15.1.22.22.22.36,0,.09-.03.18-.1.25s-.15.11-.23.11c-.03,0-.07,0-.13-.02-.25-.07-.48-.1-.69-.1-.18,0-.4.02-.67.05-.09.01-.43.1-1.02.26-.53.14-.84.21-.94.21-.14,0-.26-.07-.36-.2-.09-.12-.14-.25-.14-.38,0-.15.13-.34.38-.59.48-.47.94-.89,1.38-1.27.42-.35.94-.76,1.56-1.22.71-.52,1.2-.9,1.46-1.14.4-.35.6-.7.6-1.05,0-.2-.06-.35-.19-.46-.11-.1-.25-.15-.42-.15-.44,0-.96.25-1.55.74-.27.22-.44.34-.51.34-.05,0-.1-.03-.17-.09-.07-.06-.1-.13-.1-.21,0-.18.21-.42.64-.75.68-.52,1.34-.78,1.96-.78.36,0,.65.11.89.34.23.22.34.49.34.8,0,.55-.28,1.09-.83,1.63-.24.23-.68.59-1.32,1.05-1.54,1.12-2.53,1.95-2.97,2.48Z"/><path class="cls-5" d="M87.13,134.81c-.05.12-.2.43-.43.92-.39.93-.62,1.54-.7,1.83-.04.16-.1.28-.16.34-.06.06-.15.1-.26.1s-.22-.04-.29-.13c-.07-.08-.1-.17-.1-.27,0-.37.33-1.25.98-2.67-.71.08-1.27.2-1.68.37-.13.05-.24.08-.32.08-.2,0-.29-.15-.29-.46,0-.18.07-.36.21-.53.27-.32.73-.8,1.38-1.44.8-.79,1.53-1.43,2.18-1.92.56-.42.97-.64,1.22-.64.11,0,.21.05.31.14.07.08.11.16.11.26,0,.12-.07.3-.22.54-.02.04-.19.31-.48.78-.38.61-.73,1.25-1.05,1.92.34-.02.57-.03.68-.03.29,0,.43.11.43.32,0,.19-.08.33-.23.41-.07.03-.28.05-.62.05-.1,0-.31,0-.64.02ZM86.56,134.14c.53-1.04,1.04-1.9,1.52-2.6-.51.29-1.13.79-1.85,1.49-.52.52-.94.97-1.26,1.35.71-.15,1.24-.23,1.6-.25Z"/><path class="cls-5" d="M92.47,133.47c.24.1.42.22.52.34.15.18.23.43.23.75,0,.8-.33,1.56-1,2.29s-1.36,1.1-2.07,1.1c-.43,0-.79-.18-1.06-.54-.2-.26-.29-.55-.29-.86,0-.52.2-.78.6-.78.24,0,.36.09.36.27,0,.04,0,.09-.01.15-.01.08-.02.17-.02.25,0,.23.06.41.17.53.13.13.28.2.45.2.42,0,.86-.29,1.34-.87.45-.56.68-1.09.68-1.59,0-.25-.06-.45-.18-.6-.13-.16-.31-.23-.55-.23-.09,0-.19.01-.28.04-.11.03-.2.05-.26.05-.14,0-.21-.1-.21-.29,0-.17.06-.3.17-.41.06-.06.2-.12.4-.18.41-.1.75-.24,1.03-.42.18-.12.32-.27.43-.47.05-.1.08-.21.08-.32,0-.14-.04-.25-.11-.31-.08-.07-.19-.1-.35-.1-.26,0-.54.07-.82.21-.07.03-.25.13-.52.3-.07.05-.15.07-.24.07-.17,0-.25-.09-.25-.27,0-.16.12-.33.37-.51.57-.41,1.13-.61,1.68-.61.33,0,.6.1.83.3.24.21.36.47.36.77,0,.4-.17.77-.51,1.11-.19.2-.5.4-.94.62Z"/><path class="cls-5" d="M141.34,134.81c-.05.12-.2.43-.43.92-.39.93-.62,1.54-.7,1.83-.04.16-.1.28-.16.34-.06.06-.15.1-.26.1s-.22-.04-.29-.13c-.07-.08-.1-.17-.1-.27,0-.37.33-1.25.98-2.67-.71.08-1.27.2-1.68.37-.13.05-.24.08-.32.08-.2,0-.29-.15-.29-.46,0-.18.07-.36.21-.53.27-.32.73-.8,1.38-1.44.8-.79,1.53-1.43,2.18-1.92.56-.42.97-.64,1.22-.64.11,0,.21.05.31.14.07.08.11.16.11.26,0,.12-.07.3-.22.54-.02.04-.19.31-.48.78-.38.61-.73,1.25-1.05,1.92.34-.02.57-.03.68-.03.29,0,.43.11.43.32,0,.19-.08.33-.23.41-.07.03-.28.05-.62.05-.1,0-.31,0-.64.02ZM140.77,134.14c.53-1.04,1.04-1.9,1.52-2.6-.51.29-1.13.79-1.85,1.49-.52.52-.94.97-1.26,1.35.71-.15,1.24-.23,1.6-.25Z"/><path class="cls-5" d="M146.46,134.81c-.05.12-.2.43-.43.92-.39.93-.62,1.54-.7,1.83-.04.16-.1.28-.16.34-.06.06-.15.1-.26.1s-.22-.04-.29-.13c-.07-.08-.1-.17-.1-.27,0-.37.33-1.25.98-2.67-.71.08-1.27.2-1.68.37-.13.05-.24.08-.32.08-.2,0-.29-.15-.29-.46,0-.18.07-.36.21-.53.27-.32.73-.8,1.38-1.44.8-.79,1.53-1.43,2.18-1.92.56-.42.97-.64,1.22-.64.11,0,.21.05.31.14.07.08.11.16.11.26,0,.12-.07.3-.22.54-.02.04-.19.31-.48.78-.38.61-.73,1.25-1.05,1.92.34-.02.57-.03.68-.03.29,0,.43.11.43.32,0,.19-.08.33-.23.41-.07.03-.28.05-.62.05-.1,0-.31,0-.64.02ZM145.9,134.14c.53-1.04,1.04-1.9,1.52-2.6-.51.29-1.13.79-1.85,1.49-.52.52-.94.97-1.26,1.35.71-.15,1.24-.23,1.6-.25Z"/><path class="cls-5" d="M195.55,134.81c-.05.12-.2.43-.43.92-.39.93-.62,1.54-.7,1.83-.04.16-.1.28-.16.34-.06.06-.15.1-.26.1s-.22-.04-.29-.13c-.07-.08-.1-.17-.1-.27,0-.37.33-1.25.98-2.67-.71.08-1.27.2-1.68.37-.13.05-.24.08-.32.08-.2,0-.29-.15-.29-.46,0-.18.07-.36.21-.53.27-.32.73-.8,1.38-1.44.8-.79,1.53-1.43,2.18-1.92.56-.42.97-.64,1.22-.64.11,0,.21.05.31.14.07.08.11.16.11.26,0,.12-.07.3-.22.54-.02.04-.19.31-.48.78-.38.61-.73,1.25-1.05,1.92.34-.02.57-.03.68-.03.29,0,.43.11.43.32,0,.19-.08.33-.23.41-.07.03-.28.05-.62.05-.1,0-.31,0-.64.02ZM194.99,134.14c.53-1.04,1.04-1.9,1.52-2.6-.51.29-1.13.79-1.85,1.49-.52.52-.94.97-1.26,1.35.71-.15,1.24-.23,1.6-.25Z"/><path class="cls-5" d="M200.87,131.53c-.83.72-1.36,1.33-1.59,1.85.48-.2.9-.29,1.24-.29.4,0,.71.12.93.35.21.22.31.51.31.86,0,.81-.38,1.62-1.15,2.44-.76.82-1.5,1.22-2.23,1.22-.42,0-.75-.2-.98-.59-.15-.26-.23-.56-.23-.89s.07-.61.22-.83c.12-.18.28-.27.47-.27.18,0,.26.07.26.2,0,.03-.01.09-.04.17-.05.14-.07.33-.07.57,0,.21.05.39.15.55.13.22.31.33.53.33.44,0,.9-.28,1.38-.83.53-.61.79-1.21.79-1.81,0-.25-.06-.44-.17-.56-.11-.12-.28-.19-.51-.19s-.5.06-.82.18c-.07.02-.25.11-.53.26-.06.03-.11.05-.16.05-.09,0-.19-.06-.28-.18-.1-.13-.15-.25-.15-.36,0-.21.21-.59.64-1.16.27-.37.6-.74,1-1.11-.11-.15-.16-.26-.16-.34,0-.11.08-.19.23-.24.07-.02.35-.07.83-.13.54-.07.98-.11,1.32-.11s.55.02.7.07c.18.05.26.17.26.35,0,.22-.11.34-.34.34-.05,0-.15,0-.29-.01-.05,0-.1,0-.17,0-.23,0-.46.01-.69.03-.23.02-.45.05-.68.1Z"/><line class="cls-1" x1="36.95" y1="113.68" x2="199.59" y2="113.68"/><path class="cls-5" d="M24.33,31.67c.12-.02.22.01.3.09.07.07.1.14.11.21.02.12-.05.34-.21.65-.55,1.19-.93,2.15-1.13,2.9-.22.77-.39,1.55-.53,2.35-.06.35-.21.55-.44.58-.14.02-.25-.02-.35-.12-.09-.08-.14-.17-.15-.27-.03-.2.09-.91.37-2.12.21-.95.62-2.03,1.23-3.23.19-.39.34-.66.45-.8.1-.15.22-.23.35-.24ZM25.74,27.63c.3-.04.48.09.52.4.04.28-.07.62-.32,1.01-.24.37-.49.58-.75.61-.13.02-.24-.01-.33-.1-.09-.08-.15-.18-.17-.31-.04-.33.09-.7.39-1.11.23-.31.45-.48.66-.5Z"/><path class="cls-5" d="M26.53,34.12c.49-.67.92-1.21,1.31-1.61.59-.6.99-.91,1.21-.94.11-.02.21.01.3.08.08.06.13.14.15.23.02.13-.07.35-.27.68-.3.51-.5.94-.6,1.28,1.36-1.81,2.34-2.76,2.92-2.84.12-.02.23,0,.33.07.11.07.17.16.18.28.03.19-.08.45-.34.79-1.1,1.5-1.59,2.67-1.47,3.52.05.35.14.58.29.72l.31.3c.06.05.1.13.11.22.01.11-.02.22-.09.32-.09.12-.2.19-.32.21-.22.03-.45-.08-.68-.34-.28-.31-.45-.69-.51-1.15-.08-.62,0-1.26.27-1.94.09-.24.25-.57.49-.98-.52.51-1.02,1.19-1.51,2.03-.33.57-.62,1.2-.86,1.88-.11.33-.27.5-.49.53-.23.03-.36-.08-.4-.34-.04-.28.07-.88.33-1.8.15-.52.34-1.08.59-1.68-1.03,1.05-1.74,2.39-2.11,4-.1.36-.26.55-.5.59-.11.02-.2-.01-.28-.09-.08-.07-.14-.16-.15-.28-.06-.4.07-1.15.37-2.26.31-1.17.71-2.23,1.17-3.19.32-.67.59-1.02.82-1.06.2-.03.32.07.35.28.01.09-.08.35-.28.76-.34.77-.56,1.34-.65,1.71Z"/><path class="cls-5" d="M34.81,30.92c.25-.21.44-.36.57-.45.26-.17.52-.28.78-.32.3-.04.53.01.71.17s.28.4.33.75c.07.47-.02,1.07-.26,1.77-.37,1.12-.88,2.03-1.53,2.74-.55.59-1.09.93-1.63,1-.3.04-.61-.03-.93-.22-.67,2-1.23,4.03-1.69,6.08-.09.49-.24.75-.45.78-.1.01-.21-.04-.33-.16-.09-.08-.14-.18-.16-.3-.05-.37.23-1.62.85-3.75.95-3.29,1.91-6.05,2.86-8.27.2-.47.33-.79.39-.97.18-.47.38-.73.6-.76.23-.03.36.09.4.37.02.16-.03.38-.16.66-.15.37-.27.66-.36.88ZM33.11,35.45c.17.14.37.19.59.16.63-.09,1.25-.74,1.86-1.97.23-.45.4-.91.5-1.36.09-.36.12-.63.09-.81-.02-.12-.06-.21-.12-.26-.07-.05-.16-.07-.28-.05-.32.04-.68.32-1.08.82-.38.49-.72,1.15-1.02,1.97-.27.76-.46,1.26-.55,1.5Z"/><path class="cls-5" d="M40.74,34.01c-.24.45-.45.81-.64,1.08-.33.49-.69.76-1.08.81-.33.05-.61-.07-.83-.34-.16-.19-.26-.43-.3-.73-.12-.87.11-1.93.7-3.16.27-.58.56-1.03.86-1.35.23-.26.43-.4.6-.43.09-.01.19.02.28.09.08.06.12.13.13.21.02.13-.08.36-.29.68-.47.75-.81,1.42-1.02,2.03-.25.7-.35,1.24-.29,1.61.01.09.04.17.1.21.05.04.12.06.2.05.34-.05.76-.61,1.24-1.68.25-.56.44-1.17.59-1.82.07-.36.19-.68.35-.97.16-.26.33-.41.51-.43.1-.01.2.02.29.09.1.08.16.18.18.3.03.24-.12.82-.47,1.74-.24.63-.33,1.15-.27,1.54.06.42.22.76.48,1.03.07.07.28.18.61.31.16.07.26.2.28.4.02.12-.02.23-.11.34-.09.1-.21.16-.36.19-.34.05-.67-.05-.98-.28-.28-.21-.49-.54-.62-.99-.02-.06-.06-.23-.12-.52Z"/><path class="cls-5" d="M44.72,31.61c-.13.56-.22,1-.28,1.34-.06.34-.08.57-.06.7.02.17.12.24.28.22.24-.03.53-.31.85-.82.15-.25.37-.69.65-1.32.11-.25.24-.39.4-.41.18-.02.28.05.3.22.04.29-.21.93-.76,1.91-.57,1.02-1.15,1.58-1.75,1.66-.26.04-.48-.04-.67-.24-.14-.14-.22-.32-.25-.54-.05-.38,0-.92.13-1.62.14-.7.37-1.57.69-2.59.83-2.61,1.74-4.79,2.73-6.54.79-1.41,1.51-2.15,2.14-2.24.2-.03.38.03.53.16.16.14.25.31.28.51.13.95-.5,2.64-1.88,5.08-.62,1.09-1.39,2.19-2.31,3.32-.24.3-.57.69-.99,1.19ZM45.22,29.89c1.24-1.4,2.29-3.1,3.15-5.09.44-1.03.64-1.71.6-2.02-.02-.15-.1-.21-.22-.2-.37.05-.95.89-1.72,2.51-.64,1.33-1.24,2.93-1.8,4.8Z"/><path class="cls-5" d="M51.72,27.2c.42-.06.75-.03.98.09.23.12.37.33.41.64.06.4-.04.81-.29,1.22-.24.39-.62.73-1.16,1.03-.29.16-.55.25-.76.28-.28.04-.44-.07-.48-.32-.02-.17.04-.31.19-.42.04-.03.26-.12.67-.27.24-.09.46-.24.64-.45.16-.18.23-.36.2-.55-.02-.14-.08-.24-.17-.3-.09-.06-.22-.07-.38-.05-.39.05-.8.27-1.23.66-.5.43-.71.9-.65,1.39.05.35.29.77.72,1.25.48.52.75.98.8,1.38.08.6-.12,1.1-.6,1.51-.3.25-.65.41-1.06.47-.65.09-1.18-.08-1.58-.5-.28-.3-.46-.67-.52-1.13-.07-.53,0-.99.22-1.39.14-.26.31-.41.5-.43.17-.02.26.03.28.17,0,.05-.01.14-.06.26-.12.31-.15.67-.09,1.06.05.33.2.6.47.79.24.17.49.24.76.21.26-.04.46-.15.58-.35.1-.17.14-.36.1-.59-.04-.28-.25-.63-.64-1.04-.53-.56-.83-1.1-.91-1.6-.09-.68.19-1.33.86-1.95.65-.6,1.37-.96,2.17-1.07Z"/><path class="cls-5" d="M53.81,31.8l.03.18c.02.15.08.27.17.37.2.23.5.31.88.26.85-.12,1.74-.9,2.67-2.36.17-.25.32-.39.45-.4.07-.01.15.02.22.08.05.05.08.1.08.14.04.26-.23.76-.79,1.48-.44.56-.92,1.04-1.46,1.43-.53.39-1.05.62-1.54.69-.51.07-.93-.05-1.27-.36-.23-.22-.38-.54-.43-.96-.16-1.14.22-2.34,1.15-3.59.75-1.01,1.45-1.57,2.1-1.66.18-.02.34,0,.5.1.2.12.31.29.34.52.05.36-.06.82-.32,1.39-.53,1.18-1.46,2.07-2.78,2.67ZM53.92,30.98c.45-.23.8-.46,1.04-.7.42-.43.74-.9.96-1.4.08-.18.11-.33.09-.46-.02-.14-.09-.19-.22-.18-.18.02-.41.19-.7.5-.52.55-.91,1.29-1.17,2.23Z"/><path class="cls-5" d="M65.47,28.72c.49-.67.92-1.21,1.31-1.61.59-.6.99-.91,1.22-.94.11-.02.21.01.3.08.08.06.13.14.15.23.02.13-.07.35-.27.68-.3.51-.5.94-.6,1.28,1.36-1.81,2.34-2.76,2.92-2.84.12-.02.23,0,.33.07.11.07.17.16.18.29.03.19-.08.45-.33.79-1.1,1.5-1.59,2.67-1.47,3.52.05.35.14.58.29.72l.31.3c.06.05.1.13.11.22.01.11-.02.22-.09.32-.09.12-.19.19-.32.21-.22.03-.45-.08-.68-.34-.28-.31-.45-.69-.51-1.15-.08-.62,0-1.26.27-1.94.09-.24.25-.57.49-.98-.52.51-1.02,1.19-1.51,2.03-.33.57-.62,1.2-.86,1.88-.11.33-.28.5-.49.53-.23.03-.36-.08-.4-.34-.04-.28.07-.88.33-1.8.15-.52.34-1.08.59-1.68-1.03,1.05-1.74,2.39-2.11,4-.1.36-.26.55-.5.59-.11.02-.2-.01-.28-.09-.09-.07-.14-.16-.15-.28-.06-.4.07-1.15.37-2.26.31-1.17.71-2.23,1.17-3.2.32-.67.59-1.02.82-1.06.2-.03.32.07.35.28.01.09-.08.35-.28.76-.34.77-.56,1.34-.65,1.71Z"/><path class="cls-5" d="M74.59,24.23c.55-.08.88.22.97.9.12.9-.13,2.1-.78,3.6-.7,1.62-1.47,2.49-2.32,2.61-.39.05-.71-.09-.94-.43-.12-.17-.2-.38-.23-.64-.12-.87.05-1.85.5-2.95.42-1.02.98-1.84,1.66-2.47.4-.37.78-.57,1.14-.62ZM74.07,28.22c-.19-.11-.29-.21-.3-.28,0-.05.08-.22.26-.49.51-.77.74-1.36.68-1.78,0-.05-.03-.11-.07-.16-.07-.09-.16-.13-.27-.12-.22.03-.51.28-.87.76-.47.62-.8,1.23-1.01,1.85-.24.7-.33,1.27-.27,1.7.02.11.06.21.13.29.11.11.23.15.36.14.32-.04.64-.34.94-.88.13-.23.24-.45.31-.68.07-.23.1-.35.1-.35Z"/><path class="cls-5" d="M77.68,27.03c.49-.67.92-1.21,1.31-1.61.59-.6.99-.91,1.21-.94.11-.02.21.01.3.08.09.06.13.14.15.23.02.13-.07.35-.27.68-.3.51-.5.94-.6,1.28,1.36-1.81,2.34-2.76,2.92-2.84.12-.02.23,0,.33.07.11.07.17.16.18.29.03.19-.08.45-.33.79-1.1,1.5-1.59,2.67-1.47,3.52.05.35.14.58.29.72l.31.3c.06.05.1.13.11.22.02.11-.01.22-.09.32-.09.12-.2.19-.32.21-.22.03-.45-.08-.68-.34-.28-.31-.45-.69-.51-1.15-.09-.62,0-1.26.27-1.94.09-.24.25-.57.49-.98-.52.51-1.02,1.19-1.51,2.03-.34.57-.62,1.2-.86,1.88-.11.33-.27.5-.49.53-.23.03-.36-.08-.4-.34-.04-.28.07-.88.33-1.8.15-.52.34-1.08.59-1.68-1.03,1.05-1.74,2.39-2.11,4-.1.36-.26.55-.5.59-.11.02-.2-.01-.28-.09-.09-.07-.14-.16-.15-.28-.06-.4.07-1.15.37-2.26.31-1.17.71-2.23,1.17-3.19.32-.67.59-1.02.82-1.06.2-.03.32.07.35.28.01.09-.08.35-.28.76-.34.77-.56,1.34-.65,1.71Z"/><path class="cls-5" d="M84.31,27.57l.03.18c.02.15.08.27.17.37.2.23.5.31.88.26.85-.12,1.73-.9,2.67-2.36.17-.25.32-.39.45-.4.07-.01.15.02.22.08.05.05.08.1.08.14.04.26-.23.76-.79,1.48-.44.56-.93,1.04-1.46,1.43-.53.39-1.05.62-1.54.69-.51.07-.93-.05-1.27-.36-.23-.22-.38-.54-.43-.96-.16-1.14.22-2.34,1.15-3.59.75-1.01,1.45-1.57,2.1-1.66.18-.02.34,0,.5.1.2.12.31.29.34.52.05.36-.06.82-.31,1.39-.53,1.18-1.46,2.07-2.78,2.67ZM84.42,26.75c.45-.23.8-.46,1.04-.7.42-.43.74-.9.96-1.4.08-.18.11-.33.09-.46-.02-.14-.09-.19-.22-.18-.18.02-.41.19-.7.5-.52.55-.91,1.29-1.17,2.23Z"/><path class="cls-5" d="M90.89,25.1c.08-.09.15-.19.22-.28,1.22-1.58,2.08-2.4,2.56-2.47.26-.04.42.09.46.38.03.2-.06.46-.26.77-1.08,1.69-1.55,3.11-1.39,4.26.05.37.2.71.45,1.02.12.14.18.26.19.35.01.08-.02.16-.09.25-.08.11-.17.17-.3.19-.28.04-.54-.11-.77-.43-.23-.31-.38-.7-.44-1.17-.13-.91.08-1.97.62-3.18-.84.72-1.55,1.88-2.14,3.48-.15.39-.35.6-.58.63-.12.02-.22-.01-.3-.08-.11-.08-.17-.2-.19-.35-.05-.37.23-1.38.85-3.05.33-.9.6-1.56.8-1.97.21-.41.4-.62.58-.65.09-.01.18.02.27.09.11.08.17.18.19.31.02.15-.05.38-.21.68-.23.45-.41.86-.53,1.22Z"/><path class="cls-5" d="M97.66,21.04c-.35.75-.65,1.57-.9,2.46-.37,1.28-.51,2.22-.43,2.81.02.17.08.29.16.37s.2.11.34.09c.34-.05.7-.42,1.1-1.12.25-.44.47-.87.65-1.29.1-.24.22-.37.37-.39.09-.01.17,0,.24.06.06.05.1.11.11.17.04.25-.22.85-.75,1.81-.64,1.15-1.29,1.77-1.94,1.86-.35.05-.66-.07-.93-.36-.17-.18-.28-.46-.33-.83-.11-.82,0-1.81.31-2.96.08-.29.31-.98.68-2.09-.18.07-.31.12-.41.13-.14.02-.27,0-.39-.05-.16-.07-.25-.18-.27-.32-.02-.17.06-.32.24-.45.05-.04.29-.11.73-.24.16-.05.39-.15.68-.29.18-.46.48-1.09.92-1.9.24-.45.41-.74.51-.88.14-.19.27-.3.39-.31.09-.01.18.02.28.11.09.08.15.16.16.25.02.18-.12.55-.42,1.12-.2.37-.35.67-.44.9.72-.31,1.25-.48,1.57-.53.37-.05.58.08.62.39.02.16-.03.28-.15.37-.06.05-.23.11-.51.17-.12,0-.61.21-1.48.6-.24.11-.48.22-.71.34Z"/><path class="cls-5" d="M103.65,20.01c.42-.06.75-.03.97.09.23.12.37.33.41.64.06.4-.04.81-.29,1.22-.24.39-.62.73-1.16,1.03-.3.16-.55.25-.76.28-.28.04-.44-.07-.48-.32-.02-.17.04-.31.19-.42.04-.03.26-.12.67-.27.24-.09.46-.24.64-.45.16-.18.23-.36.2-.55-.02-.14-.08-.24-.17-.3-.09-.06-.22-.07-.38-.05-.39.05-.8.27-1.23.66-.5.43-.71.9-.65,1.39.05.35.29.77.72,1.25.48.52.75.98.8,1.38.08.6-.12,1.1-.6,1.51-.3.25-.65.41-1.06.47-.65.09-1.18-.08-1.58-.5-.28-.3-.46-.67-.52-1.13-.07-.53,0-.99.22-1.39.14-.26.31-.41.5-.43.17-.02.26.03.28.17,0,.05-.01.14-.06.26-.12.31-.15.67-.09,1.06.05.33.2.6.47.79.24.17.49.24.76.21.26-.04.46-.15.58-.35.1-.17.14-.36.1-.59-.04-.28-.25-.63-.64-1.04-.53-.56-.83-1.1-.91-1.6-.09-.68.19-1.33.86-1.95.65-.6,1.37-.96,2.17-1.07Z"/><path class="cls-4" d="M47.98,42.78c-9.3,9.3-1.18,13.27-10.69,30.99"/><path class="cls-5" d="M36.59,68.79c.16-.02.31.11.33.27l.42,4.57,3.96-2.32c.14-.08.33-.04.41.11.08.14.03.33-.11.41l-4.37,2.55c-.09.05-.2.05-.29,0s-.15-.14-.16-.24l-.47-5.04c0-.06,0-.12.03-.16.05-.09.13-.15.24-.16Z"/><line class="cls-3" x1="36.95" y1="78.12" x2="36.95" y2="113.68"/><line class="cls-3" x1="91.16" y1="78.12" x2="91.16" y2="113.68"/><line class="cls-3" x1="145.37" y1="78.12" x2="145.37" y2="113.68"/><line class="cls-3" x1="199.59" y1="78.12" x2="199.59" y2="113.68"/><circle class="cls-2" cx="36.95" cy="113.68" r="7.2"/><circle class="cls-2" cx="91.16" cy="113.68" r="7.2"/><circle class="cls-2" cx="145.37" cy="113.68" r="7.2"/><circle class="cls-2" cx="199.59" cy="113.68" r="7.2"/><path class="cls-4" d="M75.65,41.46c1.11,10.96,18.78,14.96,15.64,32.98"/><path class="cls-5" d="M88.96,69.99c.15-.07.33,0,.4.15l1.92,4.17,2.97-3.5c.11-.13.3-.14.42-.04.13.11.14.3.04.42l-3.27,3.86c-.07.08-.17.12-.27.1-.1-.01-.19-.08-.23-.17l-2.12-4.6c-.02-.05-.03-.11-.02-.17.01-.1.08-.19.17-.23Z"/><path class="cls-4" d="M195.44,80.43c-8.86-1.46-25.38,5.9-45.95,1.29"/><path class="cls-5" d="M191.81,76.99c-.11.12-.1.31.03.42l3.45,3.02-4.2,1.85c-.15.07-.22.24-.15.4s.25.22.4.15l4.63-2.04c.09-.04.16-.13.18-.23.02-.1-.02-.2-.1-.27l-3.81-3.33s-.1-.06-.15-.07c-.1-.01-.2.02-.27.1Z"/><path class="cls-5" d="M154.08,79.69c.06.15-.02.33-.17.39l-4.28,1.65,3.31,3.18c.12.12.12.31,0,.42s-.31.12-.42,0l-3.64-3.51c-.07-.07-.11-.18-.09-.28.02-.1.09-.18.19-.22l4.72-1.82c.06-.02.11-.02.17-.01.1.02.18.09.22.19Z"/><path class="cls-5" d="M163.66,57c.38-2.46.86-4.5,1.43-6.14.39-1.11.73-1.93,1.04-2.47.21-.38.42-.6.63-.66.08-.02.16-.02.23.02.11.04.18.12.21.23.04.14-.01.38-.17.72-.98,2.07-1.72,4.43-2.23,7.08.94-.7,1.61-1.11,2.03-1.23.3-.09.57-.08.81.01.25.1.4.25.46.46.03.1.02.21-.03.32-.06.15-.17.25-.33.3-.11.03-.36,0-.74-.09-.11-.02-.23,0-.37.03-.66.19-1.36.71-2.11,1.58.45.07.8.23,1.05.49.35.36.61.86.79,1.48.46,1.61.47,3.45.02,5.51-.2.88-.43,1.57-.71,2.08-.29.55-.65.88-1.09,1-.33.09-.64.01-.93-.24-.24-.21-.42-.55-.55-1-.28-.97-.33-2.54-.15-4.7.02-.26.11-.95.26-2.05.04-.28.08-.57.1-.87-.05.03-.1.05-.14.06-.18.05-.29-.02-.35-.22-.1-.35.18-.91.84-1.68ZM164.37,58.19c-.17.8-.33,2.07-.49,3.79-.17,1.76-.13,3.08.12,3.95.05.17.13.31.26.42.13.11.26.14.38.1.41-.12.75-.95,1.02-2.51.31-1.74.29-3.24-.08-4.51-.14-.49-.34-.84-.61-1.03-.1-.08-.3-.15-.6-.21Z"/><path class="cls-5" d="M169.39,56.88c.45-.87.99-1.76,1.65-2.66.23-.32.49-.64.78-.94.14-.15.24-.23.28-.24.1-.03.22.02.36.13.08.06.13.13.15.19.03.12-.04.32-.24.59-.52.72-.74,1.22-.66,1.49.04.15.15.2.32.15.28-.08.7-.45,1.26-1.12.1-.11.18-.18.26-.2.05-.01.11,0,.18.03.08.04.12.1.14.16.06.2-.13.58-.57,1.14-.45.6-.94.97-1.46,1.12-.21.06-.42.06-.63,0-.18-.05-.3-.19-.37-.43-.05-.16-.03-.37.05-.62-.41.52-.84,1.32-1.29,2.42-.25.67-.46,1.46-.63,2.39-.06.35-.21.55-.43.61-.24.07-.4-.01-.46-.24-.06-.22-.04-.88.06-1.96.15-1.61.42-2.9.81-3.87.24-.6.49-.94.74-1.01.08-.02.17-.02.26.01.1.04.17.11.2.21s0,.26-.08.47c-.02.04-.13.31-.33.81-.18.47-.3.92-.35,1.35Z"/><path class="cls-5" d="M174.92,56.75l.05.18c.04.14.11.26.22.34.23.2.54.24.91.13.82-.24,1.59-1.14,2.31-2.71.13-.27.26-.43.39-.46.07-.02.15,0,.23.05.05.04.09.08.1.13.07.26-.12.78-.57,1.57-.36.62-.77,1.16-1.24,1.62-.47.46-.95.76-1.43.9-.49.14-.93.08-1.31-.18-.26-.18-.45-.48-.56-.88-.32-1.11-.11-2.35.63-3.71.6-1.11,1.21-1.76,1.84-1.94.17-.05.34-.04.51.02.21.09.35.25.41.47.1.35.06.82-.12,1.42-.36,1.24-1.15,2.25-2.37,3.04ZM174.92,55.92c.42-.29.73-.57.93-.84.36-.49.61-.99.75-1.52.05-.19.06-.34.03-.47-.04-.13-.12-.18-.24-.14-.17.05-.38.25-.62.59-.43.62-.72,1.41-.84,2.38Z"/><path class="cls-5" d="M182.05,55.59c-.41.94-.84,1.48-1.3,1.61-.3.09-.58,0-.83-.23-.17-.15-.29-.36-.36-.63-.17-.61-.17-1.39.01-2.33.25-1.25.69-2.32,1.33-3.19.37-.51.77-.82,1.19-.94.36-.1.64-.04.86.18.16.15.27.33.33.55.02.08.05.19.07.33.21.02.33.08.37.2.02.08,0,.25-.06.51-.2.98-.48,2.76-.84,5.35-.33,2.25-.5,4.2-.52,5.86.02.49-.09.77-.34.85-.14.04-.27,0-.38-.11-.09-.08-.15-.18-.18-.29-.12-.4-.06-1.64.16-3.71.1-.98.21-1.85.32-2.61.09-.59.15-1.05.18-1.38ZM182.11,53.82c-.05-.08-.09-.15-.1-.2-.04-.15.02-.38.18-.68.31-.57.39-1.14.23-1.7-.04-.13-.09-.22-.15-.28-.07-.05-.15-.06-.25-.04-.33.1-.73.72-1.17,1.86-.21.54-.36,1.16-.44,1.85-.05.48-.05.83.01,1.04.03.1.08.17.16.23.1.08.22.11.35.07.27-.08.53-.41.79-1,.11-.26.2-.51.27-.74.08-.28.12-.43.12-.44Z"/><path class="cls-5" d="M187.67,53.51c-.17.48-.33.86-.48,1.16-.26.53-.58.85-.95.96-.32.09-.61.02-.87-.22-.18-.17-.32-.39-.4-.68-.24-.85-.16-1.92.25-3.23.19-.61.41-1.09.66-1.46.19-.29.37-.46.54-.51.09-.03.19-.01.29.04.09.05.14.12.16.19.04.12-.03.36-.19.72-.36.81-.6,1.52-.73,2.15-.15.73-.17,1.28-.06,1.64.03.09.07.16.12.19.06.04.12.04.2.02.33-.1.66-.71.99-1.84.17-.59.27-1.22.32-1.88.02-.36.09-.7.21-1.01.12-.28.27-.45.44-.5.1-.03.2-.01.3.05.11.07.18.16.22.27.07.24,0,.83-.22,1.79-.15.66-.16,1.18-.05,1.56.12.41.33.72.62.95.08.06.3.13.65.22.17.04.28.16.34.35.03.12.01.23-.06.35-.08.12-.19.19-.33.23-.33.09-.67.05-1.01-.14-.31-.17-.56-.46-.76-.89-.03-.05-.1-.22-.2-.5Z"/><path class="cls-5" d="M190.83,52.19l.05.18c.04.15.11.26.22.34.23.2.54.24.91.13.82-.24,1.59-1.14,2.31-2.71.13-.27.26-.43.39-.46.07-.02.15,0,.23.05.05.04.09.08.1.13.07.26-.12.78-.57,1.57-.35.62-.77,1.16-1.24,1.62-.47.46-.95.76-1.43.9-.49.14-.93.08-1.31-.18-.26-.18-.45-.48-.56-.88-.32-1.11-.11-2.35.63-3.71.6-1.11,1.21-1.76,1.84-1.94.17-.05.34-.04.51.02.21.09.35.25.41.47.1.35.06.82-.12,1.42-.36,1.24-1.15,2.25-2.37,3.04ZM190.82,51.36c.42-.29.73-.57.93-.84.36-.49.61-.99.75-1.52.05-.19.06-.34.03-.47-.04-.13-.12-.18-.24-.14-.17.05-.38.25-.62.59-.43.62-.72,1.41-.84,2.38Z"/><path class="cls-5" d="M196.99,48.81c.06-.1.12-.21.18-.31.99-1.73,1.72-2.67,2.18-2.8.26-.07.42.03.51.31.06.2,0,.46-.14.8-.83,1.83-1.09,3.3-.77,4.41.1.36.3.68.59.95.14.12.21.23.24.32.02.08,0,.17-.05.26-.06.12-.15.19-.27.23-.27.08-.55-.03-.83-.32-.27-.27-.47-.64-.6-1.1-.25-.89-.2-1.96.16-3.23-.73.83-1.27,2.08-1.62,3.75-.1.4-.26.64-.48.7-.11.03-.21.02-.31-.04-.12-.07-.2-.17-.24-.32-.1-.35.04-1.4.41-3.14.2-.94.37-1.63.52-2.07.15-.43.31-.67.49-.73.09-.03.18,0,.28.05.12.07.2.16.23.28.04.14,0,.38-.11.7-.16.48-.28.91-.36,1.29Z"/><path class="cls-5" d="M203.15,44.09c.52-.15.86.05,1.01.59.14.48.09,1.02-.15,1.61-.18.45-.38.71-.6.77-.18.05-.31-.03-.37-.24-.03-.11-.03-.21,0-.29.01-.03.07-.13.17-.29.09-.15.16-.35.22-.61.04-.18.05-.31.02-.4-.03-.11-.1-.14-.22-.11-.14.04-.32.21-.54.51-.35.48-.64,1.15-.87,2.02-.24.91-.29,1.58-.16,2.03.04.14.12.26.24.35.17.13.37.17.58.11.41-.12.83-.52,1.25-1.19.35-.58.63-1.13.83-1.67.1-.29.21-.46.34-.49.07-.02.15,0,.23.04.07.05.12.11.13.17.07.24-.11.81-.53,1.69-.67,1.39-1.42,2.2-2.22,2.43-.49.14-.91.07-1.26-.2-.26-.2-.44-.48-.54-.83-.2-.68-.14-1.56.17-2.62.3-1.02.73-1.89,1.29-2.62.33-.42.66-.68.97-.77Z"/><path class="cls-5" d="M209.6,45.86c-.39.86-.71,1.5-.96,1.94-.5.85-.98,1.35-1.44,1.48-.22.06-.42.03-.6-.09-.14-.1-.23-.25-.29-.45-.2-.71-.05-1.77.45-3.19.51-1.44.96-2.22,1.34-2.33.11-.03.21-.01.32.06.09.05.15.13.18.23.04.14.04.28,0,.41-.04.13-.19.43-.44.91-.26.5-.49,1.01-.67,1.56-.21.62-.29,1.04-.22,1.28.04.14.12.19.26.15.26-.08.65-.58,1.17-1.5.32-.58.57-1.07.74-1.45.03-.08.17-.46.42-1.13.23-.6.37-.96.43-1.07.13-.29.28-.45.45-.5.11-.03.21-.01.33.06.1.06.17.15.2.26.05.19.01.55-.12,1.07-.16.64-.3,1.23-.43,1.78-.2.85-.33,1.6-.39,2.25.35-.36.65-.77.9-1.23.42-.76.66-1.3.71-1.63.05-.3.14-.47.27-.5.18-.05.3.01.36.2.1.35-.05.95-.44,1.81-.47,1.03-1.14,1.99-2.02,2.86-.17,1.49-.38,2.74-.62,3.75-.46,1.87-1.18,2.95-2.16,3.23-.4.12-.77.05-1.1-.19-.26-.18-.44-.45-.54-.81-.29-1.03.12-2.28,1.26-3.76.33-.44.84-1.01,1.53-1.72.28-.29.5-.52.66-.69.03-.34.1-.79.2-1.36.12-.62.21-1.17.29-1.66ZM208.9,50.26c-.59.55-1.16,1.27-1.7,2.13-.54.89-.73,1.62-.56,2.21.04.12.1.22.2.28.13.09.28.11.44.07.49-.14.89-.81,1.19-2.02.05-.2.16-.85.32-1.94.04-.22.07-.47.12-.74Z"/><path class="cls-5" d="M39.85,164.52c.51-.57.99-.88,1.45-.95.28-.04.53.05.75.26.2.19.32.42.35.7.07.53,0,1.19-.25,1.99-.27.89-.72,1.74-1.35,2.56-.52.68-1.05,1.06-1.6,1.13-.2.03-.39.02-.57-.04-.18-.05-.34-.14-.49-.27-.04.1-.07.17-.08.2-.08.27-.14.43-.18.49-.04.06-.1.1-.2.11-.12.02-.25-.04-.38-.17-.09-.08-.14-.18-.15-.29-.03-.19.23-1.2.77-3.04.76-2.56,1.69-5.13,2.79-7.72.45-1.06.72-1.68.83-1.86.11-.22.23-.34.35-.36.15-.02.29.04.43.17.09.08.14.19.16.32.02.14-.02.33-.12.57-.02.05-.19.43-.5,1.13-.96,2.07-1.64,3.75-2.03,5.06ZM38.75,169.15c.12.05.23.07.34.06.59-.08,1.14-.68,1.66-1.79.24-.5.42-.99.53-1.47.1-.43.14-.74.11-.94-.02-.13-.06-.23-.13-.29-.07-.06-.17-.08-.3-.06-.31.04-.66.31-1.04.8-.38.48-.73,1.15-1.05,2-.15.41-.28.79-.38,1.14l-.09.29c.12.12.24.21.35.26Z"/><path class="cls-5" d="M43.99,167.39l.03.18c.02.15.08.27.16.37.21.23.5.31.89.26.85-.12,1.73-.9,2.67-2.36.17-.25.32-.39.45-.4.07,0,.15.02.22.08.05.05.08.1.08.14.04.26-.23.76-.79,1.48-.44.57-.93,1.04-1.46,1.43-.53.39-1.05.62-1.54.69-.51.07-.93-.05-1.27-.36-.23-.22-.38-.54-.43-.96-.16-1.14.22-2.34,1.15-3.58.75-1.01,1.45-1.57,2.1-1.66.18-.02.34,0,.5.1.2.12.31.29.34.52.05.36-.05.82-.31,1.39-.53,1.18-1.46,2.07-2.78,2.67ZM44.1,166.57c.45-.23.8-.46,1.04-.7.42-.43.74-.9.96-1.4.08-.18.11-.33.09-.46-.02-.14-.09-.19-.22-.18-.18.02-.41.19-.7.5-.52.55-.91,1.29-1.17,2.23Z"/><path class="cls-5" d="M51.93,166.57c-.17.42-.34.79-.52,1.09-.35.59-.74.91-1.16.97-.37.05-.67-.08-.93-.4-.16-.21-.26-.46-.3-.76-.1-.75.02-1.61.37-2.59.39-1.08.92-1.95,1.59-2.59.44-.42.88-.66,1.34-.72.29-.04.53.02.75.17.18.13.29.3.32.5.02.15,0,.36-.09.64.12.13.19.25.2.35.02.14-.04.39-.19.74-.15.36-.29.83-.41,1.4-.13.61-.17,1.09-.12,1.44.04.29.16.51.35.67.05.04.2.1.45.18.18.06.29.19.31.39.02.13-.01.24-.1.33-.09.1-.2.16-.34.18-.37.05-.7-.07-1.01-.36-.25-.23-.41-.55-.46-.95-.02-.14-.04-.36-.05-.68ZM52.74,163.05c-.1-.14-.21-.24-.31-.29-.1-.06-.21-.08-.32-.06-.51.07-1.01.6-1.49,1.58-.53,1.09-.74,1.98-.64,2.67.02.17.07.29.15.37.08.08.18.11.31.09.33-.04.66-.44.99-1.19.19-.41.41-1.01.67-1.8.17-.51.3-.86.39-1.03.04-.09.13-.2.25-.33Z"/><path class="cls-5" d="M57.37,160.86c-.34.75-.65,1.57-.9,2.46-.37,1.28-.51,2.22-.43,2.81.02.17.08.29.16.37.08.08.2.11.34.09.34-.05.7-.42,1.1-1.12.25-.43.47-.87.65-1.29.1-.24.22-.37.37-.39.09-.01.17,0,.24.06.06.05.1.11.11.17.03.25-.22.86-.75,1.81-.64,1.15-1.29,1.77-1.94,1.86-.34.05-.66-.07-.93-.36-.17-.18-.28-.46-.33-.83-.11-.82,0-1.81.31-2.96.08-.29.31-.98.68-2.09-.18.07-.31.12-.41.13-.14.02-.27,0-.39-.05-.16-.07-.25-.18-.27-.32-.02-.17.06-.32.24-.45.05-.04.29-.11.73-.24.16-.05.39-.15.68-.29.18-.46.48-1.09.92-1.9.24-.45.41-.74.51-.88.14-.19.27-.3.39-.31.09-.01.18.02.28.11.09.08.15.16.16.25.02.18-.12.55-.42,1.12-.2.37-.35.67-.44.9.72-.31,1.25-.48,1.57-.53.37-.05.58.08.62.39.02.16-.03.28-.14.37-.06.05-.23.11-.51.17-.12,0-.61.21-1.48.6-.24.11-.48.22-.71.34Z"/><path class="cls-5" d="M63.37,159.82c.42-.06.75-.03.98.09.23.12.37.33.41.64.05.4-.04.81-.29,1.22-.24.39-.62.73-1.16,1.03-.3.16-.55.25-.76.28-.28.04-.44-.07-.48-.32-.02-.17.04-.31.19-.42.04-.03.26-.12.67-.27.24-.09.46-.24.64-.45.16-.18.23-.36.2-.55-.02-.14-.08-.24-.17-.3s-.22-.07-.38-.05c-.39.05-.8.27-1.23.66-.5.43-.71.9-.65,1.39.05.35.29.77.72,1.25.48.52.75.98.8,1.38.08.6-.12,1.1-.6,1.51-.3.25-.65.41-1.06.47-.65.09-1.18-.08-1.58-.5-.28-.3-.46-.67-.52-1.13-.07-.53,0-.99.22-1.39.14-.26.31-.41.5-.43.17-.02.26.03.28.17,0,.05-.01.14-.06.26-.12.31-.15.67-.09,1.06.05.33.2.6.47.79.24.17.49.24.76.21.26-.04.46-.15.58-.35.1-.17.14-.36.1-.59-.04-.28-.25-.63-.64-1.04-.53-.56-.84-1.1-.91-1.6-.09-.68.19-1.33.86-1.95.65-.6,1.37-.96,2.17-1.07Z"/><path class="cls-5" d="M118.47,158.31c-.44.69-.85,1.46-1.23,2.32-.54,1.22-.81,2.13-.81,2.73,0,.17.04.3.11.39.07.09.18.13.32.13.34,0,.76-.32,1.24-.96.31-.4.58-.79.82-1.19.13-.23.27-.34.42-.34.09,0,.16.03.23.09.05.06.08.12.08.18,0,.25-.33.82-.99,1.69-.79,1.05-1.52,1.58-2.17,1.58-.35,0-.64-.16-.87-.48-.14-.21-.22-.5-.22-.87,0-.83.24-1.79.72-2.89.12-.27.44-.93.96-1.98-.18.05-.32.07-.42.07-.14,0-.27-.03-.38-.1-.15-.1-.23-.22-.23-.36,0-.17.1-.31.3-.41.05-.03.31-.07.76-.13.16-.03.4-.09.72-.19.24-.43.63-1.02,1.17-1.75.3-.41.51-.68.63-.8.16-.17.31-.26.43-.26.09,0,.18.05.27.14.08.09.12.18.12.27,0,.18-.19.53-.57,1.06-.25.34-.44.62-.56.83.76-.21,1.3-.31,1.63-.31.38,0,.56.16.56.47,0,.16-.06.27-.19.35-.07.04-.25.08-.53.1-.12,0-.63.12-1.55.39-.25.08-.5.15-.75.24Z"/><path class="cls-5" d="M122.53,158.77c.12,0,.21.04.29.13.05.08.08.15.08.23,0,.12-.1.33-.3.62-.71,1.1-1.22,2.01-1.52,2.72-.32.73-.6,1.48-.85,2.26-.11.34-.28.51-.51.51-.14,0-.25-.05-.33-.16-.08-.09-.11-.18-.11-.29,0-.21.22-.89.66-2.05.34-.92.9-1.93,1.66-3.04.25-.36.43-.6.55-.73.12-.13.25-.19.38-.19ZM124.48,154.96c.31,0,.46.16.46.47,0,.29-.15.6-.45.95-.29.33-.56.5-.83.5-.13,0-.24-.05-.32-.14-.08-.09-.12-.2-.12-.33,0-.33.18-.68.54-1.05.27-.27.51-.41.72-.41Z"/><path class="cls-5" d="M124.37,161.5c.57-.6,1.08-1.07,1.52-1.42.66-.51,1.11-.77,1.33-.77.11,0,.21.04.29.12.08.08.11.16.11.25,0,.13-.12.34-.36.64-.37.46-.63.86-.77,1.19,1.6-1.61,2.69-2.41,3.28-2.41.12,0,.23.04.32.11.1.08.14.18.14.31,0,.19-.15.44-.44.74-1.29,1.33-1.94,2.43-1.94,3.28,0,.35.06.6.18.75l.27.34c.05.06.08.14.08.24,0,.11-.04.21-.13.31-.1.11-.22.16-.35.16-.23,0-.43-.14-.63-.43-.23-.34-.35-.75-.35-1.21,0-.62.18-1.25.53-1.89.12-.23.33-.53.62-.9-.58.44-1.17,1.04-1.77,1.8-.41.52-.78,1.1-1.11,1.74-.16.31-.34.46-.55.46-.23,0-.35-.13-.35-.39,0-.28.19-.86.57-1.73.22-.5.49-1.03.81-1.58-1.17.9-2.05,2.13-2.64,3.67-.14.34-.33.51-.57.51-.11,0-.2-.04-.27-.12-.08-.08-.11-.18-.11-.3,0-.4.23-1.13.68-2.18.47-1.11,1-2.12,1.6-3,.41-.62.73-.93.95-.93.21,0,.31.11.31.33,0,.1-.13.33-.38.72-.44.72-.74,1.25-.88,1.6Z"/><path class="cls-5" d="M130.86,162.94v.18c0,.15.04.28.11.39.17.25.45.38.84.38.85,0,1.84-.66,2.96-1.97.2-.23.37-.34.5-.34.08,0,.14.04.21.11.04.05.06.11.06.15,0,.27-.33.72-.98,1.35-.51.5-1.06.91-1.64,1.22s-1.12.47-1.62.47-.92-.18-1.21-.53c-.2-.25-.3-.58-.3-1,0-1.16.54-2.29,1.63-3.39.88-.9,1.65-1.35,2.31-1.35.18,0,.34.05.48.16.18.14.27.33.27.56,0,.36-.17.81-.5,1.33-.69,1.09-1.73,1.85-3.12,2.27ZM131.09,162.14c.48-.16.85-.35,1.13-.55.48-.37.86-.79,1.14-1.25.1-.16.15-.31.15-.44,0-.14-.06-.21-.19-.21-.18,0-.43.13-.76.4-.59.47-1.08,1.16-1.47,2.05Z"/><path class="cls-4" d="M141.19,160.21c10.97-1.12,22.95,3.52,42.79,1.75"/><path class="cls-5" d="M180.07,165.06c-.1-.13-.07-.32.07-.42l3.71-2.7-4.01-2.22c-.14-.08-.2-.26-.12-.41s.26-.2.41-.12l4.43,2.45c.09.05.15.14.15.24,0,.1-.04.2-.12.26l-4.09,2.97s-.1.05-.16.06c-.1,0-.2-.04-.26-.12Z"/><path class="cls-4" d="M66.46,158.5c7.64-6.2,19.39-1.34,21.65-15.4"/><path class="cls-5" d="M90.15,147.66c-.15.06-.33-.01-.39-.17l-1.71-4.26-3.14,3.35c-.11.12-.3.13-.42.01-.12-.11-.13-.3-.01-.42l3.46-3.69c.07-.07.17-.11.27-.09s.18.09.22.18l1.88,4.7c.02.05.03.11.02.17-.02.1-.08.18-.18.22Z"/><path class="cls-4" d="M34.55,163.46c-7.15-4.83-8.14-12.6-3.75-20.45"/><path class="cls-5" d="M31.36,148c-.17.01-.31-.12-.32-.28l-.29-4.58-4.03,2.2c-.15.08-.33.03-.41-.12-.08-.15-.02-.33.12-.41l4.44-2.42c.09-.05.2-.05.29,0s.15.14.15.24l.32,5.05c0,.06-.01.12-.04.16-.05.09-.14.15-.24.15Z"/><path class="cls-5" d="M175.05,67.79c.23-.23.41-.4.53-.5.24-.19.5-.32.76-.38.29-.07.53-.03.72.11.18.14.32.38.39.72.11.47.07,1.06-.11,1.79-.27,1.15-.7,2.1-1.29,2.86-.49.64-1.01,1.01-1.54,1.13-.29.07-.61.02-.95-.14-.5,2.05-.89,4.12-1.18,6.2-.05.5-.18.77-.38.81-.1.02-.21-.02-.35-.13-.09-.08-.15-.17-.18-.29-.08-.36.1-1.63.53-3.81.67-3.36,1.39-6.19,2.16-8.48.16-.48.26-.82.31-1,.14-.49.31-.75.53-.8.23-.05.37.06.43.33.04.15,0,.38-.1.67-.12.38-.21.68-.28.9ZM173.73,72.45c.18.12.38.16.6.11.62-.14,1.18-.84,1.69-2.11.19-.47.32-.94.39-1.4.06-.37.07-.64.03-.81-.03-.12-.08-.2-.15-.25-.07-.05-.17-.06-.28-.03-.31.07-.65.37-1,.91-.34.52-.62,1.2-.85,2.05-.21.78-.35,1.3-.42,1.55Z"/><path class="cls-5" d="M179.11,70.44l.04.18c.03.15.1.27.2.36.22.21.52.27.9.19.83-.19,1.65-1.04,2.46-2.57.14-.26.28-.41.42-.44.07-.02.15,0,.22.06.05.04.08.09.09.14.06.26-.16.77-.66,1.54-.39.6-.83,1.12-1.33,1.55-.5.43-.99.71-1.48.82-.5.11-.93.03-1.3-.25-.25-.2-.42-.5-.51-.91-.25-1.13.03-2.35.85-3.67.66-1.07,1.31-1.68,1.95-1.83.17-.04.34-.02.51.05.21.1.33.27.38.49.08.35.01.82-.2,1.41-.43,1.22-1.28,2.18-2.54,2.89ZM179.16,69.61c.43-.26.76-.53.98-.79.39-.47.66-.96.84-1.47.06-.18.08-.34.05-.46-.03-.13-.11-.19-.24-.16-.17.04-.39.22-.65.56-.47.59-.8,1.36-.98,2.32Z"/><path class="cls-5" d="M185.47,67.57c.5-.85,1.1-1.7,1.8-2.56.25-.31.53-.61.83-.89.15-.14.25-.21.3-.22.1-.02.22.03.35.15.08.07.12.13.14.2.03.12-.06.31-.27.58-.56.69-.81,1.18-.75,1.45.03.15.14.21.31.17.29-.06.73-.41,1.32-1.04.1-.11.19-.17.27-.19.05-.01.11,0,.18.04.07.05.12.1.13.17.04.2-.17.57-.63,1.11-.49.57-1,.92-1.52,1.04-.21.05-.42.04-.63-.04-.17-.06-.29-.21-.34-.45-.04-.17-.01-.37.08-.62-.44.49-.92,1.27-1.43,2.34-.29.65-.54,1.44-.76,2.35-.08.34-.24.54-.47.59-.25.06-.4-.03-.45-.27-.05-.23,0-.88.17-1.95.24-1.6.59-2.87,1.03-3.82.27-.59.54-.91.8-.97.09-.02.17-.01.26.03.1.05.16.12.19.22s-.01.26-.11.47c-.02.04-.15.3-.38.79-.21.46-.35.9-.43,1.33Z"/><path class="cls-5" d="M191.92,63.28c.11-.03.22,0,.31.07.07.06.11.13.13.2.03.12-.03.34-.16.67-.45,1.23-.75,2.22-.88,2.98-.15.78-.26,1.58-.33,2.39-.03.36-.16.56-.39.61-.13.03-.25,0-.36-.09-.09-.07-.15-.16-.17-.26-.04-.2.02-.92.19-2.15.13-.97.45-2.08.95-3.33.16-.41.29-.68.38-.83.09-.15.2-.24.33-.27ZM192.99,59.14c.3-.07.48.05.55.36.06.28-.01.62-.23,1.03-.21.39-.44.61-.7.67-.13.03-.24,0-.34-.07-.1-.07-.16-.17-.19-.29-.07-.32.03-.7.3-1.14.2-.33.4-.51.61-.56Z"/><path class="cls-5" d="M195.76,61.93c.55-.12.89.15,1.04.82.2.89.04,2.1-.47,3.65-.56,1.67-1.26,2.61-2.09,2.79-.39.09-.71-.03-.97-.35-.13-.16-.23-.37-.29-.62-.19-.85-.11-1.85.25-2.98.34-1.05.82-1.92,1.44-2.6.37-.4.73-.64,1.08-.72ZM195.57,65.95c-.2-.1-.3-.18-.32-.25-.01-.05.06-.22.22-.51.45-.81.63-1.42.53-1.83-.01-.05-.04-.1-.09-.15-.08-.09-.17-.12-.28-.09-.21.05-.48.33-.8.83-.41.65-.7,1.29-.85,1.92-.18.72-.22,1.29-.13,1.72.03.11.08.21.16.28.11.1.24.14.37.11.32-.07.61-.39.87-.95.12-.24.2-.47.25-.71.05-.24.07-.36.07-.36Z"/><path class="cls-5" d="M200.82,61.44c.35-1.54.71-2.9,1.07-4.07.35-1.13.6-1.85.75-2.15.16-.34.34-.53.54-.57.11-.02.21,0,.32.06.1.07.16.15.18.25.03.15-.02.44-.17.85-.62,1.78-1.15,3.56-1.59,5.35-.51,2.08-.66,3.59-.45,4.53.09.38.23.66.42.85.04.04.18.12.43.24.05.02.08.09.11.19.03.13,0,.27-.07.4s-.18.21-.31.24c-.15.03-.34-.02-.57-.17-.33-.21-.56-.48-.69-.81-.05-.14-.14-.41-.25-.8-.42,1.42-.94,2.2-1.58,2.34-.37.08-.71-.06-1.02-.42-.21-.24-.35-.53-.43-.88-.23-1.04-.09-2.17.43-3.4.52-1.21,1.21-1.91,2.08-2.11.24-.05.51-.03.8.08ZM200.66,62.33c-.21-.08-.38-.1-.51-.07-.56.13-1.01.59-1.36,1.39-.46,1.04-.6,1.98-.41,2.81.02.1.06.19.12.27.12.15.26.21.42.17.23-.05.47-.34.7-.87.31-.7.57-1.5.76-2.41.07-.31.14-.62.2-.93l.05-.21.03-.14Z"/></svg>