<?xml version="1.0" encoding="UTF-8"?><svg id="Layer_1" xmlns="http://www.w3.org/2000/svg" xmlns:xlink="http://www.w3.org/1999/xlink" viewBox="0 0 468.09 496.94"><defs><style>.cls-1,.cls-2,.cls-3,.cls-4,.cls-5,.cls-6,.cls-7,.cls-8,.cls-9,.cls-10{fill:none;}.cls-11{fill:gray;}.cls-12,.cls-2,.cls-3,.cls-4,.cls-5,.cls-6,.cls-7,.cls-9,.cls-10{stroke-miterlimit:10;}.cls-12,.cls-2,.cls-3,.cls-4,.cls-5,.cls-6,.cls-8,.cls-10{stroke:#4d4d4d;}.cls-12,.cls-13{fill:#999;}.cls-14{fill:#4d4d4d;}.cls-15{fill:#ccc;}.cls-16{clip-path:url(#clippath-1);}.cls-17{clip-path:url(#clippath-2);}.cls-3{filter:url(#drop-shadow-6);}.cls-3,.cls-4,.cls-5,.cls-6{stroke-width:3px;}.cls-4{filter:url(#drop-shadow-8);}.cls-5{filter:url(#drop-shadow-7);}.cls-6{filter:url(#drop-shadow-9);}.cls-7{stroke:#ccc;}.cls-7,.cls-8,.cls-9,.cls-10{stroke-linecap:round;}.cls-7,.cls-9{stroke-dasharray:5;}.cls-8{stroke-linejoin:round;}.cls-9{stroke:#666;}.cls-18{fill:#333;}.cls-19{clip-path:url(#clippath);}</style><symbol id="Activation" viewBox="0 0 185.64 24.31"><rect class="cls-13" x=".5" y=".5" width="184.64" height="23.31" rx="3" ry="3"/><path class="cls-14" d="M185.64,21.31c0,1.65-1.35,3-3,3H3c-1.65,0-3-1.35-3-3V3C0,1.35,1.35,0,3,0h179.64c1.65,0,3,1.35,3,3v18.31ZM1,20.31c0,1.65,1.35,3,3,3h177.64c1.65,0,3-1.35,3-3V4c0-1.65-1.35-3-3-3H4c-1.65,0-3,1.35-3,3v16.31Z"/><path class="cls-18" d="M69.2,15.45c-.77,0-1.36-.21-1.78-.63s-.63-1.02-.63-1.79v-.92c0-.76.21-1.35.63-1.77.42-.42,1.01-.63,1.78-.63.44,0,.83.08,1.18.23.35.15.63.37.84.66l-.79.71c-.15-.18-.34-.32-.55-.41s-.43-.15-.67-.15c-.42,0-.75.12-.98.35-.23.24-.35.57-.35,1v.92c0,.44.12.78.35,1.02.23.24.56.36.98.36.23,0,.46-.05.67-.16s.39-.25.55-.44l.79.76c-.21.28-.49.5-.84.65-.35.15-.75.23-1.18.23Z"/><path class="cls-18" d="M74.21,15.45c-.68,0-1.2-.14-1.54-.42s-.51-.72-.51-1.3.16-.97.47-1.24c.31-.27.78-.41,1.41-.41h1.58l.08.88h-1.65c-.28,0-.5.06-.64.19-.14.13-.21.32-.21.58,0,.28.09.49.28.63.19.14.47.2.85.2.42,0,.73-.04.93-.13s.31-.23.31-.42l.11.78c-.1.15-.22.27-.36.37s-.31.17-.49.22c-.18.05-.39.07-.63.07ZM75.58,15.37v-3.53c0-.37-.1-.65-.29-.85-.2-.2-.47-.3-.83-.3-.22,0-.43.03-.65.1-.21.07-.4.16-.57.29l-.8-.55c.21-.25.49-.45.83-.59.35-.14.73-.21,1.15-.21.7,0,1.24.18,1.62.54.38.36.57.87.57,1.53v3.58h-1.04Z"/><path class="cls-18" d="M79.38,7.56v6.37c0,.13.03.24.09.31.06.08.14.11.25.11h.52v1.04h-.64c-.41,0-.73-.13-.96-.39s-.34-.62-.34-1.09v-6.36h1.1Z"/><path class="cls-18" d="M83.72,15.45c-.77,0-1.36-.21-1.78-.63s-.63-1.02-.63-1.79v-.92c0-.76.21-1.35.63-1.77.42-.42,1.01-.63,1.78-.63.44,0,.83.08,1.18.23.35.15.63.37.84.66l-.79.71c-.15-.18-.34-.32-.55-.41s-.43-.15-.67-.15c-.42,0-.75.12-.98.35-.23.24-.35.57-.35,1v.92c0,.44.12.78.35,1.02.23.24.56.36.98.36.23,0,.46-.05.67-.16s.39-.25.55-.44l.79.76c-.21.28-.49.5-.84.65-.35.15-.75.23-1.18.23Z"/><path class="cls-18" d="M87.91,9.79v3.39c0,.39.1.69.3.9.2.21.48.32.84.32s.64-.1.83-.29c.2-.19.29-.46.29-.81l.08,1.17c-.1.25-.28.48-.53.67-.25.2-.58.3-.98.3-.62,0-1.09-.2-1.43-.59-.33-.4-.5-.95-.5-1.67v-3.39h1.1ZM90.18,15.37v-5.58h1.09v5.58h-1.09Z"/><path class="cls-18" d="M94.03,7.56v6.37c0,.13.03.24.09.31.06.08.14.11.25.11h.52v1.04h-.64c-.41,0-.73-.13-.96-.39s-.34-.62-.34-1.09v-6.36h1.1Z"/><path class="cls-18" d="M97.85,15.45c-.68,0-1.2-.14-1.54-.42s-.51-.72-.51-1.3.16-.97.47-1.24c.31-.27.78-.41,1.41-.41h1.58l.08.88h-1.65c-.28,0-.5.06-.64.19-.14.13-.21.32-.21.58,0,.28.09.49.28.63.19.14.47.2.85.2.42,0,.73-.04.93-.13s.31-.23.31-.42l.11.78c-.1.15-.22.27-.36.37s-.31.17-.49.22c-.18.05-.39.07-.63.07ZM99.21,15.37v-3.53c0-.37-.1-.65-.29-.85-.2-.2-.47-.3-.83-.3-.22,0-.43.03-.65.1-.21.07-.4.16-.57.29l-.8-.55c.21-.25.49-.45.83-.59.35-.14.73-.21,1.15-.21.7,0,1.24.18,1.62.54.38.36.57.87.57,1.53v3.58h-1.04Z"/><path class="cls-18" d="M101.49,10.78v-.99h2.51v.99h-2.51ZM103.37,15.4c-.46,0-.79-.13-1-.38s-.31-.62-.31-1.1v-5.75h1.1v5.76c0,.13.03.24.08.31s.13.11.24.11h.53v1.04h-.63Z"/><path class="cls-18" d="M105.51,8.66v-1.1h1.1v1.1h-1.1ZM105.51,15.37v-5.58h1.1v5.58h-1.1Z"/><path class="cls-18" d="M110.41,15.45c-.73,0-1.3-.21-1.7-.64-.4-.42-.6-1.02-.6-1.79v-.91c0-.76.2-1.35.6-1.77s.97-.63,1.7-.63,1.3.21,1.7.63.6,1.01.6,1.77v.92c0,.77-.2,1.36-.6,1.78-.4.42-.97.63-1.7.63ZM110.41,14.41c.38,0,.68-.12.89-.36.21-.24.31-.58.31-1.01v-.92c0-.43-.1-.77-.31-1-.21-.24-.51-.35-.89-.35s-.67.12-.89.35c-.21.24-.32.57-.32,1v.92c0,.43.11.77.32,1.01.21.24.51.36.89.36Z"/><path class="cls-18" d="M114.26,15.37v-5.58h1.1v5.58h-1.1ZM117.65,15.37v-3.38c0-.39-.1-.7-.3-.91s-.49-.32-.86-.32-.63.09-.83.28-.29.46-.29.8l-.11-1.07c.17-.34.4-.6.67-.78s.58-.27.92-.27c.61,0,1.07.2,1.4.59.33.4.5.96.5,1.68v3.38h-1.1Z"/></symbol><symbol id="Executing" viewBox="0 0 138.88 24.31"><rect class="cls-13" x=".5" y=".5" width="137.88" height="23.31" rx="3" ry="3"/><rect class="cls-2" x=".5" y=".5" width="137.88" height="23.31" rx="3" ry="3"/><polygon class="cls-11" points="42.94 2.41 33.48 2.41 14.28 21.85 23.74 21.85 42.94 2.41"/><polygon class="cls-11" points="61.01 2.41 51.55 2.41 32.35 21.85 41.81 21.85 61.01 2.41"/><polygon class="cls-11" points="79.08 2.41 69.62 2.41 50.42 21.85 59.88 21.85 79.08 2.41"/><polygon class="cls-11" points="97.15 2.41 87.69 2.41 68.49 21.85 77.95 21.85 97.15 2.41"/><polygon class="cls-11" points="115.22 2.41 105.76 2.41 86.56 21.85 96.02 21.85 115.22 2.41"/><polygon class="cls-11" points="133.29 2.41 123.83 2.41 104.63 21.85 114.09 21.85 133.29 2.41"/><path class="cls-11" d="M24.87,2.41h-9.46L1.94,16.05v3.61c0,.96.55,1.78,1.34,2.2h2.39L24.87,2.41Z"/><polygon class="cls-11" points="122.7 21.85 132.16 21.85 136.94 17.01 136.94 7.43 122.7 21.85"/><path class="cls-11" d="M6.8,2.41h-3.43c-.84.4-1.42,1.25-1.42,2.25v2.67L6.8,2.41Z"/></symbol><clipPath id="clippath"><rect class="cls-1" x="-235.3" y="52.63" width="132.85" height="61.46"/></clipPath><filter id="drop-shadow-6" x="84.82" y="170.24" width="369" height="34" filterUnits="userSpaceOnUse"><feOffset dx="7" dy="7"/><feGaussianBlur result="blur" stdDeviation="5"/><feFlood flood-color="#000" flood-opacity=".07"/><feComposite in2="blur" operator="in"/><feComposite in="SourceGraphic"/></filter><clipPath id="clippath-1"><rect class="cls-1" x="93.25" y="66.64" width="303.14" height="103.08"/></clipPath><filter id="drop-shadow-7" x="84.82" y="218.24" width="334" height="34" filterUnits="userSpaceOnUse"><feOffset dx="7" dy="7"/><feGaussianBlur result="blur-2" stdDeviation="5"/><feFlood flood-color="#000" flood-opacity=".07"/><feComposite in2="blur-2" operator="in"/><feComposite in="SourceGraphic"/></filter><filter id="drop-shadow-8" x="84.82" y="303.24" width="334" height="34" filterUnits="userSpaceOnUse"><feOffset dx="7" dy="7"/><feGaussianBlur result="blur-3" stdDeviation="5"/><feFlood flood-color="#000" flood-opacity=".07"/><feComposite in2="blur-3" operator="in"/><feComposite in="SourceGraphic"/></filter><filter id="drop-shadow-9" x="84.82" y="421.24" width="369" height="34" filterUnits="userSpaceOnUse"><feOffset dx="7" dy="7"/><feGaussianBlur result="blur-4" stdDeviation="5"/><feFlood flood-color="#000" flood-opacity=".07"/><feComposite in2="blur-4" operator="in"/><feComposite in="SourceGraphic"/></filter><clipPath id="clippath-2"><rect class="cls-1" x="93.25" y="373.73" width="303.14" height="103.08"/></clipPath></defs><g class="cls-19"><use width="138.88" height="24.31" transform="translate(-117.02 72.49)" xlink:href="#Executing"/></g><path class="cls-14" d="M101.8,201.4c-.05.12-.2.43-.43.92-.39.93-.62,1.54-.7,1.83-.04.16-.1.28-.16.34-.06.06-.15.1-.26.1s-.22-.04-.29-.13c-.07-.08-.1-.17-.1-.27,0-.37.33-1.25.98-2.67-.71.08-1.27.2-1.68.37-.13.05-.24.08-.32.08-.2,0-.29-.15-.29-.46,0-.18.07-.36.21-.53.27-.32.74-.8,1.38-1.44.8-.79,1.53-1.43,2.17-1.92.56-.42.97-.64,1.22-.64.11,0,.21.05.31.14.07.08.11.16.11.26,0,.12-.07.3-.22.54-.02.04-.19.31-.48.78-.38.61-.73,1.25-1.05,1.92.34-.02.57-.03.68-.03.29,0,.43.11.43.32,0,.19-.08.33-.23.41-.07.03-.28.05-.62.05-.1,0-.31,0-.64.02ZM101.24,200.72c.53-1.04,1.04-1.9,1.52-2.6-.51.29-1.13.79-1.85,1.49-.52.52-.94.97-1.26,1.35.71-.15,1.24-.23,1.6-.25Z"/><path class="cls-14" d="M103.85,203.64c.82-.26,1.58-.39,2.26-.39.27,0,.49.06.65.17.15.1.22.22.22.36,0,.09-.03.18-.1.25s-.15.11-.23.11c-.03,0-.07,0-.13-.02-.25-.07-.48-.1-.69-.1-.18,0-.4.02-.67.05-.09.01-.43.1-1.02.26-.53.14-.84.21-.94.21-.14,0-.26-.07-.36-.2-.09-.12-.14-.25-.14-.38,0-.15.13-.34.38-.59.48-.47.94-.89,1.38-1.27.42-.35.94-.76,1.56-1.22.71-.52,1.2-.9,1.46-1.14.4-.35.6-.7.6-1.05,0-.2-.06-.35-.19-.46-.11-.1-.25-.15-.42-.15-.44,0-.96.25-1.55.74-.27.22-.44.34-.51.34-.05,0-.1-.03-.17-.09-.07-.06-.1-.13-.1-.21,0-.18.21-.42.64-.75.68-.52,1.34-.78,1.96-.78.36,0,.65.11.89.34.23.22.34.49.34.8,0,.55-.28,1.09-.83,1.63-.24.23-.68.59-1.32,1.05-1.54,1.12-2.53,1.95-2.97,2.48Z"/><path class="cls-14" d="M156.02,201.4c-.05.12-.2.43-.43.92-.39.93-.62,1.54-.7,1.83-.04.16-.1.28-.16.34-.06.06-.15.1-.26.1s-.22-.04-.29-.13c-.07-.08-.1-.17-.1-.27,0-.37.33-1.25.98-2.67-.71.08-1.27.2-1.68.37-.13.05-.24.08-.32.08-.2,0-.29-.15-.29-.46,0-.18.07-.36.21-.53.27-.32.74-.8,1.38-1.44.8-.79,1.53-1.43,2.17-1.92.56-.42.97-.64,1.22-.64.11,0,.21.05.31.14.07.08.11.16.11.26,0,.12-.07.3-.22.54-.02.04-.19.31-.48.78-.38.61-.73,1.25-1.05,1.92.34-.02.57-.03.68-.03.29,0,.43.11.43.32,0,.19-.08.33-.23.41-.07.03-.28.05-.62.05-.1,0-.31,0-.64.02ZM155.45,200.72c.53-1.04,1.04-1.9,1.52-2.6-.51.29-1.13.79-1.85,1.49-.52.52-.94.97-1.26,1.35.71-.15,1.24-.23,1.6-.25Z"/><path class="cls-14" d="M161.35,200.05c.24.1.42.22.52.34.15.18.23.43.23.75,0,.8-.33,1.56-1,2.29s-1.36,1.1-2.07,1.1c-.43,0-.79-.18-1.06-.54-.2-.26-.29-.55-.29-.86,0-.52.2-.78.6-.78.24,0,.36.09.36.27,0,.04,0,.09-.01.15-.01.08-.02.17-.02.25,0,.23.06.41.17.53.13.13.28.2.45.2.42,0,.86-.29,1.34-.87.45-.56.68-1.09.68-1.59,0-.25-.06-.45-.18-.6-.13-.16-.32-.23-.55-.23-.09,0-.19.01-.28.04-.11.03-.2.05-.26.05-.14,0-.21-.1-.21-.29,0-.17.06-.3.17-.41.06-.06.2-.12.4-.18.41-.1.75-.24,1.03-.42.18-.12.32-.27.43-.47.05-.1.08-.21.08-.32,0-.14-.04-.25-.11-.31-.08-.07-.19-.1-.35-.1-.26,0-.54.07-.82.21-.07.03-.25.13-.52.3-.07.05-.15.07-.24.07-.17,0-.25-.09-.25-.27,0-.16.12-.33.37-.51.57-.41,1.13-.61,1.68-.61.33,0,.6.1.83.3.24.21.36.47.36.77,0,.4-.17.77-.51,1.11-.19.2-.5.4-.95.62Z"/><path class="cls-14" d="M210.23,201.4c-.05.12-.2.43-.43.92-.39.93-.62,1.54-.7,1.83-.04.16-.1.28-.16.34-.06.06-.15.1-.26.1s-.22-.04-.29-.13c-.07-.08-.1-.17-.1-.27,0-.37.33-1.25.98-2.67-.71.08-1.27.2-1.68.37-.13.05-.24.08-.32.08-.2,0-.29-.15-.29-.46,0-.18.07-.36.21-.53.27-.32.74-.8,1.38-1.44.8-.79,1.53-1.43,2.17-1.92.56-.42.97-.64,1.22-.64.11,0,.21.05.31.14.07.08.11.16.11.26,0,.12-.07.3-.22.54-.02.04-.19.31-.48.78-.38.61-.73,1.25-1.05,1.92.34-.02.57-.03.68-.03.29,0,.43.11.43.32,0,.19-.08.33-.23.41-.07.03-.28.05-.62.05-.1,0-.31,0-.64.02ZM209.66,200.72c.53-1.04,1.04-1.9,1.52-2.6-.51.29-1.13.79-1.85,1.49-.52.52-.94.97-1.26,1.35.71-.15,1.24-.23,1.6-.25Z"/><path class="cls-14" d="M215.35,201.4c-.05.12-.2.43-.43.92-.39.93-.62,1.54-.7,1.83-.04.16-.1.28-.16.34-.06.06-.15.1-.26.1s-.22-.04-.29-.13c-.07-.08-.1-.17-.1-.27,0-.37.33-1.25.98-2.67-.71.08-1.27.2-1.68.37-.13.05-.24.08-.32.08-.2,0-.29-.15-.29-.46,0-.18.07-.36.21-.53.27-.32.74-.8,1.38-1.44.8-.79,1.53-1.43,2.17-1.92.56-.42.97-.64,1.22-.64.11,0,.21.05.31.14.07.08.11.16.11.26,0,.12-.07.3-.22.54-.02.04-.19.31-.48.78-.38.61-.73,1.25-1.05,1.92.34-.02.57-.03.68-.03.29,0,.43.11.43.32,0,.19-.08.33-.23.41-.07.03-.28.05-.62.05-.1,0-.31,0-.64.02ZM214.79,200.72c.53-1.04,1.04-1.9,1.52-2.6-.51.29-1.13.79-1.85,1.49-.52.52-.94.97-1.26,1.35.71-.15,1.24-.23,1.6-.25Z"/><path class="cls-14" d="M264.44,201.4c-.05.12-.2.43-.43.92-.39.93-.62,1.54-.7,1.83-.04.16-.1.28-.16.34-.06.06-.15.1-.26.1s-.22-.04-.29-.13c-.07-.08-.1-.17-.1-.27,0-.37.33-1.25.98-2.67-.71.08-1.27.2-1.68.37-.13.05-.24.08-.32.08-.2,0-.29-.15-.29-.46,0-.18.07-.36.21-.53.27-.32.74-.8,1.38-1.44.8-.79,1.53-1.43,2.17-1.92.56-.42.97-.64,1.22-.64.11,0,.21.05.31.14.07.08.11.16.11.26,0,.12-.07.3-.22.54-.02.04-.19.31-.48.78-.38.61-.73,1.25-1.05,1.92.34-.02.57-.03.68-.03.29,0,.43.11.43.32,0,.19-.08.33-.23.41-.07.03-.28.05-.62.05-.1,0-.31,0-.64.02ZM263.88,200.72c.53-1.04,1.04-1.9,1.52-2.6-.51.29-1.13.79-1.85,1.49-.52.52-.94.97-1.26,1.35.71-.15,1.24-.23,1.6-.25Z"/><path class="cls-14" d="M269.76,198.11c-.83.72-1.36,1.33-1.59,1.85.48-.2.9-.29,1.24-.29.4,0,.71.12.93.35.21.22.31.51.31.86,0,.81-.38,1.62-1.15,2.44-.76.82-1.5,1.22-2.23,1.22-.42,0-.75-.2-.98-.59-.15-.26-.23-.56-.23-.89s.07-.61.22-.83c.12-.18.28-.27.47-.27.18,0,.26.07.26.2,0,.03-.01.09-.04.17-.05.14-.07.33-.07.57,0,.21.05.39.15.55.13.22.31.33.53.33.44,0,.9-.28,1.38-.83.53-.61.79-1.21.79-1.81,0-.25-.06-.44-.17-.56-.11-.12-.28-.19-.51-.19s-.5.06-.82.18c-.07.02-.25.11-.54.26-.06.03-.11.05-.16.05-.09,0-.19-.06-.28-.18-.1-.13-.15-.25-.15-.36,0-.21.21-.59.64-1.16.27-.37.6-.74,1-1.11-.11-.15-.16-.26-.16-.34,0-.11.08-.19.23-.24.07-.02.35-.07.83-.13.54-.07.98-.11,1.32-.11s.55.02.7.07c.18.05.26.17.26.35,0,.22-.11.34-.34.34-.05,0-.15,0-.29-.01-.05,0-.1,0-.17,0-.23,0-.46.01-.69.03-.23.02-.45.05-.68.1Z"/><line class="cls-3" x1="93.25" y1="180.27" x2="431.14" y2="180.27"/><line class="cls-7" x1="105.84" y1="66.63" x2="105.84" y2="180.27"/><line class="cls-7" x1="160.05" y1="66.63" x2="160.05" y2="180.27"/><line class="cls-7" x1="214.26" y1="66.63" x2="214.26" y2="180.27"/><line class="cls-7" x1="268.48" y1="66.63" x2="268.48" y2="180.27"/><circle class="cls-12" cx="105.84" cy="180.27" r="7.2"/><circle class="cls-12" cx="160.05" cy="180.27" r="7.2"/><circle class="cls-12" cx="214.26" cy="180.27" r="7.2"/><circle class="cls-12" cx="268.48" cy="180.27" r="7.2"/><path class="cls-15" d="M445.33,158.33c.28,0,.5-.22.5-.5s-.22-.5-.5-.5H87.28c-.28,0-.5.22-.5.5s.22.5.5.5h358.05"/><path class="cls-15" d="M445.33,130.35c.28,0,.5-.22.5-.5s-.22-.5-.5-.5H87.28c-.28,0-.5.22-.5.5s.22.5.5.5h358.05"/><path class="cls-14" d="M318.68,201.4c-.05.12-.2.43-.43.92-.39.93-.62,1.54-.7,1.83-.04.16-.1.28-.16.34-.06.06-.15.1-.26.1s-.22-.04-.29-.13c-.07-.08-.1-.17-.1-.27,0-.37.33-1.25.98-2.67-.71.08-1.27.2-1.68.37-.13.05-.24.08-.32.08-.2,0-.29-.15-.29-.46,0-.18.07-.36.21-.53.27-.32.74-.8,1.38-1.44.8-.79,1.53-1.43,2.17-1.92.56-.42.97-.64,1.22-.64.11,0,.21.05.31.14.07.08.11.16.11.26,0,.12-.07.3-.22.54-.02.04-.19.31-.48.78-.38.61-.73,1.25-1.05,1.92.34-.02.57-.03.68-.03.29,0,.43.11.43.32,0,.19-.08.33-.23.41-.07.03-.28.05-.62.05-.1,0-.31,0-.64.02ZM318.12,200.72c.53-1.04,1.04-1.9,1.52-2.6-.51.29-1.13.79-1.85,1.49-.52.52-.94.97-1.26,1.35.71-.15,1.24-.23,1.6-.25Z"/><path class="cls-14" d="M322.26,200.28c.73-.27,1.26-.4,1.6-.4.4,0,.7.11.89.34.17.2.26.46.26.78,0,.83-.37,1.64-1.11,2.44-.68.74-1.38,1.11-2.09,1.11-.45,0-.81-.2-1.09-.59-.21-.3-.32-.65-.32-1.05,0-.87.34-1.77,1.01-2.69.58-.8,1.41-1.54,2.49-2.21.32-.21.56-.35.72-.42.15-.07.28-.11.4-.11.19,0,.28.08.28.24,0,.15-.1.27-.29.38-1.02.54-1.93,1.27-2.74,2.18ZM321.65,201.18c-.3.49-.45.98-.45,1.46,0,.32.07.59.22.82.15.23.35.35.59.35.34,0,.69-.16,1.05-.48s.65-.76.87-1.3c.14-.34.21-.64.21-.89,0-.19-.06-.33-.17-.45-.12-.13-.28-.19-.48-.19-.33,0-.73.11-1.2.33-.13.05-.27.13-.43.23-.12.07-.19.12-.2.13Z"/><path class="cls-14" d="M372.89,201.4c-.05.12-.2.43-.43.92-.39.93-.62,1.54-.7,1.83-.04.16-.1.28-.16.34-.06.06-.15.1-.26.1s-.22-.04-.29-.13c-.07-.08-.1-.17-.1-.27,0-.37.33-1.25.98-2.67-.71.08-1.27.2-1.68.37-.13.05-.24.08-.32.08-.2,0-.29-.15-.29-.46,0-.18.07-.36.21-.53.27-.32.74-.8,1.38-1.44.8-.79,1.53-1.43,2.18-1.92.56-.42.97-.64,1.22-.64.11,0,.21.05.31.14.07.08.11.16.11.26,0,.12-.07.3-.22.54-.03.04-.19.31-.48.78-.38.61-.73,1.25-1.05,1.92.34-.02.57-.03.68-.03.29,0,.43.11.43.32,0,.19-.08.33-.23.41-.07.03-.28.05-.62.05-.1,0-.32,0-.64.02ZM372.33,200.72c.53-1.04,1.04-1.9,1.52-2.6-.51.29-1.13.79-1.85,1.49-.52.52-.94.97-1.26,1.35.71-.15,1.24-.23,1.6-.25Z"/><path class="cls-14" d="M379.37,198.06c-1.31.29-2.24.43-2.77.43-.36,0-.53-.12-.53-.35,0-.12.04-.22.12-.3s.17-.12.27-.12c.04,0,.11,0,.21.01.06,0,.14.01.22.01.3,0,.7-.04,1.2-.12.63-.1,1.1-.19,1.4-.27.17-.04.31-.07.43-.07.26,0,.39.14.39.42,0,.19-.11.41-.34.64-1.68,1.8-3,3.57-3.95,5.32-.23.42-.38.67-.44.75-.12.14-.24.21-.37.21-.07,0-.14-.03-.19-.08-.07-.06-.1-.13-.1-.21,0-.25.24-.76.71-1.54.62-1.02,1.38-2.06,2.26-3.11.53-.63,1.02-1.18,1.49-1.63Z"/><path class="cls-14" d="M427.1,201.4c-.05.12-.2.43-.43.92-.39.93-.62,1.54-.7,1.83-.04.16-.1.28-.16.34-.06.06-.15.1-.26.1s-.22-.04-.29-.13c-.07-.08-.1-.17-.1-.27,0-.37.33-1.25.98-2.67-.71.08-1.27.2-1.68.37-.13.05-.24.08-.32.08-.2,0-.29-.15-.29-.46,0-.18.07-.36.21-.53.27-.32.74-.8,1.38-1.44.8-.79,1.53-1.43,2.17-1.92.56-.42.97-.64,1.22-.64.11,0,.21.05.31.14.07.08.11.16.11.26,0,.12-.07.3-.22.54-.02.04-.19.31-.48.78-.38.61-.73,1.25-1.05,1.92.34-.02.57-.03.68-.03.29,0,.43.11.43.32,0,.19-.08.33-.23.41-.07.03-.28.05-.62.05-.1,0-.31,0-.64.02ZM426.54,200.72c.53-1.04,1.04-1.9,1.52-2.6-.51.29-1.13.79-1.85,1.49-.52.52-.94.97-1.26,1.35.71-.15,1.24-.23,1.6-.25Z"/><path class="cls-14" d="M431.4,199.92c-.21-.21-.37-.38-.45-.51-.13-.21-.2-.42-.2-.65,0-.51.26-.94.77-1.28.44-.3.92-.45,1.44-.45.38,0,.68.12.9.35.2.21.29.45.29.74,0,.43-.21.83-.63,1.2-.22.2-.54.43-.94.7.25.25.44.5.57.75s.19.49.19.72c0,.46-.15.91-.46,1.36-.33.48-.75.87-1.27,1.17-.52.3-1.05.45-1.58.45-.46,0-.84-.17-1.13-.5-.22-.25-.33-.53-.33-.83,0-.8.49-1.57,1.46-2.31.51-.4.97-.7,1.37-.92ZM431.89,200.42c-.59.3-1.08.63-1.49,1.01-.57.53-.85,1.04-.85,1.52,0,.28.09.49.26.62.18.12.37.18.56.18.27,0,.56-.08.86-.25.3-.17.56-.39.77-.66.31-.4.47-.82.47-1.25,0-.3-.09-.58-.28-.84-.04-.06-.11-.13-.2-.22-.07-.07-.1-.1-.11-.1ZM432.1,199.48c.29-.16.54-.34.75-.54.26-.26.4-.5.4-.73,0-.15-.05-.27-.14-.37-.1-.12-.24-.18-.4-.18-.28,0-.55.1-.79.3-.21.17-.32.37-.32.59,0,.16.09.36.27.61l.23.31Z"/><line class="cls-7" x1="322.72" y1="66.63" x2="322.72" y2="180.27"/><line class="cls-7" x1="376.93" y1="66.63" x2="376.93" y2="180.27"/><line class="cls-7" x1="431.14" y1="66.63" x2="431.14" y2="180.27"/><circle class="cls-12" cx="322.72" cy="180.27" r="7.2"/><circle class="cls-12" cx="376.93" cy="180.27" r="7.2"/><circle class="cls-12" cx="431.14" cy="180.27" r="7.2"/><path class="cls-14" d="M227.86,473.59c-.44.69-.85,1.46-1.23,2.32-.54,1.22-.81,2.13-.81,2.73,0,.17.04.3.11.39.07.09.18.13.32.13.34,0,.76-.32,1.24-.96.31-.4.58-.79.82-1.19.13-.23.27-.34.42-.34.09,0,.16.03.23.09.05.06.08.12.08.18,0,.25-.33.82-.99,1.69-.79,1.05-1.52,1.58-2.17,1.58-.35,0-.64-.16-.87-.48-.14-.21-.21-.5-.21-.87,0-.83.24-1.79.72-2.89.12-.27.44-.93.96-1.98-.18.05-.33.07-.42.07-.14,0-.27-.03-.38-.1-.15-.1-.23-.22-.23-.36,0-.17.1-.31.3-.41.05-.03.31-.07.76-.13.16-.03.4-.09.72-.2.24-.43.63-1.01,1.17-1.75.3-.41.51-.68.63-.8.16-.17.31-.26.43-.26.09,0,.18.05.27.14.08.09.12.18.12.27,0,.18-.19.53-.57,1.06-.25.34-.44.62-.56.83.76-.21,1.3-.31,1.63-.31.38,0,.56.16.56.47,0,.16-.06.27-.19.35-.07.04-.25.08-.53.1-.12,0-.63.12-1.55.39-.25.08-.5.15-.75.24Z"/><path class="cls-14" d="M231.92,474.05c.12,0,.21.04.29.13.05.08.08.15.08.23,0,.12-.1.33-.3.62-.71,1.1-1.22,2.01-1.52,2.72-.32.73-.6,1.48-.85,2.26-.11.34-.28.51-.51.51-.14,0-.25-.05-.33-.16-.08-.09-.11-.18-.11-.29,0-.21.22-.89.66-2.05.34-.92.9-1.93,1.66-3.04.25-.36.43-.6.55-.73.12-.13.25-.2.38-.2ZM233.87,470.25c.31,0,.46.16.46.47,0,.29-.15.6-.45.95-.29.33-.56.5-.83.5-.13,0-.24-.05-.32-.14-.08-.09-.12-.2-.12-.33,0-.33.18-.68.54-1.05.27-.27.51-.41.72-.41Z"/><path class="cls-14" d="M233.76,476.78c.57-.6,1.08-1.07,1.52-1.42.66-.51,1.11-.77,1.33-.77.11,0,.21.04.29.12.08.08.11.16.11.25,0,.13-.12.34-.36.64-.37.46-.63.86-.77,1.19,1.6-1.61,2.69-2.41,3.28-2.41.12,0,.23.04.32.11.1.08.14.18.14.31,0,.19-.15.44-.44.74-1.29,1.33-1.94,2.43-1.94,3.28,0,.35.06.6.18.75l.27.34c.05.06.08.14.08.24,0,.11-.04.21-.13.31-.1.11-.22.16-.35.16-.23,0-.43-.14-.62-.43-.23-.34-.35-.75-.35-1.21,0-.62.18-1.25.53-1.89.12-.23.33-.53.62-.9-.58.44-1.17,1.04-1.77,1.8-.41.52-.78,1.1-1.11,1.74-.16.31-.34.46-.55.46-.23,0-.35-.13-.35-.39,0-.28.19-.86.57-1.73.22-.5.49-1.03.81-1.58-1.17.9-2.05,2.13-2.64,3.67-.14.34-.33.51-.57.51-.11,0-.2-.04-.27-.12-.08-.08-.11-.18-.11-.3,0-.4.23-1.13.68-2.18.47-1.11,1-2.12,1.6-3,.41-.62.73-.93.95-.93.21,0,.31.11.31.33,0,.1-.13.33-.38.72-.44.72-.74,1.25-.88,1.6Z"/><path class="cls-14" d="M240.26,478.23v.18c0,.15.04.28.11.39.17.25.45.38.84.38.85,0,1.84-.66,2.96-1.97.2-.23.37-.34.5-.34.08,0,.14.04.21.11.04.05.06.11.06.15,0,.27-.33.72-.98,1.35-.51.5-1.06.91-1.64,1.22s-1.12.47-1.62.47-.92-.18-1.21-.53c-.2-.25-.3-.58-.3-1,0-1.16.54-2.29,1.63-3.39.88-.9,1.65-1.35,2.31-1.35.18,0,.34.05.48.16.18.14.27.33.27.56,0,.36-.17.81-.5,1.33-.69,1.09-1.73,1.85-3.12,2.27ZM240.48,477.43c.48-.16.85-.35,1.13-.55.48-.37.86-.79,1.14-1.25.1-.16.15-.31.15-.44,0-.14-.06-.21-.19-.21-.18,0-.43.13-.76.4-.59.47-1.08,1.16-1.47,2.05Z"/><path class="cls-10" d="M250.18,475.18c10.98-1.12,21.52,3.72,42.8.12"/><path class="cls-14" d="M289.31,478.69c-.11-.13-.09-.32.03-.42l3.5-2.97-4.17-1.92c-.15-.07-.22-.25-.15-.4s.25-.22.4-.15l4.6,2.11c.09.04.16.13.17.23.01.1-.02.2-.1.27l-3.86,3.28s-.1.06-.15.07c-.1.01-.2-.02-.27-.1Z"/><g class="cls-16"><rect class="cls-13" x="113.04" y="132.44" width="135.33" height="23.31" rx="3" ry="3"/><path class="cls-14" d="M248.87,153.25c0,1.65-1.35,3-3,3H115.54c-1.65,0-3-1.35-3-3v-18.31c0-1.65,1.35-3,3-3h130.33c1.65,0,3,1.35,3,3v18.31ZM113.54,152.25c0,1.65,1.35,3,3,3h128.33c1.65,0,3-1.35,3-3v-16.31c0-1.65-1.35-3-3-3H116.54c-1.65,0-3,1.35-3,3v16.31Z"/><rect class="cls-14" x="140.47" y="143.21" width="107.78" height="1"/><polygon class="cls-14" points="142.46 142.01 140.76 143.71 142.46 145.4 141.02 145.4 139.32 143.71 141.02 142.01 142.46 142.01"/><path class="cls-14" d="M122.19,146.61v-.95l2.62-5.66h1.13l-2.56,5.59h3.83v1.02h-5.02ZM125.55,147.82v-4.6h1.07v4.6h-1.07Z"/><path class="cls-14" d="M128.43,147.81v-.95l2.72-3.63c.16-.21.28-.42.37-.64s.13-.43.13-.63h0c0-.32-.09-.56-.27-.74-.18-.17-.44-.26-.78-.26-.32,0-.57.09-.77.28-.2.19-.32.45-.36.8h0s-1.13,0-1.13,0h0c.1-.68.34-1.2.74-1.57.39-.37.9-.56,1.52-.56.7,0,1.24.18,1.63.53.38.35.57.86.57,1.5h0c0,.28-.06.57-.17.87-.11.3-.27.59-.48.87l-2.26,3.07h2.95v1.04h-4.4Z"/><rect class="cls-13" x="172.99" y="104.46" width="100.18" height="23.31" rx="3" ry="3"/><path class="cls-14" d="M273.67,125.27c0,1.65-1.35,3-3,3h-95.18c-1.65,0-3-1.35-3-3v-18.31c0-1.65,1.35-3,3-3h95.18c1.65,0,3,1.35,3,3v18.31ZM173.49,124.27c0,1.65,1.35,3,3,3h93.18c1.65,0,3-1.35,3-3v-16.31c0-1.65-1.35-3-3-3h-93.18c-1.65,0-3,1.35-3,3v16.31Z"/><rect class="cls-14" x="200.42" y="115.23" width="72.54" height="1"/><polygon class="cls-14" points="202.41 114.03 200.72 115.73 202.41 117.42 200.97 117.42 199.28 115.73 200.97 114.03 202.41 114.03"/><path class="cls-14" d="M181.56,118.89v-.95l2.62-5.66h1.13l-2.56,5.59h3.83v1.02h-5.02ZM184.93,120.09v-4.6h1.07v4.6h-1.07Z"/><path class="cls-14" d="M189.94,120.17c-.44,0-.83-.08-1.16-.24-.33-.16-.6-.39-.8-.69s-.33-.67-.39-1.1h1.12c.05.34.18.58.4.74.21.16.49.23.83.23.36,0,.64-.1.84-.29.2-.19.3-.47.3-.82v-.24c0-.39-.09-.69-.28-.9-.19-.21-.46-.32-.81-.32h-.55v-1.04h.55c.31,0,.54-.09.71-.27.17-.18.25-.44.25-.77v-.24c0-.31-.09-.55-.27-.71-.18-.17-.43-.25-.75-.25-.28,0-.51.08-.7.23-.19.16-.32.4-.39.74h-1.11c.11-.64.36-1.14.74-1.5.38-.35.87-.53,1.46-.53.67,0,1.19.18,1.56.53s.55.85.55,1.5v.13c0,.39-.11.73-.32,1.02-.21.29-.51.5-.9.64.43.09.76.3.99.63.23.33.35.74.35,1.25v.13c0,.68-.19,1.21-.58,1.59s-.94.56-1.65.56Z"/><rect class="cls-13" x="217.36" y="76.34" width="114.72" height="23.31" rx="3" ry="3"/><path class="cls-14" d="M332.58,97.15c0,1.65-1.35,3-3,3h-109.72c-1.65,0-3-1.35-3-3v-18.31c0-1.65,1.35-3,3-3h109.72c1.65,0,3,1.35,3,3v18.31ZM217.86,96.15c0,1.65,1.35,3,3,3h107.72c1.65,0,3-1.35,3-3v-16.31c0-1.65-1.35-3-3-3h-107.72c-1.65,0-3,1.35-3,3v16.31Z"/><rect class="cls-14" x="244.79" y="87.11" width="87.29" height="1"/><polygon class="cls-14" points="246.78 85.92 245.09 87.61 246.78 89.31 245.34 89.31 243.65 87.61 245.34 85.92 246.78 85.92"/><path class="cls-14" d="M224.95,90.77v-.95l2.62-5.66h1.13l-2.56,5.59h3.83v1.02h-5.02ZM228.32,91.97v-4.6h1.07v4.6h-1.07Z"/><path class="cls-14" d="M231.21,90.77v-.95l2.62-5.66h1.13l-2.56,5.59h3.83v1.02h-5.02ZM234.58,91.97v-4.6h1.07v4.6h-1.07Z"/><rect class="cls-13" x="35.89" y="104.71" width="114.72" height="23.31" rx="3" ry="3"/><path class="cls-14" d="M151.11,125.52c0,1.65-1.35,3-3,3H38.39c-1.65,0-3-1.35-3-3v-18.31c0-1.65,1.35-3,3-3h109.72c1.65,0,3,1.35,3,3v18.31ZM36.39,124.52c0,1.65,1.35,3,3,3h107.72c1.65,0,3-1.35,3-3v-16.31c0-1.65-1.35-3-3-3H39.39c-1.65,0-3,1.35-3,3v16.31Z"/><rect class="cls-14" x="63.31" y="115.23" width="87.29" height="1"/><polygon class="cls-14" points="65.3 114.03 63.61 115.73 65.3 117.42 63.87 117.42 62.17 115.73 63.87 114.03 65.3 114.03"/><rect class="cls-13" x="-19.04" y="132.55" width="114.72" height="23.31" rx="3" ry="3"/><path class="cls-14" d="M96.18,153.36c0,1.65-1.35,3-3,3H-16.54c-1.65,0-3-1.35-3-3v-18.31c0-1.65,1.35-3,3-3h109.72c1.65,0,3,1.35,3,3v18.31ZM-18.54,152.36c0,1.65,1.35,3,3,3h107.72c1.65,0,3-1.35,3-3v-16.31c0-1.65-1.35-3-3-3H-15.54c-1.65,0-3,1.35-3,3v16.31Z"/><rect class="cls-14" x="8.89" y="143.21" width="87.29" height="1"/><polygon class="cls-14" points="10.88 142.01 9.19 143.71 10.88 145.4 9.44 145.4 7.75 143.71 9.44 142.01 10.88 142.01"/><rect class="cls-13" x="77.88" y="76.34" width="114.72" height="23.31" rx="3" ry="3"/><path class="cls-14" d="M193.1,97.15c0,1.65-1.35,3-3,3h-109.72c-1.65,0-3-1.35-3-3v-18.31c0-1.65,1.35-3,3-3h109.72c1.65,0,3,1.35,3,3v18.31ZM78.38,96.15c0,1.65,1.35,3,3,3h107.72c1.65,0,3-1.35,3-3v-16.31c0-1.65-1.35-3-3-3h-107.72c-1.65,0-3,1.35-3,3v16.31Z"/><rect class="cls-14" x="105.3" y="87.11" width="87.29" height="1"/><polygon class="cls-14" points="107.29 85.92 105.6 87.61 107.29 89.31 105.86 89.31 104.16 87.61 105.86 85.92 107.29 85.92"/><path class="cls-14" d="M89.79,90.77v-.95l2.62-5.66h1.13l-2.56,5.59h3.83v1.02h-5.02ZM93.16,91.97v-4.6h1.07v4.6h-1.07Z"/><path class="cls-14" d="M97.77,84.15v7.81h-1.1v-6.62l-1.11.68v-1.13l1.11-.74h1.1Z"/><rect class="cls-13" x="271.72" y="132.44" width="117.71" height="23.31" rx="3" ry="3"/><path class="cls-14" d="M389.93,153.25c0,1.65-1.35,3-3,3h-112.71c-1.65,0-3-1.35-3-3v-18.31c0-1.65,1.35-3,3-3h112.71c1.65,0,3,1.35,3,3v18.31ZM272.22,152.25c0,1.65,1.35,3,3,3h110.71c1.65,0,3-1.35,3-3v-16.31c0-1.65-1.35-3-3-3h-110.71c-1.65,0-3,1.35-3,3v16.31Z"/><rect class="cls-14" x="299.15" y="143.21" width="90.28" height="1"/><polygon class="cls-14" points="301.14 142.01 299.44 143.71 301.14 145.4 299.7 145.4 298.01 143.71 299.7 142.01 301.14 142.01"/><path class="cls-14" d="M280.15,147.08v-.95l2.62-5.66h1.13l-2.56,5.59h3.83v1.02h-5.02ZM283.51,148.28v-4.6h1.07v4.6h-1.07Z"/><path class="cls-14" d="M288.69,148.36c-.59,0-1.08-.17-1.46-.51-.38-.34-.62-.82-.72-1.45h0s1.1,0,1.1,0h0c.04.29.15.51.34.67.19.16.44.24.74.24.35,0,.62-.12.81-.35.19-.23.29-.56.29-.99v-.66c0-.43-.1-.76-.29-.99s-.46-.35-.81-.35c-.19,0-.37.05-.55.16s-.33.26-.46.45h-1v-4.11h3.98v1.04h-2.88v1.76c.14-.11.29-.2.46-.26.17-.06.34-.09.52-.09.68,0,1.21.21,1.58.63.37.42.56,1,.56,1.76v.66c0,.76-.19,1.35-.58,1.77-.38.42-.92.63-1.62.63Z"/><use width="138.88" height="24.31" transform="translate(330.42 103.51)" xlink:href="#Executing"/><use width="138.88" height="24.31" transform="translate(383.68 76.03)" xlink:href="#Executing"/></g><path class="cls-15" d="M445.33,102.37c.28,0,.5-.22.5-.5s-.22-.5-.5-.5H87.28c-.28,0-.5.22-.5.5s.22.5.5.5h358.05"/><path class="cls-15" d="M445.33,74.39c.28,0,.5-.22.5-.5s-.22-.5-.5-.5H87.28c-.28,0-.5.22-.5.5s.22.5.5.5h358.05"/><line class="cls-10" x1="93.25" y1="66.63" x2="93.25" y2="181.26"/><path class="cls-14" d="M50.51,29.66c.18-.02.34.05.47.21.09.1.14.21.15.34.02.2-.15.49-.5.86-.98,1.11-1.51,2.36-1.57,3.76-.02.26-.12.46-.31.61-.17.14-.33.21-.51.23-.4.03-.63-.2-.67-.71-.07-.81.29-1.89,1.06-3.25.31-.56.7-1.07,1.15-1.55.29-.32.53-.48.73-.5ZM53.56,29.4c.17-.02.33.06.47.21.09.1.14.21.15.35.02.2-.15.49-.5.86-.98,1.11-1.51,2.36-1.57,3.76-.02.26-.12.46-.31.61-.17.14-.33.21-.51.23-.4.03-.63-.2-.67-.71-.07-.81.29-1.89,1.06-3.25.32-.57.71-1.08,1.15-1.55.29-.32.53-.48.73-.5Z"/><path class="cls-14" d="M60.2,37.79c-.49.93-.94,1.97-1.33,3.1-.56,1.62-.81,2.81-.74,3.58.02.22.08.38.18.49.1.11.24.15.43.14.44-.04.93-.49,1.48-1.37.35-.54.66-1.08.92-1.61.14-.3.31-.46.5-.48.11,0,.21.02.3.09.08.07.12.15.12.23.03.32-.34,1.08-1.09,2.28-.9,1.43-1.77,2.19-2.61,2.26-.45.04-.84-.14-1.17-.52-.21-.25-.33-.61-.37-1.09-.09-1.06.11-2.32.61-3.78.12-.36.46-1.24,1.02-2.64-.23.08-.41.13-.53.14-.18.02-.35-.01-.5-.09-.2-.11-.31-.25-.33-.44-.02-.22.09-.4.34-.56.07-.04.39-.13.96-.25.21-.05.51-.16.9-.33.26-.58.7-1.37,1.31-2.37.34-.56.58-.92.71-1.09.19-.24.37-.36.52-.38.11,0,.23.04.36.16.12.1.18.21.19.33.02.23-.19.7-.62,1.42-.29.47-.5.84-.63,1.13.95-.35,1.63-.54,2.05-.57.48-.04.74.14.77.54.02.2-.05.36-.21.47-.08.06-.31.12-.67.19-.15,0-.8.23-1.94.67-.32.12-.63.25-.93.38Z"/><path class="cls-14" d="M63.49,43.5l.02.24c.02.19.08.36.19.49.25.31.62.44,1.12.39,1.1-.09,2.29-1.04,3.58-2.84.23-.31.43-.47.61-.49.1,0,.19.03.28.12.06.07.09.13.09.19.03.34-.34.96-1.11,1.84-.6.69-1.26,1.27-1.97,1.74-.71.47-1.39.73-2.02.78-.66.06-1.19-.13-1.61-.55-.28-.29-.44-.71-.49-1.26-.12-1.48.45-2.99,1.72-4.52,1.03-1.25,1.97-1.91,2.81-1.98.23-.02.44.03.64.16.24.17.38.4.4.69.04.46-.13,1.05-.5,1.76-.77,1.48-2.01,2.56-3.75,3.24ZM63.69,42.45c.59-.26,1.06-.54,1.38-.83.57-.52,1.01-1.1,1.32-1.73.11-.22.16-.42.15-.58-.01-.18-.11-.26-.27-.24-.23.02-.54.22-.93.59-.7.67-1.25,1.6-1.66,2.79Z"/><path class="cls-14" d="M71.95,40.91c.67-.83,1.27-1.49,1.79-1.98.79-.73,1.33-1.11,1.62-1.13.14-.01.27.03.38.13.11.09.16.19.17.3.01.17-.12.45-.39.85-.42.64-.71,1.17-.86,1.61,1.88-2.23,3.19-3.38,3.94-3.44.16-.01.3.02.42.11.13.09.2.22.22.38.02.25-.14.58-.48.99-1.51,1.85-2.22,3.32-2.13,4.41.04.45.14.76.32.94l.38.4c.08.07.12.17.13.29.01.14-.03.28-.14.41-.12.15-.26.23-.43.25-.29.02-.57-.14-.85-.48-.33-.41-.53-.92-.58-1.51-.07-.8.09-1.62.48-2.47.13-.3.36-.71.69-1.22-.7.62-1.39,1.46-2.08,2.5-.47.71-.88,1.49-1.23,2.35-.17.41-.39.63-.66.65-.3.03-.46-.13-.49-.46-.03-.36.15-1.12.55-2.28.23-.66.51-1.37.87-2.11-1.4,1.28-2.39,2.95-2.98,4.99-.15.45-.37.69-.68.72-.14.01-.26-.03-.36-.13-.11-.1-.16-.22-.18-.37-.04-.52.17-1.47.63-2.87.48-1.48,1.06-2.82,1.72-4.02.46-.84.83-1.27,1.12-1.3.26-.02.41.11.43.39,0,.12-.13.44-.41.96-.49.97-.81,1.68-.96,2.15Z"/><path class="cls-14" d="M82.8,37.38c.34-.26.59-.44.76-.54.34-.21.69-.32,1.03-.35.38-.03.68.05.9.26.21.21.34.53.37.98.05.61-.1,1.37-.46,2.26-.55,1.41-1.27,2.55-2.15,3.41-.74.72-1.46,1.12-2.16,1.18-.38.03-.78-.08-1.18-.35-.99,2.53-1.86,5.09-2.59,7.69-.15.62-.36.94-.63.97-.13.01-.27-.07-.42-.23-.11-.12-.17-.25-.18-.4-.04-.47.41-2.06,1.34-4.76,1.45-4.16,2.86-7.64,4.24-10.43.29-.59.48-.99.57-1.21.26-.6.53-.9.82-.93.3-.02.46.14.49.5.02.2-.07.48-.25.84-.22.46-.39.83-.51,1.1ZM80.31,43.08c.21.19.46.27.75.24.81-.07,1.66-.87,2.52-2.4.32-.57.57-1.14.74-1.72.14-.46.2-.81.18-1.03-.01-.16-.06-.27-.14-.34-.08-.07-.2-.1-.36-.09-.41.03-.89.36-1.44.98-.52.6-1,1.42-1.45,2.46-.4.96-.67,1.59-.8,1.89Z"/><path class="cls-14" d="M91.05,35.17c.72-.06,1.11.35,1.19,1.22.1,1.17-.32,2.69-1.24,4.56-1.01,2.03-2.06,3.1-3.16,3.19-.51.04-.9-.16-1.18-.61-.14-.23-.23-.51-.26-.84-.09-1.12.19-2.37.85-3.75.62-1.28,1.38-2.3,2.29-3.05.54-.44,1.04-.68,1.5-.72ZM90.11,40.25c-.23-.16-.36-.28-.36-.38,0-.07.12-.27.37-.61.71-.95,1.05-1.7,1-2.24,0-.07-.03-.14-.08-.2-.08-.12-.2-.18-.34-.17-.28.02-.67.33-1.17.92-.64.76-1.11,1.53-1.42,2.3-.36.89-.51,1.61-.46,2.17.01.15.06.28.15.38.13.15.28.21.45.2.42-.04.84-.39,1.27-1.06.19-.28.33-.57.44-.86.11-.29.16-.44.15-.45Z"/><path class="cls-14" d="M94.97,39.02c.78-.99,1.69-1.97,2.74-2.94.38-.35.78-.68,1.21-.99.22-.15.36-.23.42-.23.13-.01.27.07.42.26.09.1.13.19.14.28.01.16-.13.39-.45.69-.83.79-1.23,1.36-1.2,1.72.02.2.14.29.37.27.38-.03,1-.4,1.87-1.1.15-.12.28-.18.38-.19.07,0,.14.02.22.09.09.07.13.15.14.24.02.26-.31.7-1,1.3-.72.64-1.43.99-2.12,1.05-.28.02-.54-.03-.79-.16-.21-.11-.33-.32-.36-.63-.02-.22.05-.48.21-.77-.65.55-1.39,1.46-2.23,2.73-.48.78-.94,1.73-1.38,2.86-.17.42-.4.64-.7.67-.32.03-.5-.11-.53-.42-.03-.3.16-1.12.56-2.46.59-1.99,1.25-3.55,1.98-4.68.45-.7.85-1.06,1.19-1.09.11,0,.22.02.32.08.12.08.19.18.2.31.01.13-.06.32-.22.57-.03.05-.24.36-.62.94-.35.55-.61,1.09-.78,1.61Z"/><path class="cls-14" d="M104.84,40.35c-.25.53-.49.99-.75,1.36-.49.73-1.01,1.12-1.56,1.16-.47.04-.86-.15-1.16-.58-.19-.27-.3-.61-.34-1-.08-.97.13-2.07.65-3.3.57-1.36,1.31-2.44,2.21-3.22.59-.51,1.18-.79,1.77-.84.37-.03.68.06.95.26.23.18.35.4.37.66.02.19-.04.47-.16.82.15.17.23.33.24.47.02.18-.08.5-.29.94-.22.45-.42,1.04-.62,1.77-.21.78-.29,1.39-.25,1.85.03.37.17.66.41.88.07.06.25.14.56.26.23.09.35.26.38.52.01.17-.04.31-.15.42-.12.13-.27.2-.45.21-.47.04-.9-.14-1.28-.53-.31-.32-.49-.74-.53-1.25-.01-.18-.02-.47-.02-.87ZM106.12,35.89c-.12-.18-.25-.32-.38-.4-.13-.08-.27-.12-.41-.1-.67.06-1.34.7-2.02,1.93-.75,1.36-1.09,2.49-1.01,3.38.02.22.07.38.17.49.09.11.22.15.39.14.42-.04.87-.52,1.36-1.46.27-.52.6-1.27.99-2.27.25-.65.44-1.08.57-1.29.06-.11.18-.25.35-.41Z"/><path class="cls-14" d="M109.91,37.71c-.21.71-.35,1.27-.45,1.71-.1.43-.14.73-.12.9.02.22.13.32.34.3.32-.03.7-.36,1.15-1,.21-.31.52-.86.92-1.65.16-.31.34-.48.54-.5.23-.02.35.08.37.3.03.38-.34,1.17-1.11,2.4-.8,1.28-1.59,1.95-2.36,2.01-.33.03-.62-.09-.85-.35-.17-.19-.26-.43-.29-.72-.04-.49.05-1.18.27-2.07.22-.89.58-1.98,1.06-3.28,1.24-3.29,2.56-6.02,3.95-8.21,1.11-1.75,2.08-2.66,2.9-2.73.26-.02.49.06.67.25.19.19.3.41.32.67.1,1.23-.82,3.36-2.77,6.4-.87,1.35-1.94,2.72-3.2,4.11-.33.36-.78.85-1.36,1.46ZM110.67,35.54c1.69-1.71,3.15-3.82,4.39-6.33.64-1.3.94-2.15.91-2.55-.02-.19-.11-.28-.27-.27-.48.04-1.28,1.07-2.38,3.1-.92,1.67-1.8,3.68-2.64,6.05Z"/><path class="cls-14" d="M122.27,34.81c1.1-3,2.21-5.47,3.33-7.39.76-1.3,1.41-2.25,1.93-2.86.36-.43.68-.65.96-.68.11,0,.2.02.28.08.13.08.2.19.21.34.02.19-.11.48-.39.87-1.75,2.37-3.28,5.16-4.58,8.38,1.36-.65,2.31-1,2.86-1.05.4-.03.74.04,1.02.22.29.19.45.42.47.69.01.14-.03.27-.11.39-.12.18-.28.27-.49.29-.15.01-.45-.09-.91-.29-.13-.05-.29-.07-.48-.05-.88.07-1.89.56-3.05,1.46.55.2.95.49,1.2.88.35.54.55,1.23.62,2.06.18,2.15-.27,4.46-1.34,6.95-.47,1.06-.93,1.88-1.41,2.45-.5.62-1.04.95-1.62,1-.44.04-.81-.14-1.12-.54-.25-.33-.4-.8-.45-1.4-.11-1.3.21-3.29.98-5.97.1-.33.38-1.17.84-2.52.12-.34.24-.69.35-1.08-.07.02-.13.04-.19.04-.24.02-.37-.1-.39-.36-.04-.46.45-1.1,1.48-1.91ZM122.87,36.5c-.41.97-.93,2.52-1.56,4.66-.65,2.18-.93,3.85-.83,5.02.02.23.09.42.22.59.14.17.29.24.46.23.54-.05,1.18-1.02,1.91-2.91.83-2.12,1.17-4.02,1.03-5.71-.06-.66-.22-1.14-.51-1.45-.11-.12-.34-.26-.71-.42Z"/><path class="cls-14" d="M129.53,36.09c.78-.99,1.69-1.97,2.74-2.94.38-.35.78-.68,1.21-.99.22-.15.36-.23.42-.23.13-.01.27.07.42.26.09.1.14.19.14.28.01.16-.13.39-.44.69-.83.79-1.23,1.36-1.2,1.72.02.2.14.29.37.27.38-.03,1-.4,1.87-1.1.15-.12.28-.18.38-.19.07,0,.14.02.22.09.09.07.13.15.14.24.02.26-.31.7-1,1.3-.72.64-1.43.99-2.12,1.05-.28.02-.54-.03-.79-.16-.21-.11-.33-.32-.36-.63-.02-.22.05-.48.21-.77-.65.55-1.39,1.46-2.23,2.73-.48.78-.94,1.73-1.39,2.86-.17.42-.4.64-.7.67-.32.03-.5-.11-.52-.42-.03-.3.16-1.12.56-2.46.59-1.99,1.25-3.55,1.99-4.68.45-.7.85-1.06,1.19-1.09.11,0,.22.02.33.08.12.08.19.18.2.31.01.13-.06.32-.22.57-.03.05-.24.36-.62.94-.35.55-.61,1.09-.78,1.61Z"/><path class="cls-14" d="M139.4,37.42c-.25.53-.49.99-.75,1.36-.49.73-1.01,1.12-1.55,1.16-.47.04-.86-.15-1.16-.58-.19-.27-.3-.61-.34-1-.08-.97.13-2.07.65-3.3.57-1.36,1.31-2.44,2.21-3.22.59-.51,1.18-.79,1.77-.84.37-.03.68.06.95.26.23.18.35.4.37.66.02.19-.04.47-.16.82.15.17.23.33.24.47.02.18-.08.5-.29.94-.22.45-.42,1.04-.62,1.77-.21.78-.29,1.39-.25,1.85.03.37.17.66.41.88.07.06.25.14.56.26.23.09.35.26.38.52.01.17-.04.31-.15.42-.12.13-.27.19-.44.21-.47.04-.9-.14-1.28-.53-.31-.32-.49-.74-.53-1.25-.01-.18-.02-.47-.02-.87ZM140.68,32.96c-.12-.18-.25-.32-.38-.4-.13-.08-.27-.12-.41-.1-.67.06-1.34.7-2.02,1.93-.75,1.36-1.09,2.49-1.01,3.38.02.22.07.38.17.49.09.11.22.15.39.14.42-.04.87-.52,1.36-1.46.27-.52.6-1.27.99-2.27.25-.65.44-1.08.57-1.29.06-.11.18-.25.35-.41Z"/><path class="cls-14" d="M146.52,37.87c.88-.76,1.52-1.44,1.93-2.04.61-.87,1.03-1.57,1.26-2.1.12-.24.25-.37.4-.38.21-.02.32.07.34.27.02.24-.11.65-.4,1.23-.89,1.77-2.32,3.37-4.28,4.79-.79,2.1-1.39,3.52-1.78,4.28-1.05,1.99-2.11,3.04-3.17,3.13-.56.05-.98-.14-1.26-.55-.16-.24-.26-.52-.28-.85-.12-1.38.66-2.77,2.32-4.18.26-.23,1.34-.99,3.24-2.26.32-.85.56-1.51.73-1.99-.84,1.04-1.56,1.59-2.16,1.64-.38.03-.69-.14-.93-.5-.15-.24-.24-.5-.26-.77-.05-.63.14-1.46.57-2.5.61-1.49,1.4-2.69,2.37-3.61.81-.76,1.55-1.18,2.21-1.23.34-.03.65.07.91.31.18.15.29.39.31.71.03.4-.06.91-.28,1.53.22.18.33.31.34.41,0,.06-.03.15-.11.27-.21.34-.54.99-.99,1.92-.4.82-.74,1.65-1.02,2.48ZM144.18,40.79c-1.11.59-2.07,1.42-2.87,2.49-.37.5-.62,1.01-.76,1.55-.04.16-.05.3-.05.4,0,.11.04.21.1.3.11.15.25.22.43.2.54-.05,1.13-.68,1.76-1.91.55-1.06,1.01-2.07,1.38-3.03ZM146.17,34.84c-.13-.12-.2-.21-.21-.26,0-.08.05-.18.17-.32.4-.46.72-.92.95-1.4.19-.38.27-.67.26-.87-.02-.24-.14-.35-.36-.33-.38.03-.88.44-1.52,1.21-.76.92-1.33,1.92-1.7,3.02-.18.54-.26.96-.24,1.24.01.16.06.27.14.35.08.07.18.1.31.09.31-.03.71-.38,1.21-1.06.32-.43.58-.85.79-1.26.14-.27.21-.41.2-.41Z"/><path class="cls-14" d="M152.79,34.07c.67-.83,1.27-1.49,1.79-1.98.79-.73,1.34-1.11,1.62-1.13.14-.01.27.03.38.13.1.09.16.19.17.3.01.17-.12.45-.39.85-.42.64-.71,1.17-.86,1.61,1.88-2.23,3.19-3.38,3.94-3.44.16-.01.3.02.42.11.13.09.2.22.22.38.02.25-.14.58-.48.99-1.51,1.85-2.22,3.32-2.13,4.41.04.45.14.76.32.94l.38.4c.08.07.12.17.13.29.01.14-.03.28-.14.41-.12.15-.26.23-.43.25-.29.02-.57-.14-.85-.48-.33-.41-.53-.92-.58-1.51-.07-.8.09-1.62.48-2.48.13-.3.36-.71.69-1.22-.7.62-1.39,1.46-2.08,2.5-.47.71-.88,1.49-1.23,2.35-.17.41-.39.63-.66.65-.3.02-.46-.13-.49-.46-.03-.36.15-1.12.55-2.28.23-.66.52-1.37.87-2.11-1.4,1.28-2.39,2.95-2.98,4.99-.15.45-.37.69-.68.72-.14.01-.26-.03-.35-.13-.11-.1-.17-.22-.18-.37-.04-.52.17-1.47.63-2.87.48-1.48,1.06-2.82,1.72-4.02.46-.84.83-1.27,1.12-1.3.26-.02.41.11.43.39.01.12-.13.44-.41.96-.49.97-.81,1.68-.96,2.15Z"/><path class="cls-14" d="M161.26,35.22l.02.24c.02.19.08.36.19.49.25.31.62.44,1.12.39,1.1-.09,2.29-1.04,3.58-2.84.23-.31.43-.47.61-.49.1,0,.19.03.27.12.06.07.09.13.1.19.03.34-.34.96-1.11,1.84-.6.69-1.26,1.27-1.97,1.74-.71.47-1.38.73-2.02.78-.66.06-1.19-.13-1.61-.55-.28-.29-.44-.71-.49-1.26-.12-1.48.45-2.99,1.72-4.52,1.03-1.25,1.97-1.91,2.81-1.98.23-.02.44.03.64.16.24.17.38.4.4.69.04.46-.13,1.05-.5,1.76-.77,1.48-2.01,2.56-3.75,3.24ZM161.46,34.17c.6-.26,1.06-.54,1.39-.83.57-.52,1.01-1.1,1.32-1.73.11-.22.16-.42.15-.58-.01-.18-.11-.26-.27-.24-.23.02-.54.22-.93.59-.7.67-1.25,1.6-1.66,2.79Z"/><path class="cls-14" d="M169.88,32.49c.1-.12.21-.23.3-.34,1.68-1.94,2.83-2.94,3.45-2.99.34-.03.53.14.56.52.02.26-.1.59-.38.97-1.51,2.09-2.2,3.89-2.07,5.38.04.48.21.93.51,1.35.14.19.21.34.22.46,0,.1-.04.21-.13.32-.1.13-.23.21-.39.22-.36.03-.68-.17-.96-.61-.27-.41-.43-.92-.49-1.53-.1-1.18.24-2.53,1.01-4.04-1.13.86-2.12,2.31-2.98,4.33-.22.49-.48.74-.78.77-.15.01-.28-.03-.38-.13-.13-.11-.21-.26-.22-.46-.04-.47.39-1.76,1.3-3.85.49-1.13.87-1.96,1.17-2.48.29-.51.56-.77.79-.79.11,0,.23.03.34.13.13.11.21.25.22.4.02.19-.09.48-.31.86-.32.57-.58,1.08-.77,1.53Z"/><path class="cls-14" d="M178.85,27.75c-.5.93-.94,1.97-1.33,3.1-.56,1.62-.81,2.81-.74,3.58.02.22.08.38.18.49.1.11.25.15.43.14.44-.04.93-.49,1.49-1.37.35-.54.66-1.08.92-1.61.14-.3.31-.46.5-.48.11,0,.21.02.3.09.08.07.12.15.12.23.03.32-.34,1.08-1.09,2.28-.9,1.44-1.77,2.19-2.61,2.26-.45.04-.84-.14-1.17-.52-.21-.25-.33-.61-.37-1.09-.09-1.06.11-2.32.61-3.78.12-.36.46-1.24,1.02-2.64-.23.08-.41.13-.53.14-.18.02-.35-.01-.5-.09-.2-.11-.31-.25-.33-.44-.02-.22.09-.4.34-.56.07-.04.39-.12.96-.25.21-.05.51-.16.9-.33.26-.58.7-1.37,1.31-2.37.34-.56.58-.92.71-1.09.19-.24.37-.36.52-.38.11,0,.23.04.36.15.12.1.18.21.19.33.02.23-.19.7-.62,1.42-.29.47-.5.84-.63,1.12.95-.35,1.64-.54,2.06-.57.48-.04.74.14.77.54.02.2-.05.36-.21.47-.08.06-.31.12-.67.19-.15,0-.8.23-1.94.67-.32.12-.63.25-.93.38Z"/><path class="cls-14" d="M193.34,26.26c.54-.05.96.02,1.25.19.29.17.45.45.48.85.04.52-.11,1.03-.45,1.55-.33.49-.85.9-1.56,1.24-.39.18-.72.29-.99.31-.37.03-.57-.11-.59-.44-.02-.22.07-.39.27-.53.05-.03.34-.13.87-.3.32-.1.6-.28.86-.54.22-.22.32-.45.3-.69-.02-.18-.08-.31-.19-.39-.11-.08-.27-.11-.48-.09-.51.04-1.05.3-1.63.76-.67.52-.98,1.11-.92,1.75.04.46.32,1,.84,1.65.58.7.89,1.31.94,1.83.06.77-.23,1.4-.87,1.9-.4.31-.86.48-1.4.53-.84.07-1.5-.18-1.99-.74-.34-.4-.54-.9-.59-1.48-.06-.68.07-1.27.38-1.77.2-.33.42-.5.67-.52.22-.02.33.06.35.24,0,.07-.02.18-.09.33-.17.39-.23.84-.19,1.35.04.43.22.78.55,1.05.29.24.62.34.97.31.34-.03.6-.17.77-.41.14-.21.2-.46.17-.76-.03-.37-.28-.83-.75-1.38-.65-.76-1-1.46-1.05-2.12-.07-.88.34-1.69,1.24-2.45.87-.73,1.83-1.13,2.86-1.22Z"/><path class="cls-14" d="M197.63,29.27c.59-.73,1.19-1.35,1.8-1.86.78-.65,1.35-.99,1.71-1.02.15-.01.3.04.45.15.17.13.26.28.28.47.02.24-.14.62-.47,1.15-.65,1.02-1.12,1.95-1.43,2.77-.28.71-.4,1.19-.38,1.43.02.24.14.35.37.33.47-.04,1.2-.95,2.18-2.72.2-.36.39-.55.57-.56.18-.02.29.08.3.29.03.34-.25,1.02-.83,2.04-.51.89-1.06,1.58-1.65,2.08-.42.34-.81.53-1.17.56-.38.03-.66-.11-.86-.42-.12-.19-.19-.41-.21-.66-.07-.78.13-1.69.6-2.74.11-.25.45-.96,1.01-2.12-1.71,1.05-3.06,3.13-4.04,6.23-.08.35-.25.54-.48.56-.17.01-.31-.03-.42-.14-.12-.11-.18-.26-.2-.43-.02-.29.19-1.13.63-2.53.83-2.59,1.62-4.79,2.38-6.6.75-1.83,1.6-3.73,2.55-5.71.22-.48.4-.8.54-.97s.29-.26.45-.28c.16-.01.3.06.43.21.1.12.15.25.17.41.02.25-.09.59-.34,1.02-.82,1.54-1.63,3.23-2.42,5.06-.85,1.96-1.36,3.29-1.53,3.99Z"/><path class="cls-14" d="M206.98,31.7c-.25.53-.49.99-.74,1.36-.49.73-1.01,1.12-1.56,1.16-.47.04-.86-.15-1.16-.58-.19-.27-.3-.61-.34-1-.08-.97.13-2.07.65-3.3.57-1.36,1.31-2.44,2.21-3.22.59-.51,1.18-.79,1.77-.84.37-.03.68.06.95.26.23.18.35.4.37.66.02.19-.04.47-.16.82.15.17.23.33.24.47.02.18-.08.5-.29.94-.22.45-.42,1.04-.62,1.77-.21.78-.29,1.39-.25,1.85.03.37.17.66.41.88.07.06.25.14.56.26.23.09.35.26.38.52.01.17-.04.31-.15.42-.12.13-.27.19-.44.21-.47.04-.9-.14-1.28-.53-.31-.32-.49-.74-.53-1.25-.01-.18-.02-.47-.02-.87ZM208.26,27.24c-.12-.18-.25-.32-.38-.4-.13-.08-.27-.12-.41-.1-.67.06-1.34.7-2.02,1.93-.75,1.36-1.09,2.49-1.01,3.38.02.22.07.38.17.49.09.11.22.15.39.14.42-.04.87-.52,1.36-1.46.27-.52.6-1.27.99-2.27.25-.65.44-1.08.57-1.29.06-.11.18-.25.35-.41Z"/><path class="cls-14" d="M214.91,25.49c.72-1.9,1.41-3.57,2.08-4.99.64-1.38,1.08-2.25,1.33-2.61.27-.4.53-.61.79-.64.14-.01.27.03.4.14.12.1.18.22.19.35.02.2-.1.55-.36,1.05-1.1,2.16-2.08,4.34-2.97,6.54-1.02,2.56-1.47,4.46-1.37,5.69.04.5.17.88.39,1.16.04.06.21.19.51.38.06.04.09.12.1.26.02.18-.04.34-.16.5-.12.16-.27.24-.44.26-.2.02-.43-.09-.7-.31-.38-.32-.62-.71-.73-1.16-.04-.19-.1-.55-.18-1.07-.78,1.73-1.58,2.64-2.42,2.71-.48.04-.89-.2-1.22-.72-.22-.34-.35-.74-.39-1.2-.12-1.37.27-2.78,1.15-4.25.87-1.45,1.88-2.22,3.02-2.32.32-.03.65.06,1,.25ZM214.55,26.6c-.25-.14-.46-.2-.64-.18-.74.06-1.39.57-1.97,1.53-.77,1.25-1.11,2.42-1.01,3.51.01.13.05.25.11.36.12.21.29.31.5.29.31-.03.65-.36,1.04-.99.52-.84.98-1.82,1.39-2.94.14-.38.28-.77.42-1.15l.1-.26.06-.18Z"/><path class="cls-14" d="M220.07,24.85c.15-.01.28.03.38.14.08.09.12.18.13.28.01.16-.09.43-.31.82-.79,1.49-1.34,2.7-1.65,3.65-.33.97-.61,1.97-.85,2.98-.1.45-.3.69-.6.71-.18.02-.32-.04-.44-.17-.11-.11-.17-.22-.18-.36-.02-.26.18-1.16.62-2.7.34-1.21.94-2.57,1.8-4.07.28-.49.49-.82.63-.99.14-.18.3-.28.46-.29ZM222.15,19.77c.39-.03.61.15.64.55.03.37-.13.79-.47,1.27-.33.46-.67.7-1.01.73-.17.01-.31-.04-.42-.15-.11-.1-.18-.24-.19-.41-.04-.42.16-.89.58-1.4.31-.38.6-.58.88-.6Z"/><path class="cls-14" d="M222.89,28c.1-.11.21-.23.3-.34,1.68-1.94,2.83-2.94,3.45-2.99.34-.03.53.14.56.52.02.26-.1.59-.38.97-1.51,2.09-2.2,3.89-2.07,5.38.04.48.21.93.51,1.35.14.19.21.34.22.46,0,.1-.04.21-.13.32-.1.13-.23.21-.39.22-.36.03-.68-.17-.96-.61-.27-.41-.43-.92-.49-1.53-.1-1.18.24-2.53,1.01-4.04-1.13.86-2.12,2.3-2.98,4.33-.22.49-.48.74-.78.77-.15.01-.28-.03-.38-.13-.13-.11-.21-.26-.22-.46-.04-.47.39-1.76,1.3-3.85.49-1.13.87-1.96,1.17-2.48.29-.51.56-.77.79-.79.11,0,.23.03.34.13.13.11.21.25.22.4.02.19-.09.48-.31.86-.32.57-.58,1.08-.77,1.53Z"/><path class="cls-14" d="M231.59,30.66c.88-.76,1.52-1.44,1.93-2.04.61-.87,1.03-1.57,1.26-2.1.12-.24.25-.37.4-.38.21-.02.32.07.34.27.02.24-.11.65-.4,1.22-.89,1.77-2.32,3.37-4.28,4.79-.79,2.1-1.39,3.52-1.78,4.28-1.05,1.99-2.11,3.04-3.17,3.13-.56.05-.98-.14-1.26-.55-.16-.24-.26-.53-.28-.85-.12-1.38.66-2.77,2.32-4.18.26-.23,1.34-.99,3.24-2.26.32-.85.56-1.51.73-1.99-.84,1.04-1.56,1.59-2.16,1.64-.38.03-.69-.14-.93-.5-.15-.24-.24-.5-.26-.77-.05-.63.14-1.46.57-2.5.61-1.49,1.4-2.69,2.37-3.61.81-.77,1.54-1.18,2.21-1.23.34-.03.65.07.91.31.18.15.28.39.31.71.03.4-.06.91-.28,1.53.22.18.33.31.34.41,0,.06-.03.15-.11.27-.21.34-.54.98-.99,1.92-.4.82-.74,1.65-1.02,2.48ZM229.25,33.59c-1.11.59-2.07,1.42-2.87,2.49-.37.5-.62,1.01-.76,1.55-.04.16-.05.3-.05.4,0,.11.04.21.1.3.11.15.25.22.43.2.54-.05,1.13-.68,1.76-1.91.55-1.06,1.01-2.07,1.38-3.03ZM231.24,27.64c-.13-.12-.2-.21-.21-.26,0-.08.05-.18.17-.32.4-.46.72-.92.95-1.4.19-.38.27-.67.26-.87-.02-.24-.14-.35-.36-.33-.38.03-.88.44-1.52,1.21-.76.92-1.33,1.92-1.7,3.02-.18.54-.26.96-.24,1.24.01.16.06.27.14.35.08.07.18.1.31.09.31-.03.71-.38,1.21-1.05.32-.43.58-.85.79-1.26.14-.27.21-.41.2-.41Z"/><path class="cls-14" d="M242.48,13.4c.41-.04.64.21.68.72.07.8-.29,1.88-1.06,3.24-.32.56-.7,1.07-1.15,1.55-.29.32-.53.48-.72.5-.18.02-.34-.06-.47-.21-.09-.1-.14-.22-.15-.36-.02-.19.15-.48.5-.85.98-1.11,1.51-2.37,1.57-3.76.02-.26.12-.46.3-.62.17-.13.33-.2.5-.21ZM245.52,13.14c.41-.03.64.21.68.72.07.8-.29,1.88-1.06,3.24-.31.56-.7,1.07-1.15,1.55-.29.32-.53.48-.73.5-.18.02-.34-.06-.47-.21-.09-.1-.14-.22-.15-.36-.02-.19.15-.48.5-.85.99-1.12,1.52-2.37,1.57-3.76.02-.26.12-.46.3-.62.17-.13.33-.2.5-.21Z"/><line class="cls-7" x1="105.84" y1="228.16" x2="105.84" y2="313.08"/><line class="cls-7" x1="160.05" y1="228.16" x2="160.05" y2="313.08"/><line class="cls-7" x1="214.26" y1="228.16" x2="214.26" y2="313.08"/><line class="cls-7" x1="268.48" y1="228.16" x2="268.48" y2="313.08"/><path class="cls-15" d="M396.39,313.1c.28,0,.5-.22.5-.5s-.22-.5-.5-.5H93.25c-.28,0-.5.22-.5.5s.22.5.5.5h303.14"/><path class="cls-15" d="M396.39,285.12c.28,0,.5-.22.5-.5s-.22-.5-.5-.5H93.25c-.28,0-.5.22-.5.5s.22.5.5.5h303.14"/><line class="cls-7" x1="322.72" y1="228.16" x2="322.72" y2="313.08"/><line class="cls-7" x1="376.93" y1="228.16" x2="376.93" y2="313.08"/><line class="cls-7" x1="396.39" y1="227.16" x2="396.39" y2="313.08"/><path class="cls-15" d="M396.39,257.14c.28,0,.5-.22.5-.5s-.22-.5-.5-.5H93.25c-.28,0-.5.22-.5.5s.22.5.5.5h303.14"/><line class="cls-10" x1="93.25" y1="227.16" x2="93.25" y2="314.07"/><line class="cls-5" x1="396.39" y1="228.16" x2="93.25" y2="228.16"/><line class="cls-10" x1="396.39" y1="314.07" x2="396.39" y2="227.16"/><path class="cls-14" d="M126.6,301.94v-.95l2.62-5.66h1.13l-2.56,5.59h3.83v1.02h-5.02ZM129.97,303.15v-4.6h1.07v4.6h-1.07Z"/><path class="cls-14" d="M132.84,303.14v-.95l2.72-3.63c.16-.21.28-.42.37-.64.09-.22.13-.43.13-.63h0c0-.32-.09-.56-.27-.74s-.44-.26-.78-.26c-.31,0-.57.09-.77.28-.2.19-.32.45-.36.8h0s-1.13,0-1.13,0h0c.1-.68.34-1.2.74-1.57.39-.37.9-.56,1.52-.56.7,0,1.24.18,1.63.53.38.35.57.86.57,1.5h0c0,.28-.06.57-.17.87-.11.3-.27.59-.48.87l-2.26,3.07h2.95v1.04h-4.4Z"/><path class="cls-14" d="M286.44,301.94v-.95l2.62-5.66h1.13l-2.56,5.59h3.83v1.02h-5.02ZM289.81,303.15v-4.6h1.07v4.6h-1.07Z"/><path class="cls-14" d="M294.99,303.22c-.59,0-1.08-.17-1.46-.51-.38-.34-.62-.82-.72-1.45h0s1.1,0,1.1,0h0c.04.29.15.51.34.67.19.16.44.24.74.24.35,0,.62-.12.81-.35.19-.23.29-.56.29-.99v-.66c0-.43-.1-.76-.29-.99-.19-.23-.46-.35-.81-.35-.19,0-.37.05-.55.16-.17.11-.33.26-.46.45h-1v-4.11h3.98v1.04h-2.88v1.76c.14-.11.29-.2.46-.26.17-.06.34-.09.52-.09.68,0,1.21.21,1.58.63.37.42.56,1,.56,1.76v.66c0,.76-.19,1.35-.58,1.77-.38.42-.92.63-1.62.63Z"/><path class="cls-14" d="M179.3,274.67v-.95l2.62-5.66h1.13l-2.56,5.59h3.83v1.02h-5.02ZM182.67,275.88v-4.6h1.07v4.6h-1.07Z"/><path class="cls-14" d="M187.69,275.95c-.44,0-.83-.08-1.16-.24-.33-.16-.6-.39-.8-.69-.2-.3-.33-.67-.39-1.1h1.12c.05.34.18.58.4.74.21.16.49.23.83.23.36,0,.64-.1.84-.29.2-.19.3-.47.3-.82v-.24c0-.39-.09-.69-.29-.9-.19-.21-.46-.32-.81-.32h-.55v-1.04h.55c.31,0,.54-.09.71-.27.17-.18.25-.44.25-.77v-.24c0-.31-.09-.55-.27-.71-.18-.17-.43-.25-.75-.25-.28,0-.51.08-.7.23-.19.16-.32.4-.39.74h-1.11c.11-.64.36-1.14.74-1.5.38-.35.87-.53,1.46-.53.67,0,1.19.18,1.56.53.37.35.55.85.55,1.5v.13c0,.39-.11.73-.32,1.02-.21.29-.51.5-.9.64.43.09.76.3.99.63.24.33.35.74.35,1.25v.13c0,.68-.2,1.21-.59,1.59-.39.38-.94.56-1.65.56Z"/><path class="cls-14" d="M233.38,246.67v-.95l2.62-5.66h1.13l-2.56,5.59h3.83v1.01h-5.02ZM236.75,247.88v-4.6h1.07v4.6h-1.07Z"/><path class="cls-14" d="M239.64,246.67v-.95l2.62-5.66h1.13l-2.56,5.59h3.83v1.01h-5.02ZM243.01,247.88v-4.6h1.07v4.6h-1.07Z"/><path class="cls-14" d="M28.69,255.09c-.23.79-.4,1.65-.51,2.57-.17,1.32-.16,2.27.01,2.84.05.16.12.28.22.34.09.06.21.08.35.03.33-.1.63-.53.91-1.28.18-.47.33-.93.44-1.38.06-.25.16-.4.31-.45.08-.03.17-.02.24.02.07.04.11.09.13.15.07.24-.08.88-.46,1.91-.46,1.24-1,1.95-1.63,2.14-.33.1-.66.03-.97-.21-.2-.16-.35-.41-.46-.77-.24-.79-.29-1.78-.15-2.98.03-.3.15-1.02.35-2.17-.16.1-.29.16-.38.19-.14.04-.27.04-.39.01-.17-.05-.28-.14-.32-.28-.05-.16,0-.32.17-.48.04-.04.27-.16.69-.35.15-.07.36-.21.63-.39.1-.48.31-1.15.61-2.02.17-.48.29-.79.37-.95.11-.21.22-.33.34-.37.08-.03.18,0,.3.06.1.06.17.13.19.22.05.17-.03.56-.25,1.18-.14.4-.24.72-.3.96.67-.42,1.16-.67,1.47-.76.36-.11.58-.01.68.29.04.15.02.28-.09.39-.05.06-.21.14-.48.25-.11.03-.57.3-1.37.82-.22.14-.44.29-.65.44Z"/><path class="cls-14" d="M32.11,258.9l.05.18c.04.14.12.26.22.34.24.19.54.23.91.12.82-.25,1.58-1.16,2.27-2.74.12-.27.25-.43.38-.47.07-.02.15,0,.23.05.05.04.09.08.1.13.08.25-.11.78-.55,1.58-.35.62-.75,1.17-1.22,1.64s-.94.78-1.42.92c-.49.15-.93.09-1.31-.16-.26-.18-.45-.47-.57-.88-.33-1.11-.14-2.35.58-3.72.58-1.12,1.19-1.77,1.82-1.96.17-.05.34-.04.51.02.21.09.35.24.42.46.1.35.07.82-.1,1.42-.35,1.25-1.12,2.27-2.33,3.07ZM32.1,258.07c.41-.29.72-.58.92-.86.35-.49.59-1,.73-1.53.05-.19.06-.34.02-.47-.04-.13-.12-.18-.25-.14-.17.05-.37.25-.61.6-.43.62-.7,1.42-.81,2.39Z"/><path class="cls-14" d="M38.14,255.58c.38-.74.73-1.34,1.05-1.79.49-.68.84-1.06,1.05-1.12.1-.03.21-.02.31.03.09.05.15.12.18.2.04.12-.02.36-.16.71-.22.55-.35,1-.39,1.36,1.07-2,1.88-3.08,2.45-3.25.12-.04.23-.03.34.02.12.05.19.13.23.25.06.18-.01.46-.21.83-.85,1.65-1.16,2.88-.91,3.7.1.33.23.55.39.66l.35.25c.07.04.12.11.15.2.03.1.02.22-.04.33-.07.13-.16.22-.29.26-.22.07-.46-.01-.72-.23-.32-.26-.55-.61-.68-1.06-.18-.6-.19-1.25-.03-1.96.05-.25.16-.6.33-1.04-.43.59-.82,1.33-1.18,2.24-.24.62-.43,1.28-.56,1.99-.06.34-.19.54-.4.6-.22.07-.37-.02-.45-.27-.08-.27-.06-.88.05-1.83.07-.54.17-1.12.32-1.75-.86,1.2-1.35,2.63-1.47,4.27-.04.37-.17.59-.4.66-.11.03-.2.02-.29-.04-.1-.06-.16-.14-.19-.25-.12-.39-.11-1.15.02-2.29.13-1.2.35-2.32.67-3.34.21-.71.43-1.1.64-1.17.2-.06.33.02.39.23.03.09-.02.36-.16.8-.22.81-.35,1.41-.38,1.79Z"/><path class="cls-14" d="M45.83,251.14c.22-.25.38-.43.49-.53.23-.21.47-.36.73-.43.29-.09.53-.07.72.05.19.12.34.35.44.69.14.46.14,1.06.02,1.79-.19,1.16-.55,2.14-1.08,2.94-.45.67-.93,1.08-1.46,1.24-.29.09-.61.06-.95-.08-.35,2.08-.6,4.17-.74,6.27-.01.5-.12.78-.33.84-.1.03-.22,0-.35-.11-.1-.07-.17-.16-.2-.27-.11-.35-.02-1.63.26-3.84.43-3.4.95-6.27,1.55-8.62.12-.49.2-.83.24-1.02.1-.49.26-.77.48-.84.22-.07.37.03.46.3.04.15.03.38-.05.68-.09.38-.16.69-.21.92ZM44.85,255.88c.19.11.39.13.61.06.61-.18,1.12-.93,1.53-2.23.16-.48.25-.96.29-1.43.03-.37.02-.64-.03-.81-.04-.12-.09-.2-.16-.24s-.17-.05-.29,0c-.31.09-.62.42-.94.98-.3.54-.54,1.24-.7,2.11-.15.8-.26,1.32-.31,1.57Z"/><path class="cls-14" d="M51.75,248.14c.54-.16.9.08,1.1.74.26.87.19,2.09-.21,3.67-.44,1.71-1.07,2.69-1.89,2.94-.38.11-.71.02-.99-.28-.14-.15-.25-.35-.33-.6-.25-.84-.24-1.83.04-2.99.26-1.07.68-1.97,1.26-2.69.34-.42.68-.69,1.03-.79ZM51.85,252.16c-.2-.08-.32-.16-.34-.23-.02-.05.04-.23.18-.53.39-.84.52-1.46.4-1.87-.02-.05-.05-.1-.1-.14-.08-.08-.18-.11-.29-.07-.21.06-.46.36-.74.89-.37.68-.6,1.34-.71,1.98-.13.73-.13,1.31,0,1.73.03.11.09.2.18.27.12.09.25.12.38.08.31-.09.58-.43.8-1.01.1-.24.16-.48.2-.72.04-.24.05-.36.04-.37Z"/><path class="cls-14" d="M55.35,250.44c.43-.88.97-1.77,1.61-2.68.23-.33.49-.64.76-.95.14-.15.23-.23.28-.25.1-.03.22.01.36.13.08.06.13.12.15.19.04.12-.04.32-.23.59-.51.73-.72,1.23-.64,1.5.04.15.15.2.32.15.28-.08.7-.46,1.24-1.13.09-.11.18-.18.26-.21.05-.02.11,0,.18.03.08.04.12.09.14.16.06.2-.12.58-.55,1.15-.45.61-.93.99-1.45,1.14-.21.06-.42.07-.63,0-.18-.05-.3-.19-.37-.42-.05-.16-.04-.37.04-.62-.41.52-.83,1.33-1.26,2.43-.24.67-.44,1.47-.6,2.4-.06.35-.2.55-.42.62-.24.07-.4,0-.47-.23-.07-.22-.06-.88.03-1.96.13-1.61.38-2.9.76-3.88.23-.6.48-.95.73-1.02.08-.03.17-.02.26,0,.1.04.17.11.2.21.03.1,0,.25-.07.47-.02.04-.12.31-.32.81-.18.47-.29.93-.33,1.35Z"/><path class="cls-14" d="M63.08,249.87c-.1.44-.22.83-.35,1.15-.26.63-.59,1.01-1,1.13-.35.11-.68.02-.97-.25-.19-.18-.33-.42-.42-.71-.22-.73-.23-1.6-.04-2.61.22-1.13.61-2.06,1.17-2.8.37-.48.77-.79,1.21-.92.27-.08.53-.07.76.05.2.1.33.25.39.44.04.14.05.36.01.65.14.11.22.21.26.32.04.14.02.39-.07.76-.09.38-.16.86-.19,1.45-.03.62,0,1.11.1,1.45.08.28.23.48.45.6.06.03.22.07.47.11.19.03.31.14.37.34.04.12.02.24-.05.35-.07.12-.17.19-.31.23-.35.11-.71.04-1.05-.2-.29-.19-.49-.48-.6-.87-.04-.13-.09-.35-.16-.66ZM63.34,246.27c-.12-.12-.24-.2-.35-.24-.11-.04-.22-.05-.33-.01-.5.15-.91.75-1.23,1.79-.35,1.16-.43,2.07-.23,2.73.05.16.12.28.21.34.09.07.19.08.32.04.31-.09.58-.54.8-1.33.12-.44.25-1.07.39-1.88.09-.53.16-.89.22-1.07.03-.09.09-.22.2-.37Z"/><path class="cls-14" d="M66.51,247.04c-.04.57-.07,1.03-.07,1.37s.01.58.05.7c.05.16.15.22.31.17.24-.07.47-.39.71-.94.11-.27.26-.74.43-1.4.07-.26.18-.42.33-.46.17-.05.28,0,.33.17.08.28-.07.95-.46,2-.4,1.1-.89,1.74-1.47,1.91-.25.08-.48.03-.7-.13-.16-.12-.27-.28-.33-.5-.11-.37-.15-.91-.12-1.62s.12-1.6.28-2.67c.41-2.7.98-5,1.69-6.88.57-1.51,1.16-2.36,1.77-2.55.2-.06.38-.03.55.08.18.11.29.26.35.46.28.92-.08,2.69-1.08,5.31-.45,1.17-1.04,2.38-1.77,3.64-.19.33-.46.77-.8,1.33ZM66.74,245.27c1.01-1.58,1.78-3.41,2.32-5.52.28-1.09.37-1.79.28-2.09-.04-.14-.13-.2-.25-.16-.36.11-.8,1.02-1.32,2.74-.43,1.42-.78,3.09-1.04,5.02Z"/><path class="cls-14" d="M38.66,268c.24-1.57.5-2.94.78-4.13.27-1.15.46-1.88.59-2.2.14-.35.3-.55.5-.61.1-.03.21-.02.32.04.1.06.17.14.2.24.04.15,0,.44-.11.86-.49,1.82-.89,3.63-1.21,5.45-.36,2.12-.41,3.63-.13,4.55.11.37.27.65.48.82.04.04.19.11.45.21.05.02.09.08.12.18.04.13.03.27-.04.4-.07.14-.17.23-.29.26-.15.04-.34,0-.58-.12-.34-.18-.59-.44-.74-.76-.06-.14-.17-.4-.31-.78-.31,1.44-.78,2.26-1.41,2.45-.36.11-.71,0-1.05-.35-.22-.22-.39-.51-.49-.85-.31-1.02-.24-2.16.19-3.42.43-1.24,1.07-1.99,1.92-2.25.24-.07.5-.06.8.03ZM38.57,268.9c-.21-.06-.38-.08-.51-.04-.55.17-.97.66-1.26,1.48-.38,1.07-.45,2.02-.21,2.83.03.1.08.18.14.26.13.14.27.19.43.14.23-.07.44-.38.63-.92.26-.72.46-1.54.59-2.46.05-.31.09-.63.13-.94l.03-.21.02-.15Z"/><path class="cls-14" d="M44.08,270.85c-.1.45-.22.83-.35,1.16-.26.63-.59,1.01-1,1.13-.35.11-.68.02-.98-.25-.19-.18-.33-.42-.42-.71-.22-.73-.23-1.6-.04-2.61.22-1.13.61-2.06,1.17-2.8.37-.48.77-.79,1.21-.92.27-.08.53-.07.76.05.2.1.33.25.39.44.04.14.05.36.01.65.14.11.22.21.26.32.04.14.02.39-.07.76-.09.38-.16.86-.19,1.45-.03.62,0,1.11.1,1.45.08.28.23.48.45.6.06.03.22.07.47.1.19.03.31.14.37.34.04.12.02.24-.04.35-.07.11-.17.19-.31.23-.35.11-.71.04-1.05-.2-.29-.19-.49-.48-.6-.87-.04-.13-.09-.35-.16-.66ZM44.34,267.25c-.12-.12-.24-.2-.35-.24s-.22-.05-.33-.01c-.5.15-.91.75-1.23,1.79-.35,1.16-.43,2.07-.23,2.73.05.16.12.28.21.34s.19.08.32.04c.31-.09.58-.54.8-1.33.12-.44.25-1.06.39-1.88.09-.53.16-.89.22-1.07.03-.09.1-.22.2-.37Z"/><path class="cls-14" d="M48.58,264.37c-.23.79-.4,1.65-.51,2.57-.17,1.32-.16,2.27.01,2.84.05.16.12.28.22.34.09.06.21.08.35.03.33-.1.63-.53.91-1.28.18-.47.33-.93.44-1.38.06-.25.16-.4.3-.45.09-.03.17-.02.24.02.07.04.11.09.13.15.07.24-.08.88-.46,1.91-.46,1.24-1,1.95-1.63,2.14-.33.1-.66.03-.97-.21-.2-.16-.35-.41-.46-.77-.24-.79-.29-1.78-.15-2.98.03-.3.15-1.02.35-2.17-.16.1-.29.16-.38.19-.14.04-.27.05-.39.01-.17-.05-.28-.14-.32-.28-.05-.16,0-.32.17-.48.04-.04.27-.16.69-.35.15-.07.36-.21.63-.39.1-.48.31-1.15.61-2.02.17-.48.29-.79.37-.95.11-.21.22-.33.34-.37.08-.03.18,0,.3.06.1.06.17.13.19.22.05.17-.03.56-.25,1.18-.14.4-.24.72-.3.96.67-.42,1.16-.67,1.47-.76.36-.11.58-.01.68.29.04.15.02.28-.09.39-.05.06-.21.14-.48.25-.11.03-.57.3-1.37.82-.22.14-.44.29-.65.44Z"/><path class="cls-14" d="M54.2,267.81c-.1.44-.22.83-.35,1.15-.26.63-.59,1.01-1,1.13-.35.11-.68.02-.98-.25-.19-.18-.33-.42-.42-.71-.22-.73-.23-1.6-.04-2.61.22-1.13.61-2.06,1.17-2.8.37-.48.77-.79,1.21-.92.27-.08.53-.07.76.05.2.1.33.25.39.44.04.14.05.36.01.65.14.11.22.21.26.32.04.14.02.39-.07.76-.09.38-.16.86-.19,1.45-.03.62,0,1.11.1,1.45.08.28.23.48.45.6.06.03.22.07.47.11.19.03.31.14.37.34.04.12.02.24-.04.35-.07.12-.17.19-.31.23-.35.11-.71.04-1.05-.2-.29-.19-.49-.48-.6-.87-.04-.13-.09-.35-.16-.66ZM54.45,264.21c-.12-.12-.24-.2-.35-.24s-.22-.05-.33-.01c-.5.15-.91.75-1.23,1.79-.35,1.16-.43,2.07-.23,2.73.05.16.12.28.21.34.09.07.19.08.32.04.31-.09.58-.54.8-1.33.12-.44.25-1.07.39-1.88.09-.53.16-.89.22-1.07.03-.09.1-.22.2-.37Z"/><path class="cls-10" d="M49.61,277.55c-1.27,13.44,7.49,23.55,27.46,11.98"/><path class="cls-14" d="M74.85,294.01c-.15-.08-.2-.26-.12-.41l2.21-4.02-4.58-.31c-.17-.01-.29-.15-.28-.32.01-.17.16-.29.32-.28l5.05.34c.1,0,.19.07.24.16.05.09.05.2,0,.29l-2.44,4.43c-.03.05-.07.09-.12.12-.09.05-.2.05-.29,0Z"/><line class="cls-4" x1="93.25" y1="313.08" x2="396.39" y2="313.08"/><path class="cls-14" d="M101.8,452.85c-.05.12-.2.43-.43.92-.39.93-.62,1.54-.7,1.83-.04.16-.1.28-.16.34-.06.06-.15.09-.26.09s-.22-.04-.29-.13c-.07-.08-.1-.17-.1-.27,0-.37.33-1.25.98-2.67-.71.08-1.27.2-1.68.37-.13.05-.24.08-.32.08-.2,0-.29-.15-.29-.46,0-.18.07-.36.21-.53.27-.32.74-.8,1.38-1.44.8-.79,1.53-1.43,2.17-1.92.56-.42.97-.64,1.22-.64.11,0,.21.05.31.14.07.08.11.16.11.26,0,.12-.07.3-.22.54-.02.04-.19.31-.48.78-.38.61-.73,1.25-1.05,1.92.34-.02.57-.03.68-.03.29,0,.43.11.43.32,0,.19-.08.33-.23.41-.07.03-.28.05-.62.05-.1,0-.31,0-.64.02ZM101.24,452.17c.53-1.04,1.04-1.9,1.52-2.6-.51.29-1.13.79-1.85,1.49-.52.52-.94.97-1.26,1.36.71-.15,1.24-.23,1.6-.25Z"/><path class="cls-14" d="M103.85,455.09c.82-.26,1.58-.39,2.26-.39.27,0,.49.06.65.17.15.1.22.22.22.36,0,.09-.03.18-.1.25s-.15.11-.23.11c-.03,0-.07,0-.13-.02-.25-.07-.48-.1-.69-.1-.18,0-.4.02-.67.05-.09.01-.43.1-1.02.26-.53.14-.84.21-.94.21-.14,0-.26-.07-.36-.2-.09-.12-.14-.25-.14-.38,0-.15.13-.34.38-.59.48-.47.94-.89,1.38-1.27.42-.35.94-.76,1.56-1.22.71-.52,1.2-.9,1.46-1.14.4-.35.6-.7.6-1.05,0-.2-.06-.35-.19-.46-.11-.1-.25-.15-.42-.15-.44,0-.96.25-1.55.74-.27.22-.44.34-.51.34-.05,0-.1-.03-.17-.09-.07-.06-.1-.13-.1-.21,0-.18.21-.42.64-.75.68-.52,1.34-.78,1.96-.78.36,0,.65.12.89.34.23.22.34.49.34.8,0,.55-.28,1.09-.83,1.63-.24.23-.68.59-1.32,1.05-1.54,1.12-2.53,1.95-2.97,2.48Z"/><path class="cls-14" d="M156.02,452.85c-.05.12-.2.43-.43.92-.39.93-.62,1.54-.7,1.83-.04.16-.1.28-.16.34-.06.06-.15.09-.26.09s-.22-.04-.29-.13c-.07-.08-.1-.17-.1-.27,0-.37.33-1.25.98-2.67-.71.08-1.27.2-1.68.37-.13.05-.24.08-.32.08-.2,0-.29-.15-.29-.46,0-.18.07-.36.21-.53.27-.32.74-.8,1.38-1.44.8-.79,1.53-1.43,2.17-1.92.56-.42.97-.64,1.22-.64.11,0,.21.05.31.14.07.08.11.16.11.26,0,.12-.07.3-.22.54-.02.04-.19.31-.48.78-.38.61-.73,1.25-1.05,1.92.34-.02.57-.03.68-.03.29,0,.43.11.43.32,0,.19-.08.33-.23.41-.07.03-.28.05-.62.05-.1,0-.31,0-.64.02ZM155.45,452.17c.53-1.04,1.04-1.9,1.52-2.6-.51.29-1.13.79-1.85,1.49-.52.52-.94.97-1.26,1.36.71-.15,1.24-.23,1.6-.25Z"/><path class="cls-14" d="M161.35,451.5c.24.1.42.22.52.34.15.18.23.43.23.75,0,.8-.33,1.56-1,2.29s-1.36,1.1-2.07,1.1c-.43,0-.79-.18-1.06-.54-.2-.26-.29-.55-.29-.86,0-.52.2-.78.6-.78.24,0,.36.09.36.27,0,.04,0,.09-.01.15-.01.08-.02.17-.02.25,0,.23.06.41.17.53.13.13.28.2.45.2.42,0,.86-.29,1.34-.87.45-.56.68-1.09.68-1.59,0-.25-.06-.45-.18-.6-.13-.16-.32-.23-.55-.23-.09,0-.19.01-.28.04-.11.03-.2.05-.26.05-.14,0-.21-.09-.21-.29,0-.17.06-.3.17-.41.06-.06.2-.12.4-.18.41-.1.75-.24,1.03-.42.18-.12.32-.27.43-.47.05-.1.08-.21.08-.32,0-.14-.04-.25-.11-.32-.08-.07-.19-.1-.35-.1-.26,0-.54.07-.82.21-.07.03-.25.13-.52.3-.07.05-.15.07-.24.07-.17,0-.25-.09-.25-.27,0-.16.12-.33.37-.5.57-.41,1.13-.61,1.68-.61.33,0,.6.1.83.3.24.21.36.47.36.77,0,.4-.17.77-.51,1.11-.19.2-.5.4-.95.62Z"/><path class="cls-14" d="M210.23,452.85c-.05.12-.2.43-.43.92-.39.93-.62,1.54-.7,1.83-.04.16-.1.28-.16.34-.06.06-.15.09-.26.09s-.22-.04-.29-.13c-.07-.08-.1-.17-.1-.27,0-.37.33-1.25.98-2.67-.71.08-1.27.2-1.68.37-.13.05-.24.08-.32.08-.2,0-.29-.15-.29-.46,0-.18.07-.36.21-.53.27-.32.74-.8,1.38-1.44.8-.79,1.53-1.43,2.17-1.92.56-.42.97-.64,1.22-.64.11,0,.21.05.31.14.07.08.11.16.11.26,0,.12-.07.3-.22.54-.02.04-.19.31-.48.78-.38.61-.73,1.25-1.05,1.92.34-.02.57-.03.68-.03.29,0,.43.11.43.32,0,.19-.08.33-.23.41-.07.03-.28.05-.62.05-.1,0-.31,0-.64.02ZM209.66,452.17c.53-1.04,1.04-1.9,1.52-2.6-.51.29-1.13.79-1.85,1.49-.52.52-.94.97-1.26,1.36.71-.15,1.24-.23,1.6-.25Z"/><path class="cls-14" d="M215.35,452.85c-.05.12-.2.43-.43.92-.39.93-.62,1.54-.7,1.83-.04.16-.1.28-.16.34-.06.06-.15.09-.26.09s-.22-.04-.29-.13c-.07-.08-.1-.17-.1-.27,0-.37.33-1.25.98-2.67-.71.08-1.27.2-1.68.37-.13.05-.24.08-.32.08-.2,0-.29-.15-.29-.46,0-.18.07-.36.21-.53.27-.32.74-.8,1.38-1.44.8-.79,1.53-1.43,2.17-1.92.56-.42.97-.64,1.22-.64.11,0,.21.05.31.14.07.08.11.16.11.26,0,.12-.07.3-.22.54-.02.04-.19.31-.48.78-.38.61-.73,1.25-1.05,1.92.34-.02.57-.03.68-.03.29,0,.43.11.43.32,0,.19-.08.33-.23.41-.07.03-.28.05-.62.05-.1,0-.31,0-.64.02ZM214.79,452.17c.53-1.04,1.04-1.9,1.52-2.6-.51.29-1.13.79-1.85,1.49-.52.52-.94.97-1.26,1.36.71-.15,1.24-.23,1.6-.25Z"/><path class="cls-14" d="M264.44,452.85c-.05.12-.2.43-.43.92-.39.93-.62,1.54-.7,1.83-.04.16-.1.28-.16.34-.06.06-.15.09-.26.09s-.22-.04-.29-.13c-.07-.08-.1-.17-.1-.27,0-.37.33-1.25.98-2.67-.71.08-1.27.2-1.68.37-.13.05-.24.08-.32.08-.2,0-.29-.15-.29-.46,0-.18.07-.36.21-.53.27-.32.74-.8,1.38-1.44.8-.79,1.53-1.43,2.17-1.92.56-.42.97-.64,1.22-.64.11,0,.21.05.31.14.07.08.11.16.11.26,0,.12-.07.3-.22.54-.02.04-.19.31-.48.78-.38.61-.73,1.25-1.05,1.92.34-.02.57-.03.68-.03.29,0,.43.11.43.32,0,.19-.08.33-.23.41-.07.03-.28.05-.62.05-.1,0-.31,0-.64.02ZM263.88,452.17c.53-1.04,1.04-1.9,1.52-2.6-.51.29-1.13.79-1.85,1.49-.52.52-.94.97-1.26,1.36.71-.15,1.24-.23,1.6-.25Z"/><path class="cls-14" d="M269.76,449.56c-.83.72-1.36,1.33-1.59,1.85.48-.2.9-.29,1.24-.29.4,0,.71.12.93.35.21.22.31.51.31.86,0,.81-.38,1.62-1.15,2.44-.76.82-1.5,1.22-2.23,1.22-.42,0-.75-.2-.98-.59-.15-.26-.23-.56-.23-.89s.07-.61.22-.83c.12-.18.28-.27.47-.27.18,0,.26.07.26.2,0,.03-.01.09-.04.17-.05.14-.07.33-.07.57,0,.21.05.39.15.55.13.22.31.33.53.33.44,0,.9-.28,1.38-.83.53-.61.79-1.21.79-1.81,0-.25-.06-.44-.17-.56-.11-.12-.28-.19-.51-.19s-.5.06-.82.18c-.07.02-.25.11-.54.26-.06.03-.11.05-.16.05-.09,0-.19-.06-.28-.18-.1-.13-.15-.25-.15-.36,0-.21.21-.59.64-1.17.27-.37.6-.74,1-1.11-.11-.15-.16-.26-.16-.34,0-.11.08-.19.23-.24.07-.02.35-.07.83-.13.54-.07.98-.11,1.32-.11s.55.02.7.07c.18.05.26.17.26.35,0,.22-.11.34-.34.34-.05,0-.15,0-.29-.01-.05,0-.1,0-.17,0-.23,0-.46.01-.69.03-.23.02-.45.05-.68.1Z"/><line class="cls-6" x1="93.25" y1="431.72" x2="431.14" y2="431.72"/><line class="cls-9" x1="105.84" y1="353.75" x2="105.84" y2="431.72"/><line class="cls-7" x1="160.05" y1="375.4" x2="160.05" y2="431.72"/><line class="cls-7" x1="214.26" y1="375.4" x2="214.26" y2="431.72"/><line class="cls-7" x1="268.48" y1="375.4" x2="268.48" y2="431.72"/><circle class="cls-12" cx="105.84" cy="431.72" r="7.2"/><circle class="cls-12" cx="160.05" cy="431.72" r="7.2"/><circle class="cls-12" cx="214.26" cy="431.72" r="7.2"/><circle class="cls-12" cx="268.48" cy="431.72" r="7.2"/><path class="cls-15" d="M445.33,409.78c.28,0,.5-.22.5-.5s-.22-.5-.5-.5H87.28c-.28,0-.5.22-.5.5s.22.5.5.5h358.05"/><path class="cls-15" d="M445.33,381.8c.28,0,.5-.22.5-.5s-.22-.5-.5-.5H87.28c-.28,0-.5.22-.5.5s.22.5.5.5h358.05"/><path class="cls-14" d="M318.68,452.85c-.05.12-.2.43-.43.92-.39.93-.62,1.54-.7,1.83-.04.16-.1.28-.16.34-.06.06-.15.09-.26.09s-.22-.04-.29-.13c-.07-.08-.1-.17-.1-.27,0-.37.33-1.25.98-2.67-.71.08-1.27.2-1.68.37-.13.05-.24.08-.32.08-.2,0-.29-.15-.29-.46,0-.18.07-.36.21-.53.27-.32.74-.8,1.38-1.44.8-.79,1.53-1.43,2.17-1.92.56-.42.97-.64,1.22-.64.11,0,.21.05.31.14.07.08.11.16.11.26,0,.12-.07.3-.22.54-.02.04-.19.31-.48.78-.38.61-.73,1.25-1.05,1.92.34-.02.57-.03.68-.03.29,0,.43.11.43.32,0,.19-.08.33-.23.41-.07.03-.28.05-.62.05-.1,0-.31,0-.64.02ZM318.12,452.17c.53-1.04,1.04-1.9,1.52-2.6-.51.29-1.13.79-1.85,1.49-.52.52-.94.97-1.26,1.36.71-.15,1.24-.23,1.6-.25Z"/><path class="cls-14" d="M322.26,451.72c.73-.27,1.26-.4,1.6-.4.4,0,.7.11.89.34.17.2.26.46.26.78,0,.83-.37,1.64-1.11,2.44-.68.74-1.38,1.11-2.09,1.11-.45,0-.81-.2-1.09-.59-.21-.3-.32-.65-.32-1.05,0-.87.34-1.77,1.01-2.69.58-.8,1.41-1.54,2.49-2.21.32-.21.56-.35.72-.42.15-.07.28-.11.4-.11.19,0,.28.08.28.24,0,.15-.1.27-.29.38-1.02.54-1.93,1.27-2.74,2.18ZM321.65,452.63c-.3.49-.45.98-.45,1.46,0,.32.07.59.22.82.15.23.35.35.59.35.34,0,.69-.16,1.05-.48s.65-.76.87-1.3c.14-.34.21-.64.21-.89,0-.19-.06-.33-.17-.45-.12-.13-.28-.19-.48-.19-.33,0-.73.11-1.2.33-.13.05-.27.13-.43.23-.12.07-.19.12-.2.13Z"/><path class="cls-14" d="M372.89,452.85c-.05.12-.2.43-.43.92-.39.93-.62,1.54-.7,1.83-.04.16-.1.28-.16.34-.06.06-.15.09-.26.09s-.22-.04-.29-.13c-.07-.08-.1-.17-.1-.27,0-.37.33-1.25.98-2.67-.71.08-1.27.2-1.68.37-.13.05-.24.08-.32.08-.2,0-.29-.15-.29-.46,0-.18.07-.36.21-.53.27-.32.74-.8,1.38-1.44.8-.79,1.53-1.43,2.18-1.92.56-.42.97-.64,1.22-.64.11,0,.21.05.31.14.07.08.11.16.11.26,0,.12-.07.3-.22.54-.03.04-.19.31-.48.78-.38.61-.73,1.25-1.05,1.92.34-.02.57-.03.68-.03.29,0,.43.11.43.32,0,.19-.08.33-.23.41-.07.03-.28.05-.62.05-.1,0-.32,0-.64.02ZM372.33,452.17c.53-1.04,1.04-1.9,1.52-2.6-.51.29-1.13.79-1.85,1.49-.52.52-.94.97-1.26,1.36.71-.15,1.24-.23,1.6-.25Z"/><path class="cls-14" d="M379.37,449.51c-1.31.29-2.24.43-2.77.43-.36,0-.53-.12-.53-.35,0-.12.04-.22.12-.3s.17-.12.27-.12c.04,0,.11,0,.21.01.06,0,.14.01.22.01.3,0,.7-.04,1.2-.12.63-.1,1.1-.19,1.4-.27.17-.04.31-.07.43-.07.26,0,.39.14.39.42,0,.19-.11.41-.34.64-1.68,1.8-3,3.57-3.95,5.32-.23.42-.38.67-.44.75-.12.14-.24.21-.37.21-.07,0-.14-.03-.19-.08-.07-.06-.1-.13-.1-.21,0-.25.24-.76.71-1.54.62-1.02,1.38-2.06,2.26-3.11.53-.63,1.02-1.18,1.49-1.63Z"/><path class="cls-14" d="M427.1,452.85c-.05.12-.2.43-.43.92-.39.93-.62,1.54-.7,1.83-.04.16-.1.28-.16.34-.06.06-.15.09-.26.09s-.22-.04-.29-.13c-.07-.08-.1-.17-.1-.27,0-.37.33-1.25.98-2.67-.71.08-1.27.2-1.68.37-.13.05-.24.08-.32.08-.2,0-.29-.15-.29-.46,0-.18.07-.36.21-.53.27-.32.74-.8,1.38-1.44.8-.79,1.53-1.43,2.17-1.92.56-.42.97-.64,1.22-.64.11,0,.21.05.31.14.07.08.11.16.11.26,0,.12-.07.3-.22.54-.02.04-.19.31-.48.78-.38.61-.73,1.25-1.05,1.92.34-.02.57-.03.68-.03.29,0,.43.11.43.32,0,.19-.08.33-.23.41-.07.03-.28.05-.62.05-.1,0-.31,0-.64.02ZM426.54,452.17c.53-1.04,1.04-1.9,1.52-2.6-.51.29-1.13.79-1.85,1.49-.52.52-.94.97-1.26,1.36.71-.15,1.24-.23,1.6-.25Z"/><path class="cls-14" d="M431.4,451.37c-.21-.21-.37-.38-.45-.51-.13-.21-.2-.42-.2-.65,0-.51.26-.93.77-1.28.44-.3.92-.45,1.44-.45.38,0,.68.12.9.35.2.21.29.45.29.74,0,.43-.21.83-.63,1.2-.22.2-.54.43-.94.7.25.25.44.5.57.75.13.25.19.49.19.72,0,.46-.15.91-.46,1.36-.33.48-.75.87-1.27,1.17-.52.3-1.05.45-1.58.45-.46,0-.84-.17-1.13-.5-.22-.25-.33-.53-.33-.83,0-.8.49-1.57,1.46-2.31.51-.4.97-.7,1.37-.92ZM431.89,451.86c-.59.3-1.08.63-1.49,1.01-.57.53-.85,1.04-.85,1.52,0,.28.09.49.26.62.18.12.37.18.56.18.27,0,.56-.08.86-.25.3-.17.56-.39.77-.66.31-.4.47-.82.47-1.25,0-.3-.09-.58-.28-.84-.04-.06-.11-.13-.2-.22-.07-.07-.1-.1-.11-.1ZM432.1,450.93c.29-.16.54-.34.75-.54.26-.26.4-.5.4-.73,0-.15-.05-.27-.14-.37-.1-.12-.24-.18-.4-.18-.28,0-.55.1-.79.3-.21.17-.32.37-.32.59,0,.16.09.36.27.61l.23.32Z"/><line class="cls-9" x1="322.72" y1="353.75" x2="322.72" y2="431.72"/><line class="cls-7" x1="376.93" y1="375.4" x2="376.93" y2="431.72"/><line class="cls-7" x1="431.14" y1="375.4" x2="431.14" y2="431.72"/><circle class="cls-12" cx="322.72" cy="431.72" r="7.2"/><circle class="cls-12" cx="376.93" cy="431.72" r="7.2"/><circle class="cls-12" cx="431.14" cy="431.72" r="7.2"/><g class="cls-17"><use width="138.88" height="24.31" transform="translate(331.64 383.11)" xlink:href="#Executing"/></g><line class="cls-10" x1="93.25" y1="375.4" x2="93.25" y2="432.71"/><path class="cls-10" d="M317.8,366.41c-60.29,8.5-153.18-16.63-208.12-8.93"/><path class="cls-14" d="M313.41,363.97c-.07.15-.01.33.14.4l4.11,2.03-3.58,2.87c-.13.1-.15.29-.05.42.1.13.29.15.42.05l3.95-3.16c.08-.06.12-.16.11-.27-.01-.1-.07-.19-.17-.24l-4.54-2.24c-.05-.03-.11-.04-.16-.03-.1.01-.19.07-.24.17Z"/><path class="cls-14" d="M113.4,354.13c.11.13.09.32-.04.42l-3.54,2.93,4.15,1.97c.15.07.21.25.14.4-.07.15-.25.21-.4.14l-4.57-2.17c-.09-.04-.16-.13-.17-.23-.01-.1.03-.2.11-.27l3.9-3.23s.1-.06.15-.07c.1-.01.2.02.27.11Z"/><path class="cls-14" d="M237.83,348.52c-.46.87-.81,1.48-1.04,1.82-.29.42-.54.75-.76.99-.25.25-.5.4-.74.43-.24.04-.44-.05-.6-.27-.13-.17-.21-.36-.24-.58-.11-.74.18-1.82.86-3.24.62-1.29,1.12-1.96,1.51-2.02.09-.01.19.02.29.09.09.07.15.16.17.27.02.15-.08.38-.3.68-.48.64-.87,1.34-1.18,2.1-.26.65-.38,1.06-.35,1.25.02.14.09.19.21.18.41-.06,1.15-1.07,2.24-3.03.35-.63.57-1,.65-1.1.15-.19.32-.3.5-.32.12-.02.23,0,.33.05.08.06.13.12.14.2.01.08-.1.45-.33,1.1-.54,1.41-.78,2.34-.71,2.79.03.18.11.25.25.23.24-.04.54-.37.88-.99.33-.59.6-1.31.82-2.18.1-.37.16-.86.19-1.45.04-.68.26-1.04.66-1.11.23-.03.36.08.4.33.13.88-.18,2.18-.93,3.87-.78,1.77-1.53,2.71-2.23,2.81-.52.08-.83-.2-.93-.85-.08-.53,0-1.2.24-2.03Z"/><path class="cls-14" d="M244.31,344.23c.11-.02.22.01.3.09.06.07.1.14.11.21.02.12-.05.34-.2.65-.54,1.19-.9,2.17-1.1,2.91-.21.77-.38,1.56-.51,2.36-.06.35-.2.55-.43.58-.14.02-.25-.02-.35-.11-.09-.08-.14-.17-.15-.27-.03-.2.08-.91.34-2.13.2-.96.6-2.04,1.19-3.25.19-.39.34-.66.44-.8.1-.15.22-.23.35-.25ZM245.67,340.18c.3-.05.48.09.53.4.04.28-.06.62-.3,1.01-.23.37-.48.58-.75.62-.13.02-.24-.01-.34-.09-.09-.08-.15-.18-.17-.31-.05-.32.08-.7.38-1.12.22-.31.44-.48.65-.51Z"/><path class="cls-14" d="M246.66,346.53c.08-.09.15-.19.22-.28,1.21-1.59,2.05-2.42,2.53-2.5.26-.04.42.09.46.38.03.2-.05.46-.25.77-1.06,1.7-1.51,3.13-1.34,4.28.06.37.21.71.46,1.02.12.14.18.26.2.34.01.08-.02.16-.09.25-.07.11-.17.17-.29.19-.28.04-.54-.1-.78-.42-.23-.3-.38-.69-.46-1.17-.14-.91.06-1.98.58-3.19-.83.73-1.53,1.9-2.09,3.51-.15.39-.34.6-.57.64-.12.02-.22,0-.3-.08-.11-.08-.17-.19-.2-.34-.06-.37.22-1.38.81-3.06.32-.91.58-1.57.78-1.98.2-.41.39-.63.58-.66.09-.01.18.02.27.08.11.08.17.18.19.3.02.15-.04.38-.2.68-.22.46-.39.86-.52,1.23Z"/><path class="cls-14" d="M253.85,342.95c.46-1.51.92-2.84,1.36-3.98.43-1.1.73-1.8.9-2.09.19-.33.38-.5.58-.53.11-.02.21.01.31.09.09.08.15.16.16.27.02.16-.05.43-.23.83-.74,1.73-1.4,3.47-1.97,5.22-.66,2.04-.92,3.54-.78,4.48.06.39.18.68.36.88.03.04.17.13.41.27.05.03.08.09.09.19.02.13-.01.27-.1.39-.09.13-.2.2-.32.22-.16.02-.34-.05-.56-.21-.31-.23-.52-.52-.63-.86-.04-.15-.11-.42-.2-.82-.52,1.38-1.1,2.12-1.74,2.22-.37.06-.7-.11-.99-.49-.19-.25-.31-.56-.37-.91-.16-1.05.07-2.17.68-3.36.6-1.17,1.35-1.82,2.23-1.95.24-.04.51,0,.79.14ZM253.63,343.83c-.2-.09-.37-.13-.5-.11-.57.09-1.05.51-1.46,1.29-.53,1.01-.74,1.93-.61,2.78.01.1.05.19.1.27.11.16.24.22.4.2.24-.04.49-.31.76-.82.36-.68.67-1.46.93-2.35.09-.3.18-.61.27-.91l.06-.21.04-.14Z"/><path class="cls-14" d="M259.01,341.54c.55-.08.88.21.98.89.13.9-.11,2.1-.73,3.6-.68,1.63-1.44,2.51-2.29,2.64-.39.06-.71-.08-.95-.42-.12-.17-.2-.38-.24-.64-.13-.87.03-1.85.47-2.95.41-1.02.96-1.85,1.63-2.48.39-.37.77-.58,1.13-.64ZM258.53,345.53c-.19-.11-.29-.2-.3-.28,0-.05.08-.22.26-.5.5-.77.73-1.37.66-1.79,0-.05-.03-.11-.08-.15-.07-.09-.16-.13-.28-.11-.22.03-.5.29-.86.77-.46.62-.79,1.24-.99,1.86-.23.71-.32,1.27-.25,1.71.02.11.06.21.14.29.11.11.23.15.36.13.33-.05.64-.34.93-.89.13-.23.23-.46.3-.69.07-.23.1-.35.09-.36Z"/><path class="cls-14" d="M264,344.58c-.46.87-.81,1.48-1.04,1.82-.29.42-.54.75-.76.99-.25.25-.5.4-.74.43-.24.04-.44-.06-.6-.27-.13-.17-.21-.36-.24-.59-.11-.74.17-1.82.86-3.24.62-1.29,1.12-1.96,1.51-2.02.09-.01.19.02.29.09.09.07.15.16.17.27.02.15-.08.38-.3.68-.48.64-.87,1.34-1.18,2.1-.26.65-.38,1.06-.35,1.25.02.13.09.19.21.17.41-.06,1.15-1.07,2.24-3.03.35-.63.57-1,.65-1.1.15-.19.32-.3.5-.32.12-.02.23,0,.33.05.08.06.13.12.14.2.01.08-.1.45-.33,1.1-.54,1.41-.78,2.34-.71,2.79.03.18.11.25.25.23.24-.04.54-.37.88-.99.33-.59.6-1.31.82-2.18.1-.37.16-.86.19-1.45.04-.68.26-1.04.66-1.11.23-.03.36.08.4.33.13.89-.18,2.18-.93,3.87-.78,1.77-1.53,2.71-2.23,2.81-.52.08-.83-.2-.93-.85-.08-.53,0-1.2.24-2.03Z"/><path class="cls-14" d="M239.48,335.43c.07-.1.13-.2.2-.29,1.1-1.67,1.89-2.55,2.36-2.65.26-.06.42.06.48.35.04.2-.02.46-.2.79-.96,1.77-1.31,3.22-1.06,4.35.08.37.26.7.53.99.13.13.2.24.22.33.02.08,0,.17-.07.26-.07.11-.16.18-.28.21-.27.06-.54-.06-.8-.37-.25-.29-.43-.67-.53-1.13-.2-.9-.07-1.97.37-3.22-.78.78-1.41,1.99-1.87,3.64-.12.4-.3.62-.53.67-.11.02-.21,0-.31-.06-.11-.07-.19-.18-.22-.33-.08-.36.13-1.4.62-3.1.26-.92.48-1.6.65-2.03.17-.42.35-.65.53-.69.09-.02.18,0,.28.07.11.07.18.17.21.29.03.15-.02.38-.15.69-.19.47-.34.89-.44,1.26Z"/><path class="cls-14" d="M244.01,336.03l.04.18c.03.15.1.27.19.36.22.21.52.28.9.19.84-.18,1.66-1.03,2.48-2.55.15-.26.29-.41.42-.44.07-.02.15,0,.22.07.05.05.08.09.09.14.06.26-.17.77-.68,1.53-.4.6-.84,1.11-1.35,1.54-.5.43-1,.7-1.48.8-.5.11-.93.02-1.29-.27-.24-.2-.41-.5-.5-.92-.25-1.13.05-2.35.88-3.66.67-1.07,1.33-1.67,1.97-1.81.17-.04.34-.02.51.06.21.1.33.27.38.49.08.35,0,.82-.21,1.41-.44,1.21-1.3,2.17-2.57,2.87ZM244.06,335.2c.43-.26.76-.52.98-.78.39-.46.67-.95.85-1.46.07-.18.09-.34.06-.46-.03-.13-.11-.19-.23-.16-.17.04-.39.22-.66.55-.47.59-.81,1.36-1,2.31Z"/><path class="cls-14" d="M250.01,333.67c-.06-.2-.12-.4-.16-.59-.04-.18-.08-.41-.13-.68-.08-.45-.12-.71-.14-.79-.08-.42-.1-.71-.05-.87.06-.2.18-.32.37-.36.12-.03.23,0,.33.07.11.09.18.2.21.33.02.09.04.23.06.41.02.17.05.38.11.64.02.1.06.26.11.47.1-.18.31-.55.63-1.11.5-.89.87-1.36,1.11-1.42.07-.02.14,0,.21.06.07.06.11.14.13.22.04.17-.03.36-.2.59-.68.93-1.23,1.88-1.64,2.85.02.11.03.18.04.22.11.51.2.86.26,1.05.09.26.23.37.43.33.2-.04.42-.31.65-.79.29-.59.48-1.07.59-1.42.11-.33.25-.52.43-.55.14-.03.23.04.26.21.07.31-.13.97-.59,1.98-.26.57-.51,1.02-.74,1.34-.25.34-.51.54-.79.6-.39.08-.69-.11-.89-.58-.11-.24-.23-.6-.37-1.11-.1.18-.3.58-.6,1.18-.45.91-.79,1.4-1.02,1.45-.21.04-.35-.11-.42-.45-.03-.13,0-.25.05-.38.04-.09.15-.25.34-.5.35-.48.65-.96.89-1.42.26-.49.43-.81.52-.96Z"/><path class="cls-14" d="M256.69,328.54c-.29.77-.53,1.61-.71,2.52-.27,1.3-.34,2.25-.21,2.84.04.17.1.29.19.36.09.07.2.09.34.06.33-.07.67-.47,1.01-1.2.22-.45.4-.9.55-1.34.08-.25.19-.39.34-.42.09-.02.17,0,.24.04.07.05.11.1.12.16.05.25-.15.87-.61,1.86-.55,1.2-1.15,1.86-1.79,2-.34.07-.66-.02-.95-.29-.18-.17-.31-.44-.39-.81-.18-.81-.14-1.8.09-2.98.05-.29.23-1,.52-2.14-.17.09-.3.14-.4.16-.14.03-.27.02-.39-.02-.17-.06-.27-.16-.3-.3-.04-.17.03-.32.21-.46.05-.04.29-.14.71-.29.15-.06.38-.18.66-.34.14-.47.4-1.13.77-1.96.21-.46.35-.77.44-.91.12-.2.25-.32.37-.34.09-.02.18,0,.29.08.1.07.16.15.18.23.04.17-.07.56-.34,1.15-.17.39-.3.7-.38.93.7-.36,1.21-.58,1.53-.65.37-.08.58.03.65.34.03.15,0,.28-.12.38-.06.05-.22.13-.5.21-.12.02-.59.25-1.43.71-.23.13-.46.26-.68.39Z"/><path class="cls-10" d="M269.53,337.17c72.08-6.61,74.62,23.13,74.68,40.23"/><path class="cls-14" d="M341.19,373.39c.14-.09.32-.06.42.08l2.58,3.79,2.35-3.94c.08-.14.27-.19.41-.1s.19.27.1.41l-2.59,4.35c-.05.09-.15.14-.25.15-.1,0-.2-.05-.26-.13l-2.85-4.18s-.05-.1-.05-.16c0-.1.04-.2.13-.26Z"/><path class="cls-14" d="M38.5,128.55c0-.56.34-.84,1.03-.84.91,0,2.06.42,3.46,1.26,1.51.92,2.27,1.8,2.27,2.66,0,.4-.18.69-.55.87-.18.1-.41.14-.67.14-.88,0-1.83-.3-2.85-.9-.95-.56-1.69-1.22-2.21-1.98-.31-.44-.46-.85-.46-1.21ZM42.38,129.61c-.14.17-.24.26-.32.26-.05,0-.21-.11-.45-.33-.69-.62-1.25-.92-1.67-.92-.05,0-.11.02-.16.05-.1.05-.15.14-.15.26,0,.22.21.54.64.96.55.55,1.11.96,1.69,1.25.66.33,1.21.5,1.65.5.12,0,.22-.03.31-.09.12-.09.18-.2.18-.34,0-.33-.25-.68-.74-1.06-.21-.16-.42-.3-.64-.4s-.33-.15-.34-.14Z"/><path class="cls-14" d="M39.73,124.69c-.49-.58-.74-1.1-.74-1.57,0-.29.12-.52.36-.71.21-.17.46-.26.74-.26.53,0,1.18.17,1.94.52.84.39,1.62.95,2.35,1.69.6.61.9,1.19.9,1.74,0,.21-.04.39-.11.56-.08.17-.19.32-.34.45.1.05.16.09.18.1.25.12.41.2.46.24.05.04.08.11.08.21,0,.12-.07.24-.22.35-.1.08-.2.11-.31.11-.19,0-1.16-.39-2.9-1.18-2.43-1.1-4.85-2.38-7.26-3.82-.98-.59-1.56-.95-1.73-1.08-.21-.14-.31-.28-.31-.4,0-.15.08-.28.23-.4.1-.08.21-.11.34-.11.14,0,.32.06.54.19.05.03.4.24,1.06.65,1.91,1.24,3.49,2.14,4.74,2.71ZM44.17,126.42c.07-.11.1-.22.1-.33,0-.59-.52-1.22-1.55-1.89-.46-.31-.93-.55-1.38-.73-.41-.16-.71-.24-.91-.24-.14,0-.24.03-.3.09s-.1.16-.1.29c0,.31.22.69.65,1.14.42.44,1.04.88,1.84,1.31.38.21.74.38,1.08.53l.28.13c.14-.1.24-.21.31-.31Z"/><path class="cls-14" d="M38.31,117.08c0-.42.08-.74.23-.95s.38-.32.69-.32c.4,0,.79.15,1.17.45.36.29.64.72.86,1.29.12.31.17.58.17.79,0,.29-.13.43-.38.43-.17,0-.3-.08-.39-.25-.02-.04-.08-.27-.17-.7-.05-.25-.17-.49-.36-.7-.16-.18-.33-.28-.51-.28-.14,0-.25.04-.32.12s-.1.21-.1.37c0,.4.16.83.48,1.31.36.55.79.83,1.29.83.36,0,.8-.18,1.33-.54.58-.4,1.07-.6,1.48-.6.6,0,1.07.27,1.42.8.21.33.32.7.32,1.12,0,.66-.24,1.16-.71,1.5-.33.24-.73.36-1.19.36-.53,0-.98-.14-1.34-.41-.24-.18-.36-.36-.36-.55,0-.17.07-.26.21-.26.05,0,.14.03.25.09.29.16.64.24,1.04.24.33,0,.62-.12.85-.36.21-.21.31-.45.31-.73s-.09-.48-.27-.63c-.15-.12-.34-.18-.57-.18-.29,0-.66.16-1.12.49-.63.45-1.2.68-1.71.68-.68,0-1.29-.37-1.81-1.12-.51-.72-.76-1.49-.76-2.3Z"/><path class="cls-14" d="M43.15,115.65h.18c.15,0,.28-.04.39-.11.25-.17.38-.45.38-.84,0-.85-.66-1.84-1.97-2.96-.23-.2-.34-.37-.34-.5,0-.08.04-.14.11-.21.05-.04.11-.06.15-.06.27,0,.72.33,1.35.98.5.51.91,1.06,1.22,1.64s.47,1.12.47,1.62-.18.92-.53,1.21c-.25.2-.58.3-1,.3-1.16,0-2.29-.54-3.39-1.63-.9-.88-1.35-1.65-1.35-2.31,0-.18.05-.34.16-.48.14-.18.33-.27.56-.27.36,0,.81.17,1.33.5,1.09.69,1.85,1.73,2.27,3.12ZM42.35,115.42c-.16-.48-.35-.85-.55-1.13-.37-.48-.79-.86-1.25-1.14-.16-.1-.31-.15-.44-.15-.14,0-.21.06-.21.19,0,.18.13.43.4.76.47.59,1.16,1.08,2.05,1.47Z"/><path class="cls-14" d="M41.74,108.82c-.72-.67-1.42-1.44-2.1-2.32-.25-.31-.48-.65-.69-1-.1-.18-.15-.29-.15-.34,0-.1.08-.21.23-.31.08-.06.16-.09.23-.09.12,0,.29.13.5.39.55.7.97,1.05,1.25,1.05.16,0,.24-.09.24-.27,0-.29-.24-.8-.73-1.52-.08-.12-.12-.23-.12-.31,0-.05.03-.11.08-.16.06-.06.13-.09.19-.09.21,0,.52.29.94.86.45.6.68,1.17.68,1.71,0,.22-.06.42-.17.6-.1.16-.27.24-.51.24-.17,0-.37-.07-.58-.22.38.54,1.04,1.18,1.97,1.91.57.42,1.28.84,2.12,1.26.31.16.47.35.47.58,0,.25-.12.38-.36.38s-.85-.2-1.87-.59c-1.5-.59-2.67-1.2-3.5-1.85-.51-.4-.77-.73-.77-.99,0-.09.03-.17.08-.25.07-.09.15-.13.26-.13s.25.07.43.21c.03.03.26.21.69.54.4.31.8.54,1.2.71Z"/><path class="cls-14" d="M42.32,100.48c.72.42,1.25.78,1.6,1.08.86.73,1.29,1.34,1.29,1.83,0,.29-.16.52-.48.68-.21.11-.43.16-.67.16-.45,0-1.1-.19-1.96-.58-.75-.35-1.33-.64-1.76-.88-.31-.18-.51-.28-.6-.32-.18-.08-.32-.15-.42-.22-.14-.09-.22-.21-.22-.37,0-.08.03-.15.1-.22.08-.07.18-.1.29-.1.31,0,.99.28,2.06.83,1.05.55,1.75.83,2.09.83.22,0,.33-.09.33-.26,0-.29-.38-.71-1.15-1.25-.34-.24-.78-.49-1.3-.75-.17,0-.3.01-.39.01-.51,0-.96-.1-1.33-.29-.49-.25-.73-.58-.73-.99,0-.24.14-.36.43-.36.46,0,1.13.24,2.02.72.03-.14.04-.25.04-.33,0-.23-.14-.52-.43-.88-.23-.29-.35-.48-.35-.56,0-.08.04-.15.13-.24.08-.06.15-.09.23-.09.25,0,.52.17.83.51.35.4.52.85.52,1.35,0,.2-.06.43-.17.69Z"/><path class="cls-14" d="M43.15,97.65h.18c.15,0,.28-.04.39-.11.25-.17.38-.45.38-.84,0-.85-.66-1.84-1.97-2.96-.23-.2-.34-.37-.34-.5,0-.08.04-.14.11-.21.05-.04.11-.06.15-.06.27,0,.72.33,1.35.98.5.51.91,1.06,1.22,1.64s.47,1.12.47,1.62-.18.92-.53,1.21c-.25.2-.58.3-1,.3-1.16,0-2.29-.54-3.39-1.63-.9-.88-1.35-1.65-1.35-2.31,0-.18.05-.34.16-.48.14-.18.33-.27.56-.27.36,0,.81.17,1.33.5,1.09.69,1.85,1.73,2.27,3.12ZM42.35,97.43c-.16-.48-.35-.85-.55-1.13-.37-.48-.79-.86-1.25-1.14-.16-.1-.31-.15-.44-.15-.14,0-.21.06-.21.19,0,.18.13.43.4.76.47.59,1.16,1.08,2.05,1.47Z"/><path class="cls-14" d="M404.64,58.98h-16.5l7.75,6.52v397.98c0,.28.22.5.5.5s.5-.22.5-.5V65.51l7.75-6.52Z"/><path class="cls-14" d="M49.54,129.61c.64.51,1.37,1,2.18,1.46,1.16.66,2.03,1.02,2.63,1.08.17.02.3,0,.4-.07.1-.06.15-.17.17-.31.03-.34-.24-.78-.83-1.33-.36-.35-.73-.66-1.1-.94-.21-.15-.31-.3-.29-.45,0-.09.05-.16.11-.22.07-.05.13-.07.19-.06.25.03.78.41,1.58,1.16.97.89,1.42,1.67,1.35,2.32-.04.35-.22.62-.57.82-.22.12-.51.16-.89.13-.82-.08-1.76-.42-2.8-1-.26-.14-.88-.53-1.87-1.16.03.19.04.33.03.43-.01.14-.06.27-.14.37-.11.14-.24.2-.38.19-.17-.02-.3-.13-.38-.34-.02-.06-.04-.31-.06-.77,0-.17-.05-.41-.12-.73-.4-.28-.95-.73-1.63-1.34-.38-.34-.62-.57-.73-.7-.15-.18-.22-.33-.21-.45,0-.09.07-.17.17-.25.1-.07.19-.1.28-.1.18.02.51.24.99.68.31.29.57.5.77.64-.13-.78-.17-1.33-.14-1.65.04-.37.21-.54.53-.51.16.02.27.09.33.23.03.07.05.25.05.54-.02.12.06.64.23,1.58.05.26.1.52.16.77Z"/><path class="cls-14" d="M53.08,126.71c-.65-.74-1.27-1.58-1.86-2.52-.21-.34-.41-.69-.58-1.07-.08-.19-.12-.3-.12-.35.01-.1.1-.2.26-.28.09-.05.17-.08.23-.07.12.01.28.16.46.44.48.75.86,1.14,1.14,1.17.16.02.24-.06.26-.24.03-.29-.16-.82-.57-1.58-.07-.13-.1-.24-.09-.32,0-.05.04-.11.1-.15.07-.06.13-.08.2-.07.2.02.49.34.85.95.39.64.56,1.23.5,1.77-.02.22-.1.41-.23.58-.11.15-.29.21-.53.18-.17-.02-.36-.11-.56-.27.33.58.92,1.27,1.77,2.1.53.48,1.19.97,1.99,1.47.3.19.43.4.41.63-.03.25-.16.37-.4.34-.23-.02-.83-.28-1.8-.78-1.44-.74-2.54-1.47-3.29-2.19-.47-.45-.69-.8-.67-1.07,0-.09.04-.17.11-.24.08-.08.17-.12.27-.11.1.01.24.09.41.25.03.03.24.23.63.61.37.35.74.62,1.12.82Z"/><path class="cls-14" d="M55.52,119.35c.37.26.68.52.93.76.49.48.71.93.67,1.36-.04.37-.24.64-.61.8-.24.11-.51.14-.82.11-.75-.08-1.56-.4-2.43-.97-.96-.63-1.67-1.35-2.14-2.15-.3-.53-.43-1.02-.39-1.47.03-.29.14-.52.34-.69.17-.15.36-.21.55-.19.15.02.35.09.61.24.15-.09.28-.13.39-.12.14.01.37.13.67.36.31.23.74.47,1.27.73.56.27,1.02.42,1.38.46.29.03.53-.03.73-.18.05-.04.15-.17.28-.4.1-.16.25-.23.45-.21.13.01.23.07.3.17.08.11.11.23.1.37-.04.37-.23.67-.59.9-.29.19-.63.27-1.03.23-.14-.01-.36-.05-.67-.11ZM52.29,117.73c-.16.07-.28.14-.36.23-.08.09-.13.19-.14.3-.05.52.34,1.12,1.19,1.82.93.77,1.75,1.19,2.44,1.26.17.02.3,0,.4-.06.09-.05.15-.15.16-.28.03-.33-.28-.74-.92-1.25-.36-.28-.89-.64-1.59-1.08-.46-.29-.76-.49-.91-.62-.08-.06-.17-.17-.27-.33Z"/><path class="cls-14" d="M51.49,112.78c.05-.54.36-.78.93-.72.5.05.98.29,1.44.73.35.34.51.62.49.84-.02.19-.14.27-.36.25-.12-.01-.21-.05-.27-.11-.03-.02-.09-.11-.21-.27-.1-.13-.26-.28-.48-.43-.15-.1-.27-.16-.36-.17-.11-.01-.17.04-.18.17-.01.14.08.37.27.69.31.5.83,1.02,1.55,1.56.75.56,1.36.86,1.83.91.15.01.29-.02.41-.09.19-.11.3-.28.32-.49.04-.43-.17-.96-.64-1.6-.41-.54-.82-1.01-1.24-1.39-.23-.2-.34-.37-.33-.5,0-.08.05-.14.12-.19.07-.05.14-.07.21-.06.25.03.71.4,1.37,1.12,1.04,1.14,1.52,2.13,1.43,2.97-.05.5-.27.87-.66,1.1-.29.16-.61.23-.97.19-.71-.07-1.5-.45-2.37-1.13-.83-.65-1.49-1.38-1.96-2.18-.27-.47-.39-.86-.35-1.19Z"/><path class="cls-14" d="M54.08,106.77c1.05.55,1.86.86,2.43.92.28.03.52,0,.71-.09.25-.11.38-.28.4-.51.05-.46-.21-1.03-.77-1.7-.35-.44-.72-.82-1.1-1.13-.25-.2-.37-.38-.36-.54.02-.16.1-.23.26-.21.26.03.76.39,1.5,1.1,1.1,1.05,1.6,2,1.51,2.87-.05.52-.35.87-.88,1.04-.39.12-.79.17-1.21.12-.35-.04-.85-.17-1.52-.4.32.48,1.15,1.24,2.49,2.28.36.28.54.51.52.71,0,.1-.06.19-.16.25-.1.07-.2.09-.3.08-.27-.03-1.14-.48-2.62-1.35-2.57-1.53-4.71-3.11-6.41-4.73-.93-.88-1.59-1.65-1.99-2.31-.37-.6-.53-1.07-.5-1.4.02-.15.09-.28.22-.38.17-.13.36-.19.57-.17.58.06,1.29.44,2.13,1.13.87.73,1.88,1.92,3.05,3.56.65.92,1.15,1.75,1.5,2.47.17.11.66.41,1.48.9-.83-.94-1.4-1.68-1.69-2.21-.19-.34-.37-.8-.55-1.36-.12-.38-.17-.66-.16-.82,0-.09.05-.16.13-.22.07-.07.15-.1.26-.09.22.02.37.19.42.51.1.53.31,1.09.61,1.67ZM52.23,107.47c-.62-1.19-1.45-2.32-2.49-3.41-.52-.54-1.02-.98-1.51-1.33-.35-.24-.6-.37-.75-.39-.16-.02-.24.05-.26.19-.04.38.48,1.1,1.56,2.15.9.87,2.05,1.79,3.46,2.78Z"/><path class="cls-14" d="M52.47,98.6c.04-.42.15-.73.32-.93s.41-.28.71-.25c.4.04.77.23,1.12.57.33.32.57.78.73,1.37.08.32.12.59.09.8-.03.29-.17.42-.42.39-.17-.02-.29-.11-.36-.28-.02-.04-.05-.28-.1-.71-.03-.26-.12-.5-.29-.73-.14-.2-.3-.31-.48-.33-.14-.01-.25.02-.33.09-.08.08-.12.19-.14.36-.04.39.08.85.35,1.35.3.59.71.91,1.2.96.35.04.81-.1,1.38-.41.62-.34,1.13-.49,1.53-.45.6.06,1.04.37,1.33.94.18.35.25.73.2,1.14-.07.65-.35,1.13-.85,1.42-.36.2-.76.28-1.22.24-.53-.05-.96-.23-1.29-.54-.22-.2-.32-.4-.3-.59.02-.17.09-.25.23-.23.05,0,.13.04.24.12.28.19.61.3,1.01.34.33.03.63-.06.88-.27.23-.19.35-.42.38-.69.03-.27-.04-.48-.2-.65-.14-.14-.32-.22-.55-.24-.29-.03-.67.1-1.16.38-.67.39-1.26.55-1.77.5-.68-.07-1.24-.5-1.69-1.29-.43-.77-.61-1.56-.52-2.36Z"/><path class="cls-14" d="M35.14,381.08c.37-.36.74-.35,1.12.04.33.34.54.81.61,1.41.05.46,0,.77-.15.92-.13.13-.27.12-.41-.03-.08-.08-.12-.16-.13-.24,0-.03,0-.14,0-.32,0-.16-.02-.36-.09-.61-.04-.17-.1-.28-.16-.35-.07-.07-.15-.07-.24.01-.1.1-.17.32-.22.67-.07.56,0,1.25.19,2.09.21.87.48,1.46.79,1.77.1.1.22.16.36.18.21.03.38-.02.53-.17.29-.29.46-.81.5-1.56.03-.64,0-1.24-.06-1.77-.05-.29-.03-.48.06-.57.05-.05.12-.07.21-.07.08,0,.15.04.19.08.17.17.28.72.33,1.65.07,1.47-.18,2.48-.75,3.05-.34.34-.73.47-1.15.41-.31-.05-.58-.2-.83-.45-.48-.48-.83-1.24-1.06-2.27-.21-.99-.25-1.92-.11-2.78.09-.51.24-.87.46-1.09Z"/><path class="cls-14" d="M39.02,376.9c.38-.38.8-.33,1.26.13.61.62,1.09,1.68,1.46,3.19.39,1.64.29,2.74-.29,3.31-.27.27-.59.33-.96.21-.19-.06-.37-.18-.54-.36-.58-.59-1.02-1.44-1.29-2.54-.26-1.02-.3-1.96-.14-2.83.1-.51.27-.88.51-1.12ZM40.89,380.24c-.21.02-.33,0-.39-.04-.04-.04-.06-.21-.08-.53-.04-.88-.21-1.46-.49-1.75-.04-.04-.08-.06-.14-.08-.11-.03-.2-.01-.28.07-.15.15-.22.5-.23,1.08,0,.74.09,1.4.28,1.98.22.67.47,1.16.76,1.46.08.08.17.13.27.15.14.02.26,0,.35-.1.22-.22.3-.62.22-1.21-.03-.25-.08-.48-.15-.7-.08-.22-.12-.32-.13-.33Z"/><path class="cls-14" d="M44.98,377.61c.11.42.19.8.22,1.13.06.65-.05,1.12-.33,1.4-.25.25-.56.32-.93.22-.24-.07-.46-.2-.67-.41-.51-.51-.9-1.24-1.19-2.18-.32-1.05-.41-2.01-.26-2.88.1-.57.3-1.01.61-1.31.2-.19.42-.29.67-.3.22,0,.39.06.52.2.1.1.2.28.3.54.17.03.28.08.36.15.1.1.19.32.28.67.09.36.25.79.49,1.3.25.54.49.93.73,1.17.19.19.41.3.65.31.06,0,.21-.04.44-.12.17-.06.32-.02.46.12.09.09.13.19.12.31,0,.13-.06.24-.15.33-.25.25-.58.35-.97.3-.33-.03-.62-.19-.89-.46-.09-.09-.23-.25-.43-.49ZM43.59,374.47c-.16-.05-.29-.06-.4-.05-.11.02-.21.06-.28.13-.35.35-.43,1.03-.23,2.06.22,1.13.56,1.93,1.03,2.4.11.12.22.18.33.2.1.02.2-.02.29-.11.22-.22.25-.71.08-1.48-.09-.42-.26-1.01-.51-1.76-.16-.49-.26-.82-.29-1-.02-.09-.02-.23,0-.4Z"/><path class="cls-14" d="M46.61,373.71c.22.5.4.89.55,1.18.15.29.27.48.35.57.11.12.23.12.34,0,.17-.16.23-.54.18-1.11-.03-.28-.11-.73-.26-1.38-.06-.25-.03-.43.07-.54.12-.12.24-.12.35,0,.2.2.37.83.51,1.89.15,1.11.02,1.86-.39,2.26-.18.17-.39.24-.65.2-.18-.03-.35-.12-.5-.27-.26-.26-.53-.7-.83-1.31-.29-.61-.61-1.4-.95-2.37-.85-2.46-1.4-4.64-1.64-6.54-.2-1.53-.08-2.5.36-2.93.14-.14.31-.2.5-.18.2.02.37.09.5.23.64.65,1.13,2.3,1.46,4.95.14,1.18.19,2.47.13,3.85-.02.36-.04.86-.08,1.48ZM46.02,372.12c.15-1.78-.02-3.67-.5-5.68-.25-1.04-.48-1.67-.69-1.88-.1-.1-.19-.11-.28-.02-.25.25-.22,1.22.11,2.89.27,1.38.72,2.95,1.36,4.69Z"/><path class="cls-14" d="M50.04,372.25l.12.12c.1.1.21.17.34.19.29.06.56-.04.82-.31.58-.57.81-1.68.69-3.32-.02-.29.02-.47.11-.57.05-.05.12-.07.21-.06.06.01.11.03.14.06.18.18.26.71.24,1.58-.01.68-.11,1.32-.3,1.92-.18.6-.44,1.07-.78,1.4-.35.34-.74.49-1.18.45-.3-.03-.59-.2-.87-.48-.77-.78-1.16-1.91-1.17-3.39,0-1.2.21-2.02.66-2.46.12-.12.27-.19.44-.21.22-.02.4.05.56.2.24.25.43.66.55,1.24.26,1.2.06,2.41-.6,3.62ZM49.65,371.56c.21-.43.35-.81.39-1.13.08-.57.06-1.11-.06-1.61-.04-.18-.1-.31-.19-.4-.09-.09-.18-.1-.27,0-.12.12-.2.38-.25.78-.08.71.04,1.5.38,2.37Z"/><path class="cls-14" d="M53.35,362.5c.29-.28.55-.44.8-.48.24-.04.47.04.68.25.27.27.43.64.47,1.09.04.43-.06.92-.3,1.45-.14.29-.28.5-.42.65-.19.19-.38.2-.55.03-.11-.12-.15-.26-.09-.43.01-.04.13-.24.36-.58.13-.21.21-.44.23-.71.02-.23-.03-.41-.16-.53-.1-.1-.2-.14-.3-.13-.1,0-.21.07-.32.18-.27.27-.46.67-.57,1.2-.13.62-.03,1.09.3,1.43.24.24.66.42,1.26.54.66.12,1.13.32,1.4.6.4.41.54.91.4,1.49-.08.36-.26.68-.55.96-.44.44-.94.61-1.49.52-.39-.07-.73-.26-1.04-.57-.36-.36-.56-.76-.62-1.19-.04-.28,0-.49.13-.61.12-.11.22-.12.31-.03.04.04.07.11.1.23.09.3.27.59.53.86.22.23.49.34.81.34.28,0,.51-.1.7-.28.18-.18.26-.38.25-.6-.02-.18-.1-.35-.26-.51-.19-.19-.55-.34-1.08-.43-.73-.12-1.26-.36-1.6-.71-.46-.46-.61-1.12-.46-1.98.15-.83.5-1.51,1.05-2.05Z"/><path class="cls-14" d="M56.6,359.9c.37-.36.74-.35,1.12.03.33.34.54.81.61,1.41.05.46,0,.77-.15.92-.13.13-.27.12-.41-.03-.08-.08-.12-.16-.13-.24,0-.03,0-.14,0-.32,0-.16-.03-.36-.09-.61-.05-.17-.1-.28-.16-.35-.07-.07-.15-.07-.23.01-.1.1-.17.32-.22.67-.07.56,0,1.25.19,2.09.21.87.48,1.46.79,1.77.1.1.22.16.36.18.21.03.38-.02.53-.17.29-.29.46-.81.5-1.56.03-.64.01-1.24-.06-1.77-.05-.29-.03-.48.06-.57.05-.05.12-.07.21-.07.08,0,.15.04.19.08.17.17.28.72.33,1.65.07,1.47-.18,2.48-.75,3.05-.34.34-.73.47-1.15.41-.31-.05-.58-.2-.83-.45-.48-.48-.83-1.24-1.05-2.27-.21-.99-.25-1.91-.11-2.78.09-.51.24-.87.46-1.09Z"/><path class="cls-14" d="M61.46,360.98l.12.12c.1.1.21.17.34.19.29.06.56-.04.82-.31.58-.57.81-1.68.69-3.32-.02-.29.02-.47.11-.57.05-.05.12-.07.21-.06.06.01.11.03.14.06.18.18.26.71.24,1.58-.01.68-.11,1.32-.3,1.92s-.44,1.07-.78,1.4c-.35.34-.74.49-1.18.45-.3-.03-.59-.2-.87-.48-.77-.78-1.16-1.91-1.17-3.39,0-1.2.21-2.02.66-2.46.12-.12.27-.19.44-.21.22-.02.4.05.56.2.24.25.43.66.55,1.24.26,1.2.07,2.41-.6,3.62ZM61.07,360.29c.21-.43.35-.81.39-1.13.08-.57.06-1.11-.07-1.61-.04-.18-.1-.31-.19-.4-.09-.09-.18-.1-.27,0-.12.12-.2.38-.25.78-.08.71.04,1.5.38,2.37Z"/><path class="cls-14" d="M44.17,385.6c.06.78.18,1.6.39,2.47.28,1.24.6,2.08.94,2.54.1.13.2.21.3.24s.21,0,.32-.08c.26-.2.39-.68.39-1.44,0-.48,0-.94-.05-1.38-.03-.25.01-.41.13-.5.07-.05.14-.07.22-.06.08.02.13.05.17.09.14.19.21.81.21,1.86,0,1.26-.25,2.07-.75,2.44-.27.2-.58.24-.94.13-.23-.07-.45-.25-.66-.54-.47-.63-.84-1.5-1.11-2.61-.07-.27-.2-.96-.4-2.06-.11.14-.21.24-.28.3-.11.08-.23.13-.35.14-.17.01-.29-.04-.38-.14-.1-.13-.1-.29,0-.48.03-.05.19-.23.5-.54.11-.11.25-.3.44-.56-.06-.46-.1-1.13-.11-2,0-.48,0-.81.02-.97.03-.22.09-.37.18-.44.07-.05.16-.07.29-.04.11.02.2.07.25.13.1.14.16.51.17,1.13,0,.4.02.72.04.96.46-.59.82-.98,1.07-1.17.29-.21.52-.2.7.04.09.12.11.25.05.38-.03.07-.14.2-.35.38-.09.06-.41.45-.96,1.18-.15.2-.3.4-.44.61Z"/><path class="cls-14" d="M48.48,386.21c.1-.93.29-1.9.57-2.93.1-.37.22-.73.37-1.1.08-.18.13-.28.17-.31.08-.06.2-.06.36,0,.09.03.16.07.2.12.07.09.07.29,0,.61-.21.82-.24,1.34-.08,1.55.09.12.2.13.34.03.22-.17.47-.64.74-1.42.05-.13.1-.22.16-.27.04-.03.1-.04.17-.03.08.01.14.04.18.1.12.16.08.56-.12,1.21-.2.69-.51,1.19-.92,1.49-.17.12-.35.2-.56.21-.18.02-.33-.07-.47-.26-.1-.13-.15-.32-.17-.57-.19.6-.3,1.46-.33,2.59,0,.68.09,1.46.25,2.34.06.33,0,.56-.18.69-.19.14-.36.13-.49-.06-.13-.18-.34-.76-.61-1.76-.41-1.48-.61-2.72-.59-3.72,0-.62.12-1,.32-1.15.07-.05.15-.08.23-.08.11,0,.19.04.25.12s.09.23.09.45c0,.04,0,.32-.02.83,0,.48.04.92.15,1.32Z"/><path class="cls-14" d="M55.21,383.17c.05.43.08.81.07,1.15-.02.65-.2,1.1-.52,1.34-.28.21-.6.24-.96.09-.23-.1-.43-.26-.61-.5-.43-.58-.73-1.35-.89-2.32-.18-1.08-.13-2.04.13-2.89.17-.55.43-.96.78-1.22.22-.16.45-.23.7-.21.21.03.38.11.49.27.09.11.16.31.22.58.16.05.27.12.33.2.08.11.14.34.18.7.04.37.14.82.31,1.36.17.57.36.99.57,1.26.16.22.36.35.6.39.06,0,.22-.01.46-.06.18-.04.32.03.44.18.07.1.1.21.07.32-.03.13-.09.23-.2.31-.28.21-.62.27-1.01.17-.32-.08-.59-.27-.82-.58-.08-.1-.2-.28-.36-.54ZM54.26,379.87c-.15-.07-.28-.1-.39-.1-.11,0-.21.03-.3.09-.4.3-.57.97-.51,2.01.06,1.15.29,1.99.69,2.52.1.13.2.21.3.24.1.03.2,0,.3-.07.25-.19.34-.67.28-1.45-.03-.43-.12-1.04-.27-1.81-.09-.51-.14-.85-.15-1.03,0-.09.01-.23.06-.4Z"/><path class="cls-14" d="M57.22,376.11c.41-.31.78-.25,1.1.19.29.38.42.87.42,1.48-.01.46-.1.76-.27.89-.15.11-.28.08-.41-.09-.07-.09-.1-.17-.1-.26,0-.03.02-.14.05-.32.03-.16.02-.36,0-.62-.02-.17-.06-.29-.12-.37-.06-.08-.14-.09-.23-.02-.11.08-.21.29-.31.63-.15.54-.18,1.24-.09,2.09.1.89.28,1.51.54,1.86.09.11.2.19.33.23.2.06.38.03.55-.1.33-.25.56-.74.71-1.48.12-.63.18-1.22.18-1.77,0-.29.04-.48.14-.55.06-.04.13-.06.21-.04.08.02.14.06.18.11.14.19.18.75.1,1.68-.13,1.46-.52,2.44-1.16,2.92-.38.29-.78.37-1.19.25-.3-.09-.55-.28-.76-.55-.41-.54-.65-1.34-.74-2.39-.08-1.01,0-1.93.27-2.77.15-.49.36-.83.61-1.02Z"/><path class="cls-14" d="M63.09,374.05c.29,1.09.6,1.86.93,2.3.16.21.33.36.52.44.24.1.44.08.61-.04.35-.27.58-.81.69-1.63.08-.53.11-1.03.08-1.5-.02-.31.03-.51.15-.6.12-.09.22-.07.31.04.15.2.21.78.2,1.76-.03,1.44-.37,2.41-1.04,2.91-.4.3-.83.32-1.29.05-.34-.19-.63-.45-.87-.77-.2-.27-.43-.71-.7-1.32-.13.54-.12,1.61,0,3.22.04.43-.01.71-.17.82-.08.06-.17.08-.28.05-.11-.03-.2-.08-.25-.15-.16-.21-.4-1.11-.74-2.7-.59-2.79-.86-5.3-.82-7.54.02-1.22.13-2.18.34-2.89.19-.64.41-1.06.66-1.25.12-.09.25-.12.41-.09.2.03.36.13.49.29.33.44.53,1.18.58,2.22.05,1.08-.13,2.56-.53,4.44-.23,1.05-.48,1.93-.76,2.65.03.19.14.72.32,1.62.12-1.19.28-2.06.46-2.61.12-.35.32-.77.6-1.27.19-.33.35-.54.48-.64.07-.05.15-.07.24-.06.09,0,.17.04.23.12.13.17.1.38-.08.62-.31.42-.56.92-.77,1.51ZM61.41,373.21c.43-1.2.69-2.52.78-3.94.04-.71.03-1.35-.05-1.92-.05-.4-.13-.66-.22-.78s-.19-.14-.3-.06c-.29.22-.46,1.04-.5,2.47-.03,1.19.06,2.59.28,4.22Z"/><use width="185.64" height="24.31" transform="translate(110.98 383.11)" xlink:href="#Activation"/><path class="cls-10" d="M58.71,387.97c4.27,14,14.52,15.54,29.01,5.96"/><path class="cls-14" d="M85.82,398.55c-.15-.07-.22-.25-.15-.4l1.93-4.16h-4.59c-.17.01-.3-.12-.3-.29s.14-.3.3-.3h5.06c.1-.01.2.04.25.12.06.09.06.2.02.29l-2.13,4.59c-.02.05-.06.1-.11.13-.08.05-.19.06-.29.02Z"/><path class="cls-8" d="M85.21,88.14c-12.24.94-11.08,10.07-11.83,19.86-.45,5.81-8.98,6.84-8.98,6.84,0,0,8.35,3.58,8.62,8.51.46,8.57,1.23,19.4,11.42,19.89"/><path class="cls-14" d="M80.85,85.69c-.08.15-.02.33.13.4l4.09,2.08-3.62,2.82c-.13.1-.15.29-.05.42.1.13.29.15.42.05l3.99-3.11c.08-.06.12-.16.11-.27,0-.1-.07-.19-.16-.24l-4.51-2.3c-.05-.03-.11-.04-.16-.03-.1,0-.19.07-.24.16Z"/><path class="cls-14" d="M80.16,145.8c-.08-.15-.03-.33.12-.41l4.03-2.2-3.7-2.72c-.13-.1-.16-.29-.06-.42.1-.13.29-.16.42-.06l4.08,2.99c.08.06.13.16.12.26,0,.1-.07.19-.16.24l-4.44,2.43c-.05.03-.11.04-.16.04-.1,0-.19-.06-.24-.16Z"/><path class="cls-10" d="M198,357.79c7.06-9.29,15.77-14.91,33.92-17.05"/><path class="cls-14" d="M228.27,344.2c-.11-.13-.09-.32.03-.42l3.48-2.99-4.18-1.89c-.15-.07-.22-.25-.15-.4.07-.15.25-.22.4-.15l4.61,2.08c.09.04.16.13.17.23.01.1-.02.2-.1.27l-3.84,3.3s-.1.06-.15.07c-.1.01-.2-.02-.27-.1Z"/></svg>