<?xml version="1.0" encoding="UTF-8"?><svg id="Layer_1" xmlns="http://www.w3.org/2000/svg" xmlns:xlink="http://www.w3.org/1999/xlink" viewBox="0 0 399.25 236.99"><defs><style>.cls-1,.cls-2,.cls-3,.cls-4,.cls-5{fill:none;}.cls-6{fill:gray;}.cls-7,.cls-2,.cls-3,.cls-4,.cls-5{stroke-miterlimit:10;}.cls-7,.cls-2,.cls-3,.cls-5{stroke:#4d4d4d;}.cls-7,.cls-8{fill:#999;}.cls-9{fill:#4d4d4d;}.cls-10{fill:#ccc;}.cls-3{filter:url(#drop-shadow-2);stroke-width:3px;}.cls-4{stroke:#ccc;stroke-dasharray:5;}.cls-4,.cls-5{stroke-linecap:round;}.cls-11{clip-path:url(#clippath);}</style><symbol id="Executing" viewBox="0 0 138.88 24.31"><rect class="cls-8" x=".5" y=".5" width="137.88" height="23.31" rx="3" ry="3"/><rect class="cls-2" x=".5" y=".5" width="137.88" height="23.31" rx="3" ry="3"/><polygon class="cls-6" points="42.94 2.41 33.48 2.41 14.28 21.85 23.74 21.85 42.94 2.41"/><polygon class="cls-6" points="61.01 2.41 51.55 2.41 32.35 21.85 41.81 21.85 61.01 2.41"/><polygon class="cls-6" points="79.08 2.41 69.62 2.41 50.42 21.85 59.88 21.85 79.08 2.41"/><polygon class="cls-6" points="97.15 2.41 87.69 2.41 68.49 21.85 77.95 21.85 97.15 2.41"/><polygon class="cls-6" points="115.22 2.41 105.76 2.41 86.56 21.85 96.02 21.85 115.22 2.41"/><polygon class="cls-6" points="133.29 2.41 123.83 2.41 104.63 21.85 114.09 21.85 133.29 2.41"/><path class="cls-6" d="M24.87,2.41h-9.46L1.94,16.05v3.61c0,.96.55,1.78,1.34,2.2h2.39L24.87,2.41Z"/><polygon class="cls-6" points="122.7 21.85 132.16 21.85 136.94 17.01 136.94 7.43 122.7 21.85"/><path class="cls-6" d="M6.8,2.41h-3.43c-.84.4-1.42,1.25-1.42,2.25v2.67L6.8,2.41Z"/></symbol><filter id="drop-shadow-2" x="30.78" y="161.31" width="356" height="34" filterUnits="userSpaceOnUse"><feOffset dx="7" dy="7"/><feGaussianBlur result="blur" stdDeviation="5"/><feFlood flood-color="#000" flood-opacity=".07"/><feComposite in2="blur" operator="in"/><feComposite in="SourceGraphic"/></filter><clipPath id="clippath"><rect class="cls-1" x="196.86" y="98.95" width="132.85" height="61.46"/></clipPath></defs><path class="cls-9" d="M35.12,192.09c-.05.12-.2.43-.43.92-.39.93-.62,1.54-.7,1.83-.04.16-.1.28-.16.34-.06.06-.15.1-.26.1s-.22-.04-.29-.13c-.07-.08-.1-.17-.1-.27,0-.37.33-1.25.98-2.67-.71.08-1.27.2-1.68.37-.13.05-.24.08-.32.08-.2,0-.29-.15-.29-.46,0-.18.07-.36.21-.53.27-.32.73-.8,1.38-1.44.8-.79,1.53-1.43,2.18-1.92.56-.42.97-.64,1.22-.64.11,0,.21.05.31.14.07.08.11.16.11.26,0,.12-.07.3-.22.54-.02.04-.19.31-.48.78-.38.61-.73,1.25-1.05,1.92.34-.02.57-.03.68-.03.29,0,.43.11.43.32,0,.19-.08.33-.23.41-.07.03-.28.05-.62.05-.1,0-.32,0-.64.02ZM34.56,191.41c.53-1.04,1.04-1.9,1.52-2.6-.51.29-1.13.79-1.85,1.49-.52.52-.94.97-1.26,1.35.71-.15,1.24-.23,1.6-.25Z"/><path class="cls-9" d="M37.17,194.33c.82-.26,1.57-.39,2.26-.39.27,0,.49.06.65.17.15.1.22.22.22.36,0,.09-.03.18-.1.25s-.15.11-.23.11c-.03,0-.07,0-.13-.02-.25-.07-.48-.1-.69-.1-.18,0-.4.02-.67.05-.09.01-.43.1-1.02.26-.53.14-.84.21-.94.21-.14,0-.26-.07-.36-.2-.09-.12-.14-.25-.14-.38,0-.15.13-.34.38-.59.48-.47.94-.89,1.38-1.27.42-.35.94-.76,1.56-1.22.71-.52,1.2-.9,1.46-1.14.4-.35.6-.7.6-1.05,0-.2-.06-.35-.19-.46-.11-.1-.25-.15-.42-.15-.44,0-.96.25-1.55.74-.27.22-.44.34-.51.34-.05,0-.11-.03-.17-.09-.07-.06-.1-.13-.1-.21,0-.18.21-.42.64-.75.68-.52,1.33-.78,1.96-.78.36,0,.65.11.89.34.23.22.34.49.34.8,0,.55-.28,1.09-.83,1.63-.24.23-.68.59-1.32,1.05-1.54,1.12-2.53,1.95-2.97,2.48Z"/><path class="cls-9" d="M89.34,192.09c-.05.12-.2.43-.43.92-.39.93-.62,1.54-.7,1.83-.04.16-.1.28-.16.34-.06.06-.15.1-.26.1s-.22-.04-.29-.13c-.07-.08-.1-.17-.1-.27,0-.37.33-1.25.98-2.67-.71.08-1.27.2-1.68.37-.13.05-.24.08-.32.08-.2,0-.29-.15-.29-.46,0-.18.07-.36.21-.53.27-.32.73-.8,1.38-1.44.8-.79,1.53-1.43,2.18-1.92.56-.42.97-.64,1.22-.64.11,0,.21.05.31.14.07.08.11.16.11.26,0,.12-.07.3-.22.54-.02.04-.19.31-.48.78-.38.61-.73,1.25-1.05,1.92.34-.02.57-.03.68-.03.29,0,.43.11.43.32,0,.19-.08.33-.23.41-.07.03-.28.05-.62.05-.1,0-.32,0-.64.02ZM88.77,191.41c.53-1.04,1.04-1.9,1.52-2.6-.51.29-1.13.79-1.85,1.49-.52.52-.94.97-1.26,1.35.71-.15,1.24-.23,1.6-.25Z"/><path class="cls-9" d="M94.68,190.74c.24.1.42.22.52.34.15.18.23.43.23.75,0,.8-.33,1.56-1,2.29s-1.36,1.1-2.07,1.1c-.43,0-.79-.18-1.06-.54-.2-.26-.29-.55-.29-.86,0-.52.2-.78.6-.78.24,0,.36.09.36.27,0,.04,0,.09-.01.15-.01.08-.02.17-.02.25,0,.23.06.41.17.53.13.13.28.2.45.2.42,0,.86-.29,1.34-.87.45-.56.68-1.09.68-1.59,0-.25-.06-.45-.18-.6-.13-.16-.31-.23-.55-.23-.09,0-.19.01-.28.04-.11.03-.2.05-.26.05-.14,0-.21-.1-.21-.29,0-.17.06-.3.17-.41.06-.06.2-.12.4-.18.41-.1.75-.24,1.03-.42.18-.12.33-.27.43-.47.05-.1.08-.21.08-.32,0-.14-.04-.25-.11-.31-.08-.07-.19-.1-.35-.1-.26,0-.54.07-.82.21-.07.03-.25.13-.52.3-.07.05-.15.07-.24.07-.17,0-.25-.09-.25-.27,0-.16.12-.33.37-.51.57-.41,1.13-.61,1.68-.61.33,0,.6.1.83.3.24.21.36.47.36.77,0,.4-.17.77-.51,1.11-.19.2-.5.4-.94.62Z"/><path class="cls-9" d="M143.55,192.09c-.05.12-.2.43-.43.92-.39.93-.62,1.54-.7,1.83-.04.16-.1.28-.16.34-.06.06-.15.1-.26.1s-.22-.04-.29-.13c-.07-.08-.1-.17-.1-.27,0-.37.33-1.25.98-2.67-.71.08-1.27.2-1.68.37-.13.05-.24.08-.32.08-.2,0-.29-.15-.29-.46,0-.18.07-.36.21-.53.27-.32.73-.8,1.38-1.44.8-.79,1.53-1.43,2.18-1.92.56-.42.97-.64,1.22-.64.11,0,.21.05.31.14.07.08.11.16.11.26,0,.12-.07.3-.22.54-.02.04-.19.31-.48.78-.38.61-.73,1.25-1.05,1.92.34-.02.57-.03.68-.03.29,0,.43.11.43.32,0,.19-.08.33-.23.41-.07.03-.28.05-.62.05-.1,0-.32,0-.64.02ZM142.98,191.41c.53-1.04,1.04-1.9,1.52-2.6-.51.29-1.13.79-1.85,1.49-.52.52-.94.97-1.26,1.35.71-.15,1.24-.23,1.6-.25Z"/><path class="cls-9" d="M148.67,192.09c-.05.12-.2.43-.43.92-.39.93-.62,1.54-.7,1.83-.04.16-.1.28-.16.34-.06.06-.15.1-.26.1s-.22-.04-.29-.13c-.07-.08-.1-.17-.1-.27,0-.37.33-1.25.98-2.67-.71.08-1.27.2-1.68.37-.13.05-.24.08-.32.08-.2,0-.29-.15-.29-.46,0-.18.07-.36.21-.53.27-.32.73-.8,1.38-1.44.8-.79,1.53-1.43,2.18-1.92.56-.42.97-.64,1.22-.64.11,0,.21.05.31.14.07.08.11.16.11.26,0,.12-.07.3-.22.54-.02.04-.19.31-.48.78-.38.61-.73,1.25-1.05,1.92.34-.02.57-.03.68-.03.29,0,.43.11.43.32,0,.19-.08.33-.23.41-.07.03-.28.05-.62.05-.1,0-.32,0-.64.02ZM148.11,191.41c.53-1.04,1.04-1.9,1.52-2.6-.51.29-1.13.79-1.85,1.49-.52.52-.94.97-1.26,1.35.71-.15,1.24-.23,1.6-.25Z"/><path class="cls-9" d="M197.76,192.09c-.05.12-.2.43-.43.92-.39.93-.62,1.54-.7,1.83-.04.16-.1.28-.16.34-.06.06-.15.1-.26.1s-.22-.04-.29-.13c-.07-.08-.1-.17-.1-.27,0-.37.33-1.25.98-2.67-.71.08-1.27.2-1.68.37-.13.05-.24.08-.32.08-.2,0-.29-.15-.29-.46,0-.18.07-.36.21-.53.27-.32.73-.8,1.38-1.44.8-.79,1.53-1.43,2.18-1.92.56-.42.97-.64,1.22-.64.11,0,.21.05.31.14.07.08.11.16.11.26,0,.12-.07.3-.22.54-.02.04-.19.31-.48.78-.38.61-.73,1.25-1.05,1.92.34-.02.57-.03.68-.03.29,0,.43.11.43.32,0,.19-.08.33-.23.41-.07.03-.28.05-.62.05-.1,0-.32,0-.64.02ZM197.2,191.41c.53-1.04,1.04-1.9,1.52-2.6-.51.29-1.13.79-1.85,1.49-.52.52-.94.97-1.26,1.35.71-.15,1.24-.23,1.6-.25Z"/><path class="cls-9" d="M203.09,188.8c-.83.72-1.36,1.33-1.59,1.85.48-.2.9-.29,1.24-.29.4,0,.71.12.93.35.21.22.32.51.32.86,0,.81-.38,1.62-1.15,2.44-.76.82-1.5,1.22-2.23,1.22-.42,0-.75-.2-.98-.59-.15-.26-.23-.56-.23-.89s.07-.61.22-.83c.12-.18.28-.27.47-.27.18,0,.26.07.26.2,0,.03-.01.09-.04.17-.05.14-.07.33-.07.57,0,.21.05.39.15.55.13.22.31.33.54.33.44,0,.9-.28,1.38-.83.53-.61.79-1.21.79-1.81,0-.25-.06-.44-.17-.56-.11-.12-.28-.19-.51-.19s-.5.06-.82.18c-.07.02-.25.11-.53.26-.06.03-.11.05-.16.05-.09,0-.19-.06-.28-.18-.1-.13-.15-.25-.15-.36,0-.21.21-.59.64-1.16.27-.37.6-.74,1-1.11-.11-.15-.16-.26-.16-.34,0-.11.08-.19.23-.24.07-.02.35-.07.83-.13.54-.07.98-.11,1.32-.11s.55.02.7.07c.18.05.26.17.26.35,0,.22-.11.34-.34.34-.05,0-.15,0-.29-.01-.05,0-.11,0-.17,0-.23,0-.46.01-.69.03-.23.02-.45.05-.68.1Z"/><line class="cls-3" x1="39.16" y1="170.96" x2="364.46" y2="170.96"/><line class="cls-4" x1="39.16" y1="109.31" x2="39.16" y2="170.96"/><line class="cls-4" x1="93.37" y1="109.31" x2="93.37" y2="170.96"/><line class="cls-4" x1="147.58" y1="109.31" x2="147.58" y2="170.96"/><line class="cls-4" x1="201.8" y1="109.31" x2="201.8" y2="170.96"/><circle class="cls-7" cx="39.16" cy="170.96" r="7.2"/><circle class="cls-7" cx="93.37" cy="170.96" r="7.2"/><circle class="cls-7" cx="147.58" cy="170.96" r="7.2"/><circle class="cls-7" cx="201.8" cy="170.96" r="7.2"/><path class="cls-10" d="M378.65,149.02c.28,0,.5-.22.5-.5s-.22-.5-.5-.5H20.6c-.28,0-.5.22-.5.5s.22.5.5.5h358.05"/><path class="cls-10" d="M378.65,121.04c.28,0,.5-.22.5-.5s-.22-.5-.5-.5H20.6c-.28,0-.5.22-.5.5s.22.5.5.5h358.05"/><path class="cls-9" d="M252,192.09c-.05.12-.2.43-.43.92-.39.93-.62,1.54-.7,1.83-.04.16-.1.28-.16.34-.06.06-.15.1-.26.1s-.22-.04-.29-.13c-.07-.08-.1-.17-.1-.27,0-.37.33-1.25.98-2.67-.71.08-1.27.2-1.68.37-.13.05-.24.08-.32.08-.2,0-.29-.15-.29-.46,0-.18.07-.36.21-.53.27-.32.73-.8,1.38-1.44.8-.79,1.53-1.43,2.18-1.92.56-.42.97-.64,1.22-.64.11,0,.21.05.31.14.07.08.11.16.11.26,0,.12-.07.3-.22.54-.02.04-.19.31-.48.78-.38.61-.73,1.25-1.05,1.92.34-.02.57-.03.68-.03.29,0,.43.11.43.32,0,.19-.08.33-.23.41-.07.03-.28.05-.62.05-.1,0-.32,0-.64.02ZM251.44,191.41c.53-1.04,1.04-1.9,1.52-2.6-.51.29-1.13.79-1.85,1.49-.52.52-.94.97-1.26,1.35.71-.15,1.24-.23,1.6-.25Z"/><path class="cls-9" d="M255.58,190.97c.73-.27,1.26-.4,1.6-.4.4,0,.7.11.89.34.17.2.26.46.26.78,0,.83-.37,1.64-1.11,2.44-.68.74-1.38,1.11-2.09,1.11-.45,0-.81-.2-1.09-.59-.21-.3-.32-.65-.32-1.05,0-.87.34-1.77,1.01-2.69.58-.8,1.41-1.54,2.49-2.21.32-.21.56-.35.72-.42.15-.07.28-.11.4-.11.19,0,.28.08.28.24,0,.15-.1.27-.29.38-1.02.54-1.93,1.27-2.74,2.18ZM254.97,191.87c-.3.49-.45.98-.45,1.46,0,.32.07.59.22.82.15.23.35.35.59.35.34,0,.69-.16,1.05-.48s.65-.76.87-1.3c.14-.34.21-.64.21-.89,0-.19-.06-.33-.17-.45-.12-.13-.28-.19-.48-.19-.33,0-.73.11-1.2.33-.13.05-.27.13-.43.23-.12.07-.19.12-.2.13Z"/><path class="cls-9" d="M306.21,192.09c-.05.12-.2.43-.43.92-.39.93-.62,1.54-.7,1.83-.04.16-.1.28-.16.34-.06.06-.15.1-.26.1s-.22-.04-.29-.13c-.07-.08-.1-.17-.1-.27,0-.37.33-1.25.98-2.67-.71.08-1.27.2-1.68.37-.13.05-.24.08-.32.08-.2,0-.29-.15-.29-.46,0-.18.07-.36.21-.53.27-.32.73-.8,1.38-1.44.8-.79,1.53-1.43,2.18-1.92.56-.42.97-.64,1.22-.64.11,0,.21.05.31.14.07.08.11.16.11.26,0,.12-.07.3-.22.54-.02.04-.19.31-.48.78-.38.61-.73,1.25-1.05,1.92.34-.02.57-.03.68-.03.29,0,.43.11.43.32,0,.19-.08.33-.23.41-.07.03-.28.05-.62.05-.1,0-.32,0-.64.02ZM305.65,191.41c.53-1.04,1.04-1.9,1.52-2.6-.51.29-1.13.79-1.85,1.49-.52.52-.94.97-1.26,1.35.71-.15,1.24-.23,1.6-.25Z"/><path class="cls-9" d="M312.7,188.75c-1.31.29-2.24.43-2.77.43-.36,0-.54-.12-.54-.35,0-.12.04-.22.12-.3s.17-.12.27-.12c.04,0,.11,0,.21.01.06,0,.14.01.22.01.3,0,.7-.04,1.2-.12.63-.1,1.1-.19,1.4-.27.17-.04.31-.07.42-.07.26,0,.4.14.4.42,0,.19-.11.41-.34.64-1.68,1.8-3,3.57-3.95,5.32-.23.42-.38.67-.44.75-.12.14-.24.21-.37.21-.07,0-.14-.03-.19-.08-.07-.06-.1-.13-.1-.21,0-.25.24-.76.71-1.54.62-1.02,1.38-2.06,2.26-3.11.53-.63,1.02-1.18,1.49-1.63Z"/><path class="cls-9" d="M360.42,192.09c-.05.12-.2.43-.43.92-.39.93-.62,1.54-.7,1.83-.04.16-.1.28-.16.34-.06.06-.15.1-.26.1s-.22-.04-.29-.13c-.07-.08-.1-.17-.1-.27,0-.37.33-1.25.98-2.67-.71.08-1.27.2-1.68.37-.13.05-.24.08-.32.08-.2,0-.29-.15-.29-.46,0-.18.07-.36.21-.53.27-.32.73-.8,1.38-1.44.8-.79,1.53-1.43,2.18-1.92.56-.42.97-.64,1.22-.64.11,0,.21.05.31.14.07.08.11.16.11.26,0,.12-.07.3-.22.54-.02.04-.19.31-.48.78-.38.61-.73,1.25-1.05,1.92.34-.02.57-.03.68-.03.29,0,.43.11.43.32,0,.19-.08.33-.23.41-.07.03-.28.05-.62.05-.1,0-.32,0-.64.02ZM359.86,191.41c.53-1.04,1.04-1.9,1.52-2.6-.51.29-1.13.79-1.85,1.49-.52.52-.94.97-1.26,1.35.71-.15,1.24-.23,1.6-.25Z"/><path class="cls-9" d="M364.72,190.61c-.21-.21-.37-.38-.45-.51-.13-.21-.2-.42-.2-.65,0-.51.26-.94.77-1.28.44-.3.92-.45,1.44-.45.38,0,.68.12.9.35.2.21.29.45.29.74,0,.43-.21.83-.63,1.2-.22.2-.54.43-.95.7.25.25.44.5.57.75s.19.49.19.72c0,.46-.15.91-.46,1.36-.33.48-.75.87-1.27,1.17-.52.3-1.05.45-1.57.45-.46,0-.84-.17-1.14-.5-.22-.25-.33-.53-.33-.83,0-.8.49-1.57,1.46-2.31.51-.4.97-.7,1.37-.92ZM365.21,191.1c-.59.3-1.08.63-1.49,1.01-.57.53-.85,1.04-.85,1.52,0,.28.09.49.26.62.18.12.37.18.56.18.27,0,.56-.08.86-.25.3-.17.56-.39.77-.66.31-.4.47-.82.47-1.25,0-.3-.09-.58-.28-.84-.04-.06-.11-.13-.2-.22-.07-.07-.11-.1-.11-.1ZM365.42,190.17c.29-.16.54-.34.75-.54.26-.26.4-.5.4-.73,0-.15-.05-.27-.14-.37-.1-.12-.24-.18-.4-.18-.28,0-.55.1-.79.3-.21.17-.31.37-.31.59,0,.16.09.36.27.61l.23.31Z"/><line class="cls-4" x1="256.04" y1="109.31" x2="256.04" y2="170.96"/><line class="cls-4" x1="310.25" y1="109.31" x2="310.25" y2="170.96"/><line class="cls-4" x1="364.46" y1="109.31" x2="364.46" y2="170.96"/><circle class="cls-7" cx="256.04" cy="170.96" r="7.2"/><circle class="cls-7" cx="310.25" cy="170.96" r="7.2"/><circle class="cls-7" cx="364.46" cy="170.96" r="7.2"/><path class="cls-9" d="M168.05,210.97c-.44.69-.85,1.46-1.23,2.32-.54,1.22-.81,2.13-.81,2.73,0,.17.04.3.11.39.07.09.18.13.32.13.34,0,.76-.32,1.24-.96.31-.4.58-.79.82-1.19.13-.23.27-.34.42-.34.09,0,.16.03.23.09.05.06.08.12.08.18,0,.25-.33.82-.99,1.69-.79,1.05-1.52,1.58-2.17,1.58-.35,0-.64-.16-.87-.48-.14-.21-.21-.5-.21-.87,0-.83.24-1.79.72-2.89.12-.27.44-.93.96-1.98-.18.05-.33.07-.42.07-.14,0-.27-.03-.38-.1-.15-.1-.23-.22-.23-.36,0-.17.1-.31.3-.41.05-.03.31-.07.76-.13.16-.03.4-.09.72-.19.24-.43.63-1.02,1.17-1.75.3-.41.51-.68.63-.8.16-.17.31-.26.43-.26.09,0,.18.05.27.14.08.09.12.18.12.27,0,.18-.19.53-.57,1.06-.25.34-.44.62-.56.83.76-.21,1.3-.31,1.63-.31.38,0,.56.16.56.47,0,.16-.06.27-.19.35-.07.04-.25.08-.53.1-.12,0-.63.12-1.55.39-.25.08-.5.15-.75.24Z"/><path class="cls-9" d="M172.11,211.43c.12,0,.21.04.29.13.05.08.08.15.08.23,0,.12-.1.33-.3.62-.71,1.1-1.22,2.01-1.52,2.72-.32.73-.6,1.48-.85,2.26-.11.34-.28.51-.51.51-.14,0-.25-.05-.33-.16-.08-.09-.11-.18-.11-.29,0-.21.22-.89.66-2.05.34-.92.9-1.93,1.66-3.04.25-.36.43-.6.55-.73.12-.13.25-.19.38-.19ZM174.06,207.62c.31,0,.46.16.46.47,0,.29-.15.6-.45.95-.29.33-.56.5-.83.5-.13,0-.24-.05-.32-.14-.08-.09-.12-.2-.12-.33,0-.33.18-.68.54-1.05.27-.27.51-.41.72-.41Z"/><path class="cls-9" d="M173.96,214.16c.57-.6,1.08-1.07,1.52-1.42.66-.51,1.11-.77,1.33-.77.11,0,.21.04.29.12.08.08.11.16.11.25,0,.13-.12.34-.36.64-.37.46-.63.86-.77,1.19,1.6-1.61,2.69-2.41,3.28-2.41.12,0,.23.04.32.11.1.08.14.18.14.31,0,.19-.15.44-.44.74-1.29,1.33-1.94,2.43-1.94,3.28,0,.35.06.6.18.75l.27.34c.05.06.08.14.08.24,0,.11-.04.21-.13.31-.1.11-.22.16-.35.16-.23,0-.43-.14-.62-.43-.23-.34-.35-.75-.35-1.21,0-.62.18-1.25.53-1.89.12-.23.33-.53.62-.9-.58.44-1.17,1.04-1.77,1.8-.41.52-.78,1.1-1.11,1.74-.16.31-.34.46-.55.46-.23,0-.35-.13-.35-.39,0-.28.19-.86.57-1.73.22-.5.49-1.03.81-1.58-1.17.9-2.05,2.13-2.64,3.67-.14.34-.33.51-.57.51-.11,0-.2-.04-.27-.12-.08-.08-.11-.18-.11-.3,0-.4.23-1.13.68-2.18.47-1.11,1-2.12,1.6-3,.41-.62.73-.93.95-.93.21,0,.31.11.31.33,0,.1-.13.33-.38.72-.44.72-.74,1.25-.88,1.6Z"/><path class="cls-9" d="M180.45,215.6v.18c0,.15.04.28.11.39.17.25.45.38.84.38.85,0,1.84-.66,2.96-1.97.2-.23.37-.34.5-.34.08,0,.14.04.21.11.04.05.06.11.06.15,0,.27-.33.72-.98,1.35-.51.5-1.06.91-1.64,1.22s-1.12.47-1.62.47-.92-.18-1.21-.53c-.2-.25-.3-.58-.3-1,0-1.16.54-2.29,1.63-3.39.88-.9,1.65-1.35,2.31-1.35.18,0,.34.05.48.16.18.14.27.33.27.56,0,.36-.17.81-.5,1.33-.69,1.09-1.73,1.85-3.12,2.27ZM180.67,214.8c.48-.16.85-.35,1.13-.55.48-.37.86-.79,1.14-1.25.1-.16.15-.31.15-.44,0-.14-.06-.21-.19-.21-.18,0-.43.13-.76.4-.59.47-1.08,1.16-1.47,2.05Z"/><path class="cls-5" d="M189.51,214.09c10.98-1.12,23.34-.21,44.18,1.14"/><path class="cls-9" d="M229.42,217.87c-.08-.14-.03-.33.12-.41l4.01-2.24-3.72-2.69c-.13-.1-.16-.28-.07-.42.1-.13.29-.16.42-.07l4.1,2.96c.08.06.13.16.12.26,0,.1-.06.19-.15.24l-4.42,2.46c-.05.03-.11.04-.16.04-.1,0-.19-.06-.24-.15Z"/><g class="cls-11"><use width="138.88" height="24.31" transform="translate(209.76 122.16)" xlink:href="#Executing"/></g><path class="cls-9" d="M337.96,91.71h-16.5l7.75,6.52v99.86c0,.28.22.5.5.5s.5-.22.5-.5v-99.86l7.75-6.52Z"/><path class="cls-9" d="M61.77,83.95c.52-.14.86.07,1,.62.13.48.07,1.02-.18,1.61-.19.45-.4.7-.62.76-.19.05-.31-.03-.36-.24-.03-.11-.03-.21,0-.29.01-.03.07-.13.18-.29.09-.14.17-.34.23-.6.05-.17.06-.31.03-.4-.03-.11-.1-.14-.22-.11-.14.04-.32.2-.55.49-.36.47-.66,1.14-.92,2-.26.9-.33,1.58-.21,2.03.04.15.12.26.23.35.17.14.36.18.57.12.42-.11.84-.5,1.27-1.16.37-.57.66-1.12.87-1.65.11-.29.22-.45.35-.49.07-.02.15,0,.22.05.07.05.11.11.13.18.06.24-.12.8-.57,1.68-.71,1.37-1.46,2.17-2.28,2.38-.49.13-.91.05-1.26-.23-.25-.21-.43-.49-.52-.84-.18-.69-.11-1.56.22-2.61.32-1.01.77-1.88,1.35-2.59.34-.42.67-.67.99-.75Z"/><path class="cls-9" d="M67.49,82.18c.54-.14.9.12,1.08.78.23.88.12,2.1-.34,3.66-.5,1.7-1.16,2.65-1.99,2.87-.38.1-.71,0-.98-.31-.14-.15-.24-.36-.31-.61-.22-.85-.17-1.84.15-2.99.3-1.06.75-1.94,1.35-2.65.35-.41.7-.66,1.05-.75ZM67.45,86.19c-.2-.09-.31-.17-.33-.24-.01-.05.05-.23.2-.52.42-.82.57-1.44.47-1.85-.01-.05-.04-.1-.09-.15-.08-.08-.17-.11-.29-.08-.21.06-.47.34-.77.86-.39.67-.65,1.32-.78,1.96-.15.73-.18,1.3-.06,1.72.03.11.09.2.17.27.12.1.24.13.37.09.32-.08.59-.41.83-.98.11-.24.18-.48.22-.72.04-.24.06-.36.05-.36Z"/><path class="cls-9" d="M70.9,84.59c.4-.73.77-1.31,1.11-1.76.51-.66.88-1.03,1.09-1.08.11-.03.21-.01.31.05.09.05.15.12.17.21.03.12-.03.36-.19.71-.24.54-.38.99-.44,1.35,1.14-1.96,1.99-3.02,2.56-3.17.12-.03.23-.02.34.03.11.05.19.14.22.26.05.19-.03.46-.24.83-.91,1.62-1.25,2.84-1.04,3.67.09.34.21.56.37.68l.34.26c.07.04.12.11.14.21.03.11.01.22-.05.33-.07.13-.17.21-.29.25-.22.06-.46-.03-.71-.26-.31-.27-.53-.63-.65-1.08-.16-.6-.15-1.25.03-1.96.06-.25.18-.59.37-1.03-.45.57-.87,1.3-1.25,2.2-.26.61-.47,1.26-.63,1.97-.07.34-.21.53-.42.59-.23.06-.37-.04-.44-.29-.07-.27-.03-.88.11-1.82.08-.54.21-1.12.38-1.73-.9,1.17-1.44,2.58-1.61,4.22-.05.37-.19.58-.42.64-.11.03-.2.01-.29-.05-.09-.06-.16-.15-.18-.26-.1-.39-.07-1.15.1-2.29.17-1.2.43-2.3.78-3.31.24-.71.47-1.09.68-1.15.2-.05.33.03.38.24.02.09-.04.36-.18.79-.25.81-.39,1.4-.44,1.77Z"/><path class="cls-9" d="M78.74,80.42c.23-.24.4-.42.51-.52.24-.2.48-.34.74-.41.29-.08.53-.05.72.08.19.13.33.36.42.7.12.46.11,1.06-.05,1.79-.23,1.16-.63,2.12-1.19,2.9-.47.66-.97,1.05-1.5,1.19-.29.08-.61.04-.95-.11-.42,2.07-.74,4.15-.95,6.24-.03.5-.15.77-.35.83-.1.03-.22-.01-.35-.12-.1-.07-.16-.17-.19-.28-.09-.36.04-1.63.39-3.83.55-3.38,1.17-6.24,1.85-8.56.14-.49.23-.82.28-1.01.12-.49.29-.76.5-.82.22-.06.37.05.44.32.04.15.02.38-.08.68-.1.38-.19.69-.25.91ZM77.59,85.12c.19.11.39.14.61.08.62-.16,1.15-.89,1.61-2.17.17-.48.28-.95.34-1.42.04-.37.04-.64,0-.82-.03-.12-.08-.2-.16-.25s-.17-.05-.29-.02c-.31.08-.63.4-.97.95-.32.53-.58,1.22-.78,2.08-.18.79-.3,1.31-.36,1.56Z"/><path class="cls-9" d="M83.38,81.3c-.06.57-.1,1.02-.12,1.37-.02.34,0,.58.03.7.04.17.15.23.3.19.24-.06.49-.37.74-.92.12-.27.28-.73.48-1.39.08-.26.2-.41.35-.45.17-.04.28.02.32.18.08.28-.1.95-.53,1.98-.44,1.09-.95,1.71-1.54,1.86-.25.07-.48.01-.7-.16-.15-.12-.26-.29-.31-.51-.1-.37-.12-.91-.07-1.62.05-.71.18-1.6.37-2.65.51-2.69,1.15-4.96,1.92-6.82.62-1.49,1.24-2.32,1.86-2.48.2-.05.38-.02.55.1.17.12.28.27.34.47.24.93-.18,2.68-1.26,5.27-.49,1.15-1.12,2.35-1.9,3.58-.2.32-.49.76-.84,1.3ZM83.67,79.54c1.07-1.54,1.9-3.35,2.51-5.44.32-1.08.43-1.77.35-2.08-.04-.15-.12-.2-.25-.17-.36.1-.83,1-1.41,2.7-.48,1.4-.88,3.06-1.21,4.99Z"/><path class="cls-9" d="M87.26,81.76l.05.18c.04.15.11.26.21.35.23.2.53.25.91.15.83-.22,1.61-1.1,2.36-2.66.13-.27.27-.42.4-.46.07-.02.15,0,.23.06.05.04.09.09.1.13.07.26-.13.78-.61,1.56-.37.61-.79,1.15-1.28,1.6-.48.45-.96.74-1.45.87-.5.13-.93.06-1.31-.21-.25-.19-.44-.49-.54-.9-.29-1.12-.06-2.35.71-3.7.62-1.1,1.25-1.73,1.88-1.9.17-.05.34-.03.51.04.21.09.34.25.4.48.09.35.04.82-.15,1.42-.39,1.23-1.2,2.23-2.44,2.99ZM87.27,80.93c.42-.28.74-.55.95-.82.37-.48.63-.98.78-1.5.06-.18.07-.34.04-.46-.04-.13-.12-.18-.24-.15-.17.04-.38.24-.63.58-.45.61-.75,1.39-.89,2.36Z"/><path class="cls-9" d="M94.5,75.06c-.25.78-.45,1.63-.6,2.55-.21,1.32-.24,2.26-.09,2.84.04.17.11.28.2.35.09.07.21.08.35.05.33-.09.65-.5.95-1.25.2-.46.36-.92.49-1.36.07-.25.17-.4.32-.43.09-.02.17-.01.24.03.07.05.11.1.13.16.06.24-.11.87-.53,1.89-.5,1.22-1.06,1.91-1.7,2.08-.34.09-.66,0-.97-.24-.19-.16-.33-.42-.43-.79-.21-.8-.23-1.79-.04-2.98.04-.29.18-1.01.43-2.16-.17.09-.3.15-.39.18-.14.04-.27.04-.39,0-.17-.05-.27-.15-.31-.29-.04-.17.02-.32.18-.47.05-.04.28-.15.7-.32.15-.07.37-.19.64-.37.12-.48.35-1.14.68-1.99.19-.47.32-.78.4-.93.11-.21.23-.33.35-.36.09-.02.18,0,.29.07.1.07.16.14.19.23.05.17-.05.56-.29,1.17-.16.4-.27.71-.33.95.68-.39,1.18-.63,1.5-.71.36-.1.58,0,.67.31.04.15,0,.28-.1.39-.06.06-.22.14-.49.24-.11.02-.58.28-1.4.77-.22.14-.45.28-.66.42Z"/><path class="cls-9" d="M97.79,78.99l.05.18c.04.15.11.26.21.35.23.2.53.25.91.15.83-.22,1.61-1.1,2.36-2.66.13-.27.27-.42.4-.46.07-.02.15,0,.23.06.05.04.09.09.1.13.07.26-.13.78-.61,1.56-.37.61-.79,1.15-1.28,1.6-.48.45-.96.74-1.45.87-.5.13-.93.06-1.31-.21-.25-.19-.44-.49-.54-.9-.29-1.12-.06-2.35.71-3.7.62-1.1,1.25-1.73,1.88-1.9.17-.04.34-.03.51.04.21.09.34.25.4.48.09.35.04.82-.15,1.42-.39,1.23-1.2,2.23-2.44,2.99ZM97.8,78.16c.42-.28.74-.55.95-.82.37-.48.63-.98.78-1.5.06-.18.07-.34.04-.47-.04-.13-.12-.18-.24-.15-.17.05-.38.24-.63.58-.45.61-.75,1.39-.89,2.36Z"/><path class="cls-9" d="M105.56,72.78c.3-1.56.6-2.92.92-4.1.31-1.14.53-1.87.67-2.18.15-.34.32-.54.52-.59.11-.03.21,0,.32.05.1.06.17.15.19.25.04.15,0,.44-.13.85-.55,1.8-1.02,3.6-1.4,5.4-.44,2.1-.53,3.62-.29,4.54.1.38.25.66.45.83.04.04.19.11.44.22.05.02.09.08.11.18.03.13.01.27-.06.4-.07.14-.17.22-.3.25-.15.04-.34,0-.58-.14-.33-.19-.57-.46-.72-.79-.06-.14-.15-.41-.28-.79-.37,1.43-.86,2.23-1.49,2.4-.36.1-.71-.03-1.03-.38-.22-.23-.37-.52-.46-.86-.27-1.03-.17-2.17.31-3.41.47-1.23,1.14-1.96,2-2.18.24-.06.5-.04.8.05ZM105.43,73.68c-.21-.07-.38-.09-.51-.06-.55.15-.99.63-1.31,1.44-.42,1.06-.52,2-.3,2.83.03.1.07.19.13.26.12.14.26.2.42.15.23-.06.45-.36.67-.9.29-.71.51-1.52.67-2.44.06-.31.12-.62.17-.93l.04-.21.02-.14Z"/><path class="cls-5" d="M93.37,86.55c1.57,12.24,21.78,13.66,18.72,31.61"/><path class="cls-9" d="M109.9,113.65c.15-.07.33,0,.39.16l1.8,4.22,3.06-3.42c.11-.12.3-.13.42-.02.12.11.13.3.02.42l-3.38,3.77c-.07.08-.17.11-.27.1-.1-.02-.19-.08-.23-.18l-1.99-4.65c-.02-.05-.03-.11-.02-.17.02-.1.08-.19.18-.23Z"/><path class="cls-9" d="M271.35,62.86c.42.02.74.11.94.27.21.16.3.39.29.7-.02.4-.18.79-.5,1.15-.3.34-.75.61-1.33.81-.32.1-.58.15-.8.14-.29-.01-.42-.15-.41-.4,0-.17.09-.3.26-.38.04-.02.28-.07.7-.14.25-.04.49-.15.71-.33.19-.15.29-.32.3-.5,0-.14-.03-.25-.11-.32-.08-.07-.2-.11-.36-.12-.4-.02-.84.12-1.33.43-.57.34-.86.76-.89,1.25-.01.36.15.81.49,1.35.38.6.56,1.1.54,1.5-.03.6-.31,1.06-.86,1.38-.34.2-.71.29-1.13.27-.66-.03-1.14-.28-1.47-.77-.22-.34-.33-.75-.31-1.2.02-.53.18-.97.47-1.32.19-.23.38-.34.57-.33.17,0,.25.08.25.22,0,.05-.04.14-.1.24-.17.29-.26.63-.28,1.02-.01.33.09.62.32.87.2.21.44.33.71.34.27.01.48-.07.64-.24.13-.14.2-.33.21-.57.01-.29-.14-.67-.44-1.14-.42-.65-.62-1.23-.6-1.74.03-.68.43-1.27,1.19-1.77.75-.47,1.52-.69,2.33-.66Z"/><path class="cls-9" d="M275.72,63.25c-.47.67-.92,1.43-1.33,2.26-.59,1.19-.9,2.09-.93,2.69,0,.17.02.3.09.39.07.09.17.14.32.15.34.01.77-.29,1.28-.91.32-.38.61-.77.87-1.15.14-.22.28-.33.43-.32.09,0,.16.04.22.1.05.06.08.13.07.19-.01.25-.37.8-1.07,1.65-.84,1.02-1.58,1.51-2.24,1.48-.35-.01-.63-.19-.85-.52-.13-.21-.19-.5-.18-.88.04-.83.32-1.78.84-2.86.13-.27.48-.91,1.05-1.94-.19.04-.33.06-.42.05-.14,0-.27-.04-.38-.12-.15-.1-.22-.23-.21-.37,0-.17.11-.3.31-.4.06-.03.31-.06.76-.1.17-.02.41-.07.73-.16.26-.42.67-.99,1.24-1.7.32-.4.54-.65.66-.77.17-.16.32-.24.44-.24.09,0,.18.05.26.15.08.09.12.18.11.27,0,.18-.21.52-.62,1.03-.27.33-.47.6-.6.81.77-.17,1.31-.25,1.64-.24.38.02.56.18.54.5,0,.16-.08.27-.21.34-.07.04-.25.06-.54.08-.12-.01-.64.09-1.56.32-.26.06-.51.13-.76.2Z"/><path class="cls-9" d="M279.76,63.88c.12,0,.21.05.28.15.05.08.08.15.07.23,0,.12-.11.32-.32.6-.76,1.07-1.3,1.95-1.63,2.65-.35.72-.67,1.46-.95,2.22-.12.34-.3.5-.53.49-.14,0-.24-.07-.32-.18-.07-.09-.1-.19-.1-.29,0-.2.26-.88.74-2.02.38-.9.98-1.89,1.79-2.96.26-.35.46-.59.58-.7.13-.12.26-.18.39-.18ZM281.87,60.17c.31.01.45.18.44.49-.01.29-.18.6-.49.93-.3.32-.58.48-.85.47-.13,0-.23-.06-.31-.16-.08-.09-.11-.2-.11-.33.01-.33.21-.67.59-1.02.28-.26.52-.39.73-.38Z"/><path class="cls-9" d="M281.41,66.69c-.23.52-.4.95-.52,1.27-.12.32-.18.55-.18.68,0,.17.07.26.23.27.25.01.57-.21.98-.66.19-.22.48-.61.87-1.18.15-.23.31-.34.47-.33.18,0,.26.1.25.27-.01.29-.38.87-1.09,1.74-.74.91-1.42,1.35-2.02,1.32-.26-.01-.47-.13-.62-.36-.11-.16-.16-.36-.15-.58.02-.38.16-.91.42-1.57.26-.67.64-1.47,1.14-2.42,1.28-2.42,2.57-4.4,3.86-5.94,1.03-1.24,1.87-1.85,2.51-1.82.21,0,.37.09.49.26.13.16.19.35.18.55-.04.96-.96,2.51-2.77,4.66-.81.96-1.77,1.91-2.87,2.85-.29.25-.69.58-1.19,1ZM282.2,65.1c1.47-1.15,2.81-2.64,4.01-4.45.62-.94.94-1.56.95-1.88,0-.15-.05-.23-.18-.23-.38-.02-1.09.7-2.15,2.16-.87,1.19-1.75,2.66-2.63,4.4Z"/><path class="cls-9" d="M285.91,66.89c-.23.52-.4.95-.52,1.27s-.18.55-.18.68c0,.17.07.26.24.27.25.01.57-.21.98-.66.19-.22.48-.61.87-1.18.15-.23.31-.34.47-.33.18,0,.26.1.25.27-.01.29-.38.87-1.09,1.74-.74.91-1.42,1.35-2.02,1.32-.26-.01-.47-.13-.62-.36-.11-.16-.16-.36-.15-.58.02-.38.16-.91.42-1.57.26-.67.64-1.47,1.14-2.42,1.28-2.42,2.57-4.4,3.86-5.94,1.03-1.24,1.87-1.85,2.51-1.82.21,0,.37.09.49.26.13.16.19.35.18.55-.04.96-.96,2.51-2.77,4.66-.81.96-1.77,1.91-2.87,2.85-.29.25-.69.58-1.19,1ZM286.71,65.29c1.47-1.15,2.81-2.64,4.01-4.45.62-.94.94-1.56.95-1.88,0-.15-.05-.23-.18-.23-.38-.02-1.09.7-2.15,2.16-.87,1.19-1.75,2.66-2.63,4.4Z"/><path class="cls-9" d="M294.72,68.7v.18c-.01.15.02.28.09.39.16.26.43.4.82.42.85.04,1.87-.58,3.04-1.84.21-.22.38-.32.52-.32.08,0,.14.04.2.12.04.06.06.11.05.16-.01.27-.36.7-1.04,1.31-.53.48-1.1.86-1.69,1.15-.59.29-1.14.42-1.64.4-.51-.02-.91-.22-1.19-.58-.19-.25-.27-.59-.25-1.02.05-1.15.64-2.26,1.77-3.32.92-.86,1.71-1.28,2.36-1.25.18,0,.33.07.47.18.17.15.25.34.24.58-.02.36-.2.8-.56,1.31-.74,1.06-1.81,1.77-3.21,2.13ZM294.98,67.91c.49-.14.87-.31,1.15-.5.49-.35.89-.75,1.19-1.2.11-.16.17-.3.17-.43,0-.14-.06-.21-.19-.21-.18,0-.44.11-.78.37-.61.45-1.12,1.11-1.55,1.99Z"/><path class="cls-9" d="M301.12,67.94c-.01-.21-.01-.42,0-.62,0-.18.02-.41.05-.69.04-.46.06-.72.07-.8.03-.43.08-.72.17-.86.11-.18.26-.27.45-.26.12,0,.22.05.3.15.08.11.12.24.12.38,0,.1-.02.23-.05.41-.03.17-.05.38-.06.64,0,.1,0,.26-.01.48.14-.15.44-.46.89-.92.71-.74,1.19-1.1,1.43-1.09.08,0,.14.04.19.11.05.08.08.16.07.25,0,.17-.12.34-.34.52-.89.73-1.66,1.51-2.31,2.34-.01.11-.02.18-.02.22-.02.52-.03.88-.02,1.08.02.27.13.42.33.42.21,0,.48-.19.83-.6.42-.5.74-.91.93-1.22.19-.29.38-.44.55-.43.14,0,.21.09.2.26-.01.31-.37.9-1.07,1.77-.4.49-.75.86-1.05,1.11-.33.27-.63.39-.92.38-.4-.02-.64-.28-.71-.79-.04-.25-.07-.64-.07-1.16-.14.15-.43.48-.87.99-.66.77-1.11,1.15-1.35,1.14-.21,0-.31-.19-.29-.55,0-.13.06-.25.15-.35.06-.07.21-.21.46-.4.46-.38.87-.76,1.22-1.15.37-.41.62-.67.74-.8Z"/><path class="cls-9" d="M305.74,69.18v.18c-.01.15.02.28.09.39.16.26.43.4.82.42.85.04,1.87-.58,3.04-1.84.21-.22.38-.32.52-.32.08,0,.14.04.2.12.04.06.06.11.05.16-.01.27-.36.7-1.04,1.31-.53.48-1.1.86-1.69,1.15s-1.14.42-1.64.4c-.51-.02-.91-.22-1.19-.58-.19-.25-.27-.59-.25-1.02.05-1.15.64-2.26,1.77-3.32.92-.86,1.71-1.28,2.36-1.25.18,0,.33.07.47.18.17.15.25.34.24.58-.02.36-.2.8-.56,1.31-.74,1.06-1.81,1.77-3.21,2.13ZM306,68.39c.49-.14.87-.31,1.15-.5.49-.35.89-.75,1.19-1.2.11-.16.17-.3.17-.43,0-.14-.06-.21-.19-.21-.18,0-.44.11-.78.37-.61.45-1.12,1.11-1.55,1.99Z"/><path class="cls-9" d="M314.59,65.16c.54.02.8.32.77.88-.02.5-.24.99-.65,1.48-.32.37-.59.55-.81.54-.19,0-.28-.12-.27-.34,0-.12.04-.21.09-.27.02-.03.11-.1.26-.22.13-.11.26-.28.4-.51.1-.15.15-.28.15-.37,0-.11-.05-.17-.18-.17-.14,0-.37.1-.67.31-.48.34-.97.89-1.47,1.64-.51.79-.78,1.41-.8,1.87,0,.15.03.29.12.41.12.18.29.28.51.29.43.02.95-.23,1.56-.73.52-.44.96-.88,1.32-1.32.19-.24.35-.36.48-.36.08,0,.14.04.2.11.05.07.08.14.07.21-.01.25-.36.73-1.04,1.43-1.08,1.1-2.04,1.64-2.88,1.6-.5-.02-.88-.22-1.13-.59-.18-.27-.26-.59-.25-.96.03-.71.36-1.52.99-2.43.61-.87,1.29-1.56,2.06-2.08.45-.3.84-.44,1.17-.42Z"/><path class="cls-9" d="M319.27,70.16c-.31.4-.58.71-.82.95-.42.42-.82.62-1.21.61-.33-.01-.59-.18-.76-.48-.12-.22-.17-.47-.16-.77.04-.88.46-1.88,1.26-2.98.37-.52.73-.91,1.09-1.17.28-.21.5-.32.67-.31.1,0,.18.05.26.13.06.08.1.15.09.23,0,.13-.14.34-.41.62-.6.65-1.05,1.25-1.37,1.81-.37.65-.56,1.16-.58,1.54,0,.1.01.17.06.22.04.05.1.08.19.08.35.01.85-.46,1.52-1.43.34-.51.64-1.07.9-1.69.14-.34.31-.63.52-.89.2-.23.39-.34.58-.33.1,0,.19.05.27.14.08.1.12.21.12.32-.01.25-.27.79-.78,1.63-.35.58-.53,1.07-.54,1.46-.02.42.08.79.29,1.1.06.08.24.22.55.41.15.1.22.24.21.44,0,.12-.06.23-.17.31-.11.08-.24.12-.39.12-.34-.01-.65-.17-.91-.45-.24-.26-.39-.62-.44-1.09-.01-.06-.02-.24-.03-.53Z"/><path class="cls-9" d="M325.83,65.4c-.47.67-.92,1.43-1.33,2.26-.59,1.19-.9,2.09-.93,2.69,0,.17.02.3.09.39.07.09.17.14.32.15.34.01.77-.29,1.28-.91.32-.38.61-.77.87-1.15.14-.22.28-.33.43-.32.09,0,.16.04.22.1.05.06.08.13.07.19-.01.25-.37.8-1.07,1.65-.84,1.02-1.58,1.51-2.24,1.48-.35-.01-.63-.19-.85-.52-.13-.21-.19-.5-.18-.88.04-.83.32-1.78.84-2.86.13-.27.48-.91,1.05-1.94-.19.04-.33.06-.42.05-.14,0-.27-.04-.38-.12-.15-.1-.22-.22-.21-.37,0-.17.11-.3.31-.4.06-.02.31-.06.76-.1.17-.02.41-.07.73-.16.26-.42.67-.99,1.24-1.7.32-.4.54-.65.66-.77.17-.16.32-.24.44-.24.09,0,.18.06.26.15.08.09.12.18.11.27,0,.18-.21.52-.62,1.03-.27.33-.47.6-.6.81.77-.17,1.31-.25,1.64-.24.38.02.56.18.54.5,0,.16-.08.27-.21.34-.07.04-.25.06-.54.08-.12-.01-.64.1-1.56.32-.26.06-.51.13-.76.2Z"/><path class="cls-9" d="M329.87,66.04c.12,0,.21.05.28.15.05.08.08.15.07.23,0,.12-.11.32-.32.6-.76,1.07-1.3,1.95-1.63,2.65-.35.72-.67,1.46-.95,2.22-.12.34-.3.5-.53.49-.14,0-.24-.06-.32-.18-.07-.09-.1-.19-.1-.29,0-.2.26-.88.74-2.02.38-.9.98-1.89,1.79-2.96.26-.35.46-.59.58-.7.13-.12.26-.18.39-.18ZM331.98,62.32c.31.01.45.18.44.49-.01.29-.18.6-.49.93-.3.32-.59.48-.85.47-.13,0-.23-.06-.31-.16-.08-.09-.11-.2-.11-.33.01-.33.21-.67.59-1.02.28-.26.52-.39.74-.38Z"/><path class="cls-9" d="M331.73,68.74c.09-.08.18-.16.27-.24,1.49-1.33,2.47-1.99,2.96-1.97.27.01.39.16.38.46,0,.21-.14.44-.39.71-1.37,1.47-2.08,2.78-2.13,3.94-.02.38.07.74.26,1.09.09.16.13.29.13.38,0,.08-.05.16-.13.23-.09.09-.2.14-.32.13-.28-.01-.51-.2-.68-.56-.17-.34-.25-.75-.22-1.23.04-.92.43-1.93,1.18-3.02-.96.55-1.86,1.57-2.73,3.04-.22.35-.45.52-.68.51-.12,0-.21-.05-.28-.14-.09-.1-.13-.22-.13-.38.02-.37.48-1.32,1.38-2.84.49-.83.87-1.43,1.14-1.8.28-.37.5-.54.69-.54.09,0,.17.05.25.13.09.1.13.21.13.33,0,.15-.12.36-.33.63-.3.4-.55.77-.75,1.11Z"/><path class="cls-9" d="M338.18,71.66c.75-.5,1.32-.96,1.69-1.38.55-.61.95-1.11,1.18-1.5.12-.17.23-.26.35-.25.16,0,.24.09.24.25,0,.18-.15.49-.43.91-.86,1.28-2.12,2.37-3.77,3.28-.82,1.54-1.42,2.58-1.8,3.12-1.01,1.43-1.92,2.13-2.76,2.1-.44-.02-.74-.2-.92-.55-.1-.2-.15-.43-.13-.68.05-1.07.78-2.07,2.2-3,.23-.15,1.13-.63,2.72-1.42.33-.62.58-1.11.76-1.47-.75.72-1.36,1.07-1.83,1.05-.29-.01-.52-.17-.67-.48-.09-.2-.14-.41-.13-.62.02-.49.25-1.12.69-1.87.62-1.09,1.35-1.94,2.18-2.55.7-.51,1.31-.75,1.83-.73.27.01.49.12.67.33.12.13.18.33.17.58-.01.31-.14.7-.37,1.15.15.16.22.27.22.35,0,.05-.04.12-.11.2-.2.24-.51.71-.95,1.38-.39.59-.73,1.2-1.03,1.81ZM336.09,73.68c-.92.34-1.74.89-2.46,1.64-.34.35-.58.72-.74,1.12-.05.12-.07.22-.07.3,0,.09.01.17.05.24.07.13.17.19.31.2.42.02.94-.42,1.54-1.3.53-.76.98-1.5,1.37-2.2ZM338.21,69.29c-.09-.11-.14-.18-.13-.22,0-.06.06-.14.16-.23.36-.31.65-.64.87-.99.18-.27.28-.49.28-.64,0-.18-.07-.28-.24-.29-.29-.01-.73.25-1.3.79-.68.63-1.21,1.35-1.61,2.16-.2.4-.3.71-.31.93,0,.12.02.22.07.28.05.06.13.1.23.1.24,0,.58-.22,1.04-.69.29-.3.53-.6.74-.89.14-.19.2-.29.2-.3Z"/><path class="cls-5" d="M304.18,77.28c1.57,12.24-19.93,21.26-24.07,39.43"/><path class="cls-9" d="M278.43,112.01c.16-.05.33.04.38.2l1.38,4.38,3.38-3.1c.12-.11.31-.1.42.02.11.12.1.31-.02.42l-3.73,3.42c-.08.07-.18.1-.28.07s-.18-.1-.21-.2l-1.52-4.83c-.02-.06-.02-.11,0-.17.03-.1.1-.18.2-.21Z"/><path class="cls-5" d="M207.38,133.33c-8.79-1.44-23.8,6.15-44.33,1.54"/><path class="cls-9" d="M203.76,129.89c-.11.12-.1.31.03.42l3.45,3.02-4.2,1.85c-.15.07-.22.24-.15.4.07.15.25.22.4.15l4.63-2.04c.09-.04.16-.13.18-.23.02-.1-.02-.2-.1-.27l-3.81-3.33s-.1-.06-.15-.07c-.1-.01-.2.02-.27.1Z"/><path class="cls-9" d="M167.65,132.84c.06.15-.02.33-.17.39l-4.28,1.65,3.3,3.19c.12.12.12.31,0,.42-.11.12-.31.12-.42,0l-3.64-3.51c-.07-.07-.11-.18-.09-.28s.09-.18.19-.22l4.72-1.82c.06-.02.11-.02.17-.01.1.02.18.09.22.19Z"/><path class="cls-9" d="M171.3,67.23c.64-.75,1.38-1.48,2.22-2.21.3-.26.63-.5.97-.73.17-.11.28-.17.33-.17.1,0,.21.07.32.21.07.08.1.15.1.22,0,.12-.12.3-.37.52-.67.58-1,1.02-.99,1.3,0,.16.1.23.28.22.29-.01.79-.28,1.48-.8.12-.09.22-.13.3-.14.05,0,.11.02.17.07.06.06.1.12.1.19,0,.21-.26.53-.82.98-.58.48-1.14.73-1.68.76-.22,0-.42-.04-.61-.15-.16-.09-.25-.25-.26-.5,0-.17.05-.37.19-.59-.52.41-1.13,1.09-1.81,2.05-.4.59-.78,1.32-1.16,2.18-.14.32-.33.49-.56.5-.25.01-.38-.1-.4-.34-.01-.23.16-.86.51-1.89.52-1.53,1.08-2.72,1.68-3.58.37-.53.69-.8.96-.81.09,0,.17.02.25.07.09.06.14.15.14.25,0,.1-.06.25-.18.44-.03.04-.2.27-.51.71-.29.42-.51.83-.65,1.23Z"/><path class="cls-9" d="M176.71,68.38v.18c.02.15.06.28.14.38.18.24.47.36.86.34.85-.04,1.81-.74,2.87-2.1.19-.23.35-.35.49-.36.08,0,.15.03.21.1.04.05.07.1.07.15.01.27-.29.73-.92,1.4-.49.52-1.02.95-1.58,1.29-.57.34-1.1.52-1.6.55-.51.02-.92-.14-1.23-.48-.21-.24-.32-.57-.34-.99-.05-1.15.44-2.31,1.47-3.47.84-.94,1.59-1.43,2.24-1.46.18,0,.34.04.49.14.18.13.28.32.29.55.02.36-.13.81-.44,1.35-.64,1.12-1.64,1.93-3.01,2.41ZM176.9,67.58c.47-.19.84-.39,1.1-.61.46-.39.82-.83,1.08-1.3.09-.17.14-.32.13-.45,0-.14-.08-.2-.21-.2-.18,0-.42.15-.74.43-.57.5-1.02,1.2-1.37,2.12Z"/><path class="cls-9" d="M183.23,65.21c.94-2.3,1.88-4.18,2.81-5.64.63-.99,1.16-1.71,1.58-2.17.29-.32.55-.49.77-.5.08,0,.15.02.22.07.1.06.15.15.16.27,0,.15-.1.37-.33.66-1.43,1.79-2.7,3.92-3.81,6.38,1.07-.47,1.83-.71,2.26-.73.31-.01.58.05.79.2.22.15.33.34.34.55,0,.11-.03.21-.1.3-.1.13-.23.21-.39.21-.12,0-.35-.08-.7-.25-.1-.04-.22-.06-.37-.05-.68.03-1.49.38-2.42,1.05.42.17.72.41.91.72.25.43.39.97.42,1.62.08,1.67-.34,3.46-1.25,5.37-.39.81-.78,1.43-1.17,1.86-.41.46-.84.71-1.29.73-.34.02-.62-.13-.85-.45-.18-.27-.29-.63-.31-1.11-.05-1.01.27-2.55.94-4.61.08-.25.33-.89.73-1.93.1-.26.2-.53.3-.83-.05.02-.1.03-.15.03-.18,0-.28-.09-.29-.29-.02-.36.38-.84,1.21-1.44ZM183.64,66.53c-.35.74-.8,1.93-1.35,3.57-.57,1.68-.84,2.97-.8,3.88,0,.18.06.33.16.46.1.13.22.19.35.19.42-.02.95-.75,1.57-2.21.71-1.62,1.03-3.09.97-4.41-.02-.51-.14-.89-.35-1.14-.08-.1-.26-.21-.54-.34Z"/><path class="cls-9" d="M188.82,66.42c.64-.75,1.38-1.48,2.22-2.21.3-.26.63-.5.97-.73.17-.11.28-.17.33-.17.1,0,.21.07.32.21.07.08.1.15.1.22,0,.12-.12.3-.37.52-.67.58-1,1.02-.99,1.3,0,.16.1.23.28.22.29-.01.79-.28,1.48-.8.12-.09.22-.13.3-.14.05,0,.11.02.17.07.06.06.1.12.1.19,0,.21-.26.53-.82.98-.58.48-1.14.73-1.68.76-.22,0-.42-.04-.61-.15-.16-.09-.25-.25-.26-.5,0-.17.05-.37.19-.59-.52.41-1.13,1.09-1.81,2.05-.4.59-.78,1.32-1.16,2.18-.14.32-.33.49-.56.5-.25.01-.38-.1-.4-.34-.01-.23.16-.86.51-1.89.52-1.53,1.08-2.72,1.68-3.58.37-.53.69-.8.96-.81.09,0,.17.02.25.07.09.06.14.15.14.25,0,.1-.06.25-.18.44-.03.04-.2.27-.51.71-.29.42-.51.83-.65,1.23Z"/><path class="cls-9" d="M196.46,67.75c-.21.41-.41.75-.62,1.03-.41.55-.82.84-1.24.86-.37.02-.66-.14-.88-.48-.14-.22-.22-.48-.23-.79-.04-.76.16-1.61.6-2.54.49-1.04,1.09-1.85,1.82-2.43.47-.38.94-.58,1.4-.6.29-.01.53.06.73.23.17.15.26.32.27.52,0,.15-.04.36-.14.63.11.14.17.26.17.37,0,.14-.08.38-.25.72-.18.34-.36.8-.53,1.36-.18.6-.27,1.07-.25,1.43.01.29.11.52.29.69.05.05.19.12.43.22.17.07.27.21.28.42,0,.13-.04.24-.13.32-.1.09-.22.14-.35.15-.37.02-.69-.13-.98-.45-.23-.26-.36-.59-.37-.99,0-.14,0-.36,0-.68ZM197.59,64.32c-.09-.15-.18-.25-.28-.32-.1-.07-.2-.1-.31-.09-.52.02-1.06.5-1.63,1.44-.62,1.04-.92,1.9-.88,2.6,0,.17.05.3.12.38.07.09.17.12.3.12.33-.01.69-.38,1.1-1.1.23-.39.51-.97.83-1.73.22-.5.38-.83.48-.99.05-.08.14-.19.28-.31Z"/><path class="cls-9" d="M202.37,62.8c.54-.03.82.25.85.81.02.5-.15,1.01-.51,1.53-.28.4-.54.6-.76.61-.19,0-.29-.1-.3-.32,0-.12.02-.21.07-.28.02-.03.1-.11.24-.25.12-.12.24-.3.35-.54.08-.16.12-.29.12-.39,0-.11-.07-.16-.19-.16-.14,0-.36.13-.64.37-.45.38-.89.97-1.31,1.77-.44.83-.65,1.47-.63,1.94,0,.15.06.28.15.39.14.17.32.25.53.24.43-.02.93-.31,1.49-.87.48-.48.88-.96,1.2-1.43.17-.26.31-.39.44-.4.08,0,.14.03.21.09.06.07.09.13.09.2.01.25-.29.76-.9,1.52-.98,1.2-1.89,1.81-2.73,1.85-.51.02-.9-.14-1.18-.49-.2-.26-.31-.57-.33-.93-.03-.71.22-1.55.77-2.51.53-.92,1.15-1.67,1.87-2.25.42-.33.8-.51,1.12-.52Z"/><path class="cls-9" d="M208.14,62.29c-.41.71-.79,1.5-1.12,2.37-.48,1.24-.71,2.16-.68,2.76,0,.17.05.3.13.38.08.08.18.12.33.12.34-.02.74-.36,1.19-1.02.29-.41.54-.82.76-1.23.12-.23.25-.35.4-.36.09,0,.17.02.23.08.06.06.09.12.09.18.01.25-.29.83-.92,1.74-.74,1.09-1.44,1.65-2.1,1.68-.35.02-.65-.13-.89-.44-.15-.2-.24-.49-.26-.86-.04-.83.16-1.8.58-2.92.1-.28.39-.95.87-2.02-.18.06-.32.09-.42.09-.14,0-.27-.02-.38-.08-.15-.09-.24-.21-.24-.35,0-.17.08-.31.28-.42.05-.03.3-.09.75-.17.16-.04.4-.11.71-.23.22-.44.58-1.04,1.09-1.81.28-.42.48-.7.59-.83.16-.18.3-.27.42-.28.09,0,.18.04.27.13.09.08.13.17.14.26,0,.18-.17.54-.52,1.08-.24.35-.41.64-.53.86.75-.24,1.29-.37,1.61-.38.38-.02.57.13.58.45,0,.16-.05.28-.18.36-.07.04-.24.09-.53.13-.12,0-.63.15-1.53.46-.25.09-.5.18-.74.27Z"/><path class="cls-9" d="M213.46,62.03c.56-.03.86.3.89.99.04.91-.32,2.08-1.1,3.51-.84,1.55-1.69,2.35-2.55,2.39-.4.02-.7-.15-.9-.51-.1-.18-.16-.4-.17-.66-.04-.87.22-1.84.77-2.89.52-.97,1.14-1.74,1.87-2.3.43-.33.83-.5,1.19-.52ZM212.58,65.95c-.18-.13-.27-.23-.27-.3,0-.05.1-.21.31-.47.58-.72.86-1.29.84-1.71,0-.05-.02-.11-.06-.16-.06-.1-.15-.15-.26-.14-.22.01-.53.24-.93.68-.52.57-.91,1.15-1.17,1.75-.3.68-.45,1.24-.42,1.67,0,.12.04.22.11.3.09.12.21.17.35.17.33-.02.67-.28,1.02-.79.16-.21.28-.43.37-.65.09-.22.13-.34.13-.34Z"/><path class="cls-9" d="M216.39,65.14c.64-.75,1.38-1.48,2.22-2.21.3-.26.63-.5.97-.73.17-.11.28-.17.33-.17.1,0,.21.07.32.21.07.08.1.15.1.22,0,.12-.12.3-.37.52-.67.59-1,1.02-.99,1.3,0,.16.1.23.28.22.29-.01.79-.28,1.48-.8.12-.09.22-.13.3-.14.05,0,.11.02.17.07.06.06.1.12.1.19,0,.21-.26.53-.82.98-.58.48-1.14.73-1.68.75-.22.01-.42-.04-.61-.15-.16-.09-.25-.26-.26-.5,0-.17.05-.37.19-.59-.52.41-1.13,1.09-1.81,2.05-.4.59-.78,1.32-1.16,2.18-.14.32-.33.49-.56.5-.25.01-.38-.1-.4-.34-.01-.23.16-.86.51-1.89.52-1.53,1.08-2.72,1.68-3.58.37-.53.69-.8.96-.81.09,0,.17.02.25.07.09.06.14.15.14.25,0,.1-.06.25-.18.44-.03.04-.2.27-.51.71-.29.42-.51.83-.65,1.23Z"/><path class="cls-9" d="M224.64,65.26c-.57.75-1.03,1.3-1.38,1.67-.69.72-1.27,1.08-1.75,1.11-.23.01-.42-.07-.56-.23-.11-.13-.17-.3-.18-.5-.03-.74.36-1.74,1.17-3,.83-1.28,1.44-1.93,1.84-1.95.11,0,.21.04.29.13.08.07.12.16.13.26,0,.15-.03.28-.1.4-.07.12-.28.38-.63.78-.37.42-.71.88-1.02,1.36-.35.55-.52.95-.51,1.19,0,.14.08.21.21.21.27-.01.77-.41,1.49-1.19.45-.49.8-.91,1.05-1.24.05-.07.28-.41.67-1.01.36-.53.58-.84.66-.94.19-.25.38-.38.56-.38.11,0,.21.04.3.13.09.09.13.19.14.3,0,.2-.11.54-.36,1.01-.3.58-.58,1.12-.83,1.63-.39.78-.69,1.48-.9,2.09.42-.27.81-.6,1.16-.99.59-.64.94-1.12,1.06-1.42.12-.28.24-.42.38-.43.19,0,.29.08.3.27.02.36-.27.92-.85,1.66-.7.89-1.57,1.67-2.62,2.32-.51,1.41-1,2.58-1.47,3.51-.88,1.72-1.83,2.6-2.84,2.65-.42.02-.76-.12-1.03-.43-.21-.24-.32-.54-.34-.92-.05-1.07.65-2.19,2.09-3.37.42-.35,1.05-.79,1.89-1.32.34-.21.6-.39.8-.52.11-.32.28-.75.5-1.28.25-.57.48-1.09.67-1.55ZM222.94,69.37c-.71.4-1.42.96-2.15,1.68-.73.74-1.08,1.41-1.06,2.02,0,.13.05.24.13.32.11.12.24.17.41.17.51-.02,1.05-.59,1.63-1.69.09-.18.35-.79.76-1.81.09-.21.18-.44.29-.69Z"/><path class="cls-9" d="M181.84,78.59c.27-.19.47-.32.61-.4.27-.15.54-.23.81-.24.3-.01.53.06.69.23.16.17.25.42.26.77.02.48-.12,1.06-.42,1.74-.47,1.08-1.06,1.94-1.77,2.59-.6.54-1.17.82-1.72.85-.3.01-.6-.09-.91-.31-.85,1.93-1.59,3.9-2.24,5.9-.13.48-.31.72-.52.73-.1,0-.21-.06-.32-.19-.08-.09-.12-.2-.13-.31-.02-.37.38-1.59,1.19-3.66,1.25-3.19,2.45-5.85,3.6-7.98.24-.45.4-.76.48-.93.22-.46.44-.69.67-.7.23-.01.35.12.37.4,0,.16-.06.37-.22.65-.18.35-.33.63-.43.84ZM179.73,82.94c.16.15.35.22.57.21.63-.03,1.31-.63,2.03-1.79.27-.43.48-.87.63-1.31.12-.35.18-.62.17-.8,0-.12-.04-.21-.1-.27s-.15-.09-.28-.08c-.32.01-.7.26-1.15.72-.42.45-.82,1.07-1.2,1.87-.34.73-.57,1.22-.68,1.45Z"/><path class="cls-9" d="M185.38,81.9v.18c.02.15.06.28.14.38.18.25.47.36.86.34.85-.04,1.81-.74,2.87-2.1.19-.23.35-.36.49-.36.08,0,.15.03.21.1.04.05.07.1.07.15.01.27-.29.73-.92,1.4-.49.52-1.02.95-1.58,1.29-.57.34-1.1.52-1.6.55-.51.02-.92-.14-1.23-.48-.21-.24-.32-.57-.34-.99-.05-1.15.44-2.31,1.47-3.47.84-.94,1.59-1.43,2.24-1.46.18,0,.34.04.49.14.18.13.28.32.29.55.02.36-.13.81-.44,1.35-.64,1.12-1.64,1.93-3.01,2.41ZM185.57,81.09c.47-.19.84-.39,1.1-.61.46-.39.82-.83,1.08-1.3.09-.17.14-.32.13-.45,0-.14-.08-.2-.21-.2-.18,0-.42.15-.74.43-.57.5-1.02,1.2-1.37,2.12Z"/><path class="cls-9" d="M192.14,80.18c.64-.75,1.38-1.48,2.22-2.21.3-.26.63-.5.97-.73.17-.11.28-.17.33-.17.1,0,.21.07.32.21.07.08.1.15.1.22,0,.12-.12.3-.37.52-.67.59-1,1.02-.99,1.3,0,.16.1.23.28.22.29-.01.79-.28,1.48-.8.12-.09.22-.13.3-.14.05,0,.11.02.17.07.06.06.1.12.1.19,0,.2-.26.53-.82.98-.58.48-1.14.73-1.68.76-.22,0-.42-.04-.61-.15-.16-.09-.25-.26-.26-.5,0-.17.05-.37.19-.59-.52.41-1.13,1.09-1.81,2.06-.4.59-.78,1.32-1.16,2.18-.14.32-.33.49-.56.5-.25.01-.38-.1-.4-.34-.01-.23.16-.86.51-1.89.52-1.53,1.08-2.72,1.68-3.58.37-.53.69-.8.96-.81.09,0,.17.02.25.07.09.06.14.15.14.25,0,.1-.06.25-.18.44-.03.04-.2.27-.51.71-.29.42-.5.83-.65,1.23Z"/><path class="cls-9" d="M199.24,77.08c.12,0,.21.03.29.12.06.07.09.15.09.22,0,.12-.08.33-.27.63-.66,1.13-1.12,2.06-1.39,2.78-.29.75-.54,1.51-.75,2.29-.09.35-.26.53-.49.54-.14,0-.25-.04-.34-.15-.08-.09-.12-.18-.12-.28,0-.2.18-.9.56-2.08.3-.93.81-1.97,1.52-3.11.23-.37.4-.62.52-.75.12-.14.24-.21.37-.21ZM201.01,73.19c.31-.01.47.14.48.45.01.29-.12.61-.41.97-.27.35-.54.53-.81.54-.13,0-.24-.04-.32-.13-.09-.08-.13-.19-.14-.32-.01-.33.15-.68.5-1.07.25-.29.49-.43.7-.44Z"/><path class="cls-9" d="M203.25,76.42c.56-.03.86.3.89.99.04.91-.32,2.08-1.1,3.51-.84,1.55-1.69,2.35-2.55,2.39-.4.02-.69-.15-.9-.51-.1-.18-.16-.4-.17-.66-.04-.87.22-1.84.77-2.89.52-.98,1.14-1.74,1.87-2.3.43-.33.83-.5,1.19-.52ZM202.37,80.34c-.18-.13-.27-.23-.27-.31,0-.05.1-.21.31-.47.58-.72.86-1.29.84-1.71,0-.05-.02-.11-.06-.16-.06-.1-.15-.15-.26-.14-.22.01-.53.24-.93.68-.52.57-.91,1.15-1.17,1.75-.3.68-.45,1.23-.42,1.67,0,.12.04.22.11.3.09.12.21.17.35.17.33-.02.67-.28,1.02-.79.15-.21.28-.43.37-.65.09-.22.13-.34.13-.34Z"/><path class="cls-9" d="M208.32,76.81c.62-1.46,1.2-2.73,1.76-3.82.54-1.05.91-1.72,1.11-1.99.22-.3.43-.46.63-.47.11,0,.21.03.3.12.09.08.13.18.14.28,0,.16-.1.43-.31.8-.92,1.64-1.75,3.31-2.5,4.99-.87,1.96-1.28,3.42-1.23,4.38.02.39.11.69.27.91.03.05.16.15.38.31.04.03.07.1.07.2,0,.14-.04.26-.14.38-.1.12-.22.18-.34.19-.16,0-.34-.08-.54-.26-.29-.26-.46-.57-.54-.92-.03-.15-.06-.43-.11-.84-.66,1.32-1.31,2-1.96,2.03-.38.02-.69-.18-.93-.59-.16-.27-.25-.59-.27-.94-.05-1.06.29-2.16,1.02-3.27.72-1.1,1.53-1.67,2.41-1.71.25-.01.5.06.77.22ZM208.01,77.67c-.19-.11-.35-.17-.49-.16-.57.03-1.1.4-1.58,1.13-.63.95-.93,1.85-.89,2.7,0,.1.03.2.08.28.09.17.22.25.38.24.24-.01.52-.26.84-.74.43-.64.82-1.38,1.17-2.24.12-.29.24-.59.36-.88l.08-.2.06-.14Z"/><path class="cls-5" d="M190.87,89.71c1.57,12.25-14.13,23.27-13.67,43.88"/><path class="cls-9" d="M174.38,129.47c.14-.09.33-.05.41.1l2.43,3.89,2.5-3.85c.09-.14.28-.18.41-.09.14.09.18.28.09.42l-2.75,4.25c-.06.09-.15.14-.25.14-.1,0-.2-.05-.25-.14l-2.68-4.29c-.03-.05-.05-.11-.05-.16,0-.1.05-.2.14-.25Z"/><path class="cls-9" d="M36.88,33.47c.18-.02.34.04.48.19.09.09.15.21.17.34.03.2-.12.5-.45.89-.92,1.16-1.38,2.44-1.37,3.84,0,.26-.1.47-.27.62-.16.15-.32.23-.5.26-.4.06-.64-.17-.71-.67-.11-.8.18-1.9.89-3.3.29-.57.64-1.11,1.07-1.61.27-.33.51-.51.7-.54ZM39.91,33.05c.17-.02.33.04.48.19.09.09.15.21.17.34.03.2-.12.5-.45.89-.92,1.16-1.38,2.44-1.37,3.84,0,.26-.1.47-.27.62-.16.15-.32.23-.5.26-.4.06-.64-.17-.71-.67-.11-.8.18-1.9.89-3.3.29-.58.65-1.12,1.07-1.61.27-.33.51-.51.7-.54Z"/><path class="cls-9" d="M44.91,45.52c-.17.72-.29,1.29-.36,1.73s-.1.74-.07.9c.03.22.15.31.36.28.31-.04.68-.4,1.09-1.06.19-.32.47-.89.83-1.7.14-.32.31-.5.51-.52.23-.03.35.06.38.28.05.37-.27,1.19-.98,2.45-.73,1.32-1.48,2.03-2.25,2.13-.33.05-.62-.06-.87-.31-.18-.18-.28-.41-.32-.7-.07-.49-.01-1.18.16-2.08.18-.9.47-2.01.88-3.33,1.06-3.35,2.23-6.15,3.51-8.4,1.02-1.81,1.94-2.77,2.75-2.88.26-.04.49.03.68.21.2.18.32.4.36.66.17,1.22-.64,3.4-2.42,6.54-.8,1.4-1.79,2.82-2.98,4.27-.31.38-.74.89-1.28,1.53ZM45.55,43.31c1.6-1.8,2.94-3.98,4.04-6.55.57-1.33.83-2.2.77-2.6-.03-.19-.12-.28-.29-.25-.48.07-1.22,1.14-2.22,3.22-.83,1.71-1.6,3.77-2.31,6.18Z"/><path class="cls-9" d="M52.99,40.23c.71-.1,1.13.29,1.25,1.16.16,1.16-.17,2.7-1,4.62-.9,2.09-1.89,3.2-2.98,3.35-.5.07-.91-.11-1.21-.55-.15-.22-.25-.49-.3-.82-.15-1.11.06-2.38.65-3.79.55-1.31,1.26-2.37,2.13-3.17.51-.47,1-.74,1.46-.8ZM52.32,45.36c-.24-.14-.37-.26-.38-.36,0-.07.1-.28.34-.63.66-.99.96-1.75.88-2.29,0-.07-.04-.14-.09-.2-.09-.12-.21-.17-.35-.15-.28.04-.65.37-1.12.98-.6.79-1.03,1.58-1.29,2.38-.31.9-.43,1.63-.35,2.19.02.15.08.27.17.38.14.14.29.2.46.18.42-.06.82-.43,1.21-1.13.17-.29.3-.58.4-.88.09-.3.13-.45.12-.46Z"/><path class="cls-9" d="M59.2,39.37c.71-.1,1.13.29,1.25,1.16.16,1.16-.17,2.7-1,4.62-.9,2.09-1.89,3.2-2.98,3.35-.5.07-.91-.11-1.21-.55-.15-.22-.25-.49-.3-.82-.15-1.11.06-2.38.65-3.79.55-1.31,1.26-2.37,2.13-3.17.51-.47,1-.74,1.46-.8ZM58.52,44.5c-.24-.14-.37-.26-.38-.36,0-.07.1-.28.34-.63.66-.99.96-1.75.88-2.29,0-.07-.04-.14-.09-.2-.09-.12-.21-.17-.35-.15-.28.04-.65.37-1.12.98-.6.79-1.03,1.58-1.29,2.38-.31.9-.43,1.63-.35,2.19.02.15.08.27.17.38.14.14.29.2.46.17.42-.06.82-.43,1.21-1.13.17-.29.3-.58.4-.88.09-.3.13-.45.12-.46Z"/><path class="cls-9" d="M64.33,40.18c.33-.28.57-.47.73-.58.33-.22.67-.36,1.01-.41.38-.05.69.02.91.21.22.2.36.52.43.96.08.61-.03,1.37-.34,2.28-.47,1.44-1.13,2.61-1.96,3.52-.7.76-1.4,1.19-2.1,1.29-.38.05-.78-.04-1.2-.29-.86,2.58-1.58,5.18-2.18,7.82-.12.63-.31.96-.58,1-.13.02-.27-.05-.43-.21-.11-.11-.18-.24-.2-.38-.07-.47.3-2.08,1.09-4.82,1.22-4.23,2.45-7.78,3.68-10.64.25-.6.42-1.02.51-1.24.23-.61.48-.93.77-.97.3-.04.47.12.52.47.03.2-.04.48-.2.85-.19.47-.34.85-.46,1.13ZM62.14,46c.22.17.47.24.76.2.81-.11,1.61-.95,2.39-2.53.29-.58.51-1.17.65-1.75.11-.47.15-.82.12-1.04-.02-.16-.08-.27-.16-.34-.08-.07-.21-.09-.36-.07-.41.06-.87.41-1.38,1.06-.49.63-.93,1.47-1.31,2.54-.35.98-.59,1.62-.7,1.93Z"/><path class="cls-9" d="M70.91,38.36c.15-.02.28.02.39.12.08.09.13.18.14.27.02.16-.07.44-.27.84-.71,1.53-1.2,2.77-1.45,3.73-.28.99-.51,2-.69,3.02-.08.45-.27.7-.56.74-.17.02-.32-.03-.45-.15-.11-.1-.18-.22-.2-.35-.04-.26.12-1.17.47-2.73.27-1.23.8-2.61,1.58-4.16.25-.5.44-.85.58-1.02.13-.19.28-.29.45-.32ZM72.72,33.17c.39-.05.62.12.67.52.05.37-.08.8-.41,1.29-.31.48-.63.74-.97.79-.17.02-.31-.02-.43-.13-.12-.1-.19-.23-.21-.4-.06-.42.11-.89.51-1.43.29-.4.57-.61.84-.65Z"/><path class="cls-9" d="M73.9,41.35c.1-.12.19-.24.28-.36,1.57-2.03,2.67-3.08,3.29-3.17.34-.05.54.12.59.49.04.26-.07.59-.33.99-1.39,2.17-1.99,4-1.78,5.48.07.48.26.92.58,1.32.15.18.23.33.25.44.01.1-.02.21-.11.32-.1.14-.22.22-.38.24-.36.05-.69-.14-1-.55-.29-.39-.48-.9-.57-1.51-.16-1.18.1-2.54.79-4.09-1.08.92-1.99,2.42-2.75,4.48-.2.5-.44.77-.74.81-.15.02-.28-.01-.39-.11-.14-.1-.22-.25-.25-.44-.07-.47.3-1.78,1.09-3.92.42-1.16.77-2.01,1.03-2.54.26-.52.51-.8.75-.84.11-.02.23.02.35.11.14.1.22.24.24.39.03.19-.06.48-.26.88-.29.58-.52,1.11-.69,1.57Z"/><path class="cls-9" d="M82.73,43.55c.84-.81,1.44-1.52,1.82-2.14.56-.9.94-1.63,1.15-2.17.11-.25.24-.38.38-.4.21-.03.33.06.35.26.03.24-.08.65-.33,1.24-.8,1.81-2.13,3.49-4.02,5.02-.68,2.14-1.2,3.59-1.55,4.37-.94,2.05-1.94,3.14-3,3.29-.56.08-.99-.08-1.29-.49-.17-.23-.28-.51-.33-.83-.19-1.37.51-2.8,2.09-4.3.25-.25,1.29-1.06,3.11-2.43.27-.86.48-1.54.62-2.03-.78,1.08-1.47,1.67-2.07,1.75-.38.05-.69-.1-.96-.45-.17-.23-.27-.49-.3-.76-.09-.63.06-1.47.44-2.52.53-1.52,1.26-2.77,2.17-3.73.77-.81,1.48-1.26,2.14-1.35.34-.05.65.04.93.26.19.14.3.38.35.7.06.4-.01.92-.2,1.54.23.16.35.29.36.39,0,.06-.02.15-.09.28-.19.35-.49,1.01-.88,1.97-.35.84-.65,1.68-.89,2.53ZM80.55,46.6c-1.08.65-1.99,1.53-2.73,2.64-.35.52-.57,1.05-.67,1.58-.03.16-.04.3-.02.4.02.11.06.21.12.29.12.14.26.2.44.18.54-.07,1.09-.74,1.65-2,.49-1.09.89-2.12,1.22-3.1ZM82.22,40.55c-.14-.11-.21-.2-.22-.25-.01-.08.04-.19.15-.33.38-.48.67-.96.88-1.45.17-.39.24-.68.21-.88-.03-.24-.16-.34-.38-.31-.37.05-.86.48-1.46,1.29-.71.96-1.22,1.99-1.54,3.1-.15.55-.21.97-.17,1.25.02.16.07.27.15.34s.19.09.32.08c.3-.04.69-.41,1.15-1.12.29-.45.54-.88.73-1.3.13-.28.19-.42.18-.42Z"/><path class="cls-9" d="M97.37,40.47c-.22.54-.44,1.01-.67,1.4-.45.76-.95,1.17-1.49,1.25-.47.06-.87-.11-1.19-.51-.21-.26-.33-.59-.39-.98-.13-.97.02-2.07.47-3.33.5-1.39,1.18-2.5,2.04-3.33.56-.54,1.14-.85,1.72-.93.37-.05.69.02.96.21.24.17.37.38.41.64.03.19-.01.47-.11.83.16.16.24.32.26.46.03.18-.05.5-.24.95-.19.46-.37,1.06-.52,1.8-.17.79-.22,1.41-.16,1.86.05.37.2.65.45.86.07.05.26.13.58.23.23.07.37.24.4.5.02.17-.02.31-.13.43-.11.13-.26.21-.43.23-.47.07-.9-.09-1.3-.46-.33-.3-.52-.71-.6-1.22-.02-.17-.05-.46-.07-.87ZM98.41,35.95c-.13-.18-.26-.3-.4-.38-.13-.07-.27-.1-.41-.08-.66.09-1.3.77-1.91,2.04-.68,1.4-.95,2.54-.83,3.43.03.22.09.38.19.48.1.1.23.14.4.12.42-.06.84-.57,1.28-1.53.25-.53.53-1.3.86-2.32.22-.66.38-1.1.5-1.32.05-.11.16-.26.33-.43Z"/><path class="cls-9" d="M104.36,33.45c.69-.1,1.08.22,1.18.94.09.64-.07,1.31-.48,2.02-.32.54-.62.83-.91.87-.24.03-.38-.09-.42-.37-.02-.15,0-.27.06-.37.02-.04.11-.15.27-.34.14-.17.27-.41.39-.73.08-.22.12-.38.1-.51-.02-.14-.11-.2-.26-.18-.18.03-.44.21-.78.55-.53.54-1.02,1.35-1.48,2.41-.47,1.11-.66,1.96-.58,2.56.03.19.11.35.24.49.2.2.43.29.71.25.55-.08,1.15-.51,1.8-1.29.55-.67,1.01-1.33,1.36-1.97.18-.35.36-.54.52-.56.1-.01.19.02.28.09.08.08.13.16.14.25.04.32-.28,1.01-.98,2.05-1.11,1.64-2.2,2.54-3.27,2.69-.64.09-1.17-.07-1.57-.49-.29-.31-.47-.69-.53-1.15-.13-.91.1-2.01.69-3.3.57-1.24,1.27-2.27,2.13-3.1.5-.48.96-.75,1.38-.8Z"/><path class="cls-9" d="M111.68,32.11c-.44.96-.83,2.01-1.16,3.17-.47,1.65-.66,2.85-.55,3.62.03.22.1.38.21.48.11.1.25.14.43.11.44-.06.91-.54,1.41-1.45.32-.56.6-1.11.83-1.66.13-.31.28-.48.48-.5.11-.02.21.01.3.08.08.07.13.14.14.22.04.32-.28,1.1-.97,2.33-.82,1.48-1.65,2.28-2.49,2.39-.44.06-.84-.09-1.19-.46-.22-.24-.36-.59-.43-1.07-.15-1.05-.01-2.32.4-3.81.1-.37.39-1.27.88-2.69-.23.09-.4.15-.52.17-.18.03-.35,0-.5-.06-.21-.1-.33-.23-.35-.42-.03-.22.07-.41.31-.57.07-.04.38-.15.94-.3.2-.06.5-.19.88-.38.23-.59.62-1.4,1.18-2.44.31-.58.53-.95.66-1.13.18-.25.35-.38.5-.4.11-.02.24.03.36.14.12.1.19.2.2.32.03.23-.15.71-.54,1.45-.26.48-.45.87-.57,1.16.93-.4,1.6-.62,2.02-.68.48-.07.75.1.8.5.03.2-.03.36-.19.48-.08.06-.3.14-.66.23-.15.01-.78.27-1.9.77-.31.14-.61.28-.91.43Z"/><path class="cls-9" d="M116.93,31.98c.15-.02.28.02.39.12.08.09.13.18.14.27.02.16-.07.44-.27.84-.71,1.53-1.2,2.77-1.45,3.73-.28.99-.51,2-.69,3.02-.08.45-.27.7-.56.74-.17.02-.32-.03-.45-.15-.11-.1-.18-.22-.19-.35-.04-.26.12-1.17.47-2.73.27-1.23.8-2.61,1.58-4.16.25-.5.44-.85.58-1.02.13-.19.28-.29.45-.32ZM118.74,26.8c.39-.05.62.12.67.52.05.37-.08.8-.41,1.29-.31.48-.63.74-.97.79-.17.02-.31-.02-.43-.13-.12-.1-.19-.23-.21-.4-.06-.42.11-.89.51-1.43.29-.4.57-.61.84-.65Z"/><path class="cls-9" d="M122.45,35.56c-.4.99-.77,1.73-1.09,2.23-.78,1.23-1.48,1.88-2.1,1.97-.37.05-.69-.11-.95-.49-.18-.25-.29-.52-.33-.82-.08-.57.05-1.44.4-2.6.31-1.01.58-1.81.81-2.4.17-.42.27-.7.3-.83.07-.25.14-.44.2-.57.09-.2.23-.31.43-.34.1-.01.2.02.29.09.1.09.16.21.18.35.05.39-.18,1.32-.69,2.77-.52,1.44-.75,2.38-.69,2.81.04.28.17.4.38.37.37-.05.84-.61,1.39-1.68.24-.48.49-1.07.72-1.79-.04-.22-.07-.38-.08-.49-.09-.65-.05-1.24.13-1.75.23-.66.61-1.03,1.14-1.1.3-.04.48.12.53.49.08.58-.1,1.48-.56,2.7.18.01.32,0,.42,0,.29-.04.64-.27,1.05-.7.32-.35.54-.53.66-.54.1-.01.2.03.32.13.09.09.14.18.16.27.04.31-.12.7-.51,1.15-.44.51-.99.82-1.63.9-.25.04-.55,0-.91-.1Z"/><path class="cls-9" d="M129.07,36.08c-.22.54-.44,1.01-.67,1.4-.46.76-.95,1.17-1.49,1.24-.47.07-.87-.11-1.19-.51-.21-.26-.33-.59-.39-.98-.13-.97.02-2.07.47-3.33.5-1.39,1.18-2.5,2.04-3.33.56-.54,1.14-.85,1.72-.93.37-.05.69.02.96.21.24.17.37.38.41.64.03.19-.01.47-.11.83.16.16.24.32.26.46.03.18-.05.5-.24.95-.19.46-.37,1.06-.52,1.8-.17.79-.22,1.41-.16,1.86.05.37.2.65.45.86.07.05.26.13.58.23.23.07.37.24.4.5.02.17-.02.31-.13.43-.12.13-.26.21-.43.23-.47.06-.9-.09-1.3-.46-.33-.3-.52-.71-.6-1.22-.02-.17-.05-.46-.07-.87ZM130.1,31.56c-.13-.18-.26-.3-.4-.38-.13-.07-.27-.1-.41-.08-.66.09-1.3.77-1.91,2.04-.68,1.4-.95,2.54-.83,3.43.03.22.09.38.19.48.1.1.23.14.4.12.42-.06.84-.57,1.28-1.53.25-.53.53-1.3.86-2.32.22-.66.38-1.1.5-1.32.06-.11.16-.26.33-.43Z"/><path class="cls-9" d="M136.06,28.74c-.44.96-.83,2.01-1.16,3.17-.47,1.65-.66,2.85-.55,3.62.03.22.1.38.21.48.11.1.25.14.44.11.43-.06.91-.54,1.41-1.45.32-.56.6-1.11.83-1.66.13-.31.28-.48.48-.5.11-.02.21.01.3.08.08.07.13.14.14.22.04.32-.28,1.1-.97,2.33-.82,1.48-1.65,2.28-2.49,2.39-.44.06-.84-.09-1.19-.46-.22-.24-.36-.59-.43-1.07-.15-1.05-.01-2.32.4-3.81.1-.37.39-1.27.88-2.69-.23.09-.4.15-.52.17-.18.03-.35,0-.5-.06-.21-.1-.33-.23-.35-.42-.03-.22.07-.41.31-.57.07-.04.38-.15.94-.3.2-.06.5-.19.88-.38.23-.59.62-1.4,1.18-2.44.31-.58.53-.95.66-1.13.18-.25.35-.38.5-.4.11-.02.24.03.37.14.12.1.19.2.2.32.03.23-.15.71-.54,1.45-.26.48-.45.87-.57,1.16.93-.4,1.6-.62,2.02-.68.48-.07.75.1.8.5.03.2-.03.36-.19.48-.08.06-.3.14-.66.23-.15.01-.78.27-1.9.77-.31.14-.61.28-.91.43Z"/><path class="cls-9" d="M141.31,28.61c.15-.02.28.02.39.12.08.09.13.18.14.27.02.16-.07.44-.27.84-.71,1.53-1.2,2.77-1.45,3.73-.28.99-.51,2-.69,3.02-.08.45-.27.7-.56.74-.17.02-.32-.03-.45-.15-.11-.1-.18-.22-.2-.35-.04-.26.12-1.17.47-2.73.27-1.23.8-2.61,1.58-4.16.25-.5.44-.85.58-1.02.13-.19.28-.29.45-.32ZM143.13,23.42c.39-.05.62.12.67.52.05.37-.08.8-.41,1.29-.31.48-.63.74-.97.79-.16.02-.31-.02-.43-.13-.12-.1-.19-.23-.21-.4-.06-.42.11-.89.51-1.43.29-.4.57-.61.84-.65Z"/><path class="cls-9" d="M146.38,27.29c.71-.1,1.13.29,1.25,1.16.16,1.16-.17,2.7-1,4.62-.9,2.09-1.89,3.2-2.98,3.35-.5.07-.91-.11-1.21-.55-.16-.22-.25-.49-.3-.82-.16-1.11.06-2.38.65-3.79.55-1.31,1.26-2.37,2.13-3.17.51-.47,1-.74,1.46-.8ZM145.7,32.42c-.24-.14-.37-.26-.38-.36,0-.07.1-.28.34-.63.66-.99.96-1.75.88-2.29,0-.07-.04-.14-.09-.2-.09-.12-.21-.17-.35-.15-.28.04-.65.37-1.12.98-.6.79-1.03,1.58-1.29,2.38-.31.9-.42,1.63-.35,2.19.02.15.08.27.17.38.13.14.29.2.46.18.42-.06.82-.43,1.21-1.13.17-.29.3-.58.4-.88.09-.3.13-.45.12-.46Z"/><path class="cls-9" d="M150.5,30.74c.1-.12.19-.24.28-.36,1.57-2.03,2.67-3.08,3.29-3.17.34-.05.54.12.59.49.04.26-.07.59-.33.99-1.39,2.17-1.99,4-1.78,5.48.07.48.26.92.58,1.32.15.18.23.33.25.44.01.1-.02.21-.12.32-.1.14-.22.22-.38.24-.36.05-.69-.14-1-.55-.29-.39-.48-.9-.57-1.51-.16-1.18.1-2.54.79-4.09-1.08.92-1.99,2.41-2.75,4.48-.2.5-.44.77-.74.81-.15.02-.28-.02-.39-.11-.14-.1-.22-.25-.25-.44-.07-.47.3-1.78,1.09-3.92.42-1.16.77-2.01,1.03-2.54.26-.52.51-.8.75-.84.11-.02.23.02.35.11.14.11.22.24.24.39.03.19-.06.48-.26.88-.29.58-.52,1.11-.69,1.57Z"/><path class="cls-9" d="M161.13,16.25c.41-.06.65.17.72.69.11.79-.19,1.89-.89,3.29-.28.57-.64,1.11-1.07,1.61-.27.33-.51.51-.7.54-.18.03-.34-.04-.48-.19-.09-.09-.15-.21-.17-.35-.03-.19.12-.48.45-.87.92-1.17,1.38-2.44,1.37-3.84,0-.26.1-.47.27-.64.16-.14.32-.22.49-.24ZM164.15,15.83c.41-.06.65.17.72.69.11.79-.19,1.89-.89,3.29-.29.57-.64,1.11-1.07,1.61-.27.33-.51.51-.7.54-.18.03-.34-.04-.48-.19-.09-.09-.15-.21-.17-.35-.03-.19.12-.48.45-.88.93-1.17,1.39-2.45,1.37-3.84,0-.26.1-.47.27-.64.16-.14.32-.22.49-.24Z"/><rect class="cls-8" x="46.36" y="123.13" width="114.72" height="23.31" rx="3" ry="3"/><path class="cls-9" d="M161.58,143.94c0,1.65-1.35,3-3,3H48.86c-1.65,0-3-1.35-3-3v-18.31c0-1.65,1.35-3,3-3h109.72c1.65,0,3,1.35,3,3v18.31ZM46.86,142.94c0,1.65,1.35,3,3,3h107.72c1.65,0,3-1.35,3-3v-16.31c0-1.65-1.35-3-3-3H49.86c-1.65,0-3,1.35-3,3v16.31Z"/><rect class="cls-9" x="73.79" y="133.9" width="87.29" height="1"/><polygon class="cls-9" points="75.78 132.7 74.08 134.4 75.78 136.09 74.34 136.09 72.64 134.4 74.34 132.7 75.78 132.7"/><path class="cls-9" d="M55.42,137.55v-.95l2.62-5.66h1.13l-2.56,5.59h3.83v1.02h-5.02ZM58.79,138.75v-4.6h1.07v4.6h-1.07Z"/><path class="cls-9" d="M61.67,138.74v-.95l2.72-3.63c.16-.21.28-.42.37-.64s.13-.43.13-.63h0c0-.32-.09-.56-.27-.74-.18-.17-.44-.26-.78-.26-.32,0-.57.09-.77.28-.2.19-.32.45-.36.8h0s-1.13,0-1.13,0h0c.1-.68.34-1.2.74-1.57.39-.37.9-.56,1.52-.56.7,0,1.24.18,1.63.53.38.35.57.86.57,1.5h0c0,.28-.06.57-.17.87-.11.3-.27.59-.48.87l-2.26,3.07h2.95v1.04h-4.4Z"/></svg>